<svg width="26" height="26" viewBox="0 0 26 26" fill="none" xmlns="http://www.w3.org/2000/svg">
<path d="M24.4697 25.5303C24.7626 25.8232 25.2374 25.8232 25.5303 25.5303C25.8232 25.2374 25.8232 24.7626 25.5303 24.4697L24.4697 25.5303ZM17.5303 16.4697C17.2374 16.1768 16.7626 16.1768 16.4697 16.4697C16.1768 16.7626 16.1768 17.2374 16.4697 17.5303L17.5303 16.4697ZM25.5303 24.4697L17.5303 16.4697L16.4697 17.5303L24.4697 25.5303L25.5303 24.4697ZM18.9167 10.3333C18.9167 15.0738 15.0738 18.9167 10.3333 18.9167V20.4167C15.9022 20.4167 20.4167 15.9022 20.4167 10.3333H18.9167ZM10.3333 18.9167C5.59289 18.9167 1.75 15.0738 1.75 10.3333H0.25C0.25 15.9022 4.76447 20.4167 10.3333 20.4167V18.9167ZM1.75 10.3333C1.75 5.59289 5.59289 1.75 10.3333 1.75V0.25C4.76447 0.25 0.25 4.76447 0.25 10.3333H1.75ZM10.3333 1.75C15.0738 1.75 18.9167 5.59289 18.9167 10.3333H20.4167C20.4167 4.76447 15.9022 0.25 10.3333 0.25V1.75Z" fill="#495464"/>
</svg>
