<svg width="727" height="161" viewBox="0 0 727 161" fill="none" xmlns="http://www.w3.org/2000/svg">
<path d="M98.5218 161C92.9027 161 88.2083 157.287 87.0702 151.892L67.5811 60.2524C65.4473 59.9021 63.3846 59.4817 61.2507 58.8512C56.8408 57.6601 52.2886 55.9787 47.7364 53.7367C40.3391 50.1636 32.6573 45.2594 24.8332 39.1641C12.7414 29.6358 4.34828 20.2476 2.78346 18.426C0.720751 16.044 -0.203914 13.1715 0.0805979 10.2289C0.36511 7.28634 1.71654 4.55396 3.99264 2.66231C6.05536 0.910792 8.61597 0 11.3188 0C14.5907 0 17.7204 1.40122 19.8542 3.78329L20.4944 4.4839C20.85 4.90426 21.419 5.53481 22.2014 6.30548C23.624 7.77676 25.829 10.0888 28.6741 12.8211C33.653 17.5853 41.4771 24.3111 50.3681 29.7058C56.2718 33.349 62.1043 35.9413 67.2255 37.3425C70.3551 38.1832 73.2714 38.6036 76.0454 38.6036C76.8278 38.6036 77.6102 38.5335 78.3926 38.4634L83.3004 37.973C87.7104 37.5527 91.5513 37.2023 95.1077 36.9221C100.656 36.5017 104.852 36.2916 108.764 36.2916C115.45 36.2916 121.71 36.9221 128.68 38.2533C135.224 39.5144 142.906 41.4761 154.357 44.839C157.345 45.6797 160.688 46.1701 164.386 46.1701C170.717 46.1701 178.256 44.839 186.294 42.3168C193.193 40.1449 200.591 37.1323 208.344 33.2789C222.071 26.483 232.029 19.4769 232.171 19.4069C234.092 18.0057 236.368 17.305 238.786 17.305C242.414 17.305 245.828 19.0566 247.962 21.9291C251.589 26.9034 250.451 33.9095 245.33 37.4826C244.263 38.2533 238.431 42.2467 229.682 47.2211C217.092 54.3673 204.929 59.762 193.62 63.4051C182.951 66.7681 173.491 68.3795 164.6 68.4495L108.338 155.605C106.133 158.968 102.505 161 98.5218 161ZM103.714 121.346L140.63 64.1758C133.801 62.2842 128.68 61.0231 124.341 60.1823C118.58 59.0614 114.099 58.641 108.764 58.641V55.1379V58.641C105.564 58.641 101.936 58.8512 97.0281 59.2015C95.0366 59.3416 92.9027 59.5518 90.6266 59.762L103.714 121.346Z" fill="#2F6F68"/>
<path d="M530.401 85.7546C529.69 70.0609 519.305 57.5901 503.23 53.3864C498.18 52.0553 493.13 51.3547 488.293 51.3547C480.256 51.3547 472.503 53.1762 465.248 56.8194C452.872 62.9147 443.34 71.1819 437.01 81.3407C430.68 91.3594 427.408 103.41 427.194 117.002C426.839 137.109 438.788 152.733 458.277 157.917C462.687 159.108 467.239 159.669 471.863 159.669C475.917 159.669 480.114 159.178 484.31 158.268C501.95 154.414 515.393 144.185 524.284 127.791L525.067 126.32L523.502 125.759C522.008 125.269 520.514 124.779 519.021 124.288C515.607 123.237 512.406 122.186 509.276 120.925C508.209 120.505 507.142 120.295 506.004 120.295C504.368 120.295 502.803 120.925 501.737 122.116C501.168 122.747 500.741 123.377 500.527 123.728C495.264 131.785 485.875 136.759 475.988 136.759C471.863 136.759 467.808 135.848 464.252 134.097C457.779 130.874 453.298 123.798 453.298 116.932V113.429H486.729C491.707 113.429 497.54 113.429 503.728 113.429H514.184C517.171 113.429 520.23 113.429 523.288 113.429H523.359C525.493 113.429 528.41 113.008 528.765 109.085C528.979 106.633 529.263 104.111 529.548 101.728C530.046 96.4739 530.615 91.0792 530.401 85.7546ZM457.139 93.181L460.198 87.9265C465.39 79.0988 474.992 73.7041 485.235 73.7041C488.009 73.7041 490.783 74.1245 493.343 74.9652C500.101 77.1371 504.653 83.0222 504.795 89.678L504.866 93.2511H457.139V93.181Z" fill="#2F6F68"/>
<path d="M266.659 159.669C262.035 159.669 257.27 159.038 252.575 157.917C233.158 153.013 220.995 137.109 220.781 116.301C220.568 89.3277 238.279 64.1758 263.956 55.1379C270.998 52.6858 277.968 51.4247 284.796 51.4247C289.42 51.4247 294.114 51.9852 298.666 53.1762C319.934 58.5709 331.385 76.2963 330.176 101.799V101.869C327.26 127.791 311.398 147.128 285.579 156.376C279.462 158.548 273.06 159.669 266.659 159.669ZM280.742 75.3855C273.914 75.3855 267.655 77.6275 262.035 82.1114C252.291 89.8882 247.525 100.748 247.881 114.339C248.166 125.129 253.785 132.485 263.6 135.007C265.734 135.568 267.868 135.848 270.073 135.848C273.629 135.848 277.328 135.077 281.098 133.606C294.47 128.352 303.219 114.48 303.29 98.2955C303.361 86.0348 297.244 77.8377 286.504 75.946C284.583 75.5257 282.592 75.3855 280.742 75.3855Z" fill="#2F6F68"/>
<path d="M527.913 156.656L546.264 54.2972H572.225L570.661 63.3351L577.56 58.5709C584.531 53.8068 592.426 51.3547 600.961 51.3547C603.878 51.3547 606.865 51.6349 609.923 52.1954C624.149 54.7876 633.182 66.0675 632.827 81.0605C632.684 88.1366 631.404 95.2128 630.195 102.079C629.91 103.55 629.697 105.021 629.413 106.423C627.492 117.913 625.358 129.543 623.296 140.822L623.082 141.943C622.371 146.077 621.588 150.141 620.877 154.274C620.806 154.624 620.735 154.905 620.593 155.185C620.522 155.325 620.522 155.465 620.45 155.535L620.095 156.516H593.777L596.551 141.103C598.401 130.594 600.321 120.154 602.17 109.715L602.526 107.544C603.308 103.2 604.091 98.7158 604.802 94.2319C605.727 87.9965 604.731 82.9521 601.886 79.6593C599.325 76.7167 595.271 75.1754 590.15 75.1754C588.158 75.1754 586.024 75.3856 583.748 75.876C573.221 78.188 567.104 85.5444 564.686 99.1362C562.339 112.168 559.92 125.549 557.644 138.37C556.933 142.434 555.297 151.682 554.443 156.376H527.913V156.656Z" fill="#2F6F68"/>
<path d="M341.771 156.866C338.783 156.796 335.654 156.796 331.599 156.796C329.466 156.796 327.332 156.796 325.127 156.796C322.851 156.796 320.503 156.796 318.156 156.796H315.098L317.018 154.484C317.374 154.064 317.729 153.644 318.014 153.223L318.085 153.153C318.725 152.382 319.223 151.752 319.792 151.121C322.708 147.899 325.696 144.606 328.612 141.383L329.252 140.682C339.068 129.823 349.239 118.613 359.482 107.614C360.122 106.983 360.548 106.423 360.833 105.862L361.544 104.601L361.189 103.27C361.046 102.709 360.762 102.009 360.264 101.238C354.431 91.0091 348.67 80.5701 343.122 70.4813C341.202 66.9082 339.21 63.4051 337.29 59.832C336.934 59.1314 336.578 58.4308 336.152 57.6601C335.938 57.2398 335.725 56.8895 335.511 56.399L334.445 54.3673H365.741L381.816 85.1941L388.146 77.9778C394.192 71.0418 400.38 63.9656 406.426 56.8194C408.062 54.8577 409.911 54.017 412.472 54.017H412.685C415.673 54.087 418.802 54.087 422.999 54.087C424.848 54.087 426.769 54.087 428.689 54.087H429.472C431.748 54.087 434.095 54.087 436.442 54.087H439.501L437.509 56.399C437.082 56.8895 436.727 57.3799 436.371 57.7302L436.3 57.8003C435.589 58.641 435.02 59.3416 434.379 59.9721L425.773 69.3603C415.886 80.2898 405.715 91.5696 395.544 102.709C395.472 102.849 395.33 102.919 395.259 102.99L393.694 104.811L394.903 107.053C401.092 118.123 407.209 129.403 413.112 140.332C415.033 143.905 417.024 147.478 418.945 151.051C419.3 151.682 419.656 152.382 420.083 153.223L420.865 154.765L421.932 156.796H419.656C417.522 156.796 415.459 156.796 413.397 156.796C411.334 156.796 409.342 156.796 407.422 156.796C403.368 156.796 398.531 156.796 393.552 156.656C391.703 156.586 390.067 154.695 389.427 153.574C385.941 147.058 382.385 140.332 379.042 133.886L373.921 124.148L370.506 128.141C368.515 130.453 366.523 132.695 364.532 135.007C359.197 141.173 353.72 147.478 348.314 153.784C347.034 155.255 345.256 156.796 342.055 156.866H341.771Z" fill="#2F6F68"/>
<path d="M674.792 159.529C673.228 159.529 671.663 159.459 670.098 159.319C662.203 158.688 656.086 156.866 650.893 153.644C642.571 148.459 637.948 140.893 637.023 131.014C636.81 128.492 637.948 126.95 640.366 126.32C644.847 125.199 649.257 124.078 653.952 122.887L661.065 121.065L661.207 122.677C662.203 132.065 669.102 138.651 677.922 138.651C681.549 138.651 685.177 137.53 688.449 135.358C689.658 134.587 690.867 133.466 691.721 132.345C693.855 129.683 694.566 126.81 693.855 124.358C693.072 121.906 690.938 120.014 687.809 119.034C684.821 118.053 681.834 117.422 678.633 116.722C676.855 116.301 675.006 115.951 673.156 115.46L671.947 115.18C669.244 114.48 666.47 113.779 663.839 112.728C649.4 106.983 643.638 94.5122 648.759 80.2898C654.236 65.0866 666.186 55.5583 684.323 52.1253C687.169 51.5648 690.014 51.2846 692.859 51.2846C698.407 51.2846 703.884 52.3355 709.218 54.4373C719.959 58.641 725.933 66.4878 726.929 77.8377C727.071 79.309 725.862 81.621 724.369 82.1114C719.674 83.5126 715.051 84.7037 710.214 86.0348C708.72 86.4552 707.227 86.8055 705.733 87.2258L704.382 87.5762L703.955 86.3151C703.813 85.9647 703.741 85.6144 703.599 85.2641C703.386 84.5635 703.172 83.933 703.03 83.3024C701.536 76.4365 697.624 73.2137 689.8 72.7232C689.374 72.7232 688.947 72.6532 688.52 72.6532C681.478 72.6532 675.29 76.3664 673.441 81.7611C672.445 84.5635 673.085 86.5953 673.725 87.7863C674.792 89.748 676.926 91.1493 679.914 91.8499C682.759 92.5505 685.675 93.111 688.52 93.6715C690.298 94.0218 692.076 94.3721 693.784 94.7224C695.562 95.0727 697.482 95.5631 699.403 96.1236C709.076 99.1362 716.118 104.881 719.105 112.448C722.092 120.014 721.026 128.912 715.975 137.6C708.009 151.332 692.645 159.529 674.792 159.529Z" fill="#2F6F68"/>
</svg>
