<svg width="96" height="76" viewBox="0 0 96 76" fill="none" xmlns="http://www.w3.org/2000/svg">
<path fill-rule="evenodd" clip-rule="evenodd" d="M1.5 17.333L42.2681 44.5117C45.7391 46.8259 50.2609 46.8259 53.7319 44.5117L94.5 17.333M11.8333 74.1664H84.1667C89.8738 74.1664 94.5 69.5401 94.5 63.833V12.1663C94.5 6.4594 89.8738 1.83301 84.1667 1.83301H11.8333C6.12639 1.83301 1.5 6.4594 1.5 12.1663V63.833C1.5 69.5401 6.12639 74.1664 11.8333 74.1664Z" fill="#2F6F68"/>
<path d="M2.33205 16.0849C1.64276 15.6254 0.711453 15.8117 0.251925 16.501C-0.207604 17.1903 -0.0213434 18.1216 0.66795 18.5811L2.33205 16.0849ZM42.2681 44.5117L43.1002 43.2637L43.1002 43.2637L42.2681 44.5117ZM53.7319 44.5117L52.8998 43.2637L52.8998 43.2637L53.7319 44.5117ZM95.332 18.5811C96.0213 18.1216 96.2076 17.1903 95.7481 16.501C95.2885 15.8117 94.3572 15.6254 93.6679 16.0849L95.332 18.5811ZM0.66795 18.5811L41.4361 45.7598L43.1002 43.2637L2.33205 16.0849L0.66795 18.5811ZM41.436 45.7598C45.4108 48.4099 50.5892 48.4099 54.564 45.7598L52.8998 43.2637C49.9327 45.2419 46.0673 45.2419 43.1002 43.2637L41.436 45.7598ZM54.5639 45.7598L95.332 18.5811L93.6679 16.0849L52.8998 43.2637L54.5639 45.7598ZM11.8333 75.6664H84.1667V72.6664H11.8333V75.6664ZM84.1667 75.6664C90.7022 75.6664 96 70.3685 96 63.833H93C93 68.7117 89.0453 72.6664 84.1667 72.6664V75.6664ZM96 63.833V12.1663H93V63.833H96ZM96 12.1663C96 5.63098 90.7022 0.333008 84.1667 0.333008V3.33301C89.0453 3.33301 93 7.28781 93 12.1663H96ZM84.1667 0.333008H11.8333V3.33301H84.1667V0.333008ZM11.8333 0.333008C5.29796 0.333008 0 5.63097 0 12.1663H3C3 7.28782 6.95482 3.33301 11.8333 3.33301V0.333008ZM0 12.1663V63.833H3V12.1663H0ZM0 63.833C0 70.3686 5.29798 75.6664 11.8333 75.6664V72.6664C6.9548 72.6664 3 68.7117 3 63.833H0Z" fill="white"/>
<path d="M2.89517 9.01207C4.4684 5.07901 8.27767 2.5 12.5137 2.5H85.5C90.3704 3.35949 93.8583 7.68294 93.6683 12.625L93.5 17L53.568 43.7676C50.1994 46.0257 45.8006 46.0257 42.432 43.7676L2.5 17V11.064C2.5 10.3611 2.63412 9.66469 2.89517 9.01207Z" fill="#F4FF00"/>
</svg>
