<svg width="19" height="15" viewBox="0 0 19 15" fill="none" xmlns="http://www.w3.org/2000/svg">
<path d="M12.5097 1.33691H6.40173V6.40401H12.5097V1.33691ZM9.15745 3.31389H8.91946V5.67196C8.91946 5.75706 8.85018 5.82635 8.76582 5.82635H8.53536C8.45026 5.82635 8.38097 5.75706 8.38097 5.67196V3.31389H8.14298V1.91457H8.38097V2.59088H8.53085V1.91457H8.76884V2.59088H8.91871V1.91457H9.1567V3.31389H9.15745ZM10.4566 3.42009V5.67196C10.4566 5.75706 10.3873 5.82635 10.3022 5.82635H10.071C9.9859 5.82635 9.91737 5.75706 9.91737 5.67196V3.42009C9.73285 3.32067 9.60632 3.11582 9.60632 2.81381C9.60632 2.37925 9.86691 1.91457 10.187 1.91457C10.5078 1.91457 10.7677 2.37925 10.7677 2.81381C10.7669 3.11507 10.6404 3.32067 10.4566 3.42009Z" fill="white"/>
<path d="M3.47054 3.26409C4.3719 3.26409 5.10259 2.5334 5.10259 1.63204C5.10259 0.730691 4.3719 0 3.47054 0C2.56919 0 1.8385 0.730691 1.8385 1.63204C1.8385 2.5334 2.56919 3.26409 3.47054 3.26409Z" fill="white"/>
<path d="M7.85131 7.66237L5.90973 6.82413L4.68137 5.43159L4.7243 5.18607C4.8335 4.56322 4.41627 3.97051 3.79342 3.86205L2.89041 3.70465C2.26757 3.5962 1.67485 4.01343 1.5664 4.63628L0.905903 8.42756C0.851677 8.74011 0.930003 9.04588 1.10096 9.28689L1.33218 11.4326L0.0857386 13.8132C-0.106311 14.1785 0.0352786 14.6311 0.400549 14.8224C0.51126 14.8804 0.630255 14.9075 0.747745 14.9075C1.01661 14.9075 1.2772 14.7622 1.4105 14.5069L2.76238 11.9251C2.83092 11.7941 2.85954 11.645 2.84372 11.4988L2.67125 9.89768L2.74054 9.90973C2.74205 9.90973 2.74355 9.90973 2.74506 9.90973L3.26698 11.7639V14.1604C3.26698 14.5739 3.60062 14.9083 4.01409 14.9083C4.42756 14.9083 4.76195 14.5739 4.76195 14.1604V11.6615C4.76195 11.593 4.75216 11.5245 4.73409 11.4589L4.05627 9.04965L4.43585 6.84824L5.15283 7.66087C5.20706 7.72338 5.27484 7.77233 5.35091 7.80472L7.40772 8.69266C7.48002 8.7243 7.55458 8.73936 7.62989 8.73936C7.84604 8.73936 8.05391 8.61283 8.14504 8.4012C8.26629 8.11576 8.13525 7.78514 7.85131 7.66237Z" fill="white"/>
<path d="M15.4401 3.26409C16.3415 3.26409 17.0722 2.5334 17.0722 1.63204C17.0722 0.730691 16.3415 0 15.4401 0C14.5388 0 13.8081 0.730691 13.8081 1.63204C13.8081 2.5334 14.5388 3.26409 15.4401 3.26409Z" fill="white"/>
<path d="M18.8248 13.8132L17.5784 11.4326L17.8096 9.28689C17.9806 9.04664 18.0589 8.74011 18.0039 8.42756L17.3434 4.63628C17.2357 4.01343 16.643 3.5962 16.0194 3.70465L15.1164 3.86205C14.4943 3.97051 14.0771 4.56322 14.1855 5.18607L14.2285 5.43159L13.0001 6.82413L11.0585 7.66237C10.7746 7.78514 10.6435 8.11576 10.7663 8.39969C10.8582 8.61132 11.0645 8.73785 11.2822 8.73785C11.356 8.73785 11.4313 8.72279 11.5036 8.69116L13.5604 7.80321C13.6357 7.77083 13.7028 7.72187 13.7585 7.65936L14.4755 6.84673L14.8551 9.04814L14.1772 11.4574C14.1592 11.5229 14.1494 11.5915 14.1494 11.66V14.1589C14.1494 14.5724 14.4838 14.9068 14.8972 14.9068C15.31 14.9068 15.6451 14.5724 15.6451 14.1589V11.7624L16.1655 9.90822C16.167 9.90822 16.1685 9.90822 16.17 9.90822L16.2401 9.89617L16.0676 11.4973C16.0518 11.6434 16.0804 11.7933 16.1489 11.9236L17.5008 14.5054C17.6341 14.7607 17.894 14.906 18.1636 14.906C18.2803 14.906 18.3993 14.8789 18.51 14.8209C18.876 14.6311 19.0169 14.1793 18.8248 13.8132Z" fill="white"/>
</svg>
