<svg width="16" height="16" viewBox="0 0 16 16" fill="none" xmlns="http://www.w3.org/2000/svg">
<path d="M0.896447 7.64645C0.701184 7.84171 0.701184 8.15829 0.896447 8.35355C1.09171 8.54882 1.40829 8.54882 1.60355 8.35355L0.896447 7.64645ZM3.10355 6.85355C3.29882 6.65829 3.29882 6.34171 3.10355 6.14645C2.90829 5.95118 2.59171 5.95118 2.39645 6.14645L3.10355 6.85355ZM2.39645 6.14645C2.20118 6.34171 2.20118 6.65829 2.39645 6.85355C2.59171 7.04882 2.90829 7.04882 3.10355 6.85355L2.39645 6.14645ZM8 1.25L8.35355 0.896447C8.15829 0.701184 7.84171 0.701184 7.64645 0.896447L8 1.25ZM12.8964 6.85355C13.0917 7.04882 13.4083 7.04882 13.6036 6.85355C13.7988 6.65829 13.7988 6.34171 13.6036 6.14645L12.8964 6.85355ZM3.25 6.5C3.25 6.22386 3.02614 6 2.75 6C2.47386 6 2.25 6.22386 2.25 6.5H3.25ZM5.75 15.25C6.02614 15.25 6.25 15.0261 6.25 14.75C6.25 14.4739 6.02614 14.25 5.75 14.25V15.25ZM13.6036 6.14645C13.4083 5.95118 13.0917 5.95118 12.8964 6.14645C12.7012 6.34171 12.7012 6.65829 12.8964 6.85355L13.6036 6.14645ZM14.3964 8.35355C14.5917 8.54882 14.9083 8.54882 15.1036 8.35355C15.2988 8.15829 15.2988 7.84171 15.1036 7.64645L14.3964 8.35355ZM13.75 6.5C13.75 6.22386 13.5261 6 13.25 6C12.9739 6 12.75 6.22386 12.75 6.5H13.75ZM10.25 14.25C9.97386 14.25 9.75 14.4739 9.75 14.75C9.75 15.0261 9.97386 15.25 10.25 15.25V14.25ZM5.75 14.25C5.47386 14.25 5.25 14.4739 5.25 14.75C5.25 15.0261 5.47386 15.25 5.75 15.25V14.25ZM10.25 15.25C10.5261 15.25 10.75 15.0261 10.75 14.75C10.75 14.4739 10.5261 14.25 10.25 14.25V15.25ZM5.75 14.25C5.47386 14.25 5.25 14.4739 5.25 14.75C5.25 15.0261 5.47386 15.25 5.75 15.25V14.25ZM10.25 15.25C10.5261 15.25 10.75 15.0261 10.75 14.75C10.75 14.4739 10.5261 14.25 10.25 14.25V15.25ZM1.60355 8.35355L3.10355 6.85355L2.39645 6.14645L0.896447 7.64645L1.60355 8.35355ZM3.10355 6.85355L8.35355 1.60355L7.64645 0.896447L2.39645 6.14645L3.10355 6.85355ZM7.64645 1.60355L12.8964 6.85355L13.6036 6.14645L8.35355 0.896447L7.64645 1.60355ZM2.25 6.5V14H3.25V6.5H2.25ZM2.25 14C2.25 14.6904 2.80965 15.25 3.5 15.25V14.25C3.36193 14.25 3.25 14.1381 3.25 14H2.25ZM3.5 15.25H5.75V14.25H3.5V15.25ZM12.8964 6.85355L14.3964 8.35355L15.1036 7.64645L13.6036 6.14645L12.8964 6.85355ZM12.75 6.5V14H13.75V6.5H12.75ZM12.75 14C12.75 14.1381 12.6381 14.25 12.5 14.25V15.25C13.1904 15.25 13.75 14.6904 13.75 14H12.75ZM12.5 14.25H10.25V15.25H12.5V14.25ZM5.75 15.25C6.44035 15.25 7 14.6904 7 14H6C6 14.1381 5.88807 14.25 5.75 14.25V15.25ZM7 14V11H6V14H7ZM7 11C7 10.8619 7.11192 10.75 7.25 10.75V9.75C6.55963 9.75 6 10.3096 6 11H7ZM7.25 10.75H8.75V9.75H7.25V10.75ZM8.75 10.75C8.88808 10.75 9 10.8619 9 11H10C10 10.3096 9.44037 9.75 8.75 9.75V10.75ZM9 11V14H10V11H9ZM9 14C9 14.6904 9.55963 15.25 10.25 15.25V14.25C10.1119 14.25 10 14.1381 10 14H9ZM5.75 15.25H10.25V14.25H5.75V15.25Z" fill="#828282"/>
</svg>
