<svg width="34" height="20" viewBox="0 0 34 20" fill="none" xmlns="http://www.w3.org/2000/svg">
<path d="M1.08 11.2233H29.9322L22.4532 17.9546C22.3528 18.045 22.2732 18.1523 22.2189 18.2704C22.1646 18.3884 22.1367 18.515 22.1367 18.6428C22.1367 18.7706 22.1646 18.8972 22.2189 19.0153C22.2732 19.1334 22.3528 19.2406 22.4532 19.331C22.5535 19.4214 22.6727 19.4931 22.8038 19.542C22.9349 19.5909 23.0754 19.6161 23.2173 19.6161C23.3592 19.6161 23.4997 19.5909 23.6308 19.542C23.7619 19.4931 23.881 19.4214 23.9814 19.331L33.2586 10.9753L33.3018 10.9412C33.4028 10.8507 33.483 10.7431 33.5377 10.6246C33.5924 10.5061 33.6205 10.379 33.6204 10.2506C33.6276 10.1859 33.6276 10.1207 33.6204 10.056C33.5774 9.87194 33.4761 9.703 33.3288 9.56968L33.2856 9.53564L23.9814 1.17017C23.7787 0.987642 23.5039 0.885101 23.2173 0.885101C22.9307 0.885101 22.6558 0.987642 22.4532 1.17017C22.2505 1.35269 22.1367 1.60024 22.1367 1.85837C22.1367 2.1165 22.2505 2.36405 22.4532 2.54658L29.9268 9.27787H1.08C0.793566 9.27787 0.518863 9.38035 0.316324 9.56277C0.113784 9.74519 0 9.99261 0 10.2506C0 10.5086 0.113784 10.756 0.316324 10.9384C0.518863 11.1208 0.793566 11.2233 1.08 11.2233Z" fill="#2F6F68"/>
</svg>
