<svg width="22" height="22" viewBox="0 0 22 22" fill="none" xmlns="http://www.w3.org/2000/svg">
<path d="M18.75 11C18.75 15.2802 15.2802 18.75 11 18.75V19.75C15.8325 19.75 19.75 15.8325 19.75 11H18.75ZM11 18.75C6.71979 18.75 3.25 15.2802 3.25 11H2.25C2.25 15.8325 6.16751 19.75 11 19.75V18.75ZM3.25 11C3.25 6.7198 6.7198 3.25 11 3.25V2.25C6.16751 2.25 2.25 6.16751 2.25 11H3.25ZM11 3.25C15.2802 3.25 18.75 6.71979 18.75 11H19.75C19.75 6.16751 15.8325 2.25 11 2.25V3.25Z" fill="#828282"/>
<circle cx="11" cy="7" r="1" fill="#828282"/>
<rect x="10" y="9.39795" width="2" height="7" rx="0.5" fill="#828282"/>
</svg>
