<svg width="284" height="166" viewBox="0 0 284 166" fill="none" xmlns="http://www.w3.org/2000/svg">
<path d="M282.728 164.354H0.315685C0.14732 164.354 0 164.217 0 164.039V163.944C0 163.776 0.136797 163.629 0.315685 163.629H282.728C282.896 163.629 283.043 163.766 283.043 163.944V164.039C283.043 164.217 282.907 164.354 282.728 164.354Z" fill="#2E3552"/>
<path d="M28.6306 163.326C28.6306 163.326 0.18739 138.528 5.71188 97.7053C11.4363 55.4341 41.5316 32.9448 80.8029 41.4767C112.898 48.4554 133.575 43.9743 166.764 24.0351C221.188 -8.67578 291.344 26.7321 272.992 90.1074C264.111 120.772 301.383 135.926 270.182 163.389L28.6306 163.326Z" fill="#2F6F68"/>
<path d="M210.028 51.234L224.939 47.7781C224.939 47.7781 234.909 46.8887 236.255 55.7064C237.602 64.5242 237.213 116.776 236.791 127.557C236.651 131.108 236.67 134.393 236.97 137.251C237.602 143.21 232.93 148.42 226.911 148.521L199.152 148.998L210.028 51.234Z" fill="#C8DBF4"/>
<path d="M202.094 153.248C202.094 153.248 205.075 111.675 226.26 86.3336C226.534 86.0032 227.013 86.0858 227.16 86.4924C229.47 92.9087 242.447 134.196 202.094 153.248Z" fill="#3AA19D"/>
<path d="M225.347 98.3975C225.168 100.824 224.817 103.219 224.409 105.608C223.987 107.99 223.49 110.366 222.902 112.717C221.734 117.424 220.279 122.062 218.485 126.579C217.579 128.834 216.622 131.07 215.549 133.249C215.026 134.348 214.445 135.415 213.89 136.495C213.296 137.556 212.722 138.63 212.084 139.666C209.601 143.852 206.696 147.791 203.384 151.342C203.288 151.45 203.116 151.456 203.014 151.355C202.911 151.259 202.905 151.107 202.982 151.005V150.999C205.93 147.194 208.592 143.191 210.896 138.992C211.49 137.95 212.02 136.877 212.588 135.822C213.111 134.748 213.66 133.681 214.152 132.588C214.394 132.042 214.662 131.508 214.905 130.956L215.632 129.31C215.869 128.764 216.092 128.205 216.328 127.652C216.564 127.1 216.781 126.547 216.998 125.988C217.445 124.876 217.86 123.752 218.281 122.634C218.683 121.503 219.085 120.378 219.456 119.235C220.228 116.967 220.917 114.667 221.581 112.361C222.232 110.049 222.832 107.73 223.375 105.386C223.93 103.048 224.415 100.691 224.836 98.334V98.3276C224.862 98.1879 224.996 98.0926 225.143 98.118C225.264 98.1434 225.36 98.2641 225.347 98.3975Z" fill="#1B797E"/>
<path d="M204.724 148.699C204.724 148.699 226.566 112.132 250.329 111.56C250.751 111.548 251.07 111.935 250.987 112.348C249.972 117.126 242.893 142.143 204.724 148.699Z" fill="#2C9298"/>
<path d="M245.293 117.361C243.851 118.866 242.37 120.315 240.87 121.744C240.11 122.449 239.351 123.161 238.585 123.859C237.813 124.552 237.047 125.251 236.262 125.937C233.14 128.675 229.93 131.311 226.63 133.833C224.99 135.11 223.298 136.311 221.619 137.543L219.06 139.322C218.632 139.614 218.205 139.913 217.777 140.205L216.469 141.057C213.015 143.369 209.409 145.446 205.771 147.46C205.643 147.53 205.484 147.486 205.413 147.359C205.343 147.231 205.388 147.079 205.509 147.009L205.516 147.003L208.196 145.44L209.537 144.659C209.977 144.392 210.418 144.112 210.852 143.839L213.488 142.2C214.356 141.635 215.211 141.057 216.079 140.491L217.375 139.634L218.645 138.744L221.192 136.965C222.858 135.733 224.543 134.532 226.17 133.255C227.817 132.004 229.432 130.708 231.047 129.418L233.434 127.442L235.796 125.429C236.581 124.755 237.353 124.063 238.132 123.383C238.904 122.697 239.67 121.998 240.43 121.299C241.949 119.902 243.461 118.485 244.917 117.024L244.923 117.018C245.025 116.916 245.191 116.916 245.293 117.018C245.389 117.094 245.395 117.259 245.293 117.361Z" fill="#1B797E"/>
<path d="M179.716 51.952C179.716 51.952 206.869 53.4386 224.945 47.7782C224.945 47.7782 212.933 46.9587 212.933 74.5681C212.933 95.6785 216.079 135.968 213.335 143.617C210.59 151.266 200.32 161.545 185.595 152.714C170.863 143.877 179.716 51.952 179.716 51.952Z" fill="#72CBC8"/>
<path d="M172.497 10.5571C172.497 10.5571 202.452 13.8098 206.314 8.75293C206.314 8.75293 203.243 -0.344317 194.129 0.265555C185.014 0.875426 172.497 10.5571 172.497 10.5571Z" fill="#12B8C1"/>
<path d="M75.0638 20.7914C77.6808 50.0081 83.1636 111.815 85.5508 141.921C86.0806 148.636 91.4868 153.934 98.2398 154.366C122.284 155.903 176.404 158.883 197.173 156.107C192.418 153.775 189.418 148.934 189.463 143.655L190.567 8.55589C190.605 3.78492 195.386 0.354394 199.873 2.02519C202.701 3.07976 204.846 5.32866 206.314 8.74648C204.354 3.0607 201.271 -1.1004 194.129 0.259102C194.129 0.259102 124.275 0.95156 90.3826 3.04799C81.1658 3.61339 74.2468 11.637 75.0638 20.7914Z" fill="#C8DBF4"/>
<path d="M92.3419 6.91687L186.201 3.32117C182.327 31.8454 183.961 89.9356 185.442 147.181C185.531 150.573 187.529 153.629 190.612 155.077C190.612 155.077 128.009 155.795 101.106 153.896C94.7738 153.451 89.6037 148.68 88.6654 142.429C84.9762 117.907 76.1424 54.544 77.9806 20.9947C78.4019 13.3142 84.6187 7.2091 92.3419 6.91687Z" fill="#E7EDFF"/>
<path d="M91.1038 51.1578L92.2016 61.6209C92.3995 63.5395 93.9888 65.0197 95.9228 65.0896L102.044 65.3246C104.252 65.4072 106.091 63.6475 106.091 61.4494V50.1668C106.091 47.8988 104.144 46.12 101.878 46.3043L94.659 46.8951C92.4825 47.073 90.874 48.9979 91.1038 51.1578Z" fill="white"/>
<path d="M112.627 47.9369C122.814 47.6193 161.921 46.3551 171.795 46.0374C173.04 45.9993 174.068 46.9904 174.068 48.2292C174.068 49.4108 173.129 50.3764 171.942 50.4209L112.805 52.6062C111.669 52.6507 110.68 51.8185 110.533 50.694L110.495 50.4082C110.342 49.1249 111.325 47.975 112.627 47.9369Z" fill="white"/>
<path d="M111.988 61.7289C112.161 62.0147 112.48 62.1926 112.812 62.1863L153.419 61.3096C153.93 61.2969 154.338 60.8839 154.338 60.3757V57.7139C154.338 57.1866 153.898 56.761 153.368 56.78L113.897 58.2475C112.135 58.3111 111.088 60.2233 111.988 61.7289Z" fill="white"/>
<path d="M91.1038 80.203L92.2016 90.6661C92.3995 92.5846 93.9888 94.0648 95.9228 94.1347L102.044 94.3698C104.252 94.4523 106.091 92.6926 106.091 90.4945V79.2056C106.091 76.9376 104.144 75.1588 101.878 75.3431L94.659 75.9339C92.4825 76.1181 90.874 78.043 91.1038 80.203Z" fill="white"/>
<path d="M112.627 76.9758C122.814 76.6581 161.921 75.3939 171.795 75.0763C173.04 75.0381 174.068 76.0292 174.068 77.268C174.068 78.4496 173.129 79.4153 171.942 79.4597L112.805 81.6451C111.669 81.6896 110.68 80.8574 110.533 79.7329L110.495 79.447C110.342 78.1638 111.325 77.0139 112.627 76.9758Z" fill="url(#paint0_linear)"/>
<path opacity="0.78" d="M111.988 90.7741C112.161 91.06 112.48 91.2379 112.812 91.2315L153.419 90.3549C153.93 90.3422 154.338 89.9292 154.338 89.421V86.7592C154.338 86.2319 153.898 85.8063 153.368 85.8253L113.897 87.2928C112.135 87.35 111.088 89.2685 111.988 90.7741Z" fill="white"/>
<path d="M91.1038 109.242L92.2016 119.705C92.3995 121.623 93.9888 123.104 95.9228 123.173L102.044 123.408C104.252 123.491 106.091 121.731 106.091 119.533V108.244C106.091 105.976 104.144 104.198 101.878 104.382L94.659 104.973C92.4825 105.157 90.874 107.082 91.1038 109.242Z" fill="white"/>
<path d="M112.627 106.021C122.814 105.703 161.921 104.439 171.795 104.121C173.04 104.083 174.068 105.074 174.068 106.313C174.068 107.495 173.129 108.46 171.942 108.505L112.805 110.69C111.669 110.735 110.68 109.902 110.533 108.778L110.495 108.492C110.342 107.209 111.325 106.059 112.627 106.021Z" fill="white"/>
<path d="M111.988 119.813C112.161 120.099 112.48 120.277 112.812 120.27L153.419 119.394C153.93 119.381 154.338 118.968 154.338 118.46V115.792C154.338 115.264 153.898 114.839 153.368 114.858L113.897 116.325C112.135 116.395 111.088 118.307 111.988 119.813Z" fill="white"/>
<path d="M209.396 112.304C209.147 112.304 208.943 112.107 208.937 111.859C208.937 111.846 208.911 110.411 208.771 105.5C208.765 105.246 208.962 105.042 209.218 105.03C209.467 105.017 209.677 105.22 209.69 105.474C209.83 110.392 209.856 111.827 209.856 111.84C209.862 112.094 209.658 112.297 209.409 112.304C209.403 112.304 209.403 112.304 209.396 112.304Z" fill="white"/>
<path d="M209.065 100.322C208.816 100.322 208.618 100.125 208.605 99.884C208.509 96.6886 208.356 93.1564 208.19 89.4146C207.973 84.3578 207.743 79.1357 207.622 74.098C207.309 60.8079 209.511 55.7066 211.413 53.769C212.447 52.7144 213.316 52.6826 213.411 52.6826C213.667 52.6826 213.871 52.8859 213.871 53.14C213.871 53.3878 213.673 53.5911 213.424 53.5974C213.322 53.6038 208.069 54.1819 208.541 74.0789C208.662 79.104 208.886 84.326 209.103 89.3765C209.262 93.1183 209.416 96.6568 209.518 99.8586C209.524 100.113 209.326 100.322 209.077 100.329C209.077 100.322 209.071 100.322 209.065 100.322Z" fill="white"/>
<path d="M142.849 149.328C142.383 149.328 141.924 149.112 141.432 148.661C139.632 147.016 139.166 144.487 139.039 142.079C138.209 143.007 137.36 143.903 136.517 144.799L136.052 144.367C137.041 143.318 138.037 142.257 139 141.165C138.917 137.868 139.071 134.539 139.454 131.267C139.69 129.259 140.022 127.131 140.896 125.194C141.177 124.577 141.636 123.688 142.434 123.135C143.264 122.557 144.356 122.494 145.083 122.983C145.9 123.529 146.124 124.571 146.219 125.302C146.775 129.609 145.09 133.56 143.57 136.114C142.447 138.007 141.088 139.748 139.645 141.393C139.722 143.858 140.06 146.552 141.86 148.197C142.236 148.54 142.568 148.705 142.875 148.693C143.379 148.674 143.787 148.185 144.126 147.708C145.645 145.542 146.826 143.198 147.649 140.714C147.745 139.964 147.955 139.233 148.275 138.547L148.875 138.757C148.702 139.468 148.498 140.167 148.275 140.853C148.192 141.559 148.217 142.276 148.358 142.969C148.434 143.337 148.747 144.563 149.653 144.735C150.33 144.862 151.032 144.354 151.811 143.172L155.002 138.344L154.6 140.072C154.46 140.682 154.217 142.137 155.072 142.492C155.557 142.689 156.074 142.403 156.668 142.067C157.262 141.736 157.874 141.387 158.57 141.482L158.896 141.527L158.838 141.851C158.806 142.035 158.551 143.674 159.4 143.858C159.789 143.947 160.115 143.674 160.606 143.223C160.996 142.867 161.391 142.499 161.915 142.372L162.061 142.988C161.698 143.077 161.372 143.375 161.034 143.687C160.549 144.131 160 144.64 159.253 144.475C158.283 144.259 158.047 143.172 158.149 142.111C157.766 142.168 157.376 142.384 156.968 142.613C156.323 142.975 155.589 143.388 154.817 143.071C154.179 142.81 153.834 142.181 153.808 141.279L152.328 143.515C151.728 144.417 150.789 145.593 149.513 145.351C148.638 145.186 147.962 144.341 147.713 143.09C147.681 142.918 147.649 142.74 147.63 142.562C146.845 144.494 145.843 146.336 144.636 148.064C144.241 148.636 143.679 149.29 142.888 149.315C142.881 149.328 142.868 149.328 142.849 149.328ZM143.96 123.288C143.539 123.288 143.117 123.447 142.811 123.656C142.147 124.12 141.739 124.901 141.49 125.454C140.654 127.316 140.322 129.38 140.098 131.337C139.747 134.348 139.594 137.41 139.632 140.44C140.883 138.973 142.051 137.442 143.028 135.79C144.49 133.319 146.124 129.514 145.594 125.384C145.466 124.412 145.198 123.821 144.739 123.51C144.502 123.351 144.228 123.288 143.96 123.288Z" fill="url(#paint1_linear)"/>
<path opacity="0.78" d="M170.825 34.863L96.0505 37.0674C93.3633 37.1436 91.1102 35.0726 90.9762 32.3981L90.7017 26.833C90.5677 24.0822 92.7314 21.7571 95.4952 21.6872L170.64 19.7115C173.448 19.6352 175.753 21.9095 175.702 24.7111L175.606 30.0475C175.561 32.6585 173.455 34.7804 170.825 34.863Z" fill="white"/>
<path d="M147.272 93.493C147.272 93.493 144.777 91.8667 144.432 92.2415C144.311 92.3749 144.024 92.826 143.755 93.3215C143.564 93.6709 143.628 94.1029 143.902 94.3888L144.547 95.0495C145.16 95.6784 146.194 95.6339 146.736 94.9415C147.004 94.5921 147.221 94.122 147.272 93.493Z" fill="url(#paint2_linear)"/>
<path d="M149.813 90.3994C149.813 90.3994 148.958 88.1568 147.955 88.3601C146.953 88.5634 145.862 89.3321 145.862 89.3321L144.253 91.4921C144.253 91.4921 148.76 93.2582 150.349 92.2481C150.349 92.2481 154.951 93.0422 160.766 92.0892C159.923 90.3231 159.425 88.5507 159.125 87.1721C156.189 88.8366 153.017 90.0754 149.813 90.3994Z" fill="url(#paint3_linear)"/>
<path d="M174.208 74.1361C174.208 74.1361 167.615 82.4012 159.138 87.1785C159.432 88.5507 159.936 90.3232 160.779 92.0956C165.176 91.3777 170.27 89.6625 174.585 85.8508L174.208 74.1361Z" fill="url(#paint4_linear)"/>
<path d="M182.429 110.766C181.14 104.668 179.85 101.142 175.536 89.5861C174.176 85.9523 172.944 82.274 173.538 78.4369L174.208 74.1297C174.208 74.1297 182.595 71.3027 191.901 74.009C191.901 74.009 204.59 79.4978 195.973 106.593C192.08 110.925 187.535 112.158 182.429 110.766Z" fill="url(#paint5_linear)"/>
<path d="M175.631 68.6407L177.808 73.8436C177.948 74.174 178.242 74.409 178.593 74.4662C179.85 74.6822 182.882 75.0125 184.874 73.7102C185.11 73.5577 185.174 73.2337 185.008 72.9987L180.987 67.2557L175.631 68.6407Z" fill="url(#paint6_linear)"/>
<path d="M177.884 60.6806C177.795 60.7632 174.029 68.1261 174.029 68.1261L178.299 70.178L182.908 63.7299C182.901 63.7299 179.416 59.2512 177.884 60.6806Z" fill="url(#paint7_linear)"/>
<path d="M180.967 64.5051L178.842 68.0372C178.81 68.0881 178.772 68.1389 178.727 68.1834C178.472 68.4184 177.61 69.0982 176.94 68.1707C176.372 67.3766 175.835 66.6587 175.261 66.3601C174.923 66.1886 174.514 66.322 174.342 66.6587C173.991 67.3511 173.314 68.7615 172.887 70.0956C172.778 70.4323 172.95 70.788 173.282 70.9214C174.144 71.2708 175.855 71.8998 177.367 72.1094C177.616 72.1412 177.865 72.0395 178.012 71.8362C178.663 70.9468 180.501 68.4629 181.127 67.8403C181.708 67.2622 182.786 67.4782 183.271 67.618C183.457 67.6688 183.654 67.6434 183.814 67.5481C184.305 67.2558 185.161 66.5189 184.376 65.2738C184.178 64.9625 184.28 64.5559 184.586 64.3526C185.135 63.9905 185.729 63.3171 185.161 62.2244C184.586 61.119 183.559 61.0174 182.863 61.1063C182.557 61.1444 182.237 60.9856 182.123 60.6934C182.071 60.5663 181.963 60.4583 181.771 60.4202C181.408 60.344 181.165 60.0136 181.235 59.6452C181.357 59.0226 181.267 58.2094 180.259 57.6567C178.421 56.6466 176.806 58.292 176.397 59.6769C175.989 61.0618 178.044 62.0402 179.34 62.2054C180.291 62.3261 180.814 63.3616 181.025 63.9016C181.095 64.1048 181.076 64.3208 180.967 64.5051Z" fill="url(#paint8_linear)"/>
<path d="M180.221 68.9012C180.221 68.9012 181.133 66.754 182.186 66.8429C183.233 66.9318 184.057 67.9674 182.761 69.1363C181.14 70.5911 180.221 68.9012 180.221 68.9012Z" fill="url(#paint9_linear)"/>
<path d="M181.599 164.492C183.623 164.664 187.14 164.95 189.916 165.07C191.582 165.14 192.539 164.981 193.095 164.759C193.095 164.823 193.095 164.88 193.088 164.937C193.076 165.229 192.839 165.458 192.546 165.477C187.306 165.769 183.138 165.579 181.657 165.49C181.35 165.471 181.165 165.14 181.325 164.88C181.401 164.746 181.497 164.613 181.599 164.492Z" fill="url(#paint10_linear)"/>
<path d="M189.916 165.07C187.146 164.95 183.629 164.664 181.599 164.492C183.591 162.059 189.916 160.42 189.916 160.42H191.703C192.929 162.18 193.107 163.863 193.095 164.759C192.546 164.981 191.582 165.14 189.916 165.07Z" fill="url(#paint11_linear)"/>
<path d="M192.003 157.517L191.837 160.808C191.818 161.163 191.55 161.462 191.193 161.513C190.835 161.564 190.357 161.57 189.852 161.405C189.54 161.303 189.31 161.043 189.252 160.719L188.678 157.517H192.003Z" fill="url(#paint12_linear)"/>
<path d="M215.198 165.045C216.079 164.924 216.475 164.467 216.641 163.984C216.641 163.99 216.641 163.99 216.647 163.997C216.775 164.511 216.475 165.038 215.875 165.293C215.154 165.597 214.356 165.648 213.743 165.623C213.086 165.597 212.479 165.324 212.147 164.892L212.141 164.886C212.805 165.21 213.737 165.248 215.198 165.045Z" fill="url(#paint13_linear)"/>
<path d="M211.056 157.491H212.53C214.771 157.447 216.181 162.154 216.641 163.977C216.475 164.46 216.079 164.918 215.198 165.038C213.73 165.242 212.805 165.204 212.141 164.88C210.928 163.291 210.328 160.966 210.041 159.613C209.716 158.069 211.056 157.491 211.056 157.491Z" fill="url(#paint14_linear)"/>
<path d="M212.339 154.442L213.156 157.682C213.258 158.076 213.067 158.489 212.696 158.679C212.237 158.914 211.592 159.156 211.005 159.086C210.724 159.054 210.494 158.857 210.405 158.597L209.205 155.192L212.339 154.442Z" fill="url(#paint15_linear)"/>
<path d="M213.315 155.376C212.301 156.272 208.988 156.392 208.988 156.392C197.065 127.913 192.093 120.073 192.093 120.073C193.816 130.822 192.463 158.413 192.463 158.413C190.497 159.277 187.956 158.413 187.956 158.413C187.797 140.815 185.308 121.903 182.097 109.807C190.152 109.629 194.531 107.876 195.935 106.777C202.656 117.551 213.315 155.376 213.315 155.376Z" fill="url(#paint16_linear)"/>
<path d="M180.074 117.767L181.555 126.947C181.816 128.548 183.304 129.66 184.925 129.463L207.118 126.769C208.203 126.636 209.026 125.734 209.045 124.654C209.09 122.284 209.001 118.059 207.999 114.216L180.074 117.767Z" fill="url(#paint17_linear)"/>
<path d="M185.678 128.84C185.64 128.84 185.608 128.815 185.608 128.777C185.601 128.739 185.633 128.7 185.671 128.694L186.252 128.624C186.297 128.618 186.329 128.65 186.335 128.688C186.342 128.726 186.31 128.764 186.271 128.77L185.691 128.84C185.684 128.84 185.684 128.84 185.678 128.84ZM184.325 128.815C184.318 128.815 184.312 128.815 184.306 128.815C184.114 128.77 183.923 128.7 183.744 128.618C183.706 128.599 183.693 128.554 183.712 128.523C183.731 128.484 183.776 128.472 183.808 128.491C183.98 128.573 184.159 128.637 184.344 128.681C184.382 128.688 184.408 128.732 184.395 128.77C184.389 128.796 184.357 128.815 184.325 128.815ZM187.612 128.605C187.574 128.605 187.542 128.58 187.542 128.542C187.535 128.503 187.567 128.465 187.605 128.459L188.186 128.389C188.225 128.383 188.263 128.415 188.269 128.453C188.276 128.491 188.244 128.529 188.205 128.535L187.625 128.605C187.618 128.605 187.612 128.605 187.612 128.605ZM189.546 128.37C189.508 128.37 189.476 128.345 189.476 128.307C189.469 128.268 189.501 128.23 189.539 128.224L190.12 128.154C190.165 128.148 190.197 128.179 190.203 128.218C190.21 128.256 190.178 128.294 190.139 128.3L189.559 128.37C189.552 128.37 189.546 128.37 189.546 128.37ZM191.473 128.135C191.435 128.135 191.403 128.11 191.403 128.071C191.397 128.033 191.429 127.995 191.467 127.989L192.048 127.919C192.093 127.913 192.124 127.944 192.131 127.983C192.137 128.021 192.105 128.059 192.067 128.065L191.486 128.135C191.48 128.135 191.48 128.135 191.473 128.135ZM193.407 127.9C193.369 127.9 193.337 127.875 193.337 127.836C193.331 127.798 193.363 127.76 193.401 127.754L193.982 127.684C194.027 127.678 194.058 127.709 194.065 127.747C194.071 127.786 194.039 127.824 194.001 127.83L193.42 127.9C193.414 127.9 193.414 127.9 193.407 127.9ZM182.729 127.779C182.71 127.779 182.684 127.767 182.672 127.754C182.55 127.595 182.442 127.43 182.359 127.246C182.34 127.207 182.359 127.163 182.391 127.15C182.429 127.131 182.474 127.15 182.486 127.182C182.569 127.354 182.672 127.512 182.786 127.665C182.812 127.697 182.806 127.741 182.774 127.767C182.761 127.773 182.742 127.779 182.729 127.779ZM195.341 127.671C195.303 127.671 195.271 127.646 195.271 127.608C195.265 127.57 195.297 127.531 195.335 127.525L195.916 127.455C195.961 127.449 195.992 127.481 195.999 127.519C196.005 127.557 195.973 127.595 195.935 127.601L195.354 127.671C195.348 127.665 195.341 127.671 195.341 127.671ZM197.275 127.436C197.237 127.436 197.205 127.411 197.205 127.373C197.199 127.335 197.231 127.296 197.269 127.29L197.85 127.22C197.888 127.214 197.926 127.246 197.933 127.284C197.939 127.322 197.907 127.36 197.869 127.366L197.288 127.436C197.275 127.436 197.275 127.436 197.275 127.436ZM199.203 127.201C199.165 127.201 199.133 127.176 199.133 127.138C199.126 127.099 199.158 127.061 199.197 127.055L199.778 126.985C199.822 126.979 199.854 127.011 199.86 127.049C199.867 127.087 199.835 127.125 199.797 127.131L199.216 127.201C199.209 127.201 199.209 127.201 199.203 127.201ZM201.137 126.966C201.099 126.966 201.067 126.941 201.067 126.903C201.06 126.864 201.092 126.826 201.131 126.82L201.711 126.75C201.756 126.744 201.788 126.775 201.794 126.814C201.801 126.852 201.769 126.89 201.731 126.896L201.15 126.966C201.143 126.966 201.137 126.966 201.137 126.966ZM203.071 126.731C203.033 126.731 203.001 126.706 203.001 126.667C202.994 126.629 203.026 126.591 203.065 126.585L203.645 126.515C203.69 126.509 203.722 126.54 203.728 126.579C203.735 126.617 203.703 126.655 203.665 126.661L203.084 126.731C203.077 126.731 203.071 126.731 203.071 126.731ZM204.999 126.496C204.96 126.496 204.928 126.471 204.928 126.432C204.922 126.394 204.954 126.356 204.992 126.35L205.573 126.28C205.618 126.274 205.65 126.305 205.656 126.343C205.662 126.382 205.631 126.42 205.592 126.426L205.011 126.496C205.005 126.496 205.005 126.496 204.999 126.496ZM206.926 126.216C206.894 126.216 206.869 126.197 206.856 126.166C206.843 126.127 206.862 126.089 206.901 126.07C207.079 126.007 207.245 125.924 207.399 125.816C207.431 125.791 207.475 125.804 207.501 125.835C207.526 125.867 207.513 125.911 207.482 125.937C207.316 126.051 207.137 126.147 206.945 126.21C206.939 126.216 206.933 126.216 206.926 126.216ZM182.084 125.975C182.046 125.975 182.02 125.95 182.014 125.912L181.918 125.34C181.912 125.302 181.938 125.264 181.976 125.257C182.014 125.251 182.052 125.276 182.059 125.314L182.155 125.886C182.161 125.924 182.135 125.962 182.097 125.969C182.091 125.975 182.091 125.975 182.084 125.975ZM208.235 124.882C208.228 124.882 208.222 124.882 208.216 124.876C208.177 124.863 208.158 124.825 208.171 124.787C208.228 124.609 208.26 124.425 208.26 124.234C208.26 124.196 208.292 124.164 208.33 124.164C208.369 124.164 208.401 124.196 208.401 124.241C208.394 124.444 208.362 124.641 208.299 124.832C208.299 124.863 208.267 124.882 208.235 124.882ZM181.778 124.063C181.74 124.063 181.714 124.037 181.708 123.999L181.612 123.428C181.606 123.389 181.631 123.351 181.669 123.345C181.708 123.339 181.746 123.364 181.752 123.402L181.848 123.974C181.855 124.012 181.829 124.05 181.791 124.056C181.784 124.063 181.778 124.063 181.778 124.063ZM208.337 122.951C208.299 122.951 208.267 122.919 208.267 122.881C208.267 122.691 208.26 122.5 208.26 122.303C208.26 122.265 208.292 122.227 208.33 122.227C208.375 122.22 208.407 122.259 208.407 122.297C208.413 122.494 208.413 122.691 208.413 122.881C208.413 122.919 208.382 122.951 208.337 122.951ZM181.465 122.151C181.427 122.151 181.401 122.125 181.395 122.087L181.299 121.515C181.293 121.477 181.318 121.439 181.357 121.433C181.395 121.426 181.433 121.452 181.44 121.49L181.535 122.062C181.542 122.1 181.516 122.138 181.478 122.144C181.472 122.151 181.472 122.151 181.465 122.151ZM208.279 121.013C208.241 121.013 208.209 120.982 208.209 120.944C208.196 120.753 208.19 120.562 208.177 120.365C208.177 120.327 208.203 120.289 208.248 120.289C208.299 120.289 208.324 120.315 208.324 120.359C208.337 120.556 208.35 120.753 208.356 120.944C208.356 120.982 208.324 121.013 208.279 121.013C208.286 121.013 208.286 121.013 208.279 121.013ZM181.159 120.238C181.121 120.238 181.095 120.213 181.089 120.175L180.993 119.603C180.986 119.565 181.012 119.527 181.05 119.521C181.089 119.514 181.127 119.54 181.133 119.578L181.229 120.149C181.235 120.188 181.21 120.226 181.172 120.232C181.165 120.238 181.159 120.238 181.159 120.238ZM208.139 119.082C208.101 119.082 208.069 119.057 208.069 119.019C208.05 118.828 208.03 118.637 208.011 118.441C208.005 118.402 208.037 118.364 208.075 118.358C208.113 118.352 208.152 118.383 208.158 118.421C208.177 118.618 208.203 118.809 208.222 119C208.228 119.038 208.196 119.076 208.158 119.076C208.145 119.082 208.145 119.082 208.139 119.082ZM180.846 118.326C180.808 118.326 180.782 118.301 180.776 118.263L180.674 117.615L181.21 117.545C181.248 117.538 181.286 117.57 181.293 117.608C181.299 117.646 181.267 117.685 181.229 117.691L180.846 117.742L180.929 118.244C180.935 118.282 180.91 118.32 180.872 118.326C180.859 118.326 180.852 118.326 180.846 118.326ZM182.569 117.519C182.531 117.519 182.499 117.494 182.499 117.456C182.493 117.418 182.525 117.38 182.563 117.373L183.144 117.297C183.189 117.291 183.22 117.322 183.227 117.361C183.233 117.399 183.201 117.437 183.163 117.443L182.582 117.519C182.576 117.519 182.569 117.519 182.569 117.519ZM184.497 117.272C184.459 117.272 184.427 117.246 184.427 117.208C184.42 117.17 184.452 117.132 184.491 117.126L185.071 117.049C185.116 117.043 185.148 117.075 185.154 117.113C185.161 117.151 185.129 117.189 185.091 117.195L184.51 117.272C184.503 117.272 184.503 117.272 184.497 117.272ZM207.903 117.157C207.865 117.157 207.839 117.132 207.833 117.094C207.801 116.903 207.775 116.713 207.743 116.522C207.737 116.484 207.762 116.446 207.801 116.439C207.845 116.433 207.877 116.458 207.884 116.497C207.916 116.687 207.948 116.878 207.979 117.075C207.986 117.113 207.96 117.151 207.916 117.157C207.909 117.157 207.903 117.157 207.903 117.157ZM186.431 117.03C186.393 117.03 186.361 117.005 186.361 116.967C186.354 116.929 186.386 116.89 186.425 116.884L187.005 116.808C187.05 116.802 187.082 116.833 187.088 116.871C187.095 116.91 187.063 116.948 187.025 116.954L186.444 117.03C186.437 117.03 186.431 117.03 186.431 117.03ZM188.359 116.782C188.32 116.782 188.288 116.757 188.288 116.719C188.282 116.681 188.314 116.643 188.352 116.636L188.933 116.56C188.978 116.554 189.01 116.586 189.016 116.624C189.022 116.662 188.991 116.7 188.952 116.706L188.371 116.782C188.365 116.782 188.365 116.782 188.359 116.782ZM190.293 116.535C190.254 116.535 190.222 116.509 190.222 116.471C190.216 116.433 190.248 116.395 190.286 116.389L190.867 116.312C190.912 116.306 190.944 116.338 190.95 116.376C190.956 116.414 190.925 116.452 190.886 116.458L190.305 116.535C190.299 116.535 190.293 116.535 190.293 116.535ZM192.22 116.293C192.182 116.293 192.15 116.268 192.15 116.23C192.144 116.192 192.176 116.154 192.214 116.147L192.795 116.071C192.839 116.065 192.871 116.096 192.878 116.134C192.884 116.173 192.852 116.211 192.814 116.217L192.233 116.293C192.227 116.293 192.227 116.293 192.22 116.293ZM194.154 116.046C194.116 116.046 194.084 116.02 194.084 115.982C194.078 115.944 194.11 115.906 194.148 115.899L194.729 115.823C194.773 115.817 194.805 115.849 194.812 115.887C194.818 115.925 194.786 115.963 194.748 115.969L194.167 116.046C194.161 116.046 194.154 116.046 194.154 116.046ZM196.082 115.798C196.044 115.798 196.012 115.772 196.012 115.734C196.005 115.696 196.037 115.658 196.075 115.652L196.656 115.575C196.701 115.569 196.733 115.601 196.739 115.639C196.746 115.677 196.714 115.715 196.675 115.722L196.095 115.798C196.088 115.798 196.088 115.798 196.082 115.798ZM198.016 115.55C197.978 115.55 197.946 115.525 197.946 115.486C197.939 115.448 197.971 115.41 198.009 115.404L198.59 115.328C198.635 115.321 198.667 115.353 198.673 115.391C198.68 115.429 198.648 115.467 198.609 115.474L198.029 115.55C198.022 115.55 198.016 115.55 198.016 115.55ZM199.943 115.309C199.905 115.309 199.873 115.283 199.873 115.245C199.867 115.207 199.899 115.169 199.937 115.162L200.518 115.086C200.563 115.08 200.595 115.112 200.601 115.15C200.607 115.188 200.575 115.226 200.537 115.232L199.956 115.309C199.95 115.309 199.95 115.309 199.943 115.309ZM207.552 115.258C207.52 115.258 207.488 115.232 207.482 115.201C207.437 115.01 207.399 114.826 207.348 114.635C207.341 114.597 207.36 114.559 207.399 114.546C207.437 114.534 207.475 114.559 207.488 114.597C207.533 114.788 207.577 114.978 207.622 115.162C207.628 115.201 207.603 115.239 207.565 115.251C207.558 115.251 207.558 115.258 207.552 115.258ZM201.877 115.061C201.839 115.061 201.807 115.035 201.807 114.997C201.801 114.959 201.833 114.921 201.871 114.915L202.452 114.838C202.497 114.832 202.528 114.864 202.535 114.902C202.541 114.94 202.509 114.978 202.471 114.985L201.89 115.061C201.884 115.061 201.877 115.061 201.877 115.061ZM203.805 114.813C203.767 114.813 203.735 114.788 203.735 114.75C203.728 114.711 203.76 114.673 203.799 114.667L204.38 114.591C204.424 114.584 204.456 114.616 204.462 114.654C204.469 114.692 204.437 114.73 204.399 114.737L203.818 114.813C203.811 114.813 203.811 114.813 203.805 114.813ZM205.739 114.572C205.701 114.572 205.669 114.546 205.669 114.508C205.662 114.47 205.694 114.432 205.733 114.426L206.314 114.349C206.358 114.343 206.39 114.375 206.396 114.413C206.403 114.451 206.371 114.489 206.333 114.495L205.752 114.572C205.745 114.572 205.739 114.572 205.739 114.572Z" fill="white"/>
<path d="M185.716 110.245L185.691 109.528C185.742 109.35 185.882 109.21 186.067 109.153C186.744 108.956 188.435 108.543 189.335 109.051L189.565 109.864L185.716 110.245Z" fill="url(#paint18_linear)"/>
<path d="M187.784 109.286C187.631 109.343 187.471 109.362 187.305 109.343C187.108 109.318 186.948 109.165 186.922 108.968L186.635 106.745L187.771 106.599L188.059 108.822C188.084 109.026 187.969 109.216 187.784 109.286Z" fill="url(#paint19_linear)"/>
<path d="M196.739 108.841L196.714 108.123C196.765 107.946 196.905 107.806 197.09 107.749C197.767 107.552 199.458 107.139 200.358 107.647L200.588 108.46L196.739 108.841Z" fill="url(#paint20_linear)"/>
<path d="M198.807 107.882C198.654 107.939 198.495 107.959 198.329 107.939C198.131 107.914 197.971 107.762 197.946 107.565L197.627 105.106L198.763 104.96L199.082 107.419C199.107 107.622 198.992 107.812 198.807 107.882Z" fill="url(#paint21_linear)"/>
<path d="M186.591 107.31L198.775 105.347C199.056 105.303 199.267 105.074 199.28 104.795C199.299 104.407 199.286 103.829 199.12 103.245C198.935 102.584 198.29 102.158 197.601 102.228C195.31 102.463 189.501 103.206 186.457 104.877C186.137 105.055 185.92 105.373 185.882 105.735C185.844 106.078 185.844 106.535 186.01 106.974C186.093 107.209 186.342 107.348 186.591 107.31Z" fill="url(#paint22_linear)"/>
<path d="M186.291 106.84C186.201 106.84 186.125 106.777 186.099 106.688C186.093 106.669 185.984 106.192 186.054 105.709C186.112 105.316 186.374 104.972 186.744 104.807C187.408 104.521 188.678 104.007 189.756 103.842C189.865 103.829 189.961 103.899 189.98 104.001C189.999 104.109 189.922 104.204 189.82 104.223C188.748 104.388 187.427 104.934 186.903 105.163C186.654 105.271 186.482 105.5 186.444 105.76C186.386 106.167 186.482 106.592 186.482 106.599C186.508 106.7 186.444 106.808 186.335 106.834C186.323 106.84 186.303 106.84 186.291 106.84Z" fill="url(#paint23_linear)"/>
<path d="M179.997 110.69C183.942 110.137 201.029 107.78 206.071 107.742C206.505 107.742 206.894 108.009 207.041 108.409C207.507 109.693 208.49 112.685 208.809 115.734C208.854 116.147 208.592 116.535 208.19 116.668L197.122 120.251L193.095 120.766L180.706 119.914C180.272 119.883 179.908 119.565 179.831 119.139C179.557 117.621 178.97 114.044 179.091 111.681C179.116 111.179 179.499 110.766 179.997 110.69Z" fill="url(#paint24_linear)"/>
<path d="M193.082 119.857L192.482 119.819C192.444 119.819 192.412 119.781 192.412 119.743C192.412 119.705 192.45 119.673 192.488 119.673L193.069 119.711L193.382 119.673C193.427 119.666 193.459 119.698 193.465 119.736C193.471 119.774 193.439 119.813 193.401 119.819L193.082 119.857ZM191.129 119.724L190.542 119.686C190.503 119.686 190.471 119.647 190.471 119.609C190.471 119.571 190.51 119.539 190.548 119.539L191.129 119.578C191.167 119.578 191.199 119.616 191.199 119.654C191.199 119.692 191.167 119.724 191.129 119.724ZM194.748 119.641C194.71 119.641 194.678 119.616 194.678 119.578C194.671 119.539 194.703 119.501 194.742 119.495L195.322 119.419C195.367 119.412 195.399 119.444 195.405 119.482C195.412 119.52 195.38 119.558 195.342 119.565L194.761 119.641C194.754 119.641 194.754 119.641 194.748 119.641ZM189.188 119.59C189.188 119.59 189.182 119.59 189.188 119.59L188.601 119.552C188.563 119.552 188.531 119.514 188.531 119.476C188.531 119.438 188.569 119.406 188.608 119.406L189.188 119.444C189.227 119.444 189.259 119.482 189.259 119.52C189.259 119.558 189.227 119.59 189.188 119.59ZM187.248 119.457C187.242 119.457 187.242 119.457 187.248 119.457L186.661 119.419C186.623 119.419 186.591 119.381 186.591 119.343C186.591 119.304 186.629 119.273 186.667 119.273L187.248 119.311C187.286 119.311 187.318 119.349 187.318 119.387C187.318 119.425 187.286 119.457 187.248 119.457ZM196.682 119.393C196.644 119.393 196.612 119.368 196.612 119.33C196.605 119.292 196.637 119.254 196.676 119.247L196.905 119.215L197.224 119.114C197.263 119.101 197.301 119.12 197.314 119.158C197.327 119.196 197.307 119.235 197.269 119.247L196.937 119.355L196.695 119.387C196.688 119.393 196.682 119.393 196.682 119.393ZM185.308 119.323C185.301 119.323 185.301 119.323 185.308 119.323L184.721 119.285C184.682 119.285 184.65 119.247 184.65 119.209C184.65 119.171 184.689 119.146 184.727 119.139L185.308 119.177C185.346 119.177 185.378 119.215 185.378 119.254C185.372 119.292 185.34 119.323 185.308 119.323ZM183.361 119.19L182.774 119.152C182.735 119.152 182.704 119.114 182.704 119.076C182.704 119.038 182.742 119.012 182.78 119.006L183.361 119.044C183.399 119.044 183.431 119.082 183.431 119.12C183.431 119.158 183.399 119.19 183.361 119.19ZM181.421 119.057C181.421 119.057 181.414 119.057 181.421 119.057L180.833 119.019C180.795 119.019 180.763 118.98 180.763 118.942C180.763 118.904 180.808 118.879 180.84 118.872L181.421 118.911C181.459 118.911 181.491 118.949 181.491 118.987C181.491 119.025 181.459 119.057 181.421 119.057ZM198.539 118.841C198.507 118.841 198.482 118.822 198.469 118.79C198.456 118.752 198.475 118.714 198.514 118.701L199.069 118.523C199.107 118.51 199.146 118.529 199.158 118.567C199.171 118.606 199.152 118.644 199.114 118.656L198.558 118.834C198.558 118.841 198.552 118.841 198.539 118.841ZM200.39 118.243C200.358 118.243 200.333 118.224 200.32 118.193C200.307 118.155 200.326 118.116 200.365 118.104L200.92 117.926C200.958 117.913 200.997 117.932 201.009 117.97C201.022 118.008 201.003 118.047 200.965 118.059L200.409 118.237C200.409 118.237 200.403 118.243 200.39 118.243ZM180.578 117.71C180.54 117.71 180.514 117.684 180.508 117.646C180.476 117.462 180.45 117.271 180.419 117.068C180.412 117.03 180.438 116.992 180.482 116.986C180.521 116.979 180.559 117.005 180.565 117.049C180.597 117.246 180.623 117.443 180.655 117.621C180.661 117.659 180.636 117.697 180.597 117.703C180.584 117.71 180.584 117.71 180.578 117.71ZM202.241 117.64C202.209 117.64 202.184 117.621 202.171 117.589C202.158 117.551 202.177 117.513 202.216 117.5L202.771 117.322C202.809 117.31 202.848 117.329 202.86 117.367C202.873 117.405 202.854 117.443 202.816 117.456L202.26 117.634C202.26 117.64 202.254 117.64 202.241 117.64ZM204.099 117.043C204.067 117.043 204.041 117.024 204.029 116.992C204.016 116.954 204.035 116.916 204.073 116.903L204.628 116.725C204.667 116.712 204.705 116.732 204.718 116.77C204.731 116.808 204.711 116.846 204.673 116.859L204.118 117.036C204.111 117.043 204.105 117.043 204.099 117.043ZM205.95 116.446C205.918 116.446 205.892 116.427 205.88 116.395C205.867 116.357 205.886 116.319 205.924 116.306L206.479 116.128C206.518 116.115 206.556 116.134 206.569 116.172C206.582 116.211 206.562 116.249 206.524 116.261L205.969 116.439C205.962 116.446 205.956 116.446 205.95 116.446ZM207.801 115.848C207.769 115.848 207.743 115.829 207.731 115.798C207.724 115.772 207.731 115.74 207.75 115.721C207.731 115.556 207.711 115.391 207.686 115.226C207.679 115.188 207.711 115.15 207.75 115.143C207.788 115.137 207.826 115.169 207.833 115.207C207.858 115.391 207.877 115.575 207.903 115.76L207.909 115.817L207.826 115.842C207.814 115.842 207.807 115.848 207.801 115.848ZM180.31 115.791C180.272 115.791 180.24 115.766 180.24 115.728C180.214 115.537 180.195 115.347 180.17 115.15C180.163 115.112 180.195 115.073 180.233 115.067C180.278 115.067 180.31 115.092 180.316 115.131C180.336 115.321 180.361 115.518 180.38 115.709C180.387 115.747 180.355 115.785 180.316 115.791H180.31ZM207.539 113.949C207.507 113.949 207.475 113.924 207.469 113.892C207.431 113.701 207.392 113.511 207.354 113.326C207.348 113.288 207.373 113.25 207.411 113.237C207.45 113.231 207.488 113.257 207.501 113.295C207.539 113.485 207.577 113.676 207.616 113.866C207.622 113.905 207.596 113.943 207.558 113.949C207.545 113.949 207.539 113.949 207.539 113.949ZM180.119 113.86C180.08 113.86 180.048 113.828 180.048 113.79C180.036 113.593 180.023 113.396 180.016 113.206C180.016 113.168 180.048 113.129 180.087 113.129C180.131 113.123 180.163 113.161 180.163 113.199C180.17 113.39 180.182 113.581 180.195 113.777C180.195 113.828 180.163 113.86 180.119 113.86ZM207.111 112.056C207.079 112.056 207.048 112.037 207.041 111.999C206.99 111.808 206.939 111.618 206.894 111.44C206.882 111.402 206.907 111.363 206.945 111.351C206.984 111.338 207.022 111.363 207.035 111.402C207.086 111.586 207.137 111.77 207.188 111.967C207.201 112.005 207.175 112.043 207.137 112.056C207.124 112.056 207.118 112.056 207.111 112.056ZM180.074 111.929C180.029 111.929 179.997 111.891 180.004 111.853L180.01 111.726C180.016 111.656 180.067 111.598 180.131 111.592L180.489 111.541C180.527 111.535 180.565 111.56 180.572 111.605C180.578 111.643 180.553 111.681 180.508 111.687L180.15 111.738V111.859C180.144 111.897 180.112 111.929 180.074 111.929ZM181.848 111.497C181.81 111.497 181.778 111.471 181.778 111.433C181.772 111.395 181.797 111.357 181.842 111.351L182.423 111.268C182.467 111.262 182.499 111.294 182.506 111.332C182.512 111.37 182.48 111.408 182.442 111.414L181.861 111.497C181.855 111.497 181.848 111.497 181.848 111.497ZM183.776 111.236C183.738 111.236 183.706 111.211 183.706 111.173C183.699 111.135 183.731 111.097 183.769 111.09L184.35 111.014C184.389 111.008 184.427 111.039 184.433 111.078C184.44 111.116 184.408 111.154 184.369 111.16L183.789 111.236C183.782 111.236 183.782 111.236 183.776 111.236ZM185.703 110.976C185.665 110.976 185.633 110.95 185.633 110.912C185.627 110.874 185.659 110.836 185.697 110.83L186.278 110.754C186.316 110.747 186.355 110.779 186.361 110.817C186.367 110.855 186.335 110.893 186.297 110.9L185.716 110.976C185.71 110.976 185.71 110.976 185.703 110.976ZM187.637 110.722C187.599 110.722 187.567 110.696 187.567 110.658C187.561 110.62 187.593 110.582 187.631 110.576L188.212 110.499C188.25 110.493 188.289 110.525 188.295 110.563C188.301 110.601 188.269 110.639 188.231 110.646L187.65 110.722C187.644 110.722 187.637 110.722 187.637 110.722ZM189.565 110.468C189.527 110.468 189.495 110.442 189.495 110.404C189.488 110.366 189.52 110.328 189.559 110.322L190.14 110.245C190.184 110.239 190.216 110.271 190.222 110.309C190.229 110.347 190.197 110.385 190.159 110.391L189.578 110.468C189.571 110.468 189.571 110.468 189.565 110.468ZM191.512 110.226L191.493 110.08L192.067 110.01C192.105 110.004 192.144 110.036 192.15 110.074C192.156 110.112 192.125 110.15 192.086 110.156L191.512 110.226ZM206.582 110.194C206.55 110.194 206.524 110.175 206.511 110.144C206.448 109.947 206.39 109.762 206.333 109.591C206.32 109.553 206.339 109.515 206.377 109.502C206.416 109.489 206.454 109.508 206.467 109.546C206.524 109.718 206.582 109.902 206.645 110.099C206.658 110.137 206.639 110.175 206.594 110.188C206.594 110.194 206.588 110.194 206.582 110.194ZM193.433 109.985C193.395 109.985 193.363 109.959 193.363 109.921C193.356 109.883 193.388 109.845 193.427 109.839L194.007 109.769C194.046 109.762 194.084 109.794 194.09 109.832C194.097 109.87 194.065 109.909 194.027 109.915L193.446 109.985C193.439 109.985 193.433 109.985 193.433 109.985ZM195.361 109.756C195.322 109.756 195.29 109.731 195.29 109.693C195.284 109.654 195.316 109.616 195.354 109.61L195.935 109.54C195.98 109.534 196.012 109.566 196.018 109.604C196.024 109.642 195.993 109.68 195.954 109.686L195.373 109.756C195.367 109.756 195.367 109.756 195.361 109.756ZM197.295 109.534C197.256 109.534 197.224 109.508 197.224 109.47C197.218 109.432 197.25 109.394 197.288 109.388L197.869 109.324C197.907 109.318 197.946 109.35 197.952 109.388C197.958 109.426 197.927 109.464 197.888 109.47L197.307 109.534C197.301 109.534 197.301 109.534 197.295 109.534ZM199.235 109.324C199.197 109.324 199.165 109.299 199.165 109.261C199.158 109.223 199.19 109.184 199.229 109.178L199.809 109.121C199.848 109.115 199.886 109.146 199.892 109.184C199.899 109.223 199.867 109.261 199.829 109.267L199.248 109.324C199.235 109.324 199.235 109.324 199.235 109.324ZM201.169 109.127C201.131 109.127 201.099 109.102 201.099 109.064C201.092 109.026 201.124 108.987 201.163 108.987C201.36 108.968 201.552 108.949 201.743 108.93C201.788 108.924 201.82 108.956 201.82 108.994C201.826 109.032 201.795 109.07 201.756 109.07C201.565 109.089 201.373 109.108 201.175 109.127H201.169ZM203.109 108.956C203.071 108.956 203.039 108.924 203.039 108.886C203.039 108.848 203.065 108.81 203.109 108.81C203.314 108.791 203.505 108.778 203.69 108.765C203.735 108.765 203.767 108.791 203.767 108.835C203.767 108.873 203.741 108.911 203.697 108.911C203.512 108.93 203.314 108.943 203.109 108.956ZM205.05 108.829C205.011 108.829 204.98 108.797 204.98 108.759C204.98 108.721 205.011 108.683 205.05 108.683C205.26 108.67 205.452 108.663 205.637 108.657C205.675 108.657 205.707 108.689 205.707 108.727C205.707 108.765 205.675 108.803 205.637 108.803C205.458 108.81 205.26 108.822 205.05 108.829C205.056 108.829 205.05 108.829 205.05 108.829Z" fill="white"/>
<path d="M196.969 121.985L193.439 122.436C192.98 122.494 192.546 122.201 192.431 121.757L191.588 118.428C191.454 117.901 191.818 117.367 192.367 117.297L196.605 116.757C197.141 116.687 197.62 117.094 197.639 117.627L197.773 121.045C197.786 121.522 197.441 121.928 196.969 121.985Z" fill="url(#paint25_linear)"/>
<path d="M196.452 121.42L193.765 121.763C193.414 121.807 193.082 121.585 192.999 121.242L192.361 118.707C192.259 118.301 192.533 117.9 192.954 117.85L196.184 117.437C196.592 117.386 196.956 117.691 196.975 118.097L197.078 120.702C197.078 121.064 196.816 121.375 196.452 121.42Z" fill="url(#paint26_linear)"/>
<path d="M194.352 94.484C195.182 97.9082 195.207 101.256 195.08 102.476C195.035 102.933 194.658 103.295 194.199 103.327C193.675 103.365 192.954 103.41 192.316 103.448C191.614 103.486 190.829 103.048 190.312 102.673C190.044 102.482 189.699 102.781 189.852 103.067C190.107 103.569 190.554 103.962 190.995 104.293C191.263 104.496 192.144 104.852 192.086 105.246C192.067 105.373 191.99 105.481 191.907 105.576C191.416 106.161 190.676 106.478 189.942 106.7C189.852 106.726 189.75 106.758 189.686 106.828C189.667 107.298 191.129 107.825 191.505 107.952C192.067 108.136 192.667 108.219 193.261 108.155C194.729 108.003 196.088 106.993 196.88 105.773C198.992 102.52 200.09 98.5943 200.486 95.5894C198.514 93.6454 195.539 94.141 194.352 94.484Z" fill="url(#paint27_linear)"/>
<path d="M200.48 95.9071C202.05 84.1099 192.916 75.0381 192.916 75.0381L187.484 81.3464C191.607 86.4668 193.573 91.1552 194.467 94.8398C195.648 94.4968 198.514 93.9505 200.48 95.9071Z" fill="url(#paint28_linear)"/>
<path d="M194.333 94.7827C194.18 94.7827 194.046 94.681 194.007 94.5286C192.903 89.9863 190.573 85.4948 187.088 81.1685C186.974 81.0224 186.993 80.8128 187.139 80.6984C187.286 80.5841 187.497 80.6031 187.612 80.7492C191.161 85.1518 193.529 89.7322 194.658 94.3697C194.703 94.5476 194.588 94.7318 194.409 94.7763C194.384 94.7827 194.358 94.7827 194.333 94.7827Z" fill="url(#paint29_linear)"/>
<path d="M120.739 164.715C120.739 164.657 120.739 164.6 120.72 164.543C119.845 161.094 115.505 158.946 115.505 158.946L113.788 159.08C112.799 162.116 112.926 163.984 113.086 164.816C113.092 164.842 113.099 164.861 113.105 164.886C114.522 165 117.439 165.083 120.739 164.715Z" fill="url(#paint30_linear)"/>
<path d="M113.105 164.88C113.182 165.159 113.386 165.375 113.648 165.426C115.665 165.845 118.869 165.509 120.216 165.331C120.516 165.293 120.733 165.02 120.733 164.708C117.439 165.083 114.522 165 113.105 164.88Z" fill="url(#paint31_linear)"/>
<path d="M113.099 156.526L113.827 160.013C113.878 160.268 114.075 160.458 114.318 160.484C114.612 160.509 115.026 160.528 115.448 160.465C115.824 160.407 116.086 160.033 116.016 159.62L115.512 156.519H113.099V156.526Z" fill="url(#paint32_linear)"/>
<path d="M128.182 164.835C126.286 164.785 125.303 164.562 124.792 164.353C124.792 164.543 124.792 164.734 124.799 164.931C124.805 165.14 124.965 165.312 125.156 165.312L135.579 165.242C135.911 165.242 136.109 164.854 135.962 164.549C134.596 164.664 131.118 164.918 128.182 164.835Z" fill="url(#paint33_linear)"/>
<path d="M135.962 164.549C135.949 164.524 135.937 164.499 135.924 164.473C135.005 163.19 132.656 160.642 128.028 159.537L125.807 159.467C125.807 159.467 124.818 161.176 124.799 164.353C125.309 164.562 126.286 164.785 128.188 164.835C131.118 164.918 134.596 164.664 135.962 164.549Z" fill="url(#paint34_linear)"/>
<path d="M125.29 156.221C125.322 156.386 125.788 158.864 125.967 159.829C126.011 160.058 126.19 160.223 126.401 160.236C126.784 160.255 127.396 160.261 127.92 160.115C128.207 160.039 128.398 159.747 128.373 159.429L128.124 155.503L125.29 156.221Z" fill="url(#paint35_linear)"/>
<path d="M123.605 110.392C123.605 110.392 126.662 131.299 128.871 156.183C128.909 156.647 128.539 157.047 128.086 157.148C127.409 157.288 126.42 157.46 125.603 157.434C125.162 157.422 124.799 157.098 124.728 156.672C123.975 152.282 118.614 128.739 117.203 123.561C117.203 123.561 115.588 145.574 116.105 156.99C116.118 157.275 115.907 157.517 115.627 157.555C115.199 157.606 114.51 157.644 113.629 157.549C113.297 157.511 113.029 157.263 112.978 156.932C112.442 153.222 109.359 131.121 109.493 115.201C109.499 114.305 110.552 106.929 110.552 106.929L123.605 110.392Z" fill="url(#paint36_linear)"/>
<path d="M110.086 111.599C109.774 111.484 109.55 111.205 109.518 110.874C109.11 106.948 107.144 82.6043 119.571 72.5922C119.571 72.5922 120.286 70.7372 126.139 75.2985C131.998 79.8598 128.858 84.6435 127.46 91.2378C125.762 99.2169 122.788 105.741 124.103 110.652C124.192 110.989 124.014 111.344 123.682 111.465C119.137 113.136 114.605 113.193 110.086 111.599Z" fill="#D8FFFB"/>
<path d="M124.422 65.2991C124.416 65.6485 119.456 72.662 119.456 72.662C119.456 72.662 120.35 74.409 124.601 75.8257L128.271 68.3167L124.422 65.2991Z" fill="url(#paint37_linear)"/>
<path d="M128.328 61.2777C128.328 61.2777 130.096 65.3117 130.211 67.4336C130.333 69.5554 130.786 70.9276 128.328 71.3533C125.865 71.7789 123.79 70.5592 122.667 68.45C122.667 68.45 120.905 65.1974 121.301 63.8633C121.697 62.5356 128.328 61.2777 128.328 61.2777Z" fill="url(#paint38_linear)"/>
<path d="M123.509 66.9318L123.65 66.8682C123.828 66.792 123.905 66.576 123.816 66.4045C123.471 65.7374 122.794 64.2064 123.669 63.8507C124.799 63.3933 129.26 62.4848 130.224 60.9093C131.149 59.3973 130.332 57.4407 129.094 56.8816C129.011 56.8435 128.915 56.8753 128.871 56.9515L128.769 57.1421C128.698 57.2755 128.501 57.2565 128.462 57.1103C128.424 56.9706 128.239 56.9452 128.162 57.0659C127.869 57.536 127.064 58.3047 124.933 58.6922C121.894 59.2512 119.89 60.471 119.839 62.561C119.839 62.6944 119.692 62.7643 119.577 62.7008C119.354 62.5674 118.997 62.5039 118.518 62.9041C117.682 63.6029 118.026 65.4135 119.852 66.9C119.941 66.9699 119.935 67.1033 119.845 67.1668C119.514 67.3828 119.022 67.891 120.299 68.5708C121.62 69.276 122.609 69.2188 122.992 69.1553C123.088 69.1425 123.145 69.0473 123.126 68.952L122.718 67.116C122.692 67.0144 122.775 66.9127 122.884 66.9127H123.509V66.9318Z" fill="url(#paint39_linear)"/>
<path d="M123.586 67.3193C123.586 67.3193 122.909 64.7401 121.748 65.4643C120.586 66.1885 122.348 68.3548 123.286 68.4501L123.586 67.3193Z" fill="url(#paint40_linear)"/>
<path d="M128.028 77.4138L128.373 86.5619C129.343 86.8922 130.269 87.1527 131.15 87.3496C131.698 85.5836 132.911 83.4172 133.907 81.8036C130.256 80.514 128.028 77.4138 128.028 77.4138Z" fill="url(#paint41_linear)"/>
<path d="M146.258 77.2615C141.247 82.6423 137.194 82.96 133.907 81.8037C132.911 83.4174 131.698 85.5837 131.15 87.3498C144.522 90.2848 147.675 78.0492 147.675 78.0492L146.258 77.2615Z" fill="url(#paint42_linear)"/>
<path d="M147.272 76.6897C147.272 76.6897 147.847 76.0735 148.919 76.2641C149.992 76.4547 150.936 76.8295 151.6 76.2641C152.264 75.6987 152.5 76.4547 152.5 76.4547L150.509 77.9603L147.272 76.6897Z" fill="url(#paint43_linear)"/>
<path d="M146.079 77.7443C146.079 77.7443 146.475 76.0989 147.668 76.3276C148.862 76.5499 151.562 78.0174 152.258 77.7443C152.953 77.4774 153.847 76.8295 154.3 77.0582L153.496 78.0555C153.496 78.0555 155.564 76.8676 155.921 77.5981L152.475 79.5294C152.481 79.523 147.439 79.0212 146.079 77.7443Z" fill="url(#paint44_linear)"/>
<path d="M122.469 89.3827C122.469 89.3827 131.884 97.2285 142.051 93.8043C142.683 93.5947 143.373 93.6391 143.96 93.9504L146.883 95.4878C148.109 96.1294 149.628 95.7101 150.343 94.5222C150.751 93.8488 151.096 93.0737 151.166 92.3368L145.447 90.0307L145.868 89.3319C145.868 89.3319 143.079 89.0969 142.345 91.0853C142.345 91.0853 137.028 93.2897 128.054 83.4683C128.054 83.4746 123.982 86.9178 122.469 89.3827Z" fill="url(#paint45_linear)"/>
<path d="M121.965 89.3065C121.933 89.3065 121.901 89.3001 121.875 89.2811C117.912 86.6129 116.048 82.312 116.029 82.2675C115.997 82.185 116.035 82.0897 116.112 82.0579C116.195 82.0261 116.29 82.0579 116.322 82.1405C116.342 82.185 118.173 86.4032 122.054 89.0142C122.131 89.0651 122.15 89.1604 122.099 89.2366C122.067 89.2811 122.016 89.3065 121.965 89.3065Z" fill="url(#paint46_linear)"/>
<path d="M127.869 83.3412C127.818 83.3412 127.767 83.3158 127.735 83.2649C127.722 83.2459 126.509 81.3718 124.205 77.2615C123.497 75.9973 122.565 75.1969 121.435 74.8792C119.565 74.3583 117.765 75.3557 117.746 75.3684C117.669 75.4129 117.567 75.3875 117.529 75.3112C117.484 75.235 117.509 75.1334 117.586 75.0952C117.663 75.0508 119.52 74.0216 121.518 74.5743C122.737 74.911 123.733 75.7623 124.486 77.1091C126.784 81.213 127.996 83.0807 128.003 83.0998C128.054 83.176 128.028 83.2713 127.952 83.3221C127.926 83.3285 127.894 83.3412 127.869 83.3412Z" fill="url(#paint47_linear)"/>
<defs>
<linearGradient id="paint0_linear" x1="110.492" y1="78.3629" x2="174.075" y2="78.3629" gradientUnits="userSpaceOnUse">
<stop stop-color="#DAE3FE"/>
<stop offset="1" stop-color="#E9EFFD"/>
</linearGradient>
<linearGradient id="paint1_linear" x1="161.869" y1="107.634" x2="142.054" y2="158.605" gradientUnits="userSpaceOnUse">
<stop stop-color="#09005D"/>
<stop offset="1" stop-color="#1A0F91"/>
</linearGradient>
<linearGradient id="paint2_linear" x1="147.258" y1="93.4288" x2="143.7" y2="94.1303" gradientUnits="userSpaceOnUse">
<stop stop-color="#FEBBBA"/>
<stop offset="1" stop-color="#FF928E"/>
</linearGradient>
<linearGradient id="paint3_linear" x1="144.259" y1="89.8712" x2="160.772" y2="89.8712" gradientUnits="userSpaceOnUse">
<stop stop-color="#FEBBBA"/>
<stop offset="1" stop-color="#FF928E"/>
</linearGradient>
<linearGradient id="paint4_linear" x1="193.255" y1="34.7034" x2="183.271" y2="54.4838" gradientUnits="userSpaceOnUse">
<stop stop-color="#09005D"/>
<stop offset="1" stop-color="#1A0F91"/>
</linearGradient>
<linearGradient id="paint5_linear" x1="209.317" y1="42.8112" x2="199.333" y2="62.5914" gradientUnits="userSpaceOnUse">
<stop stop-color="#09005D"/>
<stop offset="1" stop-color="#1A0F91"/>
</linearGradient>
<linearGradient id="paint6_linear" x1="181.208" y1="73.4314" x2="178.582" y2="65.5171" gradientUnits="userSpaceOnUse">
<stop stop-color="#FEBBBA"/>
<stop offset="1" stop-color="#FF928E"/>
</linearGradient>
<linearGradient id="paint7_linear" x1="175.022" y1="63.7282" x2="184.526" y2="67.8797" gradientUnits="userSpaceOnUse">
<stop stop-color="#FEBBBA"/>
<stop offset="1" stop-color="#FF928E"/>
</linearGradient>
<linearGradient id="paint8_linear" x1="181.904" y1="69.4043" x2="174.151" y2="61.1286" gradientUnits="userSpaceOnUse">
<stop stop-color="#09005D"/>
<stop offset="1" stop-color="#1A0F91"/>
</linearGradient>
<linearGradient id="paint9_linear" x1="174.429" y1="65.086" x2="183.933" y2="69.2373" gradientUnits="userSpaceOnUse">
<stop stop-color="#FEBBBA"/>
<stop offset="1" stop-color="#FF928E"/>
</linearGradient>
<linearGradient id="paint10_linear" x1="193.096" y1="165.059" x2="181.268" y2="165.059" gradientUnits="userSpaceOnUse">
<stop stop-color="#4042E2"/>
<stop offset="1" stop-color="#4F52FF"/>
</linearGradient>
<linearGradient id="paint11_linear" x1="221.647" y1="154.045" x2="178.847" y2="166.301" gradientUnits="userSpaceOnUse">
<stop stop-color="#09005D"/>
<stop offset="1" stop-color="#1A0F91"/>
</linearGradient>
<linearGradient id="paint12_linear" x1="192.004" y1="159.531" x2="188.672" y2="159.531" gradientUnits="userSpaceOnUse">
<stop stop-color="#FEBBBA"/>
<stop offset="1" stop-color="#FF928E"/>
</linearGradient>
<linearGradient id="paint13_linear" x1="216.677" y1="164.805" x2="212.144" y2="164.805" gradientUnits="userSpaceOnUse">
<stop stop-color="#4042E2"/>
<stop offset="1" stop-color="#4F52FF"/>
</linearGradient>
<linearGradient id="paint14_linear" x1="197.77" y1="151.575" x2="224.385" y2="168.988" gradientUnits="userSpaceOnUse">
<stop stop-color="#09005D"/>
<stop offset="1" stop-color="#1A0F91"/>
</linearGradient>
<linearGradient id="paint15_linear" x1="213.186" y1="156.766" x2="209.204" y2="156.766" gradientUnits="userSpaceOnUse">
<stop stop-color="#FEBBBA"/>
<stop offset="1" stop-color="#FF928E"/>
</linearGradient>
<linearGradient id="paint16_linear" x1="213.747" y1="162.585" x2="153.363" y2="78.7066" gradientUnits="userSpaceOnUse">
<stop stop-color="#09005D"/>
<stop offset="1" stop-color="#1A0F91"/>
</linearGradient>
<linearGradient id="paint17_linear" x1="199.124" y1="151.7" x2="194.468" y2="118.058" gradientUnits="userSpaceOnUse">
<stop stop-color="#FF928E"/>
<stop offset="1" stop-color="#FE7062"/>
</linearGradient>
<linearGradient id="paint18_linear" x1="187.943" y1="111.836" x2="187.28" y2="107.925" gradientUnits="userSpaceOnUse">
<stop stop-color="#E1473D"/>
<stop offset="1" stop-color="#E9605A"/>
</linearGradient>
<linearGradient id="paint19_linear" x1="186.978" y1="105.96" x2="189.221" y2="117.127" gradientUnits="userSpaceOnUse">
<stop stop-color="#E1473D"/>
<stop offset="1" stop-color="#E9605A"/>
</linearGradient>
<linearGradient id="paint20_linear" x1="198.889" y1="109.983" x2="198.226" y2="106.071" gradientUnits="userSpaceOnUse">
<stop stop-color="#E1473D"/>
<stop offset="1" stop-color="#E9605A"/>
</linearGradient>
<linearGradient id="paint21_linear" x1="197.851" y1="103.777" x2="200.094" y2="114.944" gradientUnits="userSpaceOnUse">
<stop stop-color="#E1473D"/>
<stop offset="1" stop-color="#E9605A"/>
</linearGradient>
<linearGradient id="paint22_linear" x1="192.625" y1="98.8668" x2="192.559" y2="107.03" gradientUnits="userSpaceOnUse">
<stop stop-color="#E1473D"/>
<stop offset="1" stop-color="#E9605A"/>
</linearGradient>
<linearGradient id="paint23_linear" x1="187.895" y1="104.546" x2="184.175" y2="83.3169" gradientUnits="userSpaceOnUse">
<stop stop-color="#FEBBBA"/>
<stop offset="1" stop-color="#FF928E"/>
</linearGradient>
<linearGradient id="paint24_linear" x1="193.76" y1="105.074" x2="194.539" y2="143.032" gradientUnits="userSpaceOnUse">
<stop stop-color="#FF928E"/>
<stop offset="1" stop-color="#FE7062"/>
</linearGradient>
<linearGradient id="paint25_linear" x1="194.647" y1="109.658" x2="194.669" y2="122.382" gradientUnits="userSpaceOnUse">
<stop stop-color="#E1473D"/>
<stop offset="1" stop-color="#E9605A"/>
</linearGradient>
<linearGradient id="paint26_linear" x1="192.507" y1="119.916" x2="197.124" y2="119.322" gradientUnits="userSpaceOnUse">
<stop stop-color="#FF928E"/>
<stop offset="1" stop-color="#FE7062"/>
</linearGradient>
<linearGradient id="paint27_linear" x1="197.53" y1="96.3975" x2="188.58" y2="113.69" gradientUnits="userSpaceOnUse">
<stop stop-color="#FEBBBA"/>
<stop offset="1" stop-color="#FF928E"/>
</linearGradient>
<linearGradient id="paint28_linear" x1="215.687" y1="46.0264" x2="205.703" y2="65.8067" gradientUnits="userSpaceOnUse">
<stop stop-color="#09005D"/>
<stop offset="1" stop-color="#1A0F91"/>
</linearGradient>
<linearGradient id="paint29_linear" x1="218.91" y1="56.1061" x2="162.099" y2="120.662" gradientUnits="userSpaceOnUse">
<stop stop-color="#4042E2"/>
<stop offset="1" stop-color="#4F52FF"/>
</linearGradient>
<linearGradient id="paint30_linear" x1="112.978" y1="161.963" x2="120.738" y2="161.963" gradientUnits="userSpaceOnUse">
<stop stop-color="#09005D"/>
<stop offset="1" stop-color="#1A0F91"/>
</linearGradient>
<linearGradient id="paint31_linear" x1="132.404" y1="152.852" x2="104.276" y2="175.042" gradientUnits="userSpaceOnUse">
<stop stop-color="#4042E2"/>
<stop offset="1" stop-color="#4F52FF"/>
</linearGradient>
<linearGradient id="paint32_linear" x1="115.136" y1="153.17" x2="113.668" y2="166.047" gradientUnits="userSpaceOnUse">
<stop stop-color="#A22B25"/>
<stop offset="1" stop-color="#C0423C"/>
</linearGradient>
<linearGradient id="paint33_linear" x1="137.419" y1="159.199" x2="109.29" y2="181.389" gradientUnits="userSpaceOnUse">
<stop stop-color="#4042E2"/>
<stop offset="1" stop-color="#4F52FF"/>
</linearGradient>
<linearGradient id="paint34_linear" x1="124.794" y1="162.159" x2="135.964" y2="162.159" gradientUnits="userSpaceOnUse">
<stop stop-color="#09005D"/>
<stop offset="1" stop-color="#1A0F91"/>
</linearGradient>
<linearGradient id="paint35_linear" x1="127.008" y1="154.53" x2="126.348" y2="167.473" gradientUnits="userSpaceOnUse">
<stop stop-color="#A22B25"/>
<stop offset="1" stop-color="#C0423C"/>
</linearGradient>
<linearGradient id="paint36_linear" x1="114.727" y1="167.893" x2="125.6" y2="87.9498" gradientUnits="userSpaceOnUse">
<stop stop-color="#4F52FF"/>
<stop offset="1" stop-color="#4042E2"/>
</linearGradient>
<linearGradient id="paint37_linear" x1="119.632" y1="79.9579" x2="127.55" y2="62.0578" gradientUnits="userSpaceOnUse">
<stop stop-color="#A22B25"/>
<stop offset="1" stop-color="#C0423C"/>
</linearGradient>
<linearGradient id="paint38_linear" x1="116.99" y1="51.9765" x2="128.25" y2="69.2292" gradientUnits="userSpaceOnUse">
<stop stop-color="#A22B25"/>
<stop offset="1" stop-color="#C0423C"/>
</linearGradient>
<linearGradient id="paint39_linear" x1="118.051" y1="54.9851" x2="126.516" y2="64.9463" gradientUnits="userSpaceOnUse">
<stop stop-color="#09005D"/>
<stop offset="1" stop-color="#1A0F91"/>
</linearGradient>
<linearGradient id="paint40_linear" x1="114.026" y1="53.911" x2="125.286" y2="71.1636" gradientUnits="userSpaceOnUse">
<stop stop-color="#A22B25"/>
<stop offset="1" stop-color="#C0423C"/>
</linearGradient>
<linearGradient id="paint41_linear" x1="181.156" y1="30.2801" x2="134.483" y2="77.8816" gradientUnits="userSpaceOnUse">
<stop stop-color="#FF928E"/>
<stop offset="1" stop-color="#FE7062"/>
</linearGradient>
<linearGradient id="paint42_linear" x1="152.866" y1="76.4908" x2="131.252" y2="87.2937" gradientUnits="userSpaceOnUse">
<stop stop-color="#A22B25"/>
<stop offset="1" stop-color="#C0423C"/>
</linearGradient>
<linearGradient id="paint43_linear" x1="152.549" y1="73.8018" x2="145.179" y2="81.5365" gradientUnits="userSpaceOnUse">
<stop stop-color="#A22B25"/>
<stop offset="1" stop-color="#C0423C"/>
</linearGradient>
<linearGradient id="paint44_linear" x1="152.969" y1="76.3637" x2="131.355" y2="87.1666" gradientUnits="userSpaceOnUse">
<stop stop-color="#A22B25"/>
<stop offset="1" stop-color="#C0423C"/>
</linearGradient>
<linearGradient id="paint45_linear" x1="162.019" y1="94.5555" x2="99.1925" y2="83.1411" gradientUnits="userSpaceOnUse">
<stop stop-color="#A22B25"/>
<stop offset="1" stop-color="#C0423C"/>
</linearGradient>
<linearGradient id="paint46_linear" x1="139.708" y1="46.8953" x2="83.3831" y2="153.718" gradientUnits="userSpaceOnUse">
<stop stop-color="#E1473D"/>
<stop offset="1" stop-color="#E9605A"/>
</linearGradient>
<linearGradient id="paint47_linear" x1="139.906" y1="47.0001" x2="83.5812" y2="153.823" gradientUnits="userSpaceOnUse">
<stop stop-color="#E1473D"/>
<stop offset="1" stop-color="#E9605A"/>
</linearGradient>
</defs>
</svg>
