<svg width="18" height="18" viewBox="0 0 18 18" fill="none" xmlns="http://www.w3.org/2000/svg">
<mask id="path-1-inside-1_1070:15614" fill="white">
<path d="M17.2687 10.1387C17.0631 9.78811 16.8557 9.43748 16.65 9.08514C16.548 8.90467 16.548 8.69326 16.65 8.5128C16.6764 8.46639 16.7027 8.4217 16.7291 8.37701C16.8574 8.15701 16.9875 7.93873 17.1158 7.71873C17.2037 7.5692 17.2934 7.41967 17.3812 7.26842C17.5834 6.91436 17.5307 6.46061 17.2353 6.17014C17.1 6.03779 16.9119 5.95186 16.7484 5.85904C16.5129 5.7267 16.2773 5.59436 16.0418 5.46201C15.8853 5.37436 15.6885 5.29186 15.5812 5.14576C15.4529 4.97045 15.4687 4.77108 15.4687 4.56998V3.78108C15.4687 3.60061 15.4828 3.41326 15.4564 3.23451C15.3949 2.82373 15.0363 2.51951 14.6215 2.47654C14.451 2.45936 14.2717 2.47311 14.0994 2.47311H13.2978C13.0887 2.47311 12.8848 2.48514 12.709 2.34592C12.5684 2.2342 12.484 2.0417 12.3943 1.89045C12.259 1.66014 12.1236 1.42983 11.9883 1.20123C11.8898 1.03451 11.8002 0.847169 11.6508 0.718262C11.3467 0.455293 10.9107 0.414043 10.5592 0.606543C10.1742 0.81795 9.79277 1.03795 9.41133 1.25279C9.36211 1.28029 9.31465 1.30951 9.26543 1.33357C9.08965 1.42467 8.87695 1.41264 8.70468 1.31982C8.55 1.23561 8.39882 1.14795 8.24414 1.06029C8.01914 0.934825 7.7959 0.807637 7.5709 0.68045C7.34765 0.554981 7.12441 0.455293 6.85722 0.48795C6.53203 0.527481 6.28945 0.718262 6.12773 0.989825C6.01172 1.18576 5.8957 1.38342 5.77968 1.57936C5.66894 1.76842 5.55644 1.95748 5.4457 2.14654C5.32617 2.35108 5.13632 2.46967 4.89199 2.46967C4.44199 2.47139 3.99199 2.46967 3.54023 2.46967C3.24843 2.46967 2.96894 2.54701 2.76679 2.76701C2.62441 2.9217 2.54355 3.1142 2.52597 3.32045C2.5207 3.37717 2.52421 3.43561 2.52421 3.49233C2.52421 3.92717 2.52949 4.36201 2.52421 4.79686C2.52246 5.04436 2.38007 5.21795 2.16914 5.33654C1.96699 5.44998 1.76484 5.56514 1.56269 5.67858C1.37109 5.78686 1.17949 5.89514 0.987886 6.00342C0.694332 6.16842 0.499214 6.45373 0.490425 6.79061C0.483394 7.03467 0.595894 7.23233 0.715425 7.43514C0.849019 7.6603 0.980855 7.88717 1.11445 8.11405C1.20058 8.26014 1.30253 8.40623 1.37461 8.5592C1.45371 8.72764 1.43789 8.92358 1.34648 9.08342C1.31836 9.13326 1.28847 9.18311 1.25859 9.23123C1.04414 9.59561 0.82441 9.95827 0.613472 10.3244C0.40605 10.687 0.465816 11.1614 0.785738 11.445C0.926363 11.5705 1.11093 11.6547 1.27441 11.7475C1.50996 11.8798 1.74375 12.0122 1.97929 12.1445C2.14101 12.2356 2.33261 12.3164 2.43457 12.478C2.54707 12.6533 2.52597 12.8526 2.52597 13.0503V13.8426C2.52597 14.0231 2.51015 14.2139 2.54355 14.3926C2.62089 14.8017 3.00058 15.1008 3.41894 15.1197C3.58769 15.1265 3.75644 15.1197 3.92519 15.1197H4.71269C4.93418 15.1197 5.14511 15.1162 5.31914 15.2795C5.4457 15.3981 5.5248 15.582 5.61093 15.7281C5.74453 15.955 5.87812 16.1836 6.01347 16.4105C6.11718 16.5858 6.21035 16.7748 6.37558 16.9037C6.68144 17.1426 7.09629 17.1719 7.4373 16.9828C7.60605 16.89 7.77304 16.7937 7.94004 16.6992C8.15976 16.5755 8.37949 16.4517 8.59922 16.328C8.65195 16.2987 8.70293 16.2644 8.75918 16.2403C8.93144 16.1664 9.12832 16.1819 9.29179 16.2712C9.67675 16.4826 10.0582 16.7026 10.4396 16.9192C10.4836 16.9433 10.5258 16.969 10.5697 16.9931C10.7648 17.098 10.9828 17.1306 11.2008 17.0928C11.5014 17.0412 11.7193 16.8401 11.867 16.5909C12.0937 16.2059 12.3205 15.8192 12.549 15.4342C12.6703 15.2297 12.8637 15.1197 13.1045 15.1197C13.3207 15.1197 13.5369 15.1197 13.7531 15.1197H14.465C14.7621 15.1197 15.0486 15.0303 15.2437 14.7983C15.3809 14.635 15.46 14.4356 15.4635 14.2225C15.4652 14.1744 15.4635 14.1245 15.4635 14.0764V13.3253C15.4635 13.1465 15.4617 12.9678 15.4635 12.789C15.4652 12.6292 15.5268 12.4814 15.6445 12.3714C15.699 12.3198 15.7641 12.2837 15.8291 12.2476C16.2228 12.0259 16.6166 11.8059 17.0086 11.5825C17.3074 11.414 17.5061 11.1098 17.499 10.7678C17.5008 10.5306 17.3865 10.3398 17.2687 10.1387ZM5.3789 6.38326C5.45449 6.08936 5.63203 5.79717 5.87109 5.60295C6.14882 5.37779 6.45644 5.25233 6.81504 5.21623C7.44082 5.15436 8.09824 5.52389 8.36367 6.08076C8.51836 6.40217 8.55703 6.73045 8.49902 7.07936C8.45156 7.37326 8.28808 7.64998 8.08066 7.86483C8.07539 7.86998 8.06836 7.87686 8.06308 7.88201C8.05605 7.88889 8.04726 7.89748 8.04023 7.90436C7.51465 8.38733 6.67265 8.49389 6.06269 8.08998C5.49316 7.71358 5.21191 7.04154 5.3789 6.38326ZM8.47793 10.0184C8.04375 10.443 7.60957 10.8675 7.17539 11.292C6.99433 11.469 6.81328 11.6461 6.63222 11.8231C6.43007 12.0208 6.11191 12.007 5.908 11.8231C5.7041 11.6392 5.71816 11.3006 5.908 11.115C5.91152 11.1115 5.91504 11.1081 5.91679 11.1064C6.133 10.8864 6.35976 10.6733 6.58125 10.4567C7.03652 10.0115 7.49004 9.56811 7.94531 9.12295C8.4709 8.60905 8.99648 8.09514 9.52207 7.58123C9.95625 7.1567 10.3904 6.73217 10.8246 6.30764C11.0057 6.13061 11.1867 5.95358 11.3678 5.77655C11.5699 5.57889 11.8881 5.59264 12.092 5.77655C12.2959 5.96045 12.2818 6.29904 12.092 6.48467C12.0885 6.48811 12.085 6.49154 12.0832 6.49326C11.867 6.71326 11.6402 6.92639 11.4187 7.14295C10.9635 7.58811 10.51 8.03155 10.0547 8.4767C9.5291 8.99061 9.00351 9.50451 8.47793 10.0184ZM12.6422 11.1253C12.5947 11.4192 12.4312 11.6976 12.2238 11.9108C12.2186 11.9159 12.2115 11.9228 12.2062 11.928C12.1992 11.9348 12.1904 11.9434 12.1834 11.9503C11.6578 12.4333 10.8158 12.5398 10.2059 12.1376C9.63632 11.7612 9.35507 11.0875 9.52382 10.4292C9.59941 10.1353 9.77695 9.84311 10.016 9.64889C10.2937 9.42201 10.6014 9.29655 10.96 9.26217C11.5857 9.2003 12.2432 9.57155 12.5086 10.1267C12.6598 10.4481 12.6984 10.7747 12.6422 11.1253Z"/>
</mask>
<path d="M17.2687 10.1387C17.0631 9.78811 16.8557 9.43748 16.65 9.08514C16.548 8.90467 16.548 8.69326 16.65 8.5128C16.6764 8.46639 16.7027 8.4217 16.7291 8.37701C16.8574 8.15701 16.9875 7.93873 17.1158 7.71873C17.2037 7.5692 17.2934 7.41967 17.3812 7.26842C17.5834 6.91436 17.5307 6.46061 17.2353 6.17014C17.1 6.03779 16.9119 5.95186 16.7484 5.85904C16.5129 5.7267 16.2773 5.59436 16.0418 5.46201C15.8853 5.37436 15.6885 5.29186 15.5812 5.14576C15.4529 4.97045 15.4687 4.77108 15.4687 4.56998V3.78108C15.4687 3.60061 15.4828 3.41326 15.4564 3.23451C15.3949 2.82373 15.0363 2.51951 14.6215 2.47654C14.451 2.45936 14.2717 2.47311 14.0994 2.47311H13.2978C13.0887 2.47311 12.8848 2.48514 12.709 2.34592C12.5684 2.2342 12.484 2.0417 12.3943 1.89045C12.259 1.66014 12.1236 1.42983 11.9883 1.20123C11.8898 1.03451 11.8002 0.847169 11.6508 0.718262C11.3467 0.455293 10.9107 0.414043 10.5592 0.606543C10.1742 0.81795 9.79277 1.03795 9.41133 1.25279C9.36211 1.28029 9.31465 1.30951 9.26543 1.33357C9.08965 1.42467 8.87695 1.41264 8.70468 1.31982C8.55 1.23561 8.39882 1.14795 8.24414 1.06029C8.01914 0.934825 7.7959 0.807637 7.5709 0.68045C7.34765 0.554981 7.12441 0.455293 6.85722 0.48795C6.53203 0.527481 6.28945 0.718262 6.12773 0.989825C6.01172 1.18576 5.8957 1.38342 5.77968 1.57936C5.66894 1.76842 5.55644 1.95748 5.4457 2.14654C5.32617 2.35108 5.13632 2.46967 4.89199 2.46967C4.44199 2.47139 3.99199 2.46967 3.54023 2.46967C3.24843 2.46967 2.96894 2.54701 2.76679 2.76701C2.62441 2.9217 2.54355 3.1142 2.52597 3.32045C2.5207 3.37717 2.52421 3.43561 2.52421 3.49233C2.52421 3.92717 2.52949 4.36201 2.52421 4.79686C2.52246 5.04436 2.38007 5.21795 2.16914 5.33654C1.96699 5.44998 1.76484 5.56514 1.56269 5.67858C1.37109 5.78686 1.17949 5.89514 0.987886 6.00342C0.694332 6.16842 0.499214 6.45373 0.490425 6.79061C0.483394 7.03467 0.595894 7.23233 0.715425 7.43514C0.849019 7.6603 0.980855 7.88717 1.11445 8.11405C1.20058 8.26014 1.30253 8.40623 1.37461 8.5592C1.45371 8.72764 1.43789 8.92358 1.34648 9.08342C1.31836 9.13326 1.28847 9.18311 1.25859 9.23123C1.04414 9.59561 0.82441 9.95827 0.613472 10.3244C0.40605 10.687 0.465816 11.1614 0.785738 11.445C0.926363 11.5705 1.11093 11.6547 1.27441 11.7475C1.50996 11.8798 1.74375 12.0122 1.97929 12.1445C2.14101 12.2356 2.33261 12.3164 2.43457 12.478C2.54707 12.6533 2.52597 12.8526 2.52597 13.0503V13.8426C2.52597 14.0231 2.51015 14.2139 2.54355 14.3926C2.62089 14.8017 3.00058 15.1008 3.41894 15.1197C3.58769 15.1265 3.75644 15.1197 3.92519 15.1197H4.71269C4.93418 15.1197 5.14511 15.1162 5.31914 15.2795C5.4457 15.3981 5.5248 15.582 5.61093 15.7281C5.74453 15.955 5.87812 16.1836 6.01347 16.4105C6.11718 16.5858 6.21035 16.7748 6.37558 16.9037C6.68144 17.1426 7.09629 17.1719 7.4373 16.9828C7.60605 16.89 7.77304 16.7937 7.94004 16.6992C8.15976 16.5755 8.37949 16.4517 8.59922 16.328C8.65195 16.2987 8.70293 16.2644 8.75918 16.2403C8.93144 16.1664 9.12832 16.1819 9.29179 16.2712C9.67675 16.4826 10.0582 16.7026 10.4396 16.9192C10.4836 16.9433 10.5258 16.969 10.5697 16.9931C10.7648 17.098 10.9828 17.1306 11.2008 17.0928C11.5014 17.0412 11.7193 16.8401 11.867 16.5909C12.0937 16.2059 12.3205 15.8192 12.549 15.4342C12.6703 15.2297 12.8637 15.1197 13.1045 15.1197C13.3207 15.1197 13.5369 15.1197 13.7531 15.1197H14.465C14.7621 15.1197 15.0486 15.0303 15.2437 14.7983C15.3809 14.635 15.46 14.4356 15.4635 14.2225C15.4652 14.1744 15.4635 14.1245 15.4635 14.0764V13.3253C15.4635 13.1465 15.4617 12.9678 15.4635 12.789C15.4652 12.6292 15.5268 12.4814 15.6445 12.3714C15.699 12.3198 15.7641 12.2837 15.8291 12.2476C16.2228 12.0259 16.6166 11.8059 17.0086 11.5825C17.3074 11.414 17.5061 11.1098 17.499 10.7678C17.5008 10.5306 17.3865 10.3398 17.2687 10.1387ZM5.3789 6.38326C5.45449 6.08936 5.63203 5.79717 5.87109 5.60295C6.14882 5.37779 6.45644 5.25233 6.81504 5.21623C7.44082 5.15436 8.09824 5.52389 8.36367 6.08076C8.51836 6.40217 8.55703 6.73045 8.49902 7.07936C8.45156 7.37326 8.28808 7.64998 8.08066 7.86483C8.07539 7.86998 8.06836 7.87686 8.06308 7.88201C8.05605 7.88889 8.04726 7.89748 8.04023 7.90436C7.51465 8.38733 6.67265 8.49389 6.06269 8.08998C5.49316 7.71358 5.21191 7.04154 5.3789 6.38326ZM8.47793 10.0184C8.04375 10.443 7.60957 10.8675 7.17539 11.292C6.99433 11.469 6.81328 11.6461 6.63222 11.8231C6.43007 12.0208 6.11191 12.007 5.908 11.8231C5.7041 11.6392 5.71816 11.3006 5.908 11.115C5.91152 11.1115 5.91504 11.1081 5.91679 11.1064C6.133 10.8864 6.35976 10.6733 6.58125 10.4567C7.03652 10.0115 7.49004 9.56811 7.94531 9.12295C8.4709 8.60905 8.99648 8.09514 9.52207 7.58123C9.95625 7.1567 10.3904 6.73217 10.8246 6.30764C11.0057 6.13061 11.1867 5.95358 11.3678 5.77655C11.5699 5.57889 11.8881 5.59264 12.092 5.77655C12.2959 5.96045 12.2818 6.29904 12.092 6.48467C12.0885 6.48811 12.085 6.49154 12.0832 6.49326C11.867 6.71326 11.6402 6.92639 11.4187 7.14295C10.9635 7.58811 10.51 8.03155 10.0547 8.4767C9.5291 8.99061 9.00351 9.50451 8.47793 10.0184ZM12.6422 11.1253C12.5947 11.4192 12.4312 11.6976 12.2238 11.9108C12.2186 11.9159 12.2115 11.9228 12.2062 11.928C12.1992 11.9348 12.1904 11.9434 12.1834 11.9503C11.6578 12.4333 10.8158 12.5398 10.2059 12.1376C9.63632 11.7612 9.35507 11.0875 9.52382 10.4292C9.59941 10.1353 9.77695 9.84311 10.016 9.64889C10.2937 9.42201 10.6014 9.29655 10.96 9.26217C11.5857 9.2003 12.2432 9.57155 12.5086 10.1267C12.6598 10.4481 12.6984 10.7747 12.6422 11.1253Z" fill="#F4FF00" stroke="#2F6F68" mask="url(#path-1-inside-1_1070:15614)"/>
</svg>
