<svg width="13" height="12" viewBox="0 0 13 12" fill="none" xmlns="http://www.w3.org/2000/svg">
<path fill-rule="evenodd" clip-rule="evenodd" d="M5.59054 0.460655C5.79014 -0.153552 6.65908 -0.153552 6.85868 0.460655L7.87108 3.5765C7.96028 3.85118 8.21628 4.03715 8.50508 4.03715H11.7813C12.4271 4.03715 12.6956 4.86356 12.1731 5.24314L9.52261 7.16887C9.28894 7.33861 9.19121 7.63954 9.28048 7.91421L10.2929 11.0301C10.4924 11.6443 9.78941 12.155 9.26694 11.7754L6.61648 9.84974C6.38281 9.67994 6.06641 9.67994 5.83274 9.84974L3.18226 11.7754C2.65978 12.155 1.9568 11.6443 2.15636 11.0301L3.16876 7.91421C3.25801 7.63954 3.16024 7.33861 2.92658 7.16887L0.27609 5.24314C-0.24639 4.86356 0.0221301 4.03715 0.667943 4.03715H3.94414C4.23295 4.03715 4.48892 3.85118 4.57817 3.5765L5.59054 0.460655Z" fill="#2F6F68"/>
</svg>
