<svg width="278" height="169" viewBox="0 0 278 169" fill="none" xmlns="http://www.w3.org/2000/svg">
<path d="M23.6306 168.324C23.6306 168.324 -4.81261 143.526 0.711882 102.703C6.43631 60.4317 36.5316 37.9423 75.8029 46.4742C107.898 53.453 128.575 48.9719 161.764 29.0326C216.188 -3.67822 286.344 31.7297 267.992 95.105C259.111 125.769 296.383 140.923 265.182 168.387L23.6306 168.324Z" fill="#2F6F68"/>
<path d="M29 165H249V169H29V165Z" fill="#94CBC5"/>
<g clip-path="url(#clip0_2973_15100)">
<path d="M62.3858 35.9594C62.2905 35.9148 62.2247 35.8175 62.2256 35.7074C62.2281 35.3442 62.2384 34.9741 62.2561 34.608C62.2634 34.4592 62.3928 34.3451 62.5453 34.355C62.9151 34.3758 62.7851 34.737 62.7783 35.7213C62.7774 35.8711 62.6527 35.9902 62.4999 35.9862C62.4593 35.9852 62.4206 35.9763 62.3858 35.9594Z" fill="#91B3FA"/>
<path d="M103.166 13.6993C101.37 12.642 100.998 12.7062 101.18 12.335C101.296 12.1002 101.582 12.2148 101.549 12.2136C102.192 12.5286 102.829 12.8711 103.443 13.232C103.575 13.3099 103.62 13.4771 103.544 13.6065C103.47 13.7291 103.307 13.7795 103.166 13.6993ZM95.9334 10.4404C95.9706 10.2949 96.1203 10.209 96.2688 10.2479C96.9576 10.4289 97.6489 10.6397 98.3238 10.8722C98.6706 10.9925 98.4957 11.5069 98.1496 11.3866C97.4877 11.1575 96.8097 10.9513 96.1346 10.7737C95.985 10.7348 95.8973 10.5836 95.9334 10.4404ZM107.616 16.9605C106.068 15.5642 105.694 15.5539 105.949 15.2308C106.042 15.1129 106.215 15.0934 106.336 15.1862C106.901 15.6215 107.456 16.0842 107.986 16.5619C108.258 16.807 107.889 17.2068 107.616 16.9605ZM90.4256 9.62709C90.4317 9.47703 90.5603 9.36249 90.713 9.3705C91.4223 9.4106 92.1405 9.47818 92.8474 9.57211C93.211 9.62136 93.1449 10.1598 92.7825 10.1116C92.09 10.0189 91.3868 9.95356 90.6914 9.91462C90.5392 9.9066 90.4202 9.77829 90.4256 9.62709ZM85.0432 10.146C84.9631 10.1082 84.9023 10.0337 84.8865 9.94096C84.861 9.79205 84.9624 9.65344 85.1129 9.63168C85.8135 9.52629 86.5276 9.44839 87.2358 9.39799C87.3872 9.38654 87.5218 9.49994 87.5356 9.65C87.5489 9.80006 87.4371 9.93065 87.285 9.94096C86.5912 9.99022 85.8915 10.067 85.2051 10.1701C85.148 10.1781 85.092 10.1689 85.0432 10.146ZM79.6896 11.5114C79.6269 11.4816 79.5753 11.4301 79.5482 11.3614C79.4928 11.2193 79.5631 11.0635 79.7054 11.0109C80.3684 10.768 81.0492 10.5481 81.7287 10.3568C81.8748 10.3155 82.0289 10.3992 82.0734 10.5446C82.1175 10.689 82.035 10.839 81.8889 10.8803C81.2231 11.0681 80.556 11.2835 79.9061 11.5217C79.8331 11.5492 79.7555 11.5424 79.6896 11.5114ZM74.6296 13.823C74.5464 13.6947 74.5829 13.5275 74.7109 13.4473C75.3077 13.0762 75.9269 12.7234 76.5513 12.4003C76.8727 12.2342 77.1366 12.7165 76.8153 12.8837C76.2034 13.1999 75.5966 13.5458 75.012 13.909C74.884 13.9891 74.7128 13.9502 74.6296 13.823ZM70.3371 17.2263C70.2295 17.1175 70.2303 16.9457 70.3388 16.8414C70.8437 16.3569 71.3753 15.8872 71.9184 15.4428C72.1978 15.2148 72.5548 15.6375 72.2757 15.8655C71.7434 16.2996 71.2226 16.7612 70.7278 17.2355C70.6195 17.3397 70.4442 17.3351 70.3371 17.2263ZM66.7794 21.058C67.1709 20.4806 67.591 19.9113 68.0282 19.3661C68.2538 19.0854 68.6885 19.4291 68.4643 19.7086C68.0359 20.2424 67.6242 20.8002 67.2408 21.3661C67.0391 21.6639 66.5782 21.3547 66.7794 21.058ZM64.1835 25.916C64.4482 25.2665 64.7439 24.6147 65.0522 24.0019C65.2175 23.6731 65.7072 23.9355 65.5482 24.2516C65.2414 24.8622 64.9561 25.4899 64.6971 26.1268C64.6406 26.2654 64.4798 26.3307 64.338 26.2723C64.1947 26.2138 64.1276 26.0535 64.1835 25.916ZM62.644 31.2082C62.7681 30.5209 62.9217 29.829 63.1006 29.1543C63.1389 29.0089 63.2898 28.9252 63.4376 28.9653C63.8396 29.0776 63.5544 29.2861 63.1882 31.3136C63.1616 31.4614 63.0182 31.5576 62.8679 31.5278C62.7154 31.4992 62.6175 31.3548 62.644 31.2082Z" fill="#91B3FA"/>
<path d="M110.711 20.2564C110.133 19.5282 109.758 19.2663 110.043 19.0294C110.158 18.9338 110.333 18.949 110.433 19.0653C111.061 19.7945 111.382 20.0912 111.099 20.3074C111.014 20.3716 110.805 20.3748 110.711 20.2564Z" fill="#91B3FA"/>
<path d="M116.476 40.6191C116.369 40.569 116.302 40.4534 116.318 40.3329C116.366 39.9783 116.407 39.6189 116.441 39.2643C116.455 39.115 116.59 39.007 116.742 39.0234C116.893 39.0398 117.005 39.1737 116.992 39.3241C116.957 39.6864 116.915 40.0525 116.866 40.4148C116.846 40.5642 116.707 40.6663 116.555 40.6432C116.527 40.6394 116.501 40.6307 116.476 40.6191Z" fill="#91B3FA"/>
<path d="M115.033 46.3148C114.904 46.2531 114.84 46.1044 114.891 45.9716C115.151 45.2786 115.384 44.5697 115.583 43.8636C115.624 43.7196 115.776 43.6373 115.923 43.6803C116.071 43.7242 116.157 43.8739 116.116 44.0179C115.913 44.739 115.675 45.4619 115.409 46.168C115.357 46.3083 115.197 46.3784 115.054 46.3232C115.047 46.3214 115.04 46.3185 115.033 46.3148ZM112.333 51.524C111.973 51.2883 112.339 51.1826 113.393 49.2458C113.564 48.9325 114.054 49.1943 113.882 49.5095C113.522 50.1707 113.13 50.8235 112.715 51.4491C112.631 51.5754 112.458 51.6063 112.333 51.524ZM108.507 55.9896C108.206 55.6819 108.591 55.6567 110.055 54.006C110.293 53.7376 110.713 54.0986 110.474 54.368C109.975 54.9319 109.444 55.4809 108.897 55.9999C108.789 56.1028 108.614 56.0991 108.507 55.9896ZM103.882 59.6033C103.835 59.5809 103.793 59.5453 103.764 59.4976C103.683 59.3686 103.723 59.2021 103.853 59.1245C104.49 58.7457 105.119 58.3361 105.721 57.9059C105.844 57.818 106.017 57.846 106.108 57.9686C106.199 58.0911 106.173 58.2613 106.051 58.3483C105.436 58.7878 104.795 59.2068 104.144 59.593C104.062 59.6417 103.964 59.6426 103.882 59.6033ZM98.4862 62.0489C98.4206 62.018 98.3671 61.9619 98.3413 61.889C98.2914 61.7459 98.3671 61.5925 98.5114 61.5448C99.2195 61.3138 99.9257 61.0501 100.611 60.7611C100.75 60.7022 100.914 60.7667 100.976 60.9051C101.038 61.0436 100.976 61.2035 100.836 61.2624C100.137 61.557 99.416 61.8263 98.6935 62.0629C98.6232 62.0854 98.5493 62.0788 98.4862 62.0489ZM92.6605 63.2666C92.5757 63.2264 92.5132 63.1459 92.5018 63.0477C92.4844 62.8981 92.5925 62.7653 92.7447 62.7503C93.4887 62.6783 94.239 62.5736 94.9746 62.4398C95.1243 62.4127 95.2698 62.5109 95.3004 62.6587C95.3305 62.8064 95.2337 62.9486 95.084 62.9748C94.3333 63.1123 93.5675 63.2189 92.8077 63.2927C92.7554 63.2974 92.7049 63.2881 92.6605 63.2666ZM86.684 63.1899C86.5795 63.1403 86.5125 63.03 86.5254 62.9112C86.5416 62.7615 86.6777 62.6559 86.8295 62.6746C87.5766 62.7662 88.3346 62.827 89.0828 62.856C89.2361 62.8625 89.3569 62.9888 89.3534 63.1384C89.3503 63.2899 89.2241 63.4059 89.0714 63.4012C88.3074 63.3704 87.5333 63.3086 86.7709 63.2151C86.74 63.2114 86.7106 63.202 86.684 63.1899ZM72.3364 57.0399C71.7434 56.5536 71.163 56.0355 70.6117 55.5014C70.502 55.3948 70.4988 55.2228 70.6049 55.1161C70.9039 54.8159 70.9469 55.1975 72.6857 56.6228C72.804 56.72 72.8217 56.8921 72.7254 57.0071C72.629 57.1222 72.455 57.1362 72.3364 57.0399ZM80.7002 61.4822C80.8379 61.0838 81.0539 61.4139 83.2176 61.9816C83.3663 62.0199 83.4561 62.1705 83.4193 62.3154C83.3825 62.4604 83.2326 62.5474 83.0845 62.5081C82.3441 62.3136 81.6 62.0863 80.8732 61.831C80.7277 61.7786 80.6516 61.6224 80.7002 61.4822ZM77.416 60.3524C76.73 60.0045 76.0506 59.6239 75.3967 59.2208C75.2661 59.1413 75.2246 58.973 75.304 58.8448C75.5274 58.4867 75.6551 58.8505 77.6621 59.8699C77.7989 59.9391 77.8546 60.1037 77.7865 60.2365C77.6676 60.4703 77.3827 60.3515 77.416 60.3524Z" fill="#91B3FA"/>
<path d="M68.0916 52.7034C67.4967 51.9462 67.1908 51.6361 67.4834 51.4335C67.7877 51.2229 67.9177 51.5988 68.5265 52.3755C68.6208 52.4946 68.5996 52.6661 68.4796 52.7559C68.3595 52.8474 68.1857 52.8234 68.0916 52.7034Z" fill="#91B3FA"/>
<path d="M71.6667 46.0954L75.6267 45.9308C76.7064 47.4322 78.0339 48.7811 79.5819 49.9046C79.4261 53.6973 79.1464 53.9525 79.5395 54.1193L83.9345 55.9941C84.063 56.0482 84.2111 56.0173 84.3033 55.9167L86.9335 53.0388C88.8147 53.3769 90.7039 53.4012 92.5324 53.1383L95.1603 56.1134C95.2528 56.2172 95.4007 56.2537 95.5294 56.2029L99.9268 54.4883C100.055 54.4386 100.136 54.3126 100.128 54.1756L99.8895 50.2692C101.395 49.2318 102.739 47.947 103.852 46.4412L107.809 46.7494C107.948 46.7594 108.077 46.6831 108.13 46.5572L109.955 42.2574C110.008 42.1326 109.974 41.9857 109.87 41.8929L106.903 39.2492C107.213 37.4009 107.203 35.5394 106.905 33.732C109.754 31.1921 110.124 31.2197 109.962 30.832C108.103 26.582 108.257 26.245 107.823 26.2627L103.863 26.4284C102.783 24.9259 101.456 23.5781 99.9075 22.4546C100.063 18.6641 100.343 18.4067 99.9502 18.2388C95.5516 16.4524 95.4692 16.1331 95.1861 16.4424L92.5558 19.3192C90.675 18.9812 88.7859 18.958 86.9572 19.2198C84.3614 16.4016 84.3569 16.0005 83.9604 16.1552C79.6389 17.9294 79.3365 17.7604 79.3621 18.1824L79.6 22.0889C78.0945 23.1273 76.7503 24.4122 75.6372 25.918C71.8536 25.7015 71.5254 25.4087 71.359 25.8009C69.6313 30.0874 69.2992 30.1802 69.62 30.4652L72.5864 33.11C72.2766 34.9572 72.286 36.8198 72.5847 38.6272C69.7449 41.1582 69.3657 41.1372 69.5278 41.5272C71.3862 45.7772 71.2331 46.1142 71.6667 46.0954Z" fill="#91B3FA"/>
<path d="M90.2993 32.4737C88.2448 32.14 86.285 33.4929 85.9748 35.5668C85.6688 37.6104 87.1112 39.5478 89.1903 39.8845C91.2688 40.2223 93.209 38.8349 93.515 36.7914C93.821 34.7458 92.3748 32.8104 90.2993 32.4737ZM89.1296 40.288L89.132 40.289L89.1296 40.288ZM85.1543 35.4334C85.5266 32.9459 87.889 31.2562 90.42 31.6678C92.9506 32.0793 94.7076 34.4374 94.3355 36.9248C93.9629 39.4133 91.6006 41.102 89.0694 40.6914C86.5377 40.2799 84.782 37.9208 85.1543 35.4334Z" fill="#BDD0FB"/>
<path d="M84.8301 46.6829C84.2078 46.389 83.6114 46.0427 83.0518 45.6504C82.8835 45.5339 82.8282 45.3169 82.9112 45.1416C82.9212 45.1203 82.933 45.0999 82.9469 45.0807C83.0773 44.8979 83.3362 44.8562 83.5238 44.9866C84.1675 45.4377 84.864 45.8236 85.5933 46.1357C91.0897 48.4786 97.3962 46.1314 99.8757 40.9004C99.9388 40.7668 99.9995 40.631 100.058 40.4942C102.411 34.9457 99.7044 28.5368 94.0771 26.135C88.4576 23.7397 81.9625 26.2441 79.6128 31.7765C78.216 35.0697 79.0098 37.4212 78.8497 37.759C78.6767 38.1245 78.1231 38.0347 78.0632 37.6339C77.7357 35.4449 78.0368 33.1361 79.0431 31.0133C83.3856 21.8521 96.8841 22.3748 100.83 31.8471C102.044 34.7629 102.041 37.9492 100.824 40.8202C100.76 40.9688 100.694 41.1152 100.626 41.2606C99.3672 43.9178 97.1654 45.9625 94.3813 47.0485C91.4443 48.1943 88.2106 48.1355 85.2756 46.8839C85.1257 46.8208 84.977 46.7535 84.8301 46.6829Z" fill="#BDD0FB"/>
<path d="M119.479 29.7537C120.139 30.5487 120.932 31.2455 121.837 31.8046L121.858 34.017C121.86 34.262 122.071 34.1694 124.501 35.03C124.726 35.1056 124.703 34.8945 126.05 33.214C127.11 33.3122 128.161 33.2321 129.168 32.9938L130.748 34.5455C130.924 34.7172 131.007 34.5026 133.334 33.3924C133.403 33.3585 133.443 33.2829 133.433 33.2061L133.144 31.0106C133.94 30.3511 134.637 29.5583 135.195 28.6525C137.31 28.5893 137.502 28.7373 137.579 28.508C138.37 25.9997 138.55 25.9331 138.36 25.7874L136.605 24.439C136.703 23.3796 136.624 22.3282 136.385 21.322L137.937 19.742C138.109 19.5669 137.894 19.4834 136.784 17.1569C136.679 16.9446 136.554 17.1084 134.402 17.3455C133.742 16.5493 132.95 15.8537 132.044 15.2946L132.024 13.0822C132.022 12.836 131.811 12.9286 129.38 12.0681C129.157 11.9935 129.185 12.1957 127.831 13.8852C126.771 13.7869 125.72 13.866 124.714 14.1043L123.133 12.5537C123.078 12.4995 122.994 12.4859 122.925 12.5209L120.547 13.7056C120.478 13.7406 120.439 13.8152 120.448 13.892L120.737 16.0874C119.941 16.7481 119.245 17.5398 118.686 18.4455C116.572 18.5099 116.379 18.3619 116.303 18.5901C115.512 21.0983 115.332 21.1661 115.521 21.3118L117.276 22.6591C117.178 23.7184 117.258 24.7699 117.496 25.7761C116.046 27.3165 115.804 27.3482 115.912 27.565L117.097 29.9423C117.203 30.1546 117.338 29.9886 119.479 29.7537Z" fill="#91B3FA"/>
<path d="M125.001 23.4024C124.921 24.4721 125.725 25.4083 126.794 25.489C128.512 25.6192 129.543 23.5929 128.417 22.2811C127.295 20.9758 125.132 21.6742 125.001 23.4024ZM126.763 25.9012L126.766 25.9022L126.763 25.9012ZM124.178 23.34C124.293 21.813 125.623 20.6702 127.15 20.7864C128.678 20.9015 129.82 22.2305 129.705 23.7586C129.589 25.2824 128.256 26.4285 126.732 26.3133C125.208 26.1971 124.063 24.8649 124.178 23.34Z" fill="#BDD0FB"/>
<path d="M112.985 27.5456C112.883 27.1878 112.793 26.8206 112.718 26.4556C112.688 26.3064 112.785 26.1604 112.934 26.1301C113.309 26.054 113.25 26.4712 113.515 27.3933C113.557 27.5393 113.472 27.6927 113.326 27.7344C113.181 27.7761 113.027 27.6927 112.985 27.5456Z" fill="#91B3FA"/>
<path d="M128.434 9.38462C128.453 9.23437 128.591 9.12656 128.741 9.14491C129.493 9.23896 130.241 9.39151 130.964 9.5991C131.313 9.69774 131.163 10.2288 130.812 10.1278C130.116 9.92827 129.397 9.78146 128.674 9.692C128.519 9.6725 128.416 9.53258 128.434 9.38462ZM122.802 10.1336C122.734 10.1015 122.679 10.0407 122.656 9.96268C122.613 9.81702 122.696 9.66447 122.842 9.62089C123.566 9.40756 124.313 9.25043 125.062 9.15294C125.213 9.13344 125.351 9.2401 125.371 9.3915C125.39 9.54175 125.284 9.68053 125.133 9.70003C124.413 9.79293 123.694 9.94433 122.998 10.1496C122.931 10.1691 122.862 10.1622 122.802 10.1336ZM117.686 12.877C117.651 12.861 117.619 12.8369 117.593 12.8059C117.495 12.6889 117.511 12.5146 117.627 12.4171C118.206 11.9331 118.828 11.4904 119.475 11.1016C119.604 11.0236 119.774 11.0649 119.852 11.1956C119.931 11.3252 119.889 11.495 119.758 11.573C119.136 11.9469 118.538 12.3735 117.981 12.8392C117.896 12.9114 117.78 12.9218 117.686 12.877ZM114.079 17.4292C113.943 17.3604 113.888 17.1952 113.956 17.0588C114.293 16.3844 114.687 15.7306 115.126 15.1159C115.339 14.82 115.786 15.1399 115.574 15.4358C115.152 16.0277 114.772 16.6562 114.448 17.3054C114.329 17.5439 114.046 17.4281 114.079 17.4292ZM112.449 22.7843C112.488 22.0537 112.583 21.2944 112.743 20.5351C112.819 20.1784 113.357 20.2931 113.282 20.6487C112.867 22.6157 113.169 23.0985 112.709 23.0733C112.556 23.0653 112.441 22.9345 112.449 22.7843Z" fill="#91B3FA"/>
<path d="M134.978 12.1268C134.153 11.5454 133.787 11.4818 133.977 11.1627C134.054 11.0321 134.221 10.9867 134.354 11.0662C134.673 11.2558 134.99 11.4613 135.296 11.6771C135.42 11.7645 135.449 11.9371 135.362 12.0609C135.276 12.1835 135.106 12.2165 134.978 12.1268Z" fill="#91B3FA"/>
<path d="M140.811 21.9161C140.694 20.9089 140.498 20.5976 140.862 20.5254C141.012 20.4964 141.156 20.5933 141.186 20.743C141.257 21.1071 141.316 21.4798 141.359 21.8514C141.377 22.0033 141.269 22.1401 141.117 22.1574C140.967 22.1746 140.83 22.0669 140.811 21.9161Z" fill="#91B3FA"/>
<path d="M140.337 27.5009C140.902 25.5782 140.635 25.1041 141.091 25.165C141.242 25.1849 141.348 25.3233 141.328 25.4744C141.23 26.2128 141.074 26.9471 140.865 27.6572C140.823 27.803 140.669 27.8858 140.524 27.8428C140.378 27.7998 140.294 27.6477 140.337 27.5009ZM137.742 32.8325C137.387 32.5399 137.921 32.4046 138.943 30.6917C139.129 30.3791 139.603 30.6613 139.416 30.9739C139.036 31.6106 138.603 32.2242 138.129 32.7969C138.032 32.9144 137.858 32.9301 137.742 32.8325ZM133.225 36.3307C133.014 35.9237 133.558 36.0076 135.169 34.8307C135.463 34.6168 135.788 35.0615 135.493 35.2755C134.893 35.7139 134.255 36.1094 133.597 36.4492C133.461 36.5184 133.294 36.466 133.225 36.3307ZM127.699 37.7709C127.688 37.6198 127.802 37.4876 127.954 37.4772C129.955 37.3345 130.303 36.9181 130.406 37.366C130.44 37.5139 130.347 37.6618 130.199 37.6953C129.476 37.8621 128.734 37.9733 127.993 38.0268C127.841 38.0362 127.71 37.9229 127.699 37.7709ZM122.048 36.9265C122.197 36.4943 122.518 36.9443 124.476 37.2936C124.834 37.3565 124.739 37.8999 124.379 37.8359C123.647 37.7058 122.92 37.517 122.219 37.2758C122.078 37.2286 121.998 37.0723 122.048 36.9265Z" fill="#91B3FA"/>
<path d="M118.959 35.6726C118.648 35.4662 118.341 35.2469 118.047 35.0187C117.927 34.9254 117.905 34.7517 117.998 34.6327C118.233 34.33 118.46 34.6833 119.262 35.2122C119.389 35.2955 119.424 35.4662 119.341 35.5942C119.256 35.7222 119.084 35.755 118.959 35.6726Z" fill="#91B3FA"/>
<path d="M123.517 29.3949C123.292 29.2633 123.249 29.0068 123.359 28.821C123.475 28.6253 123.731 28.5601 123.925 28.6762C124.289 28.8929 124.68 29.0709 125.086 29.2069C125.175 29.2191 127.265 30.0793 129.664 28.8863C134.422 26.5135 133.939 19.5225 128.89 17.8341C125.986 16.8634 122.851 18.2477 121.571 20.9488C120.282 23.6698 121.691 25.1082 120.817 25.2995C120.594 25.3493 120.374 25.2089 120.324 24.9855C120.059 23.7848 120.126 22.5299 120.518 21.3568C121.709 17.7954 125.58 15.8561 129.152 17.0513C132.997 18.3361 134.918 22.7189 133.148 26.4549C131.72 29.4689 128.192 31.1175 124.824 29.9908C124.368 29.8382 123.928 29.6381 123.517 29.3949Z" fill="#BDD0FB"/>
<path d="M126.036 135.748L122.879 162.681H159.507L154.736 135.748H126.036Z" fill="#94CBC5"/>
<path d="M204.846 142.462C204.657 142.462 204.466 142.462 204.275 142.462C185.741 142.453 154.77 142.047 126.042 141.571L125.745 134.621L218.381 136.2H218.385C218.508 136.2 218.606 136.103 218.609 135.98C218.611 135.857 218.512 135.755 218.388 135.753L125.726 134.174L125.642 132.199L210.759 133.25C210.791 133.251 210.824 133.251 210.856 133.251C214.393 133.252 217.275 130.39 217.288 126.842L217.532 56.031C217.542 53.4709 215.501 51.3732 212.941 51.3106L63.66 48.2953C63.618 48.2941 63.5755 48.2941 63.5336 48.2941C60.7276 48.2941 58.4386 50.5688 58.4386 53.3902V124.84C58.4386 128.452 61.338 131.395 64.9496 131.449L65.7677 131.459L65.7538 133.152L58.4422 133.027C58.438 133.027 58.4339 133.027 58.4298 133.027C58.3181 133.027 58.217 133.128 58.2148 133.247C58.2129 133.371 58.3112 133.472 58.4348 133.475L65.7501 133.599L65.694 140.388C65.3999 140.38 65.1141 140.373 64.834 140.366C58.6495 140.207 53.7197 135.147 53.7197 128.961V53.7563C53.7197 49.2478 57.3189 45.5666 61.8264 45.4655C63.0707 45.4378 64.485 45.4161 66.0557 45.4005C68.1038 45.3812 70.4119 45.3715 72.9495 45.3715C109.349 45.3715 192.326 47.297 212.818 47.9521C212.935 47.9557 213.052 47.963 213.168 47.9714C217.166 48.2604 220.457 51.2732 221.077 55.2639C224.107 74.7681 223.288 116.78 222.785 134.251C222.655 138.744 219.015 142.34 214.521 142.407C211.933 142.444 208.667 142.462 204.846 142.462Z" fill="#94CBC5"/>
<path d="M58.4385 53.3904V124.84C58.4385 128.452 61.338 131.395 64.9496 131.449L210.759 133.25C214.34 133.304 217.275 130.423 217.288 126.842L217.532 56.0311C217.542 53.471 215.502 51.3727 212.942 51.3108L63.66 48.2948C60.797 48.2247 58.4385 50.5264 58.4385 53.3904Z" fill="#BDD2FF"/>
<path d="M62.5752 55.6585V122.72C62.5752 126.11 65.336 128.872 68.7749 128.923L207.609 130.614C211.02 130.663 213.813 127.96 213.826 124.599L214.059 58.1363C214.068 55.7331 212.125 53.7637 209.687 53.7052L67.547 50.8751C64.8209 50.8097 62.5752 52.9707 62.5752 55.6585Z" fill="#91B3FA"/>
<path d="M218.386 136.199H218.382L58.4347 133.474C58.3111 133.472 58.2129 133.37 58.2149 133.247C58.2171 133.123 58.3258 133.019 58.4421 133.027L218.389 135.752C218.514 135.754 218.611 135.856 218.609 135.979C218.607 136.102 218.508 136.199 218.386 136.199Z" fill="#91B3FA"/>
<path d="M139.99 136.2C139.195 136.2 138.549 136.846 138.549 137.64C138.549 138.434 139.195 139.081 139.99 139.081C140.784 139.081 141.43 138.434 141.43 137.64C141.43 136.846 140.784 136.2 139.99 136.2ZM139.99 139.528C138.949 139.528 138.102 138.681 138.102 137.64C138.102 136.599 138.949 135.752 139.99 135.752C141.031 135.752 141.878 136.599 141.878 137.64C141.878 138.681 141.031 139.528 139.99 139.528Z" fill="#91B3FA"/>
<path d="M167.952 168.067H155.179H122.618H121.802C123.859 167.948 125.464 166.062 125.376 163.819L125.317 162.343L139.67 162.117C139.798 162.114 139.901 162 139.899 161.862C139.897 161.724 139.797 161.614 139.665 161.614C139.664 161.614 139.664 161.614 139.663 161.614L125.297 161.84L125.258 160.842L166.611 159.45C166.643 159.449 166.674 159.449 166.705 159.449C167.79 159.449 168.737 160.082 168.975 160.98L169.884 164.403L170.223 165.684C170.548 166.907 169.442 168.067 167.952 168.067Z" fill="#94CBC5"/>
<path d="M107.95 55.8526L124.793 55.7278C127.094 55.7106 128.941 57.4862 128.844 59.6236L127.197 96.0251C127.106 98.0195 125.349 99.598 123.201 99.6144L108.274 99.7255C106.05 99.741 104.235 98.079 104.22 96.0114L103.95 59.6245C103.935 57.5577 105.726 55.869 107.95 55.8526Z" fill="#BDD0FB"/>
<path d="M65.8124 126.1C65.3562 125.657 65.0699 125.104 65.0314 124.5L64.1441 110.543C64.075 109.456 64.8208 108.487 65.962 107.981L65.8124 126.1ZM124.695 109.964L124.673 109.469C124.688 109.569 124.695 109.67 124.695 109.773V109.964Z" fill="#A7C2FB"/>
<path d="M186.809 103.095L133.516 103.871C131.463 103.9 129.846 105.526 129.946 107.458L130.833 124.535C130.928 126.357 132.523 127.789 134.459 127.789H186.865C188.871 127.789 190.496 126.258 190.496 124.368V106.516C190.496 104.605 188.835 103.066 186.809 103.095Z" fill="#BDD0FB"/>
<path d="M97.3115 54.1636H69.7828C67.5589 54.1636 65.7559 55.9806 65.7559 58.2225V97.6763C65.7559 99.9173 67.5589 101.734 69.7828 101.734H97.3115C99.5355 101.734 101.339 99.9173 101.339 97.6763V58.2225C101.339 55.9806 99.5355 54.1636 97.3115 54.1636Z" fill="#BDD0FB"/>
<path d="M165.259 69.4574H137.73C135.506 69.4574 133.703 70.4307 133.703 71.6327V92.7749C133.703 93.9769 135.506 94.9502 137.73 94.9502H165.259C167.483 94.9502 169.286 93.9769 169.286 92.7749V71.6327C169.286 70.4307 167.483 69.4574 165.259 69.4574Z" fill="#BDD0FB"/>
<path d="M211.165 67.5684H178.101C175.429 67.5684 173.265 68.5424 173.265 69.7436V90.8869C173.265 92.0878 175.429 93.0615 178.101 93.0615H211.165C213.836 93.0615 216.001 92.0878 216.001 90.8869V69.7436C216.001 68.5424 213.836 67.5684 211.165 67.5684Z" fill="#BDD0FB"/>
<path d="M101.298 64.7107L100.564 61.5122C100.521 61.318 100.422 60.8295 100.268 60.0493C100.114 59.2683 100.022 58.7465 99.9909 58.483C99.9092 59.022 99.8058 59.6165 99.6802 60.2649C99.5546 60.9142 99.2288 62.3958 98.7017 64.7107H101.298ZM102.568 70.4473L101.778 66.9767H98.1937L97.4039 70.4473H94.8457L98.2503 56.6395H101.721L105.136 70.4473H102.568Z" fill="#2F6F68"/>
<path d="M108.908 63.2432H109.397C110.024 63.2432 110.492 63.0713 110.799 62.7259C111.106 62.3813 111.26 61.8169 111.26 61.0328C111.26 60.3111 111.119 59.7775 110.836 59.4295C110.554 59.0815 110.118 58.907 109.529 58.907H108.908V63.2432ZM113.846 60.9293C113.846 62.3907 113.478 63.5109 112.741 64.2916C112.005 65.0723 110.94 65.463 109.548 65.463H108.908V70.4482H106.35V56.6966H109.84C112.511 56.6966 113.846 58.1075 113.846 60.9293Z" fill="#2F6F68"/>
<path d="M118.136 63.2432H118.625C119.251 63.2432 119.719 63.0713 120.027 62.7259C120.333 62.3813 120.487 61.8169 120.487 61.0328C120.487 60.3111 120.346 59.7775 120.064 59.4295C119.782 59.0815 119.346 58.907 118.756 58.907H118.136V63.2432ZM123.074 60.9293C123.074 62.3907 122.706 63.5109 121.969 64.2916C121.232 65.0723 120.167 65.463 118.775 65.463H118.136V70.4482H115.577V56.6966H119.067C121.739 56.6966 123.074 58.1075 123.074 60.9293Z" fill="#2F6F68"/>
<path d="M127.363 62.8952H128.021C128.623 62.8952 129.055 62.7242 129.319 62.3821C129.583 62.041 129.715 61.5313 129.715 60.8541C129.715 60.1512 129.574 59.6518 129.296 59.3542C129.016 59.0558 128.585 58.907 128.003 58.907H127.363V62.8952ZM127.363 65.0962V70.4482H124.804V56.6966H128.152C129.57 56.6966 130.615 57.0318 131.29 57.7031C131.963 58.3743 132.3 59.3987 132.3 60.7788C132.3 62.5155 131.715 63.7289 130.541 64.419L133.184 70.4482H130.447L128.275 65.0962H127.363Z" fill="#2F6F68"/>
<path d="M136.628 63.5541C136.628 65.1222 136.825 66.3161 137.221 67.1382C137.616 67.9595 138.195 68.3706 138.961 68.3706C140.504 68.3706 141.274 66.7648 141.274 63.5541C141.274 60.3434 140.51 58.7376 138.98 58.7376C138.201 58.7376 137.616 59.147 137.221 59.9657C136.825 60.7844 136.628 61.98 136.628 63.5541ZM143.899 63.5541C143.899 65.8305 143.473 67.5801 142.62 68.8031C141.767 70.0252 140.547 70.6367 138.961 70.6367C137.368 70.6367 136.145 70.0278 135.292 68.8074C134.44 67.5878 134.013 65.8305 134.013 63.5353C134.013 61.2589 134.44 59.5144 135.292 58.3008C136.145 57.0873 137.374 56.4809 138.98 56.4809C140.566 56.4809 141.782 57.0907 142.629 58.3102C143.475 59.5298 143.899 61.2777 143.899 63.5541Z" fill="#2F6F68"/>
<path d="M151.818 56.6966H154.396L151.161 70.4482H147.906L144.689 56.6966H147.267L149.062 65.0962C149.227 65.8111 149.386 66.8363 149.543 68.172C149.675 67.0373 149.841 66.0112 150.041 65.0962L151.818 56.6966Z" fill="#2F6F68"/>
<path d="M161.808 70.4482H155.609V56.6966H161.808V58.907H158.168V62.1803H161.545V64.4002H158.168V68.2096H161.808V70.4482Z" fill="#2F6F68"/>
<path d="M169.934 63.5158C169.934 60.443 169.088 58.9071 167.394 58.9071H166.369V68.2104H167.198C168.132 68.2104 168.821 67.8192 169.266 67.0387C169.712 66.2583 169.934 65.084 169.934 63.5158ZM172.558 63.4408C172.558 65.7109 172.096 67.4469 171.172 68.6479C170.246 69.8481 168.915 70.4482 167.178 70.4482H163.811V56.6969H167.489C169.088 56.6969 170.333 57.288 171.222 58.4704C172.113 59.6518 172.558 61.3092 172.558 63.4408Z" fill="#2F6F68"/>
<path d="M201.574 32.7417C190.735 32.4375 137.118 30.6477 126.114 30.2796C125.028 30.2427 124.138 31.9112 124.138 33.9825V43.5529C124.138 45.5971 125.007 47.2559 126.08 47.2559H201.544C202.617 47.2559 203.486 45.5971 203.486 43.5529V36.4447C203.486 34.421 202.634 32.7709 201.574 32.7417Z" fill="#91B3FA"/>
<mask id="path-43-inside-1_2973_15100" fill="white">
<path d="M130.088 44.9466L133.022 43.4095C133.25 43.2909 133.522 43.2909 133.75 43.4105L136.679 44.9567C137.253 45.2593 137.924 44.7727 137.816 44.1334L137.261 40.8681C137.218 40.6147 137.302 40.3554 137.487 40.1754L139.862 37.8682C140.327 37.4158 140.072 36.6267 139.43 36.5322L136.154 36.0506C135.899 36.0134 135.679 35.8536 135.565 35.6224L134.104 32.6507C133.818 32.0686 132.988 32.0666 132.701 32.6486L131.23 35.6163C131.117 35.8465 130.895 36.0064 130.641 36.0426L127.362 36.5141C126.72 36.6066 126.463 37.3947 126.927 37.8481L129.295 40.1634C129.479 40.3433 129.562 40.6027 129.518 40.857L128.954 44.1203C128.844 44.7587 129.514 45.2472 130.088 44.9466Z"/>
</mask>
<path d="M130.088 44.9466L133.022 43.4095C133.25 43.2909 133.522 43.2909 133.75 43.4105L136.679 44.9567C137.253 45.2593 137.924 44.7727 137.816 44.1334L137.261 40.8681C137.218 40.6147 137.302 40.3554 137.487 40.1754L139.862 37.8682C140.327 37.4158 140.072 36.6267 139.43 36.5322L136.154 36.0506C135.899 36.0134 135.679 35.8536 135.565 35.6224L134.104 32.6507C133.818 32.0686 132.988 32.0666 132.701 32.6486L131.23 35.6163C131.117 35.8465 130.895 36.0064 130.641 36.0426L127.362 36.5141C126.72 36.6066 126.463 37.3947 126.927 37.8481L129.295 40.1634C129.479 40.3433 129.562 40.6027 129.518 40.857L128.954 44.1203C128.844 44.7587 129.514 45.2472 130.088 44.9466Z" fill="#F4FF00"/>
<path d="M133.022 43.4095L132.79 42.9666L132.791 42.9659L133.022 43.4095ZM133.75 43.4105L133.983 42.9677L133.984 42.9684L133.75 43.4105ZM136.679 44.9567L136.446 45.399L136.445 45.3989L136.679 44.9567ZM137.816 44.1334L138.309 44.0496L138.309 44.0504L137.816 44.1334ZM137.261 40.8681L137.754 40.784L137.754 40.7843L137.261 40.8681ZM137.487 40.1754L137.139 39.817L137.139 39.8168L137.487 40.1754ZM139.862 37.8682L140.21 38.2268L140.21 38.2268L139.862 37.8682ZM139.43 36.5322L139.503 36.0375L139.503 36.0375L139.43 36.5322ZM136.154 36.0506L136.226 35.5559L136.227 35.5559L136.154 36.0506ZM135.565 35.6224L136.014 35.4018L136.014 35.4019L135.565 35.6224ZM134.104 32.6507L134.553 32.4298L134.553 32.4301L134.104 32.6507ZM132.701 32.6486L133.149 32.8701L133.149 32.8707L132.701 32.6486ZM131.23 35.6163L130.782 35.3951L130.782 35.3943L131.23 35.6163ZM130.641 36.0426L130.57 35.5477L130.571 35.5476L130.641 36.0426ZM127.362 36.5141L127.291 36.0192L127.291 36.0192L127.362 36.5141ZM126.927 37.8481L126.577 38.2057L126.577 38.2055L126.927 37.8481ZM129.295 40.1634L129.644 39.8058L129.645 39.8059L129.295 40.1634ZM129.518 40.857L129.025 40.7719L129.025 40.7714L129.518 40.857ZM128.954 44.1203L129.447 44.2054L129.447 44.2056L128.954 44.1203ZM129.856 44.5038L132.79 42.9666L133.254 43.8524L130.32 45.3895L129.856 44.5038ZM132.791 42.9659C133.164 42.7721 133.609 42.7719 133.983 42.9677L133.518 43.8534C133.435 43.8099 133.336 43.8097 133.252 43.8532L132.791 42.9659ZM133.984 42.9684L136.912 44.5145L136.445 45.3989L133.517 43.8527L133.984 42.9684ZM136.912 44.5144C137.119 44.6233 137.362 44.4489 137.323 44.2163L138.309 44.0504C138.485 45.0966 137.387 45.8953 136.446 45.399L136.912 44.5144ZM137.323 44.2171L136.768 40.9519L137.754 40.7843L138.309 44.0496L137.323 44.2171ZM136.768 40.9522C136.697 40.5364 136.836 40.1116 137.139 39.817L137.836 40.5338C137.769 40.5992 137.738 40.6931 137.754 40.784L136.768 40.9522ZM137.139 39.8168L139.513 37.5096L140.21 38.2268L137.836 40.534L137.139 39.8168ZM139.513 37.5097C139.682 37.3461 139.589 37.061 139.358 37.0268L139.503 36.0375C140.555 36.1924 140.973 37.4856 140.21 38.2268L139.513 37.5097ZM139.358 37.0269L136.081 36.5453L136.227 35.5559L139.503 36.0375L139.358 37.0269ZM136.082 36.5454C135.664 36.4846 135.303 36.2226 135.116 35.8428L136.014 35.4019C136.054 35.4845 136.133 35.5423 136.226 35.5559L136.082 36.5454ZM135.116 35.8429L133.656 32.8712L134.553 32.4301L136.014 35.4018L135.116 35.8429ZM133.656 32.8715C133.552 32.6599 133.252 32.6612 133.149 32.8701L132.253 32.4272C132.724 31.4719 134.084 31.4773 134.553 32.4298L133.656 32.8715ZM133.149 32.8707L131.678 35.8384L130.782 35.3943L132.253 32.4266L133.149 32.8707ZM131.679 35.8376C131.492 36.2163 131.129 36.4782 130.711 36.5376L130.571 35.5476C130.662 35.5346 130.741 35.4768 130.782 35.3951L131.679 35.8376ZM130.712 36.5375L127.434 37.009L127.291 36.0192L130.57 35.5477L130.712 36.5375ZM127.434 37.009C127.202 37.0424 127.109 37.327 127.276 37.4907L126.577 38.2055C125.817 37.4625 126.239 36.1708 127.291 36.0192L127.434 37.009ZM127.276 37.4906L129.644 39.8058L128.945 40.5209L126.577 38.2057L127.276 37.4906ZM129.645 39.8059C129.947 40.1015 130.083 40.5268 130.011 40.9427L129.025 40.7714C129.042 40.6786 129.011 40.5852 128.945 40.5208L129.645 39.8059ZM130.011 40.9422L129.447 44.2054L128.461 44.0351L129.025 40.7719L130.011 40.9422ZM129.447 44.2056C129.407 44.4353 129.649 44.6122 129.856 44.5037L130.32 45.3896C129.379 45.8823 128.28 45.082 128.461 44.0349L129.447 44.2056Z" fill="#2F6F68" mask="url(#path-43-inside-1_2973_15100)"/>
<path d="M142.237 38.1017C141.922 37.7935 142.097 37.2571 142.534 37.1943L142.498 36.9468L142.534 37.1943L145.812 36.723L145.812 36.723C146.149 36.6741 146.44 36.4626 146.59 36.1585L146.591 36.1584L148.06 33.1916L148.06 33.1914C148.256 32.7959 148.82 32.7961 149.016 33.1929L142.237 38.1017ZM142.237 38.1017L144.605 40.4167L144.605 40.4168C144.848 40.6543 144.96 40.9956 144.901 41.331L144.655 41.2883L144.901 41.3312L144.336 44.5945L142.237 38.1017ZM151.254 36.731C150.917 36.682 150.626 36.4704 150.477 36.1646C150.477 36.1645 150.476 36.1644 150.476 36.1643L149.016 33.193L145.224 45.3782C144.649 45.679 143.979 45.1907 144.089 44.552L144.336 44.5946C144.261 45.0288 144.716 45.3616 145.109 45.1567L145.109 45.1567L145.224 45.3782L145.109 45.1566L148.042 43.6207M151.254 36.731L151.29 36.4836L151.253 36.7309L151.254 36.731ZM151.254 36.731L154.53 37.2122C154.966 37.2763 155.14 37.8131 154.823 38.1211L154.823 38.1212L152.449 40.4293L152.449 40.4293C152.206 40.6657 152.093 41.0069 152.15 41.3423M152.15 41.3423L152.15 41.3422L152.397 41.3004L152.15 41.3423ZM152.15 41.3423L152.705 44.6079L152.705 44.6082C152.779 45.0419 152.322 45.3734 151.932 45.1671L151.932 45.1671L149.003 43.622L149.003 43.6219C148.701 43.4633 148.343 43.4632 148.042 43.6207M148.042 43.6207L148.158 43.8421L148.042 43.6206L148.042 43.6207Z" fill="#F4FF00" stroke="#2F6F68" stroke-width="0.5"/>
<mask id="path-46-inside-2_2973_15100" fill="white">
<path d="M160.494 45.4632L163.427 43.9259C163.655 43.8067 163.927 43.8067 164.155 43.9269L167.085 45.4732C167.658 45.7759 168.329 45.2898 168.221 44.6495L167.666 41.3845C167.623 41.1309 167.708 40.8724 167.892 40.693L170.268 38.3851C170.733 37.9331 170.477 37.1434 169.836 37.0492L166.559 36.5672C166.304 36.5301 166.085 36.3698 165.97 36.1393L164.509 33.1669C164.224 32.5847 163.394 32.5837 163.106 33.1649L161.635 36.1323C161.521 36.3638 161.3 36.5231 161.046 36.5602L157.768 37.0302C157.125 37.1234 156.868 37.9121 157.333 38.365L159.7 40.68C159.884 40.8604 159.969 41.1189 159.924 41.3735L159.359 44.6364C159.249 45.2758 159.918 45.7639 160.494 45.4632Z"/>
</mask>
<path d="M160.494 45.4632L163.427 43.9259C163.655 43.8067 163.927 43.8067 164.155 43.9269L167.085 45.4732C167.658 45.7759 168.329 45.2898 168.221 44.6495L167.666 41.3845C167.623 41.1309 167.708 40.8724 167.892 40.693L170.268 38.3851C170.733 37.9331 170.477 37.1434 169.836 37.0492L166.559 36.5672C166.304 36.5301 166.085 36.3698 165.97 36.1393L164.509 33.1669C164.224 32.5847 163.394 32.5837 163.106 33.1649L161.635 36.1323C161.521 36.3638 161.3 36.5231 161.046 36.5602L157.768 37.0302C157.125 37.1234 156.868 37.9121 157.333 38.365L159.7 40.68C159.884 40.8604 159.969 41.1189 159.924 41.3735L159.359 44.6364C159.249 45.2758 159.918 45.7639 160.494 45.4632Z" fill="#F4FF00"/>
<path d="M163.427 43.9259L163.195 43.4831L163.196 43.4827L163.427 43.9259ZM164.155 43.9269L164.388 43.4845L164.389 43.4848L164.155 43.9269ZM167.085 45.4732L167.318 45.0311L167.318 45.0311L167.085 45.4732ZM168.221 44.6495L168.714 44.5656L168.714 44.5661L168.221 44.6495ZM167.666 41.3845L167.173 41.4683L167.173 41.4683L167.666 41.3845ZM167.892 40.693L167.544 40.3346L167.544 40.3344L167.892 40.693ZM170.268 38.3851L170.616 38.7436L170.616 38.7437L170.268 38.3851ZM169.836 37.0492L169.763 37.5439L169.763 37.5439L169.836 37.0492ZM166.559 36.5672L166.631 36.0724L166.631 36.0725L166.559 36.5672ZM165.97 36.1393L165.522 36.3613L165.522 36.3599L165.97 36.1393ZM164.509 33.1669L164.061 33.3875L164.06 33.3871L164.509 33.1669ZM163.106 33.1649L163.554 33.3867L163.554 33.387L163.106 33.1649ZM161.635 36.1323L161.187 35.911L161.187 35.9102L161.635 36.1323ZM161.046 36.5602L161.118 37.055L161.117 37.0551L161.046 36.5602ZM157.768 37.0302L157.696 36.5354L157.697 36.5352L157.768 37.0302ZM157.333 38.365L157.682 38.0069L157.682 38.0076L157.333 38.365ZM159.7 40.68L160.05 40.3225L160.05 40.3226L159.7 40.68ZM159.924 41.3735L159.432 41.2881L159.432 41.2881L159.924 41.3735ZM159.359 44.6364L158.866 44.5515L158.867 44.5511L159.359 44.6364ZM160.262 45.0203L163.195 43.4831L163.659 44.3688L160.726 45.9061L160.262 45.0203ZM163.196 43.4827C163.569 43.2877 164.014 43.2875 164.388 43.4845L163.923 44.3694C163.84 44.3258 163.742 44.3256 163.658 44.3692L163.196 43.4827ZM164.389 43.4848L167.318 45.0311L166.851 45.9154L163.922 44.3691L164.389 43.4848ZM167.318 45.0311C167.524 45.1398 167.768 44.9658 167.728 44.7328L168.714 44.5661C168.891 45.6139 167.792 46.412 166.851 45.9154L167.318 45.0311ZM167.728 44.7333L167.173 41.4683L168.159 41.3007L168.714 44.5656L167.728 44.7333ZM167.173 41.4683C167.102 41.0514 167.242 40.6279 167.544 40.3346L168.241 41.0514C168.174 41.1169 168.144 41.2105 168.159 41.3007L167.173 41.4683ZM167.544 40.3344L169.919 38.0265L170.616 38.7437L168.241 41.0516L167.544 40.3344ZM169.919 38.0265C170.087 37.8635 169.995 37.5779 169.763 37.5439L169.908 36.5545C170.959 36.7089 171.378 38.0027 170.616 38.7436L169.919 38.0265ZM169.763 37.5439L166.486 37.0619L166.631 36.0725L169.908 36.5545L169.763 37.5439ZM166.487 37.062C166.068 37.001 165.709 36.7377 165.522 36.3613L166.418 35.9172C166.46 36.0018 166.54 36.0592 166.631 36.0724L166.487 37.062ZM165.522 36.3599L164.061 33.3875L164.958 32.9463L166.419 35.9187L165.522 36.3599ZM164.06 33.3871C163.958 33.1777 163.658 33.1766 163.554 33.3867L162.658 32.9432C163.129 31.9907 164.49 31.9916 164.958 32.9467L164.06 33.3871ZM163.554 33.387L162.083 36.3544L161.187 35.9102L162.658 32.9428L163.554 33.387ZM162.083 36.3535C161.896 36.7332 161.534 36.9943 161.118 37.055L160.974 36.0654C161.066 36.0519 161.146 35.9943 161.187 35.911L162.083 36.3535ZM161.117 37.0551L157.839 37.5251L157.697 36.5352L160.975 36.0652L161.117 37.0551ZM157.84 37.525C157.606 37.5589 157.515 37.8443 157.682 38.0069L156.984 38.7232C156.221 37.9798 156.645 36.6878 157.696 36.5354L157.84 37.525ZM157.682 38.0076L160.05 40.3225L159.35 41.0375L156.983 38.7225L157.682 38.0076ZM160.05 40.3226C160.351 40.6174 160.489 41.0413 160.417 41.4588L159.432 41.2881C159.448 41.1965 159.418 41.1033 159.35 41.0374L160.05 40.3226ZM160.417 41.4588L159.852 44.7218L158.867 44.5511L159.432 41.2881L160.417 41.4588ZM159.852 44.7214C159.812 44.9526 160.054 45.129 160.262 45.0201L160.725 45.9063C159.783 46.3987 158.686 45.5991 158.866 44.5515L159.852 44.7214Z" fill="#2F6F68" mask="url(#path-46-inside-2_2973_15100)"/>
<mask id="path-48-inside-3_2973_15100" fill="white">
<path d="M175.316 45.6373L178.249 44.1006C178.478 43.9815 178.75 43.9815 178.977 44.1016L181.907 45.6473C182.48 45.9496 183.152 45.4631 183.043 44.8234L182.488 41.5589C182.445 41.3046 182.529 41.0463 182.714 40.8671L185.089 38.5587C185.555 38.1072 185.299 37.3173 184.658 37.2232L181.381 36.7427C181.127 36.7047 180.907 36.5445 180.792 36.3133L179.332 33.3411C179.046 32.7595 178.216 32.7575 177.928 33.3391L176.458 36.3063C176.344 36.5375 176.123 36.6977 175.868 36.7337L172.59 37.2052C171.948 37.2973 171.691 38.0862 172.154 38.5387L174.523 40.8541C174.706 41.0343 174.79 41.2936 174.746 41.5469L174.181 44.8104C174.071 45.4491 174.741 45.9386 175.316 45.6373Z"/>
</mask>
<path d="M175.316 45.6373L178.249 44.1006C178.478 43.9815 178.75 43.9815 178.977 44.1016L181.907 45.6473C182.48 45.9496 183.152 45.4631 183.043 44.8234L182.488 41.5589C182.445 41.3046 182.529 41.0463 182.714 40.8671L185.089 38.5587C185.555 38.1072 185.299 37.3173 184.658 37.2232L181.381 36.7427C181.127 36.7047 180.907 36.5445 180.792 36.3133L179.332 33.3411C179.046 32.7595 178.216 32.7575 177.928 33.3391L176.458 36.3063C176.344 36.5375 176.123 36.6977 175.868 36.7337L172.59 37.2052C171.948 37.2973 171.691 38.0862 172.154 38.5387L174.523 40.8541C174.706 41.0343 174.79 41.2936 174.746 41.5469L174.181 44.8104C174.071 45.4491 174.741 45.9386 175.316 45.6373Z" fill="#F4FF00"/>
<path d="M178.249 44.1006L178.017 43.6577L178.018 43.6569L178.249 44.1006ZM178.977 44.1016L178.744 44.5438L178.744 44.5437L178.977 44.1016ZM181.907 45.6473L181.673 46.0896L181.673 46.0895L181.907 45.6473ZM183.043 44.8234L182.55 44.9075L182.55 44.9071L183.043 44.8234ZM182.488 41.5589L181.995 41.6426L181.995 41.6424L182.488 41.5589ZM182.714 40.8671L183.063 41.2257L183.062 41.2265L182.714 40.8671ZM185.089 38.5587L184.74 38.2002L184.741 38.1998L185.089 38.5587ZM184.658 37.2232L184.585 37.718L184.585 37.7179L184.658 37.2232ZM181.381 36.7427L181.308 37.2374L181.307 37.2372L181.381 36.7427ZM180.792 36.3133L180.344 36.5345L180.344 36.5338L180.792 36.3133ZM179.332 33.3411L179.78 33.1203L179.781 33.1206L179.332 33.3411ZM177.928 33.3391L178.377 33.5605L178.376 33.5611L177.928 33.3391ZM176.458 36.3063L176.009 36.085L176.01 36.0842L176.458 36.3063ZM175.868 36.7337L175.797 36.2388L175.798 36.2386L175.868 36.7337ZM172.59 37.2052L172.661 37.7001L172.661 37.7002L172.59 37.2052ZM172.154 38.5387L172.503 38.1809L172.504 38.1811L172.154 38.5387ZM174.523 40.8541L174.872 40.4966L174.873 40.4977L174.523 40.8541ZM174.746 41.5469L174.253 41.4616L174.253 41.4612L174.746 41.5469ZM174.181 44.8104L173.689 44.7254L173.689 44.7251L174.181 44.8104ZM175.084 45.1944L178.017 43.6577L178.481 44.5435L175.548 46.0802L175.084 45.1944ZM178.018 43.6569C178.391 43.463 178.837 43.4619 179.211 43.6596L178.744 44.5437C178.663 44.5011 178.565 44.5 178.479 44.5443L178.018 43.6569ZM179.211 43.6594L182.14 45.2051L181.673 46.0895L178.744 44.5438L179.211 43.6594ZM182.14 45.2049C182.347 45.3141 182.589 45.1384 182.55 44.9075L183.536 44.7393C183.715 45.7878 182.614 46.585 181.673 46.0896L182.14 45.2049ZM182.55 44.9071L181.995 41.6426L182.981 41.4752L183.536 44.7396L182.55 44.9071ZM181.995 41.6424C181.925 41.2266 182.062 40.8023 182.367 40.5078L183.062 41.2265C182.996 41.2903 182.966 41.3827 182.981 41.4754L181.995 41.6424ZM182.366 40.5086L184.74 38.2002L185.438 38.9172L183.063 41.2257L182.366 40.5086ZM184.741 38.1998C184.908 38.0373 184.817 37.7519 184.585 37.718L184.73 36.7285C185.782 36.8827 186.201 38.1771 185.437 38.9176L184.741 38.1998ZM184.585 37.7179L181.308 37.2374L181.454 36.248L184.73 36.7285L184.585 37.7179ZM181.307 37.2372C180.891 37.175 180.531 36.9131 180.344 36.5345L181.241 36.092C181.282 36.176 181.362 36.2344 181.455 36.2482L181.307 37.2372ZM180.344 36.5338L178.883 33.5616L179.781 33.1206L181.241 36.0928L180.344 36.5338ZM178.883 33.5619C178.779 33.3507 178.48 33.3521 178.377 33.5605L177.48 33.1176C177.952 32.1628 179.312 32.1682 179.78 33.1203L178.883 33.5619ZM178.376 33.5611L176.906 36.5283L176.01 36.0842L177.48 33.117L178.376 33.5611ZM176.906 36.5275C176.719 36.9061 176.358 37.1695 175.938 37.2288L175.798 36.2386C175.889 36.2258 175.968 36.169 176.009 36.085L176.906 36.5275ZM175.939 37.2286L172.661 37.7001L172.518 36.7103L175.797 36.2388L175.939 37.2286ZM172.661 37.7002C172.429 37.7334 172.337 38.0181 172.503 38.1809L171.805 38.8964C171.045 38.1542 171.467 36.8613 172.519 36.7103L172.661 37.7002ZM172.504 38.1811L174.872 40.4966L174.173 41.2117L171.805 38.8962L172.504 38.1811ZM174.873 40.4977C175.173 40.7922 175.311 41.2164 175.239 41.6325L174.253 41.4612C174.269 41.3708 174.239 41.2765 174.172 41.2106L174.873 40.4977ZM175.239 41.6321L174.674 44.8956L173.689 44.7251L174.253 41.4616L175.239 41.6321ZM174.674 44.8953C174.634 45.1273 174.877 45.3025 175.083 45.1944L175.548 46.0801C174.605 46.5746 173.508 45.7708 173.689 44.7254L174.674 44.8953Z" fill="#2F6F68" mask="url(#path-48-inside-3_2973_15100)"/>
<mask id="path-50-inside-4_2973_15100" fill="white">
<path d="M190.399 45.6368L193.334 44.1005C193.561 43.9803 193.834 43.9814 194.061 44.1016L196.99 45.6463C197.565 45.9485 198.236 45.4623 198.127 44.8229L197.572 41.559C197.528 41.3047 197.613 41.0451 197.799 40.8664L200.173 38.5578C200.638 38.1067 200.384 37.3173 199.741 37.2226L196.464 36.7417C196.21 36.7045 195.99 36.5439 195.876 36.313L194.415 33.3405C194.129 32.7586 193.299 32.7575 193.012 33.3384L191.542 36.3055C191.427 36.5364 191.207 36.6971 190.952 36.7332L187.674 37.2045C187.031 37.296 186.775 38.0854 187.239 38.5386L189.606 40.8536C189.791 41.0345 189.874 41.293 189.83 41.5472L189.265 44.8101C189.155 45.4485 189.825 45.9379 190.399 45.6368Z"/>
</mask>
<path d="M190.399 45.6368L193.334 44.1005C193.561 43.9803 193.834 43.9814 194.061 44.1016L196.99 45.6463C197.565 45.9485 198.236 45.4623 198.127 44.8229L197.572 41.559C197.528 41.3047 197.613 41.0451 197.799 40.8664L200.173 38.5578C200.638 38.1067 200.384 37.3173 199.741 37.2226L196.464 36.7417C196.21 36.7045 195.99 36.5439 195.876 36.313L194.415 33.3405C194.129 32.7586 193.299 32.7575 193.012 33.3384L191.542 36.3055C191.427 36.5364 191.207 36.6971 190.952 36.7332L187.674 37.2045C187.031 37.296 186.775 38.0854 187.239 38.5386L189.606 40.8536C189.791 41.0345 189.874 41.293 189.83 41.5472L189.265 44.8101C189.155 45.4485 189.825 45.9379 190.399 45.6368Z" fill="#F4FF00"/>
<path d="M193.334 44.1005L193.567 44.5427L193.565 44.5435L193.334 44.1005ZM194.061 44.1016L193.828 44.5439L193.828 44.5438L194.061 44.1016ZM196.99 45.6463L196.757 46.0889L196.757 46.0886L196.99 45.6463ZM198.127 44.8229L198.62 44.739L198.62 44.7393L198.127 44.8229ZM197.572 41.559L198.065 41.4744L198.065 41.4751L197.572 41.559ZM197.799 40.8664L198.147 41.2249L198.146 41.2261L197.799 40.8664ZM200.173 38.5578L199.825 38.1993L199.825 38.1989L200.173 38.5578ZM199.741 37.2226L199.814 36.7279L199.814 36.7279L199.741 37.2226ZM196.464 36.7417L196.537 36.247L196.537 36.247L196.464 36.7417ZM195.876 36.313L195.428 36.5341L195.427 36.5335L195.876 36.313ZM194.415 33.3405L194.864 33.1199L194.864 33.12L194.415 33.3405ZM193.012 33.3384L193.46 33.56L193.46 33.5604L193.012 33.3384ZM191.542 36.3055L191.99 36.5275L191.99 36.5283L191.542 36.3055ZM190.952 36.7332L190.88 36.2383L190.881 36.2382L190.952 36.7332ZM187.674 37.2045L187.745 37.6994L187.744 37.6995L187.674 37.2045ZM187.239 38.5386L187.588 38.181L187.588 38.1812L187.239 38.5386ZM189.606 40.8536L189.256 41.2112L189.256 41.2111L189.606 40.8536ZM189.83 41.5472L190.323 41.6318L190.323 41.6325L189.83 41.5472ZM189.265 44.8101L189.758 44.8954L189.758 44.8955L189.265 44.8101ZM190.167 45.1938L193.102 43.6576L193.565 44.5435L190.631 46.0797L190.167 45.1938ZM193.1 43.6584C193.475 43.4603 193.922 43.4629 194.295 43.6595L193.828 44.5438C193.745 44.4999 193.647 44.5004 193.567 44.5427L193.1 43.6584ZM194.294 43.6594L197.223 45.2041L196.757 46.0886L193.828 44.5439L194.294 43.6594ZM197.223 45.2038C197.432 45.3137 197.673 45.1368 197.634 44.9066L198.62 44.7393C198.798 45.7878 197.697 46.5833 196.757 46.0889L197.223 45.2038ZM197.634 44.9068L197.079 41.6428L198.065 41.4751L198.62 44.739L197.634 44.9068ZM197.079 41.6435C197.008 41.2263 197.147 40.8004 197.451 40.5067L198.146 41.2261C198.08 41.2898 198.049 41.3831 198.065 41.4744L197.079 41.6435ZM197.45 40.5079L199.825 38.1993L200.522 38.9163L198.147 41.2249L197.45 40.5079ZM199.825 38.1989C199.992 38.0369 199.901 37.7516 199.668 37.7173L199.814 36.7279C200.866 36.883 201.284 38.1765 200.521 38.9166L199.825 38.1989ZM199.669 37.7173L196.392 37.2364L196.537 36.247L199.814 36.7279L199.669 37.7173ZM196.392 37.2365C195.974 37.1753 195.614 36.9119 195.428 36.5341L196.325 36.0919C196.366 36.1758 196.446 36.2337 196.537 36.247L196.392 37.2365ZM195.427 36.5335L193.967 33.5611L194.864 33.12L196.325 36.0925L195.427 36.5335ZM193.967 33.5612C193.863 33.3508 193.564 33.3512 193.46 33.56L192.564 33.1168C193.035 32.1638 194.395 32.1664 194.864 33.1199L193.967 33.5612ZM193.46 33.5604L191.99 36.5275L191.094 36.0835L192.564 33.1164L193.46 33.5604ZM191.99 36.5283C191.802 36.9046 191.442 37.1687 191.022 37.2283L190.881 36.2382C190.972 36.2254 191.052 36.1682 191.094 36.0828L191.99 36.5283ZM191.023 37.2281L187.745 37.6994L187.603 36.7096L190.88 36.2383L191.023 37.2281ZM187.744 37.6995C187.514 37.7323 187.419 38.0162 187.588 38.181L186.889 38.8962C186.13 38.1546 186.548 36.8598 187.603 36.7095L187.744 37.6995ZM187.588 38.1812L189.955 40.4961L189.256 41.2111L186.889 38.8961L187.588 38.1812ZM189.955 40.496C190.259 40.7923 190.394 41.2164 190.323 41.6318L189.337 41.4627C189.353 41.3695 189.323 41.2766 189.256 41.2112L189.955 40.496ZM190.323 41.6325L189.758 44.8954L188.773 44.7248L189.338 41.462L190.323 41.6325ZM189.758 44.8955C189.718 45.1259 189.96 45.3023 190.167 45.1939L190.631 46.0796C189.689 46.5734 188.591 45.771 188.773 44.7248L189.758 44.8955Z" fill="#2F6F68" mask="url(#path-50-inside-4_2973_15100)"/>
<path d="M69.2196 169.145C67.3123 169.145 65.7666 167.558 65.7823 165.608L65.9825 140.88L66.0385 133.964L66.0422 133.508L66.0561 131.784L66.0835 128.397L66.1003 126.324L66.2497 107.867L66.3224 98.8846L66.3536 95.0271C66.375 92.3961 68.1445 90.1966 70.5282 89.5674C70.3691 89.8216 70.2759 90.1243 70.2752 90.4515L70.1029 164.444C70.1011 165.154 70.6218 165.753 71.3133 165.833C74.5873 166.21 79.5652 166.352 85.1802 166.352C99.0514 166.352 116.805 165.49 122.319 165.203C123.266 165.154 123.996 164.334 123.953 163.368L120.854 92.8953C120.818 92.0729 120.152 91.4371 119.357 91.4371C119.324 91.4371 119.288 91.4384 119.253 91.4411C116.051 91.6647 112.736 91.7603 109.406 91.7603C96.7368 91.7603 83.8847 90.3785 76.521 89.4247L101.572 89.6358L104.406 89.6597L119.386 89.7858C122.002 89.8083 124.141 91.9176 124.253 94.5837L124.446 99.2058L124.871 109.383L124.893 109.888L125.729 129.904L125.839 132.538L125.923 134.55L125.942 135.005L126.238 142.085L127.072 162.045L127.11 162.949L127.129 163.405L127.185 164.742C127.27 166.774 125.733 168.482 123.762 168.59C123.709 168.592 123.655 168.594 123.601 168.595L69.2545 169.145C69.2429 169.145 69.2312 169.145 69.2196 169.145Z" fill="white"/>
<path d="M76.9333 167.055H76.9327L70.8438 166.925C68.7942 166.882 67.1404 165.179 67.1574 163.129L67.2333 153.935C67.234 153.849 67.304 153.781 67.3897 153.781C67.4768 153.787 67.5443 153.852 67.5435 153.937L67.4675 163.131C67.452 165.013 68.9696 166.576 70.8504 166.615L76.9393 166.745C77.025 166.746 77.0928 166.817 77.091 166.903C77.0893 166.988 77.0187 167.056 76.9333 167.055Z" fill="#A7C2FB"/>
<path d="M67.4093 151.243C67.3243 151.242 67.2561 151.172 67.2568 151.087L67.269 149.598C67.2698 149.512 67.3397 149.443 67.4255 149.444H67.4264C67.5118 149.445 67.5799 149.515 67.5792 149.6L67.567 151.089C67.5663 151.175 67.4963 151.244 67.4106 151.243H67.4093Z" fill="#A7C2FB"/>
<path d="M84.9206 165.393C79.297 165.393 74.3116 165.254 71.0326 164.883C70.34 164.805 69.8185 164.217 69.8203 163.52L69.9928 90.8849C69.9936 90.5632 70.0869 90.2664 70.2462 90.0173C70.5361 89.5626 71.0447 89.2657 71.6114 89.2657C71.6886 89.2657 71.7668 89.271 71.8457 89.2828C72.9131 89.4361 74.4105 89.6438 76.2482 89.8771C83.6232 90.8135 96.4951 92.1693 109.183 92.1693C112.518 92.1693 115.838 92.0756 119.045 91.8561C119.08 91.8541 119.116 91.8528 119.15 91.8528C119.946 91.8528 120.612 92.4766 120.649 93.2839L123.753 162.464C123.796 163.412 123.065 164.217 122.116 164.265C116.594 164.546 98.8135 165.393 84.9206 165.393ZM72.2998 91.0658C71.4552 91.0658 70.7443 91.7512 70.7423 92.6241L70.5762 162.524C70.5746 163.194 71.0764 163.76 71.7429 163.836C74.8985 164.193 79.6955 164.326 85.1073 164.326C98.4767 164.326 115.589 163.511 120.903 163.241C121.816 163.194 122.519 162.42 122.478 161.507L119.491 94.9326C119.456 94.1561 118.815 93.5559 118.049 93.5559C118.015 93.5559 117.981 93.5565 117.948 93.5585C114.862 93.7701 111.667 93.8606 108.457 93.8606C93.2036 93.8606 77.6751 91.824 72.5255 91.0822C72.4494 91.071 72.3742 91.0658 72.2998 91.0658Z" fill="#91B3FA"/>
<path d="M85.1073 164.326C79.6955 164.326 74.8985 164.193 71.7429 163.836C71.0763 163.761 70.5746 163.195 70.5762 162.524L70.7423 92.624C70.7443 91.7517 71.4551 91.0662 72.2998 91.0662C72.3741 91.0662 72.4494 91.0707 72.5254 91.0823C77.6751 91.8245 93.2037 93.8609 108.457 93.8609C111.667 93.8609 114.862 93.7707 117.948 93.5588C117.982 93.5562 118.015 93.5555 118.049 93.5555C118.815 93.5555 119.456 94.1566 119.491 94.9329L122.478 161.508C122.519 162.421 121.816 163.195 120.903 163.242C115.589 163.512 98.4768 164.326 85.1073 164.326ZM82.9854 151.155C82.9784 151.155 82.9714 151.155 82.9643 151.155C81.9745 151.191 80.2926 151.375 78.8086 151.538C78.1271 151.613 77.5078 151.681 77.0577 151.722C76.7322 151.752 76.4347 151.908 76.2412 152.15C76.0681 152.367 75.9916 152.632 76.0259 152.898L76.6038 157.369C76.6925 158.056 77.3278 158.567 78.0872 158.567C78.0954 158.567 78.1036 158.567 78.1117 158.566L83.4556 158.489H83.4702C84.2157 158.47 84.8206 157.907 84.8216 157.225C84.8245 155.148 84.8019 153.199 84.4983 152.175C84.3142 151.554 83.7024 151.155 82.9854 151.155ZM115.244 153.715L88.429 153.724C87.9782 153.724 87.712 154.078 87.837 154.511L88.1495 155.589C88.2734 156.016 88.732 156.357 89.1762 156.357C89.1834 156.357 89.19 156.357 89.1972 156.357L115.337 155.727C115.786 155.716 116.139 155.338 116.117 154.888L116.101 154.533C116.081 154.083 115.695 153.715 115.244 153.715ZM83.3476 139.801C83.331 139.801 83.3144 139.801 83.2978 139.802C82.3076 139.838 80.5514 140.03 79.1402 140.185C78.4594 140.26 77.8406 140.327 77.3911 140.368C77.0656 140.399 76.7679 140.555 76.5745 140.796C76.4015 141.013 76.325 141.278 76.3593 141.545L76.9372 146.016C77.0259 146.702 77.6612 147.213 78.4202 147.213C78.4284 147.213 78.4368 147.213 78.4451 147.213L83.789 147.135H83.8032C84.5487 147.117 85.154 146.553 85.155 145.872C85.1579 143.795 85.1354 141.845 84.8316 140.821C84.6501 140.209 84.0309 139.801 83.3476 139.801ZM115.578 142.362L88.762 142.37C88.3112 142.371 88.045 142.725 88.1706 143.158L88.4831 144.236C88.6064 144.663 89.0656 145.004 89.5098 145.004C89.5164 145.004 89.5236 145.003 89.5302 145.003L115.669 144.373C116.12 144.362 116.472 143.985 116.451 143.534L116.435 143.18C116.414 142.729 116.028 142.362 115.578 142.362ZM83.5962 128.794C83.5823 128.794 83.5681 128.794 83.5542 128.794C83.5469 128.794 83.5397 128.794 83.5324 128.795C82.5426 128.831 80.8607 129.015 79.3768 129.178C78.6952 129.252 78.0758 129.32 77.6258 129.361C77.3003 129.392 77.0027 129.548 76.8093 129.79C76.6362 130.006 76.5598 130.271 76.5941 130.537L77.1719 135.009C77.2605 135.695 77.896 136.206 78.6554 136.206C78.6635 136.206 78.6717 136.206 78.6798 136.206L84.0237 136.128L84.0382 136.128C84.7838 136.11 85.3886 135.546 85.3896 134.865C85.3926 132.788 85.37 130.838 85.0664 129.814C84.886 129.207 84.2869 128.794 83.5962 128.794ZM115.812 131.354L88.997 131.363C88.5463 131.363 88.28 131.718 88.4056 132.15L88.7176 133.229C88.8414 133.655 89.3 133.996 89.7442 133.996C89.7514 133.996 89.758 133.996 89.7652 133.996L115.904 133.366C116.354 133.355 116.707 132.978 116.686 132.527L116.67 132.173C116.648 131.723 116.263 131.354 115.812 131.354ZM83.3199 117.343C83.3059 117.343 83.292 117.343 83.278 117.344C83.2708 117.344 83.2635 117.344 83.2562 117.344C82.2664 117.38 80.5845 117.564 79.1005 117.727C78.419 117.802 77.7996 117.87 77.3496 117.912C77.0242 117.941 76.7266 118.097 76.5332 118.339C76.36 118.555 76.2835 118.821 76.3178 119.087L76.8958 123.558C76.9844 124.245 77.6201 124.756 78.3795 124.756C78.3875 124.756 78.3957 124.756 78.4036 124.756L83.7474 124.678H83.7621C84.5076 124.66 85.1125 124.095 85.1135 123.414C85.1164 121.337 85.0939 119.388 84.7901 118.363C84.6098 117.756 84.0105 117.343 83.3199 117.343ZM115.536 119.904L88.7205 119.913C88.2697 119.913 88.0035 120.267 88.1291 120.7L88.4416 121.778C88.5649 122.205 89.0241 122.546 89.4683 122.546C89.4749 122.546 89.4821 122.546 89.4887 122.546L115.628 121.915C116.079 121.905 116.431 121.527 116.41 121.077L116.393 120.723C116.373 120.272 115.987 119.904 115.536 119.904ZM83.5271 105.343C83.5133 105.343 83.4992 105.343 83.4854 105.343C83.4781 105.343 83.4709 105.343 83.4635 105.344C82.4736 105.38 80.7918 105.564 79.3078 105.727C78.6263 105.801 78.0069 105.869 77.5569 105.91C77.2314 105.94 76.9338 106.097 76.7405 106.339C76.5673 106.555 76.4908 106.82 76.5252 107.086L77.1031 111.558C77.1917 112.244 77.8272 112.755 78.5865 112.755C78.5945 112.755 78.6028 112.755 78.6109 112.755L83.9547 112.677L83.9694 112.677C84.7149 112.659 85.3197 112.095 85.3207 111.413C85.3236 109.336 85.3012 107.387 84.9975 106.363C84.8171 105.755 84.2178 105.343 83.5271 105.343ZM115.743 107.903L88.9279 107.912C88.4771 107.912 88.2109 108.267 88.3365 108.7L88.649 109.778C88.7723 110.204 89.2315 110.545 89.6757 110.545C89.6823 110.545 89.6895 110.545 89.6961 110.545L115.835 109.915C116.286 109.904 116.637 109.526 116.617 109.077L116.601 108.722C116.58 108.271 116.194 107.903 115.743 107.903ZM77.3511 100.455C76.9137 100.455 76.7792 100.736 77.0536 101.087C77.3314 101.442 77.9276 101.735 78.3784 101.739L117.014 102.058C117.019 102.058 117.023 102.058 117.026 102.058C117.472 102.058 117.822 101.847 117.807 101.586C117.791 101.323 117.41 101.101 116.959 101.094L77.3679 100.455C77.3623 100.455 77.3566 100.455 77.3511 100.455ZM77.3731 97.7953C76.9357 97.7953 76.8012 98.0775 77.0756 98.4273C77.3535 98.7823 77.9496 99.076 78.4004 99.0799L117.037 99.3988C117.041 99.3988 117.044 99.3988 117.048 99.3988C117.494 99.3988 117.843 99.1881 117.829 98.9266C117.813 98.6631 117.432 98.4421 116.981 98.4344L77.3899 97.7953C77.3843 97.7953 77.3787 97.7953 77.3731 97.7953ZM78.0875 158.13C77.5472 158.13 77.0969 157.782 77.0363 157.313L76.4584 152.842C76.4394 152.695 76.4832 152.545 76.5817 152.422C76.7014 152.273 76.8896 152.176 77.098 152.157C77.5498 152.115 78.1717 152.047 78.856 151.972C80.2596 151.818 82.0062 151.627 82.9804 151.591C82.9917 151.591 83.003 151.591 83.0144 151.591C83.5024 151.591 83.9558 151.88 84.0802 152.299C84.3672 153.266 84.3885 155.181 84.3856 157.224C84.3848 157.67 83.9705 158.04 83.4598 158.053H83.4493L78.1055 158.13C78.0994 158.13 78.0935 158.13 78.0875 158.13ZM82.4367 152.139C82.4222 152.139 82.4077 152.139 82.393 152.14C81.2366 152.182 78.8032 152.489 77.6827 152.593C77.2673 152.631 76.9671 152.966 77.0149 153.336L77.4766 156.909C77.5361 157.369 77.9717 157.714 78.4893 157.714C78.495 157.714 78.5007 157.714 78.5064 157.714L82.7768 157.652C83.2871 157.645 83.6961 157.271 83.6967 156.816C83.6988 155.297 83.6887 153.65 83.4455 152.83C83.324 152.42 82.9089 152.139 82.4367 152.139ZM78.4201 146.777C77.8802 146.777 77.4302 146.428 77.3698 145.96L76.7919 141.488C76.7727 141.341 76.8165 141.192 76.9149 141.069C77.0349 140.919 77.2231 140.822 77.4314 140.803C77.8828 140.761 78.5041 140.693 79.1878 140.618C80.5918 140.465 82.3392 140.273 83.3137 140.237C83.3291 140.237 83.3444 140.237 83.3597 140.237C83.843 140.237 84.2902 140.53 84.4136 140.945C84.7007 141.913 84.7219 143.828 84.7189 145.871C84.7182 146.32 84.2861 146.679 83.7827 146.7L78.4388 146.777C78.4324 146.777 78.4263 146.777 78.4201 146.777ZM82.7699 140.786C82.7555 140.786 82.741 140.786 82.7265 140.787C81.5699 140.829 79.1365 141.135 78.0161 141.239C77.6007 141.277 77.3006 141.613 77.3482 141.983L77.81 145.556C77.8695 146.016 78.3051 146.361 78.8228 146.361C78.8285 146.361 78.8341 146.361 78.8398 146.361L83.1101 146.299C83.6204 146.291 84.0294 145.918 84.0301 145.463C84.0322 143.943 84.0221 142.297 83.7789 141.477C83.6574 141.067 83.2422 140.786 82.7699 140.786ZM78.6554 135.77C78.1151 135.77 77.6649 135.421 77.6044 134.953L77.0265 130.482C77.0074 130.334 77.0513 130.185 77.1498 130.061C77.2697 129.912 77.4578 129.815 77.6661 129.796C78.1179 129.754 78.7397 129.686 79.4241 129.611C80.8277 129.457 82.5744 129.266 83.5484 129.23C83.5674 129.229 83.5864 129.228 83.6054 129.228C84.0844 129.228 84.5258 129.525 84.6483 129.938C84.9353 130.906 84.9565 132.821 84.9536 134.864C84.9529 135.31 84.5386 135.679 84.0279 135.692H84.0174L78.6736 135.77C78.6675 135.77 78.6615 135.77 78.6554 135.77ZM83.0048 129.779C82.9904 129.779 82.9758 129.779 82.9611 129.779C81.8046 129.822 79.3712 130.128 78.2508 130.232C77.8354 130.27 77.5353 130.606 77.583 130.976L78.0447 134.549C78.1042 135.009 78.5398 135.354 79.0574 135.354C79.0632 135.354 79.0688 135.354 79.0744 135.354L83.3448 135.292C83.8552 135.284 84.2641 134.911 84.2648 134.456C84.2669 132.936 84.2568 131.289 84.0135 130.469C83.8921 130.06 83.477 129.779 83.0048 129.779ZM78.3792 124.319C77.839 124.319 77.3887 123.971 77.3283 123.502L76.7503 119.031C76.7313 118.883 76.7751 118.734 76.8736 118.612C76.9933 118.461 77.1815 118.365 77.3899 118.345C77.8417 118.303 78.4637 118.236 79.1479 118.16C80.5515 118.007 82.2981 117.815 83.2723 117.78C83.2948 117.779 83.3172 117.778 83.3396 117.778C83.8144 117.778 84.2506 118.079 84.3721 118.488C84.6592 119.456 84.6804 121.37 84.6775 123.414C84.6768 123.86 84.2625 124.229 83.7517 124.241L83.7412 124.242L78.3974 124.319C78.3913 124.319 78.3853 124.319 78.3792 124.319ZM82.7287 118.328C82.7143 118.328 82.6996 118.329 82.685 118.329C81.5285 118.371 79.095 118.678 77.9746 118.781C77.5592 118.819 77.259 119.156 77.3068 119.526L77.7686 123.099C77.828 123.558 78.2636 123.903 78.7813 123.903C78.787 123.903 78.7926 123.903 78.7983 123.903L83.0687 123.841C83.579 123.834 83.9879 123.461 83.9886 123.006C83.9907 121.485 83.9806 119.839 83.7374 119.019C83.6159 118.609 83.2009 118.328 82.7287 118.328ZM78.5865 112.318C78.0463 112.318 77.596 111.97 77.5355 111.502L76.9576 107.03C76.9385 106.883 76.9823 106.734 77.0808 106.61C77.2007 106.461 77.3888 106.364 77.5972 106.345C78.0491 106.303 78.6709 106.235 79.3552 106.16C80.7588 106.006 82.5055 105.815 83.4796 105.779C83.502 105.777 83.5245 105.777 83.5469 105.777C84.0218 105.777 84.4578 106.078 84.5793 106.487C84.8664 107.454 84.8877 109.37 84.8848 111.413C84.8841 111.859 84.4698 112.228 83.9589 112.241H83.9484L78.6046 112.318C78.5986 112.318 78.5925 112.318 78.5865 112.318ZM82.9358 106.328C82.9215 106.328 82.9069 106.328 82.8923 106.328C81.7357 106.37 79.3023 106.677 78.1818 106.781C77.7665 106.819 77.4663 107.155 77.5141 107.524L77.9758 111.098C78.0353 111.558 78.4709 111.902 78.9887 111.902C78.9943 111.902 79 111.902 79.0056 111.902L83.276 111.84C83.7862 111.833 84.1952 111.46 84.1959 111.005C84.198 109.485 84.1878 107.838 83.9446 107.018C83.8231 106.609 83.4081 106.328 82.9358 106.328Z" fill="#BDD2FF"/>
<path d="M117.049 99.3984C117.045 99.3984 117.041 99.3984 117.037 99.3984L78.4008 99.0789C77.95 99.0753 77.3539 98.7816 77.076 98.4271C76.8016 98.0768 76.9361 97.7946 77.3735 97.7946C77.3791 97.7946 77.3847 97.7946 77.3903 97.7946L116.982 98.4337C117.433 98.4415 117.814 98.6622 117.829 98.9257C117.844 99.1874 117.494 99.3984 117.049 99.3984Z" fill="url(#paint0_linear_2973_15100)"/>
<path d="M117.027 102.058C117.023 102.058 117.02 102.058 117.015 102.058L78.3793 101.738C77.9285 101.735 77.3324 101.441 77.0545 101.087C76.7801 100.736 76.9146 100.454 77.352 100.454C77.3576 100.454 77.3632 100.454 77.3688 100.454L116.96 101.093C117.411 101.101 117.792 101.322 117.808 101.586C117.823 101.847 117.472 102.058 117.027 102.058Z" fill="url(#paint1_linear_2973_15100)"/>
<path d="M77.3907 118.345C77.1823 118.364 76.9941 118.461 76.8743 118.611C76.7758 118.734 76.732 118.883 76.7511 119.03L77.329 123.501C77.3901 123.976 77.8498 124.327 78.3981 124.319L83.7419 124.241L83.7524 124.241C84.2632 124.229 84.6775 123.859 84.6782 123.413C84.6811 121.369 84.6599 119.455 84.3728 118.487C84.2455 118.059 83.7734 117.749 83.273 117.779C82.2989 117.815 80.5522 118.006 79.1487 118.16C78.4644 118.235 77.8424 118.303 77.3907 118.345ZM83.7628 124.677L83.7481 124.677L78.4044 124.755C77.6343 124.766 76.986 124.251 76.8965 123.557L76.3186 119.086C76.2843 118.82 76.3607 118.555 76.5339 118.338C76.7273 118.097 77.0249 117.941 77.3503 117.911C77.8003 117.869 78.4198 117.801 79.1013 117.726C80.5852 117.564 82.2671 117.38 83.2569 117.343C83.2643 117.343 83.2715 117.343 83.2788 117.343C83.987 117.326 84.607 117.743 84.7909 118.363C85.0946 119.387 85.1171 121.336 85.1142 123.414C85.1131 124.095 84.5084 124.659 83.7628 124.677Z" fill="white"/>
<path d="M78.7822 123.902C78.2645 123.902 77.8289 123.557 77.7695 123.098L77.3077 119.525C77.2599 119.155 77.5602 118.819 77.9755 118.781C79.096 118.677 81.5294 118.371 82.6859 118.328C82.7005 118.328 82.7151 118.327 82.7296 118.327C83.2018 118.327 83.6169 118.609 83.7383 119.019C83.9815 119.838 83.9917 121.485 83.9895 123.005C83.9888 123.46 83.5799 123.833 83.0696 123.84L78.7992 123.902C78.7935 123.902 78.7879 123.902 78.7822 123.902Z" fill="url(#paint2_linear_2973_15100)"/>
<path d="M89.469 122.546C89.0248 122.546 88.5655 122.204 88.4423 121.778L88.1297 120.699C88.0041 120.267 88.2704 119.913 88.7212 119.912L115.536 119.904C115.987 119.904 116.373 120.271 116.394 120.722L116.41 121.076C116.431 121.526 116.079 121.904 115.628 121.915L89.4894 122.545C89.4828 122.546 89.4756 122.546 89.469 122.546Z" fill="url(#paint3_linear_2973_15100)"/>
<path d="M78.219 119.479C78.61 119.237 79.1238 119.363 79.3575 119.759L80.4568 121.623C80.5669 121.809 80.8425 121.791 80.9265 121.591L83.3998 115.709C83.5232 115.416 83.9578 115.503 83.9607 115.822C83.977 117.602 83.5863 120.997 80.8107 123.897C80.8107 123.897 79.2288 123.326 77.8999 120.585C77.708 120.189 77.845 119.71 78.219 119.479Z" fill="#2F6F68"/>
<path d="M77.5976 106.345C77.3893 106.364 77.2011 106.461 77.0813 106.61C76.9827 106.734 76.939 106.883 76.9581 107.03L77.536 111.501C77.5971 111.975 78.0568 112.326 78.6051 112.318L83.9489 112.241H83.9594C84.4702 112.228 84.8845 111.859 84.8852 111.413C84.8881 109.369 84.8668 107.454 84.5798 106.487C84.4526 106.058 83.9804 105.749 83.48 105.779C82.5059 105.815 80.7593 106.006 79.3557 106.16C78.6714 106.235 78.0495 106.303 77.5976 106.345ZM83.9698 112.677L83.9552 112.677L78.6114 112.755C77.8413 112.766 77.1931 112.251 77.1035 111.557L76.5256 107.086C76.4912 106.82 76.5678 106.555 76.7409 106.338C76.9343 106.097 77.2319 105.94 77.5574 105.91C78.0073 105.869 78.6268 105.801 79.3083 105.726C80.7923 105.564 82.4741 105.379 83.4639 105.343C83.4713 105.343 83.4785 105.343 83.4858 105.342C84.194 105.325 84.8139 105.743 84.9979 106.363C85.3016 107.387 85.3241 109.336 85.3212 111.413C85.3202 112.095 84.7154 112.659 83.9698 112.677Z" fill="white"/>
<path d="M78.9893 111.902C78.4716 111.902 78.036 111.557 77.9765 111.097L77.5148 107.524C77.4669 107.154 77.7672 106.819 78.1825 106.781C79.303 106.677 81.7363 106.37 82.8929 106.328C82.9075 106.327 82.9221 106.327 82.9365 106.327C83.4088 106.327 83.8238 106.609 83.9453 107.018C84.1885 107.838 84.1986 109.485 84.1965 111.004C84.1959 111.459 83.7869 111.833 83.2766 111.84L79.0062 111.902C79.0006 111.902 78.9949 111.902 78.9893 111.902Z" fill="url(#paint4_linear_2973_15100)"/>
<path d="M89.676 110.545C89.2318 110.545 88.7726 110.204 88.6493 109.777L88.3368 108.699C88.2112 108.266 88.4774 107.912 88.9282 107.912L115.744 107.903C116.194 107.903 116.58 108.271 116.601 108.721L116.617 109.076C116.638 109.526 116.286 109.904 115.835 109.914L89.6964 110.545C89.6898 110.545 89.6826 110.545 89.676 110.545Z" fill="url(#paint5_linear_2973_15100)"/>
<path d="M78.427 107.478C78.818 107.236 79.3318 107.363 79.5655 107.759L80.6648 109.622C80.7749 109.809 81.0505 109.79 81.1345 109.59L83.6078 103.709C83.7312 103.415 84.1659 103.503 84.1687 103.821C84.185 105.602 83.7943 108.996 81.0188 111.896C81.0188 111.896 79.4369 111.325 78.1079 108.585C77.916 108.188 78.053 107.71 78.427 107.478Z" fill="#2F6F68"/>
<path d="M77.667 129.796C77.4587 129.815 77.2705 129.912 77.1506 130.062C77.0521 130.185 77.0083 130.334 77.0274 130.481L77.6053 134.953C77.6664 135.426 78.1261 135.777 78.6745 135.77L84.0183 135.692H84.0287C84.5394 135.679 84.9538 135.31 84.9545 134.864C84.9574 132.821 84.9361 130.906 84.6491 129.938C84.5218 129.509 84.0498 129.206 83.5493 129.23C82.5753 129.266 80.8285 129.457 79.425 129.611C78.7406 129.686 78.1187 129.754 77.667 129.796ZM84.0391 136.128L84.0245 136.128L78.6807 136.206C77.9107 136.217 77.2623 135.702 77.1728 135.009L76.595 130.537C76.5606 130.271 76.637 130.006 76.8102 129.789C77.0036 129.548 77.3012 129.392 77.6267 129.361C78.0767 129.32 78.696 129.252 79.3776 129.177C80.8615 129.015 82.5434 128.831 83.5332 128.795C83.5405 128.794 83.5478 128.794 83.555 128.794C84.2634 128.776 84.8832 129.194 85.0672 129.814C85.3709 130.838 85.3935 132.788 85.3904 134.865C85.3895 135.546 84.7847 136.11 84.0391 136.128Z" fill="white"/>
<path d="M79.0585 135.354C78.5408 135.354 78.1053 135.008 78.0458 134.549L77.5841 130.975C77.5364 130.606 77.8365 130.27 78.2518 130.232C79.3723 130.128 81.8057 129.822 82.9622 129.779C82.9768 129.779 82.9914 129.779 83.0059 129.779C83.4781 129.779 83.8931 130.06 84.0146 130.469C84.2578 131.29 84.2679 132.936 84.2658 134.456C84.2652 134.911 83.8562 135.284 83.3459 135.292L79.0755 135.354C79.0699 135.354 79.0642 135.354 79.0585 135.354Z" fill="url(#paint6_linear_2973_15100)"/>
<path d="M89.7447 133.996C89.3005 133.996 88.8419 133.655 88.7181 133.229L88.4061 132.15C88.2805 131.717 88.5468 131.363 88.9976 131.363L115.813 131.354C116.264 131.354 116.649 131.722 116.67 132.172L116.686 132.527C116.707 132.977 116.355 133.355 115.905 133.366L89.7658 133.996C89.7585 133.996 89.7519 133.996 89.7447 133.996Z" fill="url(#paint7_linear_2973_15100)"/>
<path d="M78.4954 130.929C78.8864 130.686 79.4002 130.813 79.6339 131.209L80.7332 133.073C80.8432 133.26 81.1189 133.241 81.2029 133.041L83.6762 127.159C83.7996 126.866 84.2342 126.954 84.2371 127.272C84.2533 129.053 83.8627 132.447 81.0871 135.348C81.0871 135.348 79.5053 134.776 78.1763 132.035C77.9843 131.639 78.1214 131.161 78.4954 130.929Z" fill="#2F6F68"/>
<path d="M77.4326 140.803C77.2244 140.822 77.0361 140.919 76.9162 141.069C76.8177 141.192 76.774 141.341 76.7931 141.488L77.371 145.959C77.4322 146.433 77.8918 146.785 78.44 146.776L83.7839 146.699C84.2873 146.678 84.7194 146.32 84.7202 145.871C84.7231 143.827 84.7019 141.913 84.4148 140.945C84.2875 140.516 83.8157 140.218 83.315 140.237C82.3405 140.273 80.5931 140.464 79.189 140.618C78.5054 140.693 77.8841 140.761 77.4326 140.803ZM83.8044 147.135H83.7902L78.4463 147.213C77.6764 147.224 77.0281 146.71 76.9384 146.015L76.3606 141.545C76.3262 141.278 76.4028 141.013 76.5757 140.796C76.7691 140.555 77.0668 140.399 77.3923 140.368C77.8419 140.327 78.4606 140.259 79.1414 140.185C80.5527 140.03 82.3088 139.838 83.299 139.801C84.0019 139.781 84.647 140.195 84.8329 140.821C85.1366 141.845 85.1591 143.794 85.1562 145.872C85.1552 146.553 84.55 147.117 83.8044 147.135Z" fill="white"/>
<path d="M78.8233 146.36C78.3056 146.36 77.8699 146.016 77.8105 145.555L77.3487 141.983C77.301 141.613 77.6012 141.277 78.0165 141.239C79.137 141.135 81.5704 140.829 82.727 140.787C82.7415 140.786 82.756 140.785 82.7704 140.785C83.2427 140.785 83.6579 141.067 83.7794 141.477C84.0226 142.296 84.0327 143.943 84.0306 145.463C84.0299 145.918 83.6208 146.291 83.1106 146.298L78.8403 146.36C78.8346 146.36 78.8289 146.36 78.8233 146.36Z" fill="url(#paint8_linear_2973_15100)"/>
<path d="M89.5109 145.004C89.0667 145.004 88.6075 144.662 88.4843 144.236L88.1717 143.158C88.0461 142.725 88.3124 142.371 88.7632 142.37L115.578 142.362C116.029 142.362 116.415 142.729 116.436 143.18L116.452 143.534C116.473 143.985 116.121 144.362 115.67 144.373L89.5314 145.003C89.5248 145.003 89.5176 145.004 89.5109 145.004Z" fill="url(#paint9_linear_2973_15100)"/>
<path d="M78.261 141.936C78.652 141.694 79.1658 141.82 79.3996 142.216L80.4989 144.08C80.6089 144.266 80.8845 144.248 80.9685 144.048L83.4418 138.167C83.5652 137.873 83.9998 137.96 84.0027 138.279C84.019 140.059 83.6283 143.454 80.8527 146.354C80.8527 146.354 79.2709 145.783 77.9419 143.042C77.75 142.646 77.887 142.167 78.261 141.936Z" fill="#2F6F68"/>
<path d="M77.0986 152.157C76.8902 152.176 76.7021 152.273 76.5823 152.423C76.4838 152.545 76.44 152.695 76.4591 152.842L77.037 157.314C77.0981 157.787 77.5579 158.138 78.1062 158.13L83.4499 158.053H83.4605C83.9711 158.04 84.3855 157.671 84.3862 157.225C84.3891 155.182 84.3678 153.267 84.0808 152.299C83.9536 151.87 83.4818 151.578 82.981 151.591C82.0068 151.627 80.2602 151.818 78.8567 151.972C78.1723 152.047 77.5504 152.115 77.0986 152.157ZM83.4708 158.489H83.4562L78.1124 158.566C77.3423 158.578 76.694 158.063 76.6045 157.369L76.0266 152.898C75.9922 152.632 76.0687 152.367 76.2418 152.15C76.4353 151.908 76.7329 151.752 77.0584 151.722C77.5084 151.681 78.1277 151.613 78.8092 151.538C80.2932 151.376 81.9751 151.192 82.9649 151.155C83.691 151.147 84.3131 151.548 84.4989 152.175C84.8026 153.199 84.8252 155.149 84.8222 157.225C84.8212 157.907 84.2164 158.471 83.4708 158.489Z" fill="white"/>
<path d="M78.4901 157.714C77.9725 157.714 77.5369 157.369 77.4774 156.908L77.0157 153.336C76.968 152.966 77.2681 152.631 77.6835 152.592C78.804 152.488 81.2374 152.182 82.3939 152.139C82.4085 152.139 82.423 152.138 82.4375 152.138C82.9097 152.138 83.3248 152.42 83.4463 152.83C83.6895 153.65 83.6996 155.296 83.6976 156.816C83.6969 157.271 83.2879 157.644 82.7776 157.651L78.5073 157.713C78.5016 157.714 78.4958 157.714 78.4901 157.714Z" fill="url(#paint10_linear_2973_15100)"/>
<path d="M89.1767 156.356C88.7325 156.356 88.2739 156.015 88.1501 155.589L87.8375 154.511C87.7125 154.077 87.9788 153.723 88.4296 153.723L115.245 153.714C115.696 153.714 116.081 154.083 116.102 154.533L116.118 154.887C116.139 155.338 115.787 155.715 115.337 155.726L89.1977 156.356C89.1905 156.356 89.1839 156.356 89.1767 156.356Z" fill="url(#paint11_linear_2973_15100)"/>
<path d="M77.928 153.29C78.319 153.047 78.8328 153.174 79.0665 153.57L80.1658 155.434C80.2759 155.62 80.5515 155.601 80.6355 155.402L83.1088 149.52C83.2322 149.227 83.6668 149.315 83.6697 149.633C83.6859 151.413 83.2953 154.808 80.5197 157.708C80.5197 157.708 78.9379 157.137 77.6089 154.396C77.4169 154 77.554 153.522 77.928 153.29Z" fill="#2F6F68"/>
<path d="M96.0574 84.6405C95.315 84.6348 94.7188 84.0282 94.7248 83.2865C94.7314 82.5448 95.3373 81.9474 96.0796 81.9538C96.8214 81.9603 97.4177 82.5669 97.4116 83.3086C97.4056 84.0503 96.7991 84.6469 96.0574 84.6405ZM98.4592 80.6734C96.7541 79.4665 95.2627 79.4772 94.2103 79.7788C93.2504 80.0532 92.6216 80.9728 92.7046 81.9681L93.1163 86.9135L98.4999 87.4365C98.4999 87.4365 101.804 83.0414 98.4592 80.6734Z" fill="#2F6F68"/>
<path d="M93.4514 83.4156C93.3577 83.38 93.2879 83.2939 93.279 83.188L93.229 82.5898C93.1449 81.5771 93.7898 80.6397 94.7624 80.3616C95.4284 80.171 96.1136 80.1482 96.7982 80.294C96.9401 80.3274 97.0345 80.4668 97.0038 80.6112C96.9726 80.7556 96.8313 80.8474 96.6871 80.8168C96.0884 80.6887 95.4903 80.7087 94.9091 80.8744C94.1806 81.0828 93.6979 81.7854 93.761 82.5457L93.8109 83.1439C93.8229 83.2904 93.7141 83.4191 93.5669 83.4319C93.5266 83.4348 93.4869 83.4291 93.4514 83.4156ZM93.5795 84.9589C93.4863 84.9241 93.416 84.838 93.4076 84.7313L93.3421 83.9433C93.3294 83.7968 93.4389 83.668 93.5855 83.6552C93.7322 83.6431 93.8614 83.752 93.874 83.8992L93.9396 84.6872C93.9516 84.8344 93.8428 84.9625 93.6955 84.9745C93.6552 84.9781 93.6155 84.9724 93.5795 84.9589Z" fill="#BDD0FB"/>
<path d="M85.7373 90.0468L85.7579 87.5622C85.7648 86.7043 86.4815 86.0232 87.3383 86.0597L104.464 86.788C105.224 86.8204 105.834 87.4258 105.874 88.1852L105.997 90.5732L85.7373 90.0468Z" fill="#2F6F68"/>
<path d="M91.4124 87.0535C91.3277 87.0529 91.2592 86.9831 91.2598 86.8972C91.261 86.8114 91.3307 86.743 91.4167 86.7436L92.1529 86.7497C92.2425 86.7517 92.3075 86.8208 92.3068 86.906C92.3063 86.9918 92.2359 87.0602 92.1506 87.0596L91.4136 87.0535H91.4124Z" fill="#BDD0FB"/>
<path d="M86.5782 89.3934C86.4763 89.3551 86.4043 89.2563 86.4053 89.1408L86.4135 88.136C86.4168 87.723 86.5807 87.3361 86.875 87.0473C87.1694 86.7578 87.5589 86.6 87.9713 86.6027L90.6797 86.6255C90.8264 86.6275 90.946 86.7471 90.9441 86.8949C90.943 87.0426 90.8228 87.1608 90.6755 87.1595L87.967 87.1367C87.4092 87.1326 86.9517 87.5819 86.9472 88.1408L86.9388 89.1455C86.9376 89.2926 86.8171 89.4115 86.6697 89.4101C86.6376 89.4101 86.6067 89.4041 86.5782 89.3934Z" fill="#BDD0FB"/>
<path d="M80.3774 89.0927L110.333 89.3389C111.41 89.3481 112.324 90.1304 112.499 91.1931L112.523 91.3401C112.714 92.5045 111.811 93.5606 110.631 93.5507L79.8991 93.2967C79.193 93.2915 78.6352 92.6961 78.6748 91.9912L78.7524 90.6155C78.8009 89.7563 79.516 89.0855 80.3774 89.0927Z" fill="#2F6F68"/>
<path d="M194.789 167.376C196.431 167.518 199.282 167.749 201.529 167.848C202.88 167.907 203.658 167.775 204.105 167.596C204.104 167.646 204.103 167.694 204.102 167.738C204.091 167.974 203.899 168.164 203.66 168.177C199.414 168.414 196.037 168.259 194.834 168.186C194.586 168.171 194.437 167.901 194.566 167.689C194.629 167.583 194.706 167.479 194.789 167.376Z" fill="url(#paint12_linear_2973_15100)"/>
<path d="M201.529 167.848C199.282 167.749 196.432 167.519 194.789 167.377C196.404 165.395 201.529 164.06 201.529 164.06H202.976C203.973 165.495 204.117 166.861 204.105 167.596C203.657 167.775 202.88 167.907 201.529 167.848Z" fill="url(#paint13_linear_2973_15100)"/>
<path d="M203.221 161.696L203.086 164.377C203.071 164.668 202.854 164.911 202.563 164.953C202.274 164.994 201.886 164.999 201.475 164.863C201.222 164.779 201.035 164.565 200.989 164.306L200.521 161.696H203.221Z" fill="url(#paint14_linear_2973_15100)"/>
<path d="M222.022 167.828C222.735 167.729 223.056 167.358 223.193 166.963L223.195 166.974C223.3 167.391 223.056 167.823 222.57 168.029C221.984 168.277 221.342 168.32 220.844 168.299C220.309 168.277 219.818 168.056 219.549 167.702L219.545 167.697C220.082 167.962 220.834 167.994 222.022 167.828Z" fill="url(#paint15_linear_2973_15100)"/>
<path d="M218.664 161.679H219.858C221.677 161.643 222.818 165.477 223.192 166.963C223.057 167.358 222.735 167.728 222.022 167.828C220.834 167.994 220.082 167.962 219.545 167.697C218.563 166.404 218.075 164.51 217.841 163.406C217.575 162.149 218.664 161.679 218.664 161.679Z" fill="url(#paint16_linear_2973_15100)"/>
<path d="M219.705 159.191L220.368 161.828C220.449 162.151 220.295 162.485 219.996 162.639C219.624 162.829 219.102 163.029 218.623 162.971C218.397 162.944 218.209 162.785 218.135 162.572L217.161 159.799L219.705 159.191Z" fill="url(#paint17_linear_2973_15100)"/>
<path d="M220.495 159.954C219.67 160.685 216.987 160.782 216.987 160.782C207.324 137.59 203.372 134.295 203.372 134.295C204.767 143.048 203.597 162.428 203.597 162.428C202.002 163.132 199.946 162.428 199.946 162.428C199.817 148.097 197.614 135.599 195.012 125.746C201.543 125.599 205.016 123.364 206.15 122.467C211.595 131.244 220.495 159.954 220.495 159.954Z" fill="#00050D"/>
<path d="M204.491 95.7972C205.727 101.963 205.284 112.999 204.992 118.033C204.911 119.448 205.899 121.41 206.697 122.748C206.822 122.957 206.745 123.226 206.528 123.338C205.191 124.025 200.663 126.154 195.416 126.419C195.065 126.436 194.753 126.198 194.662 125.859C190.77 111.325 186.248 102.036 186.248 102.036C191.24 94.0648 204.491 95.7972 204.491 95.7972Z" fill="url(#paint18_linear_2973_15100)"/>
<path d="M202.713 133.746C202.768 133.746 202.824 133.731 202.873 133.701C203.019 133.612 203.066 133.422 202.977 133.275C202.925 133.19 201.676 131.17 199.146 129.95C198.992 129.876 198.807 129.94 198.732 130.093C198.658 130.247 198.722 130.433 198.877 130.507C201.235 131.645 202.436 133.578 202.449 133.598C202.507 133.693 202.609 133.746 202.713 133.746Z" fill="#91B3FA"/>
<path d="M212.246 113.493C211.848 116.366 210.677 119.499 208.329 122.827L207.437 122.1C207.437 122.1 208.466 117.921 207.881 113.179C209.329 112.897 211.038 113.188 212.246 113.493Z" fill="url(#paint19_linear_2973_15100)"/>
<path d="M203.111 103.404L204.492 95.7958C204.492 95.7958 213.717 102.848 212.245 113.492C211.038 113.187 209.329 112.896 207.881 113.178C207.459 109.762 206.2 106.054 203.111 103.404Z" fill="url(#paint20_linear_2973_15100)"/>
<path d="M186.248 102.036L189.809 109.705C189.234 114.335 186.746 116.337 184.065 117.104C183.897 114.995 183.364 113.289 182.868 112.11C186.295 108.573 186.248 102.036 186.248 102.036Z" fill="url(#paint21_linear_2973_15100)"/>
<path d="M182.87 112.111C183.365 113.29 183.898 114.995 184.066 117.105C176.91 119.881 175.017 114.498 175.017 114.498L176.34 114.264C179.326 114.579 181.412 113.616 182.87 112.111Z" fill="url(#paint22_linear_2973_15100)"/>
<path d="M189.529 92.5685L191.249 98.8883C191.442 99.5981 192.21 99.9792 192.892 99.7063C193.63 99.4111 194.565 99.009 195.371 98.5745C196.23 98.1104 196.499 97.0044 195.955 96.1936L192.381 90.8648L189.529 92.5685Z" fill="url(#paint23_linear_2973_15100)"/>
<path d="M171.738 110.268L215.788 126.301C217.636 126.974 218.519 129.077 217.706 130.867L217.572 131.161C216.852 132.744 214.98 133.439 213.401 132.709L170.628 112.922L171.738 110.268Z" fill="#2F6F68"/>
<path d="M130.361 105.692C129.959 104.068 129.745 102.371 129.745 100.623C129.745 96.0497 131.21 91.8116 133.703 88.3369V92.7751C133.703 93.9764 135.507 94.9507 137.73 94.9507H165.26C167.484 94.9507 169.287 93.9764 169.287 92.7751V88.3485C171.775 91.8205 173.237 96.0542 173.237 100.623C173.237 101.528 173.179 102.42 173.068 103.295L133.516 103.87C132.141 103.89 130.96 104.627 130.361 105.692Z" fill="#AAC5FB"/>
<path d="M151.49 121.977C141.259 121.977 132.679 115.038 130.36 105.693C130.959 104.627 132.14 103.89 133.516 103.871L173.067 103.295C171.728 113.827 162.578 121.977 151.49 121.977Z" fill="#CCDBFC"/>
<path d="M165.259 94.9502H137.73C135.506 94.9502 133.703 93.9769 133.703 92.7749V88.3369C137.639 82.8532 144.139 79.2699 151.491 79.2699C158.847 79.2699 165.351 82.8585 169.286 88.3483V92.7749C169.286 93.9769 167.483 94.9502 165.259 94.9502Z" fill="#CCDBFC"/>
<path d="M130.848 100.623C130.848 89.4276 140.089 80.3531 151.49 80.3531C162.891 80.3531 172.133 89.4276 172.133 100.623C172.133 111.818 162.891 120.893 151.49 120.893C140.089 120.893 130.848 111.818 130.848 100.623ZM127.293 100.623C127.293 113.746 138.126 124.384 151.49 124.384C164.854 124.384 175.687 113.746 175.687 100.623C175.687 87.501 164.854 76.8621 151.49 76.8621C138.126 76.8621 127.293 87.501 127.293 100.623Z" fill="#2F6F68"/>
<path d="M173.681 96.8628C173.632 96.8628 173.589 96.8276 173.58 96.778C173.309 95.2691 172.875 93.7836 172.29 92.3649C168.843 84.0017 160.678 78.5986 151.489 78.5986C147.204 78.5986 143.039 79.7889 139.443 82.0406C139.396 82.0704 139.332 82.056 139.302 82.0081C139.272 81.9603 139.286 81.8971 139.335 81.8673C142.963 79.5949 147.166 78.3937 151.489 78.3937C160.762 78.3937 169.001 83.8465 172.48 92.2864C173.071 93.7186 173.509 95.2185 173.782 96.7419C173.792 96.7979 173.755 96.8511 173.699 96.861C173.693 96.8619 173.686 96.8628 173.681 96.8628ZM173.847 103.507L173.834 103.506C173.778 103.499 173.738 103.447 173.745 103.391C173.816 102.836 173.866 102.27 173.894 101.708C173.898 101.651 173.947 101.608 174.001 101.611C174.057 101.613 174.102 101.662 174.099 101.718C174.07 102.286 174.019 102.857 173.948 103.417C173.942 103.469 173.898 103.507 173.847 103.507Z" fill="#BDD0FB"/>
<path d="M207.805 121.973L203.641 121.633L201.837 123.296C201.837 123.296 202.264 123.885 203.597 123.546C204.931 123.207 206.759 123.124 206.759 123.124C206.759 123.124 208.599 123.954 208.623 122.401L207.805 121.973Z" fill="url(#paint24_linear_2973_15100)"/>
<path d="M175.547 115.483C175.187 115.764 173.953 115.177 173.198 114.771C172.83 114.572 172.651 114.143 172.778 113.744C172.959 113.171 173.262 112.431 173.636 112.338C174.254 112.184 177.031 114.324 175.547 115.483Z" fill="url(#paint25_linear_2973_15100)"/>
<path d="M214.919 132.031C214.877 132.031 214.838 132.005 214.823 131.962C214.805 131.909 214.833 131.85 214.887 131.832C216.155 131.393 216.819 130.679 216.861 129.711C216.905 128.731 216.285 127.821 215.321 127.444L210.032 125.382C209.979 125.362 209.953 125.302 209.974 125.249C209.994 125.196 210.053 125.17 210.106 125.191L215.395 127.254C216.441 127.661 217.112 128.653 217.065 129.72C217.02 130.781 216.309 131.557 214.953 132.026C214.943 132.029 214.931 132.031 214.919 132.031Z" fill="#BDD0FB"/>
<path d="M208.44 124.754C208.428 124.754 208.415 124.752 208.402 124.747L207.717 124.48C207.665 124.459 207.639 124.4 207.659 124.347C207.679 124.294 207.738 124.268 207.792 124.289L208.477 124.556C208.53 124.577 208.556 124.636 208.536 124.689C208.52 124.729 208.481 124.754 208.44 124.754Z" fill="#BDD0FB"/>
<path d="M189.158 86.3638C189.158 86.3638 187.736 89.6326 187.64 91.3473C187.544 93.0641 187.174 94.1768 189.158 94.5225C191.141 94.8675 192.814 93.8793 193.718 92.1701C193.718 92.1701 195.137 89.5368 194.819 88.4585C194.501 87.3802 189.158 86.3638 189.158 86.3638Z" fill="url(#paint26_linear_2973_15100)"/>
<path d="M193.04 90.9421H192.79C192.79 90.9421 193.823 88.8217 192.915 88.4495C192.007 88.0773 188.411 87.3444 187.635 86.0678C186.887 84.8372 187.554 83.249 188.553 82.8046C188.615 82.7764 188.69 82.8057 188.722 82.8663L188.805 83.0231C188.861 83.1308 189.019 83.1141 189.053 82.9981C189.086 82.8872 189.234 82.8632 189.295 82.9604C189.532 83.342 190.175 83.9631 191.9 84.2809C194.348 84.7326 195.966 85.7238 196.005 87.4155C196.008 87.5221 196.122 87.5817 196.214 87.5252C196.395 87.4155 196.684 87.3642 197.071 87.6883C197.743 88.254 197.468 89.7198 195.995 90.9264C195.925 90.9829 195.925 91.0926 196.001 91.1418C196.269 91.3153 196.666 91.729 195.634 92.2808C194.579 92.8445 193.955 92.7833 193.72 92.7232C193.656 92.7069 193.613 92.6492 193.617 92.5837L193.709 91.0843C193.714 91.0069 193.653 90.9421 193.575 90.9421H193.04Z" fill="#00050D"/>
<path d="M192.979 91.2559C192.979 91.2559 193.522 89.1676 194.458 89.7532C195.394 90.3389 193.973 92.0927 193.219 92.1709L192.979 91.2559Z" fill="url(#paint27_linear_2973_15100)"/>
<path d="M139.867 92.7889C143.53 96.3897 146.697 100.131 149.46 103.986C153.576 94.6024 157.963 85.8829 162.712 78.0511L174.359 74.1692C166.336 84.6308 157.783 100.219 150.472 115.855C145.185 108.404 139.902 100.969 136.092 98.3307L139.867 92.7889Z" fill="#00050D"/>
</g>
<defs>
<linearGradient id="paint0_linear_2973_15100" x1="103.483" y1="116.475" x2="44.1408" y2="209.691" gradientUnits="userSpaceOnUse">
<stop stop-color="#FFEDED"/>
<stop offset="1" stop-color="#FFF3F3"/>
</linearGradient>
<linearGradient id="paint1_linear_2973_15100" x1="103.245" y1="116.724" x2="44.0841" y2="209.651" gradientUnits="userSpaceOnUse">
<stop stop-color="#FFEDED"/>
<stop offset="1" stop-color="#FFF3F3"/>
</linearGradient>
<linearGradient id="paint2_linear_2973_15100" x1="103.245" y1="116.723" x2="44.0874" y2="209.648" gradientUnits="userSpaceOnUse">
<stop stop-color="#FFEDED"/>
<stop offset="1" stop-color="#FFF3F3"/>
</linearGradient>
<linearGradient id="paint3_linear_2973_15100" x1="103.244" y1="116.723" x2="44.086" y2="209.649" gradientUnits="userSpaceOnUse">
<stop stop-color="#FFEDED"/>
<stop offset="1" stop-color="#FFF3F3"/>
</linearGradient>
<linearGradient id="paint4_linear_2973_15100" x1="103.244" y1="116.724" x2="44.0862" y2="209.649" gradientUnits="userSpaceOnUse">
<stop stop-color="#FFEDED"/>
<stop offset="1" stop-color="#FFF3F3"/>
</linearGradient>
<linearGradient id="paint5_linear_2973_15100" x1="103.244" y1="116.723" x2="44.087" y2="209.649" gradientUnits="userSpaceOnUse">
<stop stop-color="#FFEDED"/>
<stop offset="1" stop-color="#FFF3F3"/>
</linearGradient>
<linearGradient id="paint6_linear_2973_15100" x1="103.245" y1="116.724" x2="44.0877" y2="209.649" gradientUnits="userSpaceOnUse">
<stop stop-color="#FFEDED"/>
<stop offset="1" stop-color="#FFF3F3"/>
</linearGradient>
<linearGradient id="paint7_linear_2973_15100" x1="103.244" y1="116.724" x2="44.0868" y2="209.649" gradientUnits="userSpaceOnUse">
<stop stop-color="#FFEDED"/>
<stop offset="1" stop-color="#FFF3F3"/>
</linearGradient>
<linearGradient id="paint8_linear_2973_15100" x1="103.244" y1="116.723" x2="44.0862" y2="209.649" gradientUnits="userSpaceOnUse">
<stop stop-color="#FFEDED"/>
<stop offset="1" stop-color="#FFF3F3"/>
</linearGradient>
<linearGradient id="paint9_linear_2973_15100" x1="103.245" y1="116.724" x2="44.0885" y2="209.649" gradientUnits="userSpaceOnUse">
<stop stop-color="#FFEDED"/>
<stop offset="1" stop-color="#FFF3F3"/>
</linearGradient>
<linearGradient id="paint10_linear_2973_15100" x1="103.245" y1="116.724" x2="44.0875" y2="209.649" gradientUnits="userSpaceOnUse">
<stop stop-color="#FFEDED"/>
<stop offset="1" stop-color="#FFF3F3"/>
</linearGradient>
<linearGradient id="paint11_linear_2973_15100" x1="103.244" y1="116.723" x2="44.086" y2="209.649" gradientUnits="userSpaceOnUse">
<stop stop-color="#FFEDED"/>
<stop offset="1" stop-color="#FFF3F3"/>
</linearGradient>
<linearGradient id="paint12_linear_2973_15100" x1="347.146" y1="145.035" x2="329.816" y2="145.035" gradientUnits="userSpaceOnUse">
<stop stop-color="#4F52FF"/>
<stop offset="1" stop-color="#4042E2"/>
</linearGradient>
<linearGradient id="paint13_linear_2973_15100" x1="347.15" y1="141.638" x2="330.307" y2="141.638" gradientUnits="userSpaceOnUse">
<stop stop-color="#09005D"/>
<stop offset="1" stop-color="#1A0F91"/>
</linearGradient>
<linearGradient id="paint14_linear_2973_15100" x1="343.954" y1="137.191" x2="339.097" y2="137.191" gradientUnits="userSpaceOnUse">
<stop stop-color="#FEBBBA"/>
<stop offset="1" stop-color="#FF928E"/>
</linearGradient>
<linearGradient id="paint15_linear_2973_15100" x1="419.981" y1="139.112" x2="412.623" y2="139.112" gradientUnits="userSpaceOnUse">
<stop stop-color="#4F52FF"/>
<stop offset="1" stop-color="#4042E2"/>
</linearGradient>
<linearGradient id="paint16_linear_2973_15100" x1="419.867" y1="133.454" x2="409.068" y2="133.454" gradientUnits="userSpaceOnUse">
<stop stop-color="#09005D"/>
<stop offset="1" stop-color="#1A0F91"/>
</linearGradient>
<linearGradient id="paint17_linear_2973_15100" x1="408.724" y1="127.011" x2="402.353" y2="127.011" gradientUnits="userSpaceOnUse">
<stop stop-color="#FEBBBA"/>
<stop offset="1" stop-color="#FF928E"/>
</linearGradient>
<linearGradient id="paint18_linear_2973_15100" x1="353.049" y1="18.8848" x2="300.608" y2="102.339" gradientUnits="userSpaceOnUse">
<stop stop-color="#FE7062"/>
<stop offset="1" stop-color="#FF928E"/>
</linearGradient>
<linearGradient id="paint19_linear_2973_15100" x1="364.69" y1="40.9715" x2="386.413" y2="60.2072" gradientUnits="userSpaceOnUse">
<stop stop-color="#FEBBBA"/>
<stop offset="1" stop-color="#FF928E"/>
</linearGradient>
<linearGradient id="paint20_linear_2973_15100" x1="372.649" y1="19.1891" x2="318.56" y2="105.267" gradientUnits="userSpaceOnUse">
<stop stop-color="#FE7062"/>
<stop offset="1" stop-color="#FF928E"/>
</linearGradient>
<linearGradient id="paint21_linear_2973_15100" x1="307.954" y1="26.5709" x2="260.458" y2="102.156" gradientUnits="userSpaceOnUse">
<stop stop-color="#FE7062"/>
<stop offset="1" stop-color="#FF928E"/>
</linearGradient>
<linearGradient id="paint22_linear_2973_15100" x1="278.794" y1="66.1104" x2="264.289" y2="66.1104" gradientUnits="userSpaceOnUse">
<stop stop-color="#FEBBBA"/>
<stop offset="1" stop-color="#FF928E"/>
</linearGradient>
<linearGradient id="paint23_linear_2973_15100" x1="313.499" y1="14.2702" x2="313.67" y2="43.4566" gradientUnits="userSpaceOnUse">
<stop stop-color="#FEBBBA"/>
<stop offset="1" stop-color="#FF928E"/>
</linearGradient>
<linearGradient id="paint24_linear_2973_15100" x1="349.676" y1="53.5005" x2="370.975" y2="72.3602" gradientUnits="userSpaceOnUse">
<stop stop-color="#FEBBBA"/>
<stop offset="1" stop-color="#FF928E"/>
</linearGradient>
<linearGradient id="paint25_linear_2973_15100" x1="253.539" y1="71.183" x2="248.612" y2="71.183" gradientUnits="userSpaceOnUse">
<stop stop-color="#FEBBBA"/>
<stop offset="1" stop-color="#FF928E"/>
</linearGradient>
<linearGradient id="paint26_linear_2973_15100" x1="304.327" y1="13.027" x2="318.265" y2="23.6911" gradientUnits="userSpaceOnUse">
<stop stop-color="#FEBBBA"/>
<stop offset="1" stop-color="#FF928E"/>
</linearGradient>
<linearGradient id="paint27_linear_2973_15100" x1="305.887" y1="10.8804" x2="319.816" y2="21.5381" gradientUnits="userSpaceOnUse">
<stop stop-color="#FEBBBA"/>
<stop offset="1" stop-color="#FF928E"/>
</linearGradient>
<clipPath id="clip0_2973_15100">
<rect width="223" height="169" fill="white" transform="translate(27)"/>
</clipPath>
</defs>
</svg>
