<svg width="12" height="12" viewBox="0 0 12 12" fill="none" xmlns="http://www.w3.org/2000/svg">
<path d="M7 1.5C7 0.947715 6.55228 0.5 6 0.5C5.44772 0.5 5 0.947715 5 1.5H7ZM5 6C5 6.55228 5.44772 7 6 7C6.55228 7 7 6.55228 7 6H5ZM7 6C7 5.44772 6.55228 5 6 5C5.44772 5 5 5.44772 5 6H7ZM5 10.5C5 11.0523 5.44772 11.5 6 11.5C6.55228 11.5 7 11.0523 7 10.5H5ZM6 5C5.44772 5 5 5.44772 5 6C5 6.55228 5.44772 7 6 7V5ZM10.5 7C11.0523 7 11.5 6.55228 11.5 6C11.5 5.44772 11.0523 5 10.5 5V7ZM6 7C6.55228 7 7 6.55228 7 6C7 5.44772 6.55228 5 6 5V7ZM1.5 5C0.947715 5 0.5 5.44772 0.5 6C0.5 6.55228 0.947715 7 1.5 7V5ZM5 1.5V6H7V1.5H5ZM5 6V10.5H7V6H5ZM6 7H10.5V5H6V7ZM6 5H1.5V7H6V5Z" fill="#2F6F68"/>
</svg>
