<svg width="22" height="20" viewBox="0 0 22 20" fill="none" xmlns="http://www.w3.org/2000/svg">
<path fill-rule="evenodd" clip-rule="evenodd" d="M10.0489 1.92707C10.3483 1.00576 11.6517 1.00576 11.9511 1.92707L13.4697 6.60083C13.6035 7.01285 13.9875 7.29181 14.4207 7.29181H19.335C20.3037 7.29181 20.7065 8.53143 19.9228 9.1008L15.947 11.9894C15.5965 12.244 15.4499 12.6954 15.5838 13.1074L17.1024 17.7812C17.4017 18.7025 16.3472 19.4686 15.5635 18.8992L11.5878 16.0107C11.2373 15.756 10.7627 15.756 10.4122 16.0107L6.43647 18.8992C5.65276 19.4686 4.59828 18.7025 4.89763 17.7812L6.41623 13.1074C6.5501 12.6954 6.40344 12.244 6.05296 11.9894L2.07722 9.1008C1.2935 8.53143 1.69628 7.29181 2.665 7.29181H7.57929C8.01251 7.29181 8.39647 7.01285 8.53034 6.60083L10.0489 1.92707Z" fill="#F4FF00" stroke="#F4FF00" stroke-width="1.5" stroke-linecap="round" stroke-linejoin="round"/>
</svg>
