<svg width="232" height="241" viewBox="0 0 232 241" fill="none" xmlns="http://www.w3.org/2000/svg">
<path opacity="0.7" fill-rule="evenodd" clip-rule="evenodd" d="M134.065 8.09748C124.45 -2.69884 107.55 -2.69884 97.9358 8.09748L93.7788 12.7663C87.9686 19.2907 79.0808 22.1733 70.5384 20.3038L64.4258 18.966C50.2904 15.8724 36.6183 25.7878 35.1976 40.1631L34.5834 46.3795C33.7249 55.0667 28.2319 62.6135 20.2202 66.1129L14.4871 68.6171C1.22972 74.4079 -3.99255 90.4514 3.32298 102.914L6.48655 108.304C10.9075 115.836 10.9075 125.165 6.48655 132.696L3.32298 138.086C-3.99255 150.549 1.22972 166.593 14.4871 172.384L20.2202 174.888C28.2319 178.387 33.7249 185.934 34.5834 194.621L35.1976 200.838C36.6183 215.213 50.2904 225.128 64.4258 222.035L70.5384 220.697C79.0808 218.827 87.9686 221.709 93.7788 228.234L97.9358 232.903C107.55 243.699 124.45 243.699 134.065 232.903L138.222 228.234C144.032 221.709 152.92 218.827 161.461 220.697L167.575 222.035C181.71 225.128 195.382 215.213 196.802 200.838L197.417 194.621C198.275 185.934 203.769 178.387 211.78 174.888L217.513 172.384C230.77 166.593 235.993 150.549 228.677 138.086L225.513 132.696C221.093 125.165 221.093 115.836 225.513 108.304L228.677 102.914C235.993 90.4514 230.77 74.4079 217.513 68.6171L211.78 66.1129C203.769 62.6135 198.275 55.0667 197.417 46.3795L196.802 40.1631C195.382 25.7878 181.71 15.8724 167.575 18.966L161.461 20.3038C152.92 22.1733 144.032 19.2907 138.222 12.7663L134.065 8.09748ZM76.2082 105.939L59.1178 122.998L103.915 167.716L184.966 86.8098L167.877 69.751L103.915 133.597L76.2082 105.939Z" fill="#F4FF00"/>
<ellipse cx="116" cy="119.5" rx="90" ry="78.5" fill="#2F6F68"/>
<path fill-rule="evenodd" clip-rule="evenodd" d="M133.13 13.6852C124.013 3.43858 107.987 3.43858 98.8702 13.6852L94.9281 18.1163C89.4185 24.3086 80.9904 27.0445 72.8899 25.2701L67.0934 24.0004C53.6892 21.0643 40.7242 30.4749 39.3771 44.1184L38.7946 50.0182C37.9805 58.2631 32.7717 65.4257 25.1744 68.747L19.7378 71.1236C7.16611 76.6197 2.21396 91.8463 9.1511 103.675L12.151 108.79C16.3433 115.938 16.3433 124.792 12.151 131.94L9.1511 137.056C2.21396 148.885 7.16611 164.111 19.7378 169.608L25.1744 171.984C32.7717 175.305 37.9805 182.468 38.7946 190.712L39.3771 196.613C40.7242 210.256 53.6892 219.666 67.0934 216.73L72.8899 215.461C80.9904 213.686 89.4185 216.422 94.9281 222.615L98.8702 227.045C107.987 237.292 124.013 237.292 133.13 227.045L137.072 222.615C142.582 216.422 151.01 213.686 159.11 215.461L164.907 216.73C178.311 219.666 191.276 210.256 192.622 196.613L193.206 190.712C194.019 182.468 199.229 175.305 206.826 171.984L212.263 169.608C224.834 164.111 229.786 148.885 222.849 137.056L219.849 131.94C215.657 124.792 215.657 115.938 219.849 108.79L222.849 103.675C229.786 91.8463 224.834 76.6197 212.263 71.1236L206.826 68.747C199.229 65.4257 194.019 58.2631 193.206 50.0182L192.622 44.1184C191.276 30.4749 178.311 21.0643 164.907 24.0004L159.11 25.2701C151.01 27.0445 142.582 24.3086 137.072 18.1163L133.13 13.6852ZM78.2664 106.545L62.06 122.736L104.54 165.177L181.399 88.3901L165.193 72.1998L104.54 132.796L78.2664 106.545Z" fill="#F4FF00"/>
</svg>
