<svg width="303" height="157" viewBox="0 0 303 157" fill="none" xmlns="http://www.w3.org/2000/svg">
<path d="M302.955 117.085C302.944 117.746 302.933 118.396 302.888 119.046C302.866 119.696 302.832 120.324 302.776 120.963C302.585 123.731 302.249 126.421 301.811 128.977C301.677 129.739 301.542 130.49 301.396 131.23C301.374 131.409 301.329 131.577 301.307 131.746L301.284 131.835C301.195 132.295 301.094 132.732 301.004 133.191C300.825 133.987 300.645 134.772 300.454 135.545C300.41 135.691 300.376 135.826 300.342 135.971C299.826 137.989 299.277 139.883 298.705 141.654C298.615 141.945 298.514 142.248 298.425 142.54C298.167 143.324 297.909 144.053 297.662 144.781C297.471 145.308 297.281 145.801 297.112 146.283C296.137 148.884 295.172 151.047 294.41 152.695C293.692 154.208 293.098 155.486 292.784 156.136C292.649 156.416 292.57 156.584 292.57 156.584C292.57 156.584 143.571 156.606 61.3335 156.629C29.977 156.629 8.33256 156.629 8.33256 156.629C8.33256 156.618 8.32135 156.618 8.32135 156.618C8.1307 156.472 7.96247 156.337 7.78304 156.192C7.77182 156.192 7.77182 156.192 7.77182 156.192C7.69332 156.125 7.61482 156.068 7.54753 156.001L3.63358 151.776C2.77004 150.554 2.07473 149.254 1.53642 147.897C0.504664 145.375 0 142.629 0 139.771C0 139.636 -1.71291e-07 139.491 0.0112146 139.345C0.0112146 139.087 0.0224292 138.818 0.0224292 138.56C0.0336439 138.336 0.0448588 138.101 0.0672883 137.877C0.134577 137.047 0.224295 136.207 0.358872 135.377C0.358872 135.355 0.370086 135.321 0.370086 135.299C0.392516 135.164 0.426161 135.018 0.437376 134.873C0.459805 134.693 0.504664 134.525 0.549523 134.346C0.672885 133.729 0.818677 133.113 0.975683 132.474C0.998113 132.328 1.04297 132.183 1.08783 132.026C1.1439 131.846 1.17755 131.678 1.24484 131.499C1.39063 130.95 1.58128 130.4 1.77193 129.829C2.1308 128.753 2.56818 127.677 3.05041 126.59C3.07284 126.511 3.1177 126.41 3.16256 126.332C3.61115 125.357 4.09338 124.381 4.60926 123.406C5.40551 121.927 6.30269 120.47 7.27838 119.012C7.49146 118.699 7.70454 118.396 7.92883 118.105C9.01666 116.558 10.2166 115.045 11.5176 113.554C13.0876 111.738 14.8147 109.956 16.6651 108.23C17.0801 107.837 17.495 107.467 17.91 107.086C17.9997 107.008 18.1006 106.929 18.1903 106.829C18.4371 106.627 18.6726 106.414 18.9193 106.212C19.9398 105.327 20.9379 104.497 21.9136 103.69C22.4071 103.287 22.8893 102.894 23.3828 102.513C24.336 101.751 25.2668 101 26.1528 100.271C28.878 98.0297 31.3004 95.9224 33.2069 93.5462C33.8686 92.7392 34.4517 91.8985 34.9788 91.0242C35.9321 89.4214 36.6722 87.6953 37.1545 85.7337C37.2666 85.2405 37.3676 84.7249 37.4461 84.1981C37.6928 82.7746 37.8049 81.2278 37.7713 79.5353C37.7601 78.2015 37.6479 76.7667 37.4461 75.2424C37.4012 74.9173 37.3563 74.581 37.3003 74.2336C37.0199 72.3393 36.5825 70.2881 36.0106 68.0464C35.8536 67.4187 35.6741 66.7686 35.4835 66.1072C35.1582 64.964 34.9003 63.8319 34.6984 62.7334C34.3059 60.5926 34.1489 58.5414 34.1714 56.5462C34.1826 54.7304 34.362 52.9706 34.6984 51.2781V51.2557C34.99 49.6416 35.4274 48.0836 35.9433 46.5816C42.3806 28.2778 64.283 17.4614 70.1034 15.0515C78.3911 11.5992 88.2152 9.66011 98.4207 8.95396C99.2506 8.89792 100.092 8.84187 100.922 8.80825C103.277 8.68495 105.654 8.62891 108.021 8.62891C108.985 8.62891 109.938 8.64011 110.891 8.65132C112.495 8.69616 114.076 8.74099 115.68 8.84187C117.161 8.92033 118.618 9.02121 120.088 9.1333C126.166 9.6489 132.087 10.5008 137.594 11.6553C142.607 12.6977 147.126 14.0203 151.231 15.5335C151.231 15.5335 151.231 15.5335 151.242 15.5447C160.943 19.1315 168.277 23.8167 174.143 28.6925C175.5 29.8246 176.789 30.9679 178.001 32.1C178.158 32.2457 178.337 32.4138 178.494 32.5707C178.875 32.9182 179.234 33.2657 179.593 33.6356C179.75 33.7925 179.929 33.9606 180.087 34.1175C181.152 35.1824 182.172 36.236 183.137 37.2784C183.619 37.8052 184.101 38.3208 184.572 38.8364C187.129 41.661 189.384 44.2951 191.537 46.5592C191.806 46.8507 192.075 47.1197 192.344 47.3999C196.045 51.166 199.466 53.7104 203.66 53.9906C206.295 54.17 209.368 53.7216 212.822 53.0491C213.17 52.9818 213.506 52.9146 213.854 52.8361C219.159 51.7713 225.349 50.2693 232.213 49.6416C241.084 48.8234 251.121 49.4623 261.954 54.3829C262.302 54.5398 262.638 54.708 262.986 54.8649C264.567 55.6271 266.171 56.479 267.786 57.4317C268.122 57.6222 268.459 57.824 268.795 58.0258C270.433 59.0345 272.104 60.1442 273.786 61.3884C273.831 61.4108 273.864 61.4444 273.909 61.478C274.638 62.0049 275.356 62.5653 276.085 63.1481C276.926 63.8207 277.789 64.5156 278.653 65.2554C280.728 67.0376 282.836 68.9991 284.944 71.1736C286.481 72.7428 287.905 74.3344 289.195 75.9373C290.092 77.0358 290.944 78.1566 291.718 79.2663C291.864 79.468 291.999 79.6698 292.144 79.8716C293.49 81.8443 294.701 83.8394 295.778 85.8346C295.901 86.0812 296.036 86.3278 296.17 86.5744C297.583 89.3429 298.75 92.1227 299.681 94.8912C299.759 95.1378 299.838 95.362 299.927 95.5862C300.331 96.8304 300.679 98.0857 301.004 99.3299C301.43 101.034 301.789 102.726 302.069 104.419C302.787 108.756 303.034 113.005 302.955 117.085Z" fill="#2F6F68"/>
<path d="M74.1646 138.384C55.614 123.985 33.7966 121.787 33.5772 121.766C32.7464 121.685 32.8424 120.685 33.6732 120.765C33.8957 120.787 56.1453 123.074 74.9232 137.648L74.1646 138.384Z" fill="#2F6F68"/>
<path d="M213.009 12.7441H212.269V12.1897H213.009V12.7441Z" fill="#2F6F68"/>
<path d="M213.009 15.066H212.269V13.904H213.009V15.066ZM213.009 17.3878H212.269V16.2269H213.009V17.3878ZM213.009 19.7096H212.269V18.5488H213.009V19.7096ZM213.009 22.0315H212.269V20.8706H213.009V22.0315ZM213.009 24.3533H212.269V23.1924H213.009V24.3533ZM213.009 26.6762H212.269V25.5142H213.009V26.6762ZM213.009 28.998H212.269V27.8371H213.009V28.998ZM213.009 31.3198H212.269V30.1589H213.009V31.3198ZM213.009 33.6416H212.269V32.4807H213.009V33.6416Z" fill="#2F6F68"/>
<path d="M213.009 35.3584H212.269V34.8028H213.009V35.3584Z" fill="#2F6F68"/>
<path d="M206.962 12.7441H206.223V12.1897H206.962V12.7441Z" fill="#2F6F68"/>
<path d="M206.962 14.97H206.223V13.8578H206.962V14.97ZM206.962 17.1957H206.223V16.0834H206.962V17.1957ZM206.962 19.4213H206.223V18.3079H206.962V19.4213ZM206.962 21.6458H206.223V20.5335H206.962V21.6458ZM206.962 23.8714H206.223V22.7592H206.962V23.8714ZM206.962 26.097H206.223V24.9848H206.962V26.097ZM206.962 28.3227H206.223V27.2093H206.962V28.3227ZM206.962 30.5483H206.223V29.4349H206.962V30.5483ZM206.962 32.7728H206.223V31.6605H206.962V32.7728ZM206.962 34.9984H206.223V33.8862H206.962V34.9984ZM206.962 37.224H206.223V36.1118H206.962V37.224ZM206.962 39.4497H206.223V38.3363H206.962V39.4497ZM206.962 41.6742H206.223V40.5619H206.962V41.6742ZM206.962 43.8998H206.223V42.7875H206.962V43.8998ZM206.962 46.1254H206.223V45.0132H206.962V46.1254ZM206.962 48.351H206.223V47.2377H206.962V48.351ZM206.703 50.6604L205.997 50.4432C206.097 50.1139 206.165 49.7722 206.198 49.4271L206.935 49.4984C206.897 49.8921 206.819 50.2836 206.703 50.6604ZM205.576 52.731L205.011 52.2535C205.234 51.9888 205.429 51.7014 205.594 51.3981L206.244 51.7523C206.056 52.0985 205.832 52.4278 205.576 52.731ZM203.733 54.1974L203.397 53.5378C203.704 53.3816 203.997 53.1927 204.268 52.9777L204.728 53.557C204.42 53.8025 204.084 54.0186 203.733 54.1974ZM201.463 54.8265L201.412 54.0877C201.757 54.0639 202.101 54.0051 202.432 53.9134L202.63 54.6274C202.25 54.7326 201.857 54.7994 201.463 54.8265ZM58.0048 54.8401H56.893V54.1001H58.0048V54.8401ZM60.2285 54.8401H59.1167V54.1001H60.2285V54.8401ZM62.4523 54.8401H61.3404V54.1001H62.4523V54.8401ZM64.6761 54.8401H63.5642V54.1001H64.6761V54.8401ZM66.8998 54.8401H65.7879V54.1001H66.8998V54.8401ZM69.1236 54.8401H68.0117V54.1001H69.1236V54.8401ZM71.3474 54.8401H70.2355V54.1001H71.3474V54.8401ZM73.5712 54.8401H72.4593V54.1001H73.5712V54.8401ZM75.7949 54.8401H74.6831V54.1001H75.7949V54.8401ZM78.0187 54.8401H76.9068V54.1001H78.0187V54.8401ZM80.2424 54.8401H79.1306V54.1001H80.2424V54.8401ZM82.4662 54.8401H81.3543V54.1001H82.4662V54.8401ZM84.6899 54.8401H83.578V54.1001H84.6899V54.8401ZM86.9137 54.8401H85.8018V54.1001H86.9137V54.8401ZM89.1375 54.8401H88.0256V54.1001H89.1375V54.8401ZM91.3613 54.8401H90.2494V54.1001H91.3613V54.8401ZM93.585 54.8401H92.4732V54.1001H93.585V54.8401ZM95.8088 54.8401H94.6969V54.1001H95.8088V54.8401ZM98.0325 54.8401H96.9207V54.1001H98.0325V54.8401ZM100.256 54.8401H99.1444V54.1001H100.256V54.8401ZM102.48 54.8401H101.368V54.1001H102.48V54.8401ZM104.704 54.8401H103.592V54.1001H104.704V54.8401ZM106.928 54.8401H105.816V54.1001H106.928V54.8401ZM109.151 54.8401H108.039V54.1001H109.151V54.8401ZM111.375 54.8401H110.263V54.1001H111.375V54.8401ZM113.599 54.8401H112.487V54.1001H113.599V54.8401ZM115.823 54.8401H114.711V54.1001H115.823V54.8401ZM118.046 54.8401H116.935V54.1001H118.046V54.8401ZM120.27 54.8401H119.158V54.1001H120.27V54.8401ZM122.494 54.8401H121.382V54.1001H122.494V54.8401ZM124.717 54.8401H123.606V54.1001H124.717V54.8401ZM126.941 54.8401H125.83V54.1001H126.941V54.8401ZM129.165 54.8401H128.054V54.1001H129.165V54.8401ZM131.389 54.8401H130.277V54.1001H131.389V54.8401ZM133.613 54.8401H132.501V54.1001H133.613V54.8401ZM135.836 54.8401H134.725V54.1001H135.836V54.8401ZM138.06 54.8401H136.949V54.1001H138.06V54.8401ZM140.284 54.8401H139.172V54.1001H140.284V54.8401ZM142.508 54.8401H141.396V54.1001H142.508V54.8401ZM144.731 54.8401H143.62V54.1001H144.731V54.8401ZM146.955 54.8401H145.844V54.1001H146.955V54.8401ZM149.179 54.8401H148.068V54.1001H149.179V54.8401ZM151.403 54.8401H150.29V54.1001H151.403V54.8401ZM153.627 54.8401H152.514V54.1001H153.627V54.8401ZM155.85 54.8401H154.738V54.1001H155.85V54.8401ZM158.074 54.8401H156.962V54.1001H158.074V54.8401ZM160.298 54.8401H159.186V54.1001H160.298V54.8401ZM162.522 54.8401H161.409V54.1001H162.522V54.8401ZM164.745 54.8401H163.633V54.1001H164.745V54.8401ZM166.969 54.8401H165.857V54.1001H166.969V54.8401ZM169.193 54.8401H168.081V54.1001H169.193V54.8401ZM171.417 54.8401H170.304V54.1001H171.417V54.8401ZM173.641 54.8401H172.528V54.1001H173.641V54.8401ZM175.864 54.8401H174.752V54.1001H175.864V54.8401ZM178.088 54.8401H176.976V54.1001H178.088V54.8401ZM180.312 54.8401H179.2V54.1001H180.312V54.8401ZM182.536 54.8401H181.423V54.1001H182.536V54.8401ZM184.76 54.8401H183.647V54.1001H184.76V54.8401ZM186.983 54.8401H185.871V54.1001H186.983V54.8401ZM189.207 54.8401H188.095V54.1001H189.207V54.8401ZM191.431 54.8401H190.319V54.1001H191.431V54.8401ZM193.655 54.8401H192.542V54.1001H193.655V54.8401ZM195.877 54.8401H194.766V54.1001H195.877V54.8401ZM198.101 54.8401H196.99V54.1001H198.101V54.8401ZM200.325 54.8401H199.214V54.1001H200.325V54.8401ZM54.7993 55.0596L54.5858 54.3513C54.963 54.237 55.3541 54.1612 55.7483 54.125L55.8157 54.8627C55.4709 54.8944 55.129 54.96 54.7993 55.0596ZM52.9852 56.0383L52.5115 55.4692C52.8151 55.2157 53.145 54.9928 53.4922 54.805L53.8432 55.4568C53.5395 55.6208 53.2509 55.8166 52.9852 56.0383ZM51.6944 57.6462L51.0368 57.3067C51.2177 56.956 51.4348 56.6222 51.6822 56.3144L52.2592 56.7772C52.0427 57.0476 51.8526 57.3395 51.6944 57.6462ZM51.1359 59.6308L50.398 59.5765C50.4271 59.1816 50.4958 58.789 50.6025 58.4099L51.3149 58.6102C51.2215 58.9417 51.1613 59.2857 51.1359 59.6308ZM51.1217 61.8281H50.3818V60.7159H51.1217V61.8281Z" fill="#2F6F68"/>
<path d="M217.458 12.7441H216.719V12.1897H217.458V12.7441Z" fill="#2F6F68"/>
<path d="M217.458 15.0548H216.719V13.8995H217.458V15.0548ZM217.458 17.3652H216.719V16.21H217.458V17.3652ZM217.458 19.6769H216.719V18.5205H217.458V19.6769ZM217.458 21.9874H216.719V20.8321H217.458V21.9874ZM217.458 24.2979H216.719V23.1426H217.458V24.2979Z" fill="#2F6F68"/>
<path d="M217.644 26.3799H216.719V25.4543H217.458V25.6388H217.644V26.3799Z" fill="#2F6F68"/>
<path d="M219.411 26.71H218.289V26H219.411V26.71ZM221.655 26.71H220.532V26H221.655V26.71ZM223.898 26.71H222.776V26H223.898V26.71ZM226.141 26.71H225.019V26H226.141V26.71ZM228.385 26.71H227.264V26H228.385V26.71ZM230.628 26.71H229.507V26H230.628V26.71ZM232.873 26.71H231.751V26H232.873V26.71ZM235.116 26.71H233.994V26H235.116V26.71ZM237.36 26.71H236.238V26H237.36V26.71ZM239.581 26.7165C239.501 26.7121 239.419 26.71 239.337 26.71H238.481V26H239.337C239.433 26 239.529 26.0032 239.625 26.0087L239.581 26.7165ZM241.525 27.2898C241.232 27.1197 240.919 26.9853 240.591 26.8888L240.815 26.2125C241.201 26.3263 241.573 26.4845 241.918 26.6839L241.525 27.2898ZM242.956 28.6599C242.783 28.3813 242.571 28.1234 242.331 27.8925L242.866 27.395C243.15 27.667 243.398 27.9716 243.604 28.3L242.956 28.6599ZM243.533 30.5036C243.518 30.1784 243.463 29.8576 243.365 29.5476L244.087 29.3471C244.201 29.7124 244.267 30.0917 244.284 30.4743L243.533 30.5036ZM244.289 32.6053H243.536V31.5463H244.289V32.6053ZM244.289 34.7211H243.536V33.6632H244.289V34.7211ZM244.289 36.8368H243.536V35.779H244.289V36.8368ZM244.289 38.9537H243.536V37.8958H244.289V38.9537ZM244.289 41.0695H243.536V40.0116H244.289V41.0695ZM244.289 43.1863H243.536V42.1284H244.289V43.1863ZM244.289 45.3021H243.536V44.2442H244.289V45.3021ZM244.289 47.419H243.536V46.3611H244.289V47.419ZM244.289 49.5347H243.536V48.4769H244.289V49.5347ZM244.289 51.6516H243.536V50.5926H244.289V51.6516ZM244.289 53.7674H243.536V52.7095H244.289V53.7674ZM244.289 55.8842H243.536V54.8253H244.289V55.8842ZM244.289 58H243.536V56.9421H244.289V58Z" fill="#2F6F68"/>
<path d="M244.329 60.708H243.589V60.1524H244.329V60.708Z" fill="#97C6FF"/>
<path d="M207.639 12.1416C207.654 11.9515 207.664 11.7603 207.664 11.5668C207.664 7.51382 204.381 4.228 200.331 4.228C196.281 4.228 192.997 7.51382 192.997 11.5668C192.997 11.7603 193.007 11.9515 193.022 12.1416H207.639Z" fill="#2F6F68"/>
<path d="M231.729 12.1416C231.743 11.9515 231.754 11.7603 231.754 11.5668C231.754 7.51382 228.47 4.228 224.42 4.228C220.371 4.228 217.088 7.51382 217.088 11.5668C217.088 11.7603 217.097 11.9515 217.112 12.1416H231.729Z" fill="#2F6F68"/>
<path d="M223.294 12.1416C223.351 11.6935 223.38 11.2364 223.38 10.7736C223.38 4.83562 218.572 0.0234261 212.638 0.0234261C206.705 0.0234261 201.896 4.83562 201.896 10.7736C201.896 11.2364 201.925 11.6935 201.983 12.1416H223.294Z" fill="#2F6F68"/>
<path d="M74.7853 89.5142H66.8788C66.3761 89.5142 65.9688 89.9227 65.9688 90.4251C65.9688 90.9286 66.3761 91.3359 66.8788 91.3359H74.7853C75.2878 91.3359 75.6953 90.9286 75.6953 90.4251C75.6953 89.9227 75.2878 89.5142 74.7853 89.5142Z" fill="#D1F5FF"/>
<path d="M86.9445 89.5142H79.0379C78.5353 89.5142 78.1279 89.9227 78.1279 90.4251C78.1279 90.9286 78.5353 91.3359 79.0379 91.3359H86.9445C87.447 91.3359 87.8544 90.9286 87.8544 90.4251C87.8544 89.9227 87.447 89.5142 86.9445 89.5142Z" fill="#D1F5FF"/>
<path d="M70.4781 42.1534L70.3398 41.9792C69.1829 42.9013 67.8043 43.3483 66.4337 43.3483C64.5885 43.3483 62.7629 42.5381 61.5228 40.9801C60.6035 39.8248 60.1577 38.4467 60.1575 37.0776C60.1578 35.231 60.9675 33.4025 62.5251 32.1613C63.6799 31.2403 65.0572 30.7945 66.4266 30.7945C68.2708 30.7945 70.0958 31.6035 71.3341 33.1593C72.2558 34.3179 72.7024 35.6983 72.7027 37.0697C72.7023 38.9151 71.8937 40.7413 70.3398 41.9792L70.4781 42.1534L70.6164 42.3265C72.2795 41.0015 73.1469 39.0441 73.1466 37.0697C73.1468 35.6021 72.6674 34.121 71.6813 32.8832C70.3563 31.2176 68.3997 30.3498 66.4266 30.3498C64.9611 30.3498 63.4836 30.8284 62.2484 31.8139C60.5818 33.1423 59.7132 35.102 59.7134 37.0776C59.7133 38.5428 60.1919 40.0217 61.1755 41.2573C62.5023 42.9239 64.4596 43.7929 66.4337 43.7929C67.9004 43.7929 69.3792 43.3132 70.6164 42.3265L70.4781 42.1534ZM75.7881 29.6098L75.9617 29.4706C74.927 28.1705 73.6724 27.1318 72.2965 26.3783L72.19 26.5729L72.3847 26.6804L72.6196 26.2504H72.6195L73.0871 25.3973L73.0953 25.3803L73.1841 25.1914L73.0014 25.0906C71.4319 24.2285 69.721 23.6876 67.9667 23.493L67.7465 23.4681L67.5569 25.1438L67.7775 25.1687L67.802 24.9481C67.3466 24.8983 66.8884 24.8723 66.4296 24.8723C65.2871 24.8723 64.1408 25.0307 63.026 25.3599L63.0889 25.5738L63.302 25.5116L62.8294 23.889L62.617 23.949C60.9554 24.4265 59.3572 25.2366 57.9235 26.3794L57.75 26.5186L58.8038 27.8424L58.9774 27.7044L58.8391 27.5301C57.5356 28.5688 56.5018 29.8214 55.7487 31.1984L55.9434 31.3047L56.05 31.1101L54.5687 30.2989L54.462 30.4923C53.5994 32.064 53.0629 33.7793 52.8648 35.5308L52.8398 35.7515L54.5155 35.9404L54.5405 35.7198L54.3199 35.696C54.2693 36.152 54.2438 36.6103 54.2438 37.0697C54.2438 38.2125 54.4024 39.3598 54.7313 40.4754L54.9442 40.4121L54.8821 40.1993L53.2607 40.6723L53.3216 40.885C53.7982 42.5472 54.6081 44.1471 55.75 45.5818L55.8883 45.7549L57.2116 44.7004L57.0734 44.5272L56.8997 44.6653C57.9378 45.9699 59.1889 47.0041 60.5647 47.7576L60.6712 47.563L60.4766 47.4555L59.977 48.3675L59.7757 48.742L59.9712 48.8473L59.8328 48.6741L59.8286 48.6775L59.568 48.8846L59.86 49.0453C61.4298 49.9086 63.1448 50.446 64.8941 50.6441L65.1147 50.6689L65.3044 48.9921L65.0838 48.9672L65.0594 49.1878C65.5113 49.2376 65.9663 49.2636 66.4221 49.2636C67.5695 49.2636 68.7215 49.103 69.8395 48.7726L69.7768 48.5599L69.5636 48.6221L70.0364 50.2446L70.2488 50.1835C71.9101 49.706 73.5042 48.8993 74.9379 47.7565L75.1114 47.6185L74.0575 46.2935L73.8839 46.4327L74.0221 46.6058C75.3256 45.5671 76.3639 44.3123 77.117 42.9353L76.9223 42.8278L76.8154 43.0224L77.8153 43.5723L78.2975 43.8337L78.4037 43.6402C79.2664 42.0685 79.7983 40.3566 79.9964 38.6062L80.0214 38.3856L78.3459 38.1955L78.3209 38.4161L78.5415 38.4399C78.5917 37.9873 78.6169 37.5313 78.6169 37.0742C78.6169 35.9269 78.4575 34.7739 78.1311 33.6537L77.9179 33.7159L77.98 33.9298L79.6022 33.4557L79.5404 33.243C79.0597 31.5842 78.2532 29.99 77.1112 28.5552L76.9728 28.381L75.6497 29.4355L75.7881 29.6098L75.9617 29.4706L75.7881 29.6098L75.9264 29.7829L77.0758 28.8675L76.9375 28.6933L76.7639 28.8313C77.8693 30.2208 78.649 31.763 79.1141 33.3663L79.3272 33.3052L79.2651 33.0914L77.6426 33.5654L77.7048 33.7782C78.0192 34.8576 78.173 35.9676 78.173 37.0742C78.173 37.5143 78.1486 37.9545 78.1002 38.3912L78.0759 38.6119L79.7509 38.8019L79.7758 38.5813L79.5552 38.5553C79.3636 40.2502 78.8487 41.9067 78.0145 43.4263L78.2091 43.5327L78.3147 43.3381L78.0273 43.1819L78.0285 43.1831L76.8343 42.5268L76.7276 42.7214C76.0023 44.0475 75.0024 45.2571 73.7456 46.2584L73.5719 46.3965L74.6259 47.7214L74.7995 47.5823L74.6612 47.4091C73.2733 48.5157 71.7325 49.2953 70.1264 49.7558L70.1875 49.9697L70.4007 49.9074L69.9275 48.2838L69.7139 48.346C68.6378 48.6639 67.5281 48.819 66.4221 48.819C65.9828 48.819 65.544 48.7941 65.1083 48.7466L64.8882 48.7217L64.6985 50.3985L64.9191 50.4234L64.9441 50.2028C63.2515 50.0104 61.5919 49.4911 60.0738 48.656L59.9669 48.8507L60.1053 49.0249L60.1096 49.0215L60.1453 48.9921L60.3675 48.5791L60.3666 48.5802L60.9728 47.4748L60.7778 47.3684C59.4528 46.642 58.2481 45.6463 57.2469 44.3881L57.1086 44.215L55.7854 45.2695L55.9237 45.4426L56.0974 45.3046C54.9919 43.9163 54.2091 42.3695 53.7483 40.7617L53.535 40.8239L53.5972 41.0366L55.2201 40.5637L55.1571 40.3498C54.8407 39.276 54.6878 38.1717 54.6878 37.0697C54.6878 36.6272 54.7124 36.1848 54.7612 35.7447L54.7855 35.5241L53.1104 35.3351L53.0854 35.5557L53.306 35.5806C53.4977 33.8868 54.0167 32.2258 54.8511 30.7062L54.6566 30.5998L54.55 30.7945L56.0316 31.6057L56.1381 31.4111C56.8636 30.085 57.8588 28.88 59.1158 27.8775L59.2893 27.7395L58.2355 26.4156L58.0619 26.5536L58.2002 26.7268C59.5881 25.6213 61.1333 24.8372 62.7393 24.3767L62.6782 24.1628L62.465 24.2251L62.9381 25.8499L63.1518 25.7865C64.2242 25.4697 65.3282 25.3169 66.4296 25.3169C66.8719 25.3169 67.3138 25.3407 67.7531 25.3905L67.9731 25.4143L68.1629 23.7385L67.9423 23.7136L67.9177 23.9343C69.6141 24.1221 71.2689 24.6448 72.7876 25.4799L72.8944 25.2853L72.6936 25.1902L72.6912 25.1959L72.2277 26.0422L71.8887 26.6611L72.0834 26.7686C73.4083 27.4939 74.6169 28.4942 75.6145 29.7478L75.7527 29.9221L75.9264 29.7829L75.7881 29.6098Z" fill="#2F6F68"/>
<path d="M250.303 134.092L250.164 133.918C248.823 134.987 247.224 135.506 245.636 135.506C243.497 135.506 241.379 134.567 239.942 132.76C238.876 131.421 238.359 129.823 238.359 128.235C238.359 126.094 239.298 123.975 241.104 122.535C242.443 121.468 244.039 120.95 245.627 120.95C247.765 120.95 249.881 121.889 251.317 123.693C252.386 125.035 252.904 126.636 252.904 128.227C252.904 130.366 251.966 132.482 250.164 133.918L250.303 134.092L250.441 134.267C252.352 132.744 253.348 130.495 253.348 128.227C253.348 126.54 252.797 124.839 251.664 123.416C250.141 121.502 247.894 120.506 245.627 120.506C243.943 120.506 242.246 121.057 240.827 122.187C238.912 123.713 237.914 125.965 237.914 128.235C237.914 129.92 238.464 131.617 239.595 133.037C241.119 134.952 243.368 135.95 245.636 135.95C247.32 135.95 249.02 135.399 250.441 134.267L250.303 134.092ZM256.43 119.617L256.604 119.479C255.413 117.982 253.969 116.786 252.385 115.919L252.278 116.113L252.473 116.221L252.744 115.725L253.282 114.742L253.291 114.724L253.382 114.534L253.198 114.433C251.391 113.439 249.421 112.816 247.401 112.592L247.18 112.568L246.965 114.468L247.186 114.493L247.211 114.272C246.686 114.215 246.159 114.185 245.631 114.185C244.315 114.185 242.996 114.367 241.712 114.746L241.776 114.96L241.988 114.898L241.452 113.058L241.241 113.118C239.328 113.668 237.487 114.602 235.836 115.917L235.662 116.055L236.857 117.557L237.031 117.418L236.892 117.245C235.392 118.441 234.203 119.882 233.335 121.466L233.53 121.574L233.636 121.378L231.957 120.458L231.851 120.653C230.857 122.462 230.24 124.437 230.011 126.454L229.986 126.674L231.886 126.889L231.911 126.669L231.69 126.645C231.633 127.169 231.603 127.697 231.603 128.226C231.603 129.542 231.785 130.862 232.164 132.146L232.377 132.084L232.314 131.87L230.476 132.407L230.537 132.619C231.086 134.534 232.018 136.375 233.333 138.028L233.472 138.201L234.973 137.005L234.833 136.832L234.66 136.97C235.856 138.471 237.296 139.663 238.879 140.531L238.985 140.335L238.791 140.228L238.215 141.28L237.982 141.712L238.178 141.817L238.039 141.644L238.034 141.647L237.774 141.856L238.066 142.016C239.874 143.01 241.848 143.629 243.863 143.856L244.083 143.881L244.298 141.98L244.078 141.955L244.053 142.176C244.574 142.233 245.098 142.263 245.622 142.263C246.943 142.263 248.269 142.078 249.556 141.698L249.494 141.486L249.28 141.548L249.816 143.388L250.028 143.326C251.941 142.777 253.776 141.848 255.427 140.532L255.601 140.394L254.406 138.892L254.233 139.03L254.371 139.204C255.872 138.008 257.067 136.562 257.934 134.978L257.739 134.871L257.632 135.065L258.785 135.7H258.786L259.312 135.985L259.418 135.792C260.412 133.983 261.024 132.01 261.252 129.995L261.277 129.775L259.378 129.559L259.353 129.779L259.573 129.804C259.631 129.282 259.66 128.757 259.66 128.231C259.66 126.91 259.477 125.584 259.101 124.294L258.888 124.356L258.95 124.57L260.789 124.034L260.728 123.82C260.174 121.91 259.245 120.073 257.931 118.421L257.791 118.247L256.292 119.443L256.43 119.617L256.604 119.479L256.43 119.617L256.568 119.79L257.895 118.734L257.756 118.559L257.583 118.699C258.861 120.304 259.763 122.089 260.302 123.944L260.514 123.882L260.452 123.668L258.612 124.206L258.674 124.418C259.039 125.666 259.216 126.952 259.216 128.231C259.216 128.741 259.188 129.25 259.132 129.755L259.108 129.975L261.007 130.191L261.032 129.97L260.811 129.946C260.59 131.904 259.994 133.821 259.03 135.578L259.224 135.684L259.329 135.49L258.997 135.31L257.651 134.57L257.544 134.765C256.705 136.299 255.548 137.697 254.094 138.857L253.921 138.995L255.116 140.497L255.289 140.357L255.151 140.184C253.546 141.464 251.764 142.366 249.906 142.899L249.967 143.113L250.18 143.05L249.644 141.209L249.43 141.272C248.185 141.639 246.901 141.818 245.622 141.818C245.113 141.818 244.606 141.79 244.103 141.734L243.882 141.711L243.667 143.61L243.888 143.635L243.913 143.415C241.955 143.193 240.036 142.592 238.28 141.627L238.173 141.822L238.311 141.995L238.317 141.991L238.352 141.963L238.605 141.491L239.287 140.247L239.093 140.14C237.559 139.301 236.165 138.148 235.008 136.693L234.87 136.519L233.369 137.715L233.507 137.889L233.681 137.75C232.403 136.144 231.497 134.355 230.964 132.497L230.751 132.558L230.813 132.771L232.652 132.235L232.59 132.021C232.224 130.778 232.046 129.501 232.046 128.226C232.046 127.714 232.076 127.202 232.131 126.694L232.156 126.473L230.257 126.258L230.232 126.479L230.452 126.504C230.674 124.545 231.274 122.624 232.24 120.867L232.045 120.76L231.938 120.955L233.618 121.875L233.724 121.68C234.564 120.146 235.715 118.751 237.169 117.592L237.344 117.454L236.148 115.952L235.974 116.091L236.113 116.265C237.718 114.985 239.505 114.079 241.363 113.546L241.302 113.332L241.088 113.394L241.625 115.236L241.839 115.173C243.079 114.806 244.357 114.629 245.631 114.629C246.142 114.629 246.653 114.658 247.162 114.714L247.382 114.738L247.596 112.838L247.376 112.813L247.352 113.034C249.314 113.252 251.228 113.856 252.984 114.822L253.091 114.628L252.891 114.531L252.887 114.539L252.354 115.511L251.976 116.201L252.171 116.309C253.704 117.148 255.103 118.306 256.256 119.755L256.395 119.93L256.568 119.79L256.43 119.617Z" fill="#2F6F68"/>
<path d="M256.673 156.324H47.8797C47.1965 156.324 46.6426 155.77 46.6426 155.086C46.6426 154.403 47.1965 153.849 47.8797 153.849H256.673C257.357 153.849 257.91 154.403 257.91 155.086C257.91 155.77 257.357 156.324 256.673 156.324Z" fill="#3F8179"/>
<path d="M236.693 147.559H69.1195C66.8649 147.559 65.0371 145.729 65.0371 143.473V39.4047C65.0371 37.1485 66.8649 35.3189 69.1195 35.3189H236.693C238.949 35.3189 240.776 37.1485 240.776 39.4047V143.473C240.776 145.729 238.949 147.559 236.693 147.559Z" fill="#94CBC5"/>
<path d="M69.1195 146.8C67.2864 146.8 65.7949 145.307 65.7949 143.473V39.4051C65.7949 37.5698 67.2864 36.0774 69.1195 36.0774H236.693C238.527 36.0774 240.019 37.5698 240.019 39.4051V143.473C240.019 145.307 238.527 146.8 236.693 146.8H69.1195Z" fill="#2F6F68"/>
<path d="M70.9736 142.499H235.019V39.8572H70.9736V142.499Z" fill="#94CBC5"/>
<path d="M252.797 147.558V150.291C252.797 150.43 252.789 150.568 252.772 150.703C252.57 152.474 251.066 153.849 249.243 153.849H54.3044C52.4804 153.849 50.9785 152.474 50.7759 150.703C50.7584 150.568 50.751 150.43 50.751 150.291V147.558H252.797Z" fill="#94CBC5"/>
<path d="M252.773 150.703C252.571 152.474 251.067 153.849 249.243 153.849H54.3049C52.4809 153.849 50.979 152.474 50.7764 150.703H252.773Z" fill="#5BA29A"/>
<path d="M198.926 123.292H108.1C105.617 123.292 103.604 121.278 103.604 118.792V66.1295C103.604 63.6447 105.617 61.6296 108.1 61.6296H198.926C201.409 61.6296 203.423 63.6447 203.423 66.1295V118.792C203.423 121.278 201.409 123.292 198.926 123.292Z" fill="#2F6F68"/>
<path d="M168.64 107.296H153.976C152.735 107.296 151.721 106.28 151.721 105.039C151.721 103.796 152.735 102.781 153.976 102.781H168.64C169.881 102.781 170.897 103.796 170.897 105.039C170.897 106.28 169.881 107.296 168.64 107.296Z" fill="#1C5C55"/>
<path d="M179.288 89.3096H147.291C146.05 89.3096 145.035 88.2935 145.035 87.0523C145.035 85.8099 146.05 84.7938 147.291 84.7938H179.288C180.53 84.7938 181.544 85.8099 181.544 87.0523C181.544 88.2935 180.53 89.3096 179.288 89.3096Z" fill="white"/>
<path d="M179.288 97.8076H147.291C146.05 97.8076 145.035 96.7915 145.035 95.5503C145.035 94.309 146.05 93.2929 147.291 93.2929H179.288C180.53 93.2929 181.544 94.309 181.544 95.5503C181.544 96.7915 180.53 97.8076 179.288 97.8076Z" fill="white"/>
<path d="M152.706 95.7506C152.706 96.1896 152.35 96.5449 151.911 96.5449C151.472 96.5449 151.117 96.1896 151.117 95.7506C151.117 95.3116 151.472 94.9552 151.911 94.9552C152.35 94.9552 152.706 95.3116 152.706 95.7506Z" fill="#80B2FF"/>
<path d="M155.429 95.7506C155.429 96.1896 155.074 96.5449 154.636 96.5449C154.197 96.5449 153.841 96.1896 153.841 95.7506C153.841 95.3116 154.197 94.9552 154.636 94.9552C155.074 94.9552 155.429 95.3116 155.429 95.7506Z" fill="#80B2FF"/>
<path d="M158.153 95.7506C158.153 96.1896 157.797 96.5449 157.358 96.5449C156.919 96.5449 156.564 96.1896 156.564 95.7506C156.564 95.3116 156.919 94.9552 157.358 94.9552C157.797 94.9552 158.153 95.3116 158.153 95.7506Z" fill="#80B2FF"/>
<path d="M160.876 95.7506C160.876 96.1896 160.52 96.5449 160.081 96.5449C159.642 96.5449 159.287 96.1896 159.287 95.7506C159.287 95.3116 159.642 94.9552 160.081 94.9552C160.52 94.9552 160.876 95.3116 160.876 95.7506Z" fill="#80B2FF"/>
<path d="M163.598 95.7506C163.598 96.1896 163.243 96.5449 162.805 96.5449C162.366 96.5449 162.01 96.1896 162.01 95.7506C162.01 95.3116 162.366 94.9552 162.805 94.9552C163.243 94.9552 163.598 95.3116 163.598 95.7506Z" fill="#80B2FF"/>
<path d="M166.321 95.7506C166.321 96.1896 165.965 96.5449 165.526 96.5449C165.087 96.5449 164.732 96.1896 164.732 95.7506C164.732 95.3116 165.087 94.9552 165.526 94.9552C165.965 94.9552 166.321 95.3116 166.321 95.7506Z" fill="#80B2FF"/>
<path d="M169.045 95.7506C169.045 96.1896 168.69 96.5449 168.251 96.5449C167.812 96.5449 167.456 96.1896 167.456 95.7506C167.456 95.3116 167.812 94.9552 168.251 94.9552C168.69 94.9552 169.045 95.3116 169.045 95.7506Z" fill="#80B2FF"/>
<path d="M171.768 95.7506C171.768 96.1896 171.412 96.5449 170.973 96.5449C170.535 96.5449 170.18 96.1896 170.18 95.7506C170.18 95.3116 170.535 94.9552 170.973 94.9552C171.412 94.9552 171.768 95.3116 171.768 95.7506Z" fill="#80B2FF"/>
<path d="M174.491 95.7506C174.491 96.1896 174.136 96.5449 173.697 96.5449C173.259 96.5449 172.902 96.1896 172.902 95.7506C172.902 95.3116 173.259 94.9552 173.697 94.9552C174.136 94.9552 174.491 95.3116 174.491 95.7506Z" fill="#80B2FF"/>
<path d="M167.018 74.9306C167.018 77.5342 164.908 79.6455 162.305 79.6455C159.704 79.6455 157.594 77.5342 157.594 74.9306C157.594 72.3259 159.704 70.2146 162.305 70.2146C164.908 70.2146 167.018 72.3259 167.018 74.9306Z" fill="white"/>
<path d="M162.312 74.7412C162.772 74.7412 163.197 74.5172 163.469 74.1743C163.669 73.9265 163.787 73.6075 163.787 73.2533C163.787 72.4387 163.126 71.7666 162.312 71.7666C161.486 71.7666 160.826 72.4387 160.826 73.2533C160.826 73.6075 160.944 73.9265 161.144 74.1743C161.415 74.5172 161.84 74.7412 162.312 74.7412Z" fill="#2F6F68"/>
<path d="M164.923 77.3914C164.923 78.3305 159.685 78.3305 159.685 77.3914L159.687 76.2983C159.894 74.8025 164.498 74.7391 164.924 76.2983L164.923 77.3914Z" fill="#2F6F68"/>
<path d="M148.174 95.9412V96.4039C148.174 96.4865 148.102 96.5454 148.02 96.5454C147.936 96.5454 147.877 96.4865 147.877 96.4039V95.9412C147.794 95.8936 147.735 95.811 147.735 95.7035C147.735 95.5497 147.865 95.4195 148.02 95.4195C148.174 95.4195 148.304 95.5497 148.304 95.7035C148.304 95.811 148.245 95.8936 148.174 95.9412ZM147.451 95.0133C147.451 94.7067 147.641 94.4272 148.022 94.4272C148.404 94.4272 148.6 94.6886 148.6 95.0133V95.1344H147.451V95.0133ZM148.91 95.1344V95.0133C148.91 94.5234 148.512 94.1251 148.022 94.1251C147.533 94.1251 147.135 94.5234 147.135 95.0133V95.1344H147V96.7355C147 97.0127 149.051 97.0127 149.051 96.7355V95.1344H148.91Z" fill="#4D4D4D"/>
<path d="M148.288 86.8877C148.467 86.8877 148.633 86.8006 148.739 86.6659C148.817 86.5697 148.864 86.4453 148.864 86.3072C148.864 85.9893 148.606 85.7268 148.288 85.7268C147.965 85.7268 147.707 85.9893 147.707 86.3072C147.707 86.4453 147.753 86.5697 147.831 86.6659C147.938 86.8006 148.104 86.8877 148.288 86.8877Z" fill="#4D4D4D"/>
<path d="M149.306 87.9214C149.306 88.2879 147.252 88.2879 147.252 87.9214L147.262 87.4948C147.344 86.911 149.14 86.8861 149.307 87.4948L149.306 87.9214Z" fill="#4D4D4D"/>
<path d="M160.088 87.7129H151.779C151.415 87.7129 151.117 87.4153 151.117 87.051C151.117 86.6866 151.415 86.3879 151.779 86.3879H160.088C160.452 86.3879 160.75 86.6866 160.75 87.051C160.75 87.4153 160.452 87.7129 160.088 87.7129Z" fill="#80B2FF"/>
<path d="M154.94 82.8799H146.916C146.552 82.8799 146.254 82.5823 146.254 82.2168C146.254 81.8525 146.552 81.5549 146.916 81.5549H154.94C155.304 81.5549 155.601 81.8525 155.601 82.2168C155.601 82.5823 155.304 82.8799 154.94 82.8799Z" fill="#80B2FF"/>
<path d="M171.048 87.7129H162.739C162.375 87.7129 162.076 87.4153 162.076 87.051C162.076 86.6866 162.375 86.3879 162.739 86.3879H171.048C171.412 86.3879 171.709 86.6866 171.709 87.051C171.709 87.4153 171.412 87.7129 171.048 87.7129Z" fill="#80B2FF"/>
<path d="M119.99 86.7546V98.4655C119.99 99.7667 135.902 99.7667 135.902 98.4655V86.7546H119.99Z" fill="white"/>
<path d="M129.91 91.1772C129.91 92.2623 129.03 93.1426 127.946 93.1426C126.86 93.1426 125.98 92.2623 125.98 91.1772C125.98 90.091 126.86 89.2118 127.946 89.2118C129.03 89.2118 129.91 90.091 129.91 91.1772Z" fill="#2F6F68"/>
<path d="M127.946 97.0977C127.501 97.0977 127.141 96.7378 127.141 96.292V91.7831H128.751V96.292C128.751 96.7378 128.39 97.0977 127.946 97.0977Z" fill="#2F6F68"/>
<path d="M134.507 85.9219H132.897V85.1321C132.897 82.4007 130.675 80.1773 127.946 80.1773C125.215 80.1773 122.995 82.4007 122.995 85.1321V85.9219H121.385V85.1321C121.385 81.5114 124.328 78.5661 127.946 78.5661C131.564 78.5661 134.507 81.5114 134.507 85.1321V85.9219Z" fill="white"/>
<path d="M196.379 86.1136L197.139 89.172L197.278 89.7411C197.432 90.463 202.201 90.1564 201.863 89.3112L201.579 88.6877L200.111 85.4675L196.379 86.1136Z" fill="#F7A58E"/>
<path d="M193.59 81.5756C193.541 84.892 195.08 87.5894 197.488 87.5781C199.896 87.5668 202.226 85.5222 202.31 81.5326C202.364 78.9913 200.335 76.9399 197.928 76.9512C195.52 76.9637 193.627 79.0331 193.59 81.5756Z" fill="#F7A58E"/>
<path d="M197.856 76.0392C197.856 76.0392 193.058 76.2769 192.658 79.9134C192.126 83.1042 194.518 80.7587 195.495 82.9006C196.615 85.3536 195.474 87.1493 194.02 87.6369C195.312 89.4428 202.705 89.3783 204.608 86.2079C205.911 82.233 204.067 76.2599 197.856 76.0392Z" fill="black"/>
<path d="M194.491 82.7684C194.452 83.2606 194.818 83.6917 195.31 83.7324C195.802 83.772 196.234 83.4054 196.273 82.9132C196.313 82.421 195.946 81.9888 195.455 81.9492C194.963 81.9084 194.532 82.2762 194.491 82.7684Z" fill="#F7A58E"/>
<path d="M195.225 144.481C195 144.242 193.94 144.239 193.843 144.591C193.747 144.944 193.933 145.195 193.485 145.754C193.743 145.829 194.657 145.835 194.936 145.754C195.216 145.672 195.45 144.719 195.225 144.481Z" fill="white"/>
<path d="M196.98 145.685H194.395C194.153 134.737 194.199 122.82 194.286 113.844C194.318 110.629 194.406 109.003 194.988 107.074C196.165 103.177 201.697 104.376 202.09 107.909C202.253 109.869 202.372 113.692 198.752 126.686C200.32 132.407 197.584 139.266 196.98 145.685Z" fill="#00050D"/>
<path d="M192.946 145.853C193.327 145.833 194.216 145.466 194.384 145.213C194.63 145.489 195.146 145.566 195.767 145.473C196.5 145.363 196.596 145.021 197.123 145.068C197.345 145.684 197.885 147.069 197.364 147.391C197.364 147.391 194.281 147.391 191.928 147.391C191.443 146.947 191.456 146.001 192.946 145.853Z" fill="white"/>
<path d="M208.388 144.758C208.199 144.557 207.308 144.554 207.227 144.85C207.145 145.146 207.302 145.358 206.926 145.827C207.142 145.891 207.911 145.896 208.145 145.827C208.38 145.759 208.576 144.958 208.388 144.758Z" fill="white"/>
<path d="M199.868 107.809C200.396 103.773 207.571 104.187 208.048 107.712C208.221 109.608 208.747 112.463 207.399 126.548C210.243 131.923 209.44 139.637 210.289 145.314C210.383 146.178 207.937 146.385 207.747 145.615C205.142 135.081 201.5 123.263 200.147 114.5C199.655 111.322 199.605 109.808 199.868 107.809Z" fill="#00050D"/>
<path d="M206.464 145.685C206.844 145.665 207.406 145.169 207.573 144.916C207.821 145.193 208.292 145.566 208.913 145.473C209.647 145.363 209.744 145.021 210.27 145.068C210.493 145.684 211.033 147.069 210.511 147.391C210.511 147.391 207.577 147.391 205.224 147.391C204.739 146.947 204.974 145.835 206.464 145.685Z" fill="white"/>
<path d="M177.007 102.104L176.739 100.759C177.396 100.502 178.391 99.9716 179.55 99.5202L180.185 101.702C178.903 101.892 177.767 102.031 177.007 102.104Z" fill="#F7A58E"/>
<path d="M179.551 99.5207C181.783 98.4831 185.607 96.2247 186.485 95.8151L195.92 90.0185C197.955 89.3996 200.328 93.431 197.754 95.2493C197.754 95.2493 183.165 101.259 180.186 101.702L179.551 99.5207Z" fill="#FF7268"/>
<path d="M176.052 103.186C175.14 102.913 174.823 101.567 174.801 101.465L176.688 100.775C177.607 100.404 178.133 101.515 177.553 102.317C177.553 102.317 176.922 103.389 176.052 103.186Z" fill="#F7A58E"/>
<path d="M175.239 101.99C173.058 102.459 173.143 101.924 173.143 101.924C173.143 101.924 173.879 101.679 175.208 101.316C175.975 101.145 175.764 101.82 175.239 101.99Z" fill="#F7A58E"/>
<path d="M194.341 95.7776C193.888 93.5689 193.645 91.3886 195.92 90.0183C197.267 89.2048 201.602 88.6244 203.63 89.2953C205.672 90.2084 205.231 94.1924 205.613 100.483C207.02 103.623 207.632 104.654 208.048 107.712C208.048 107.712 207.295 110.016 201.991 110.02C199.583 110.021 196.035 109.806 194.422 108.577C194.582 106.492 195.454 104.482 195.817 101.53C195.817 101.53 194.374 96.031 194.341 95.7776Z" fill="#FF7268"/>
<path d="M204.718 89.74C207.208 91.6421 209.637 94.6326 210.784 96.2212C211.932 97.8098 214.904 104.194 214.904 104.194L213.013 105.59L207.895 98.612L201.644 93.4807C199.474 91.2641 202.294 87.8867 204.718 89.74Z" fill="#FF7268"/>
<path d="M215.698 105.813L214.471 103.277C214.183 104.04 212.78 104.734 212.376 104.721C212.376 104.721 213.694 106.619 214.017 106.942C214.34 107.264 215.671 106.718 215.698 105.813Z" fill="#F7A58E"/>
<path d="M213.706 106.517C213.71 106.536 213.706 106.562 213.71 106.581C213.771 107.504 214.48 107.941 214.673 108.044C214.687 108.056 214.704 108.059 214.721 108.064C214.055 107.929 213.855 108.823 214.194 109.03C215.176 109.694 216.573 108.78 216.692 108.226C216.812 107.663 215.695 105.801 215.695 105.801C215.125 105.34 213.665 105.412 213.706 106.517Z" fill="#F7A58E"/>
<path d="M213.711 106.581C213.751 107.624 214.689 108.053 214.706 108.057C215.255 108.042 215.452 108.009 215.976 108.01C215.634 107.843 214.932 107.399 215.203 106.536C214.666 106.124 213.858 106.484 213.711 106.581Z" fill="#E6856A"/>
<path d="M213.696 106.464C213.552 107.324 213.613 108.55 213.818 109.09C213.818 109.09 214.345 109.118 214.295 108.121C214.282 107.862 214.32 107.299 214.576 107.111C215.366 106.589 215.492 106.111 215.203 105.717C214.817 105.194 213.726 105.725 213.696 106.464Z" fill="#F7A58E"/>
<path d="M216.139 108.815C215.712 109.112 214.578 109.689 214.399 109.546C214.219 109.404 215.126 108.438 215.712 108.311C216.296 108.183 216.36 108.662 216.139 108.815Z" fill="#F7A58E"/>
<path d="M183.878 35.3115C185.102 33.5362 183.975 28.0123 178.745 26.4249C174.328 25.2855 172.028 26.684 166.053 28.3122L166.944 35.3115H183.878Z" fill="#2F6F68"/>
<path d="M179.217 26.7132C179.217 26.7132 168.512 28.9253 164.561 30.3804C162.295 31.2143 161.733 33.0903 162.606 34.5329C163.9 36.6703 179.257 35.1541 179.257 35.1541C184.555 33.6707 181.751 26.6205 179.217 26.7132Z" fill="#2F6F68"/>
<path d="M184.201 26.1132C184.201 26.1132 191.037 28.4339 194.881 30.1515C198.612 30.4457 198.368 35.0825 196.602 35.3823C192.539 36.4844 183.593 34.5337 183.593 34.5337C178.406 32.6951 181.678 25.8507 184.201 26.1132Z" fill="#2F6F68"/>
<path d="M173.362 30.8847C173.362 30.8847 171.207 27.6022 176.556 25.0598C181.904 22.5173 185.503 25.0586 184.611 28.1374C183.72 31.2151 180.567 33.2676 180.567 33.2676C180.567 33.2676 175.234 33.2936 173.362 30.8847Z" fill="#2F6F68"/>
<path d="M179.383 30.4453C181.956 28.6576 180.923 25.1771 180.923 25.1771L179.948 23.3158L179.135 21.7668L174.841 23.4222L175.622 26.6039C175.622 26.6039 175.835 27.3484 176.302 28.1812C176.894 29.2392 177.894 30.4408 179.383 30.4453Z" fill="#F7A28A"/>
<path d="M176.302 28.1816C178.363 26.851 179.418 24.8404 179.948 23.3163L179.135 21.7673L174.841 23.4226L175.622 26.6043C175.622 26.6043 175.835 27.3489 176.302 28.1816Z" fill="#F0896C"/>
<path d="M169.898 17.6733C169.898 17.6733 168.91 17.9381 168.768 19.1193C168.626 20.3006 169.798 20.7826 169.798 20.7826C169.798 20.7826 169.03 22.2569 170.652 22.8532C173.957 24.0696 173.635 16.9367 169.898 17.6733Z" fill="#3D3D3D"/>
<path d="M170.84 21.482C171.852 24.4714 173.96 27.2729 175.656 26.5759C178.532 25.3935 180.947 22.1767 179.753 18.7913C178.559 15.4048 175.994 13.849 173.274 14.8096C170.552 15.7703 169.688 18.0808 170.84 21.482Z" fill="#F7A28A"/>
<path d="M169.456 17.6205C170.063 18.1365 172.314 19.0123 176.968 16.7561C177.742 17.315 178.317 18.1648 178.71 19.1107C179.149 19.0066 179.327 18.778 179.629 19.1537C180.047 19.673 180.266 20.809 179.747 21.2266C179.616 21.3329 179.469 21.4065 179.317 21.4495C179.13 22.246 179.307 23.1218 179.949 23.3164C180.938 22.5187 180.818 22.3343 181.183 21.4166C182.339 20.6054 182.342 18.8244 181.412 18.3368C182.295 17.5085 181.228 15.6936 179.921 15.6336C179.93 14.6289 178.654 12.8355 177.048 13.8855C177.095 12.8061 175.138 12.0978 174.078 13.6875C173.225 12.5221 170.634 13.227 170.734 14.776C169.168 14.5033 168.307 16.6112 169.456 17.6205Z" fill="#3D3D3D"/>
<path d="M162.61 33.7291C162.61 33.7291 162.339 36.3304 167.126 36.7468C172.579 37.2209 177.181 37.0829 177.181 37.0829L177.672 35.0224C177.672 35.0224 167.999 31.7389 165.631 31.5963C162.811 31.4255 162.61 33.7291 162.61 33.7291Z" fill="#F7A28A"/>
<path d="M177.555 34.9831L180.609 34.345C180.609 34.345 182.577 35.2875 183.19 36.5118C182.741 37.0153 181.52 35.9551 181.52 35.9551C181.52 35.9551 181.643 38.0042 181.344 38.3934C181.043 38.7827 179.543 39.0429 179.052 38.6197C178.56 38.1965 179.415 37.6942 179.415 37.6942L177.181 37.0832C177.181 37.0832 176.142 35.5228 177.555 34.9831Z" fill="#F7A28A"/>
<path d="M173.221 17.5365C173.221 17.4901 173.184 17.4517 173.137 17.4517C173.091 17.4517 173.053 17.4901 173.053 17.5365C173.053 17.5828 173.091 17.6201 173.137 17.6201C173.184 17.6201 173.221 17.5828 173.221 17.5365Z" fill="#F7A28A"/>
<path d="M196.81 32.2431C196.81 32.2431 198.423 34.3001 194.591 37.2023C190.228 40.5085 186.258 42.8428 186.258 42.8428L184.746 41.3594C184.746 41.3594 191.189 33.4277 193.117 32.0462C195.414 30.3999 196.81 32.2431 196.81 32.2431Z" fill="#F7A28A"/>
<path d="M184.744 41.357L183.039 43.973C183.039 43.973 183.201 46.1511 184.119 47.166C184.75 46.9318 184.207 45.4077 184.207 45.4077C184.207 45.4077 186.07 46.2665 186.542 46.1284C187.013 45.9904 187.8 44.6858 187.585 44.0748C187.371 43.4627 186.592 44.0771 186.592 44.0771L186.961 42.1298C187.263 41.0447 185.459 40.2617 184.744 41.357Z" fill="#F7A28A"/>
<path d="M94.3928 80.4844C94.6885 83.2769 93.2829 86.2538 91.5139 86.2323C89.0875 86.2029 85.95 84.2036 85.6543 81.4122C85.3584 78.6197 87.0747 76.1486 89.4879 75.8929C91.9009 75.6371 94.0969 77.693 94.3928 80.4844Z" fill="#F7B28A"/>
<path d="M79.355 144.758C79.355 144.758 81.9035 144.473 83.8904 144.758C85.5381 145.847 86.249 145.784 86.249 145.784C86.9532 145.968 87.2671 146.937 86.6561 146.937H79.1494L79.355 144.758Z" fill="white"/>
<path d="M91.5127 144.758C91.5127 144.758 94.0173 144.473 96.048 144.758C97.8626 145.847 98.5637 145.784 98.5637 145.784C99.2961 145.968 99.7584 146.937 99.1473 146.937H91.6407L91.5127 144.758Z" fill="white"/>
<path d="M89.1772 89.5361L84.459 87.943L87.877 80.8191L91.1941 82.4134L89.1772 89.5361Z" fill="#F7B28A"/>
<path d="M93.8597 94.5336C93.8597 94.5336 97.5201 97.2175 95.7335 100.065C94.4021 102.187 90.1406 99.8889 90.1406 97.42C90.1406 95.1944 91.8528 93.8818 93.8597 94.5336Z" fill="#F7A28A"/>
<path d="M82.5536 105.58C82.5536 105.58 81.6735 107.108 81.0849 110.149C80.8757 111.23 81.1205 116.118 81.0508 124.349C79.3394 134.995 79.1494 145.656 79.1494 145.656L83.8904 144.758L91.1479 106.024L82.5536 105.58Z" fill="#00050D"/>
<path d="M93.2858 106.568C94.2174 113.876 94.8911 120.437 94.9516 125.222L96.0472 144.758L91.5394 145.62C90.6154 139.558 89.0774 131.987 88.8342 124.963L83.9189 106.625L93.2858 106.568Z" fill="#00050D"/>
<path d="M81.1515 106.193C81.464 108.083 81.6341 108.211 81.6341 108.211L93.6434 108.476C93.6434 108.476 93.2865 106.569 93.5885 105.582C93.6443 105.399 93.6586 104.829 93.5782 103.976C93.4645 102.753 93.2049 100.968 92.8566 99.0153C92.1076 94.8164 90.9472 89.8367 89.9258 87.9652L84.6833 86.7071C84.6833 86.7071 82.3452 89.0798 81.8306 91.1809C81.3146 93.2809 80.8391 104.306 81.1515 106.193Z" fill="#2F6F68"/>
<path d="M89.5996 97.6337L93.5783 103.976C93.4645 102.752 93.2049 100.968 92.8567 99.0152L89.5996 97.6337Z" fill="#F7A28A"/>
<path d="M88.1647 96.0529C88.1647 96.0529 86.7545 99.0932 88.219 99.9067C89.6836 100.721 91.1482 98.1156 91.1482 98.1156L88.1647 96.0529Z" fill="#F7B28A"/>
<path d="M93.9729 87.9524L92.9579 94.5116L89.7992 90.7902C89.7992 90.7902 86.9602 87.9094 84.6811 90.5107C82.402 93.1108 85.9606 95.7121 85.9606 95.7121C85.9606 95.7121 91.1586 99.9461 94.4773 99.506C97.796 99.0659 95.7246 88.0769 95.7246 88.0769L93.9729 87.9524Z" fill="#2F6F68"/>
<path d="M93.9727 87.9527L93.4609 85.4544L94.7659 83.4709C94.7659 83.4709 95.2521 83.1122 95.4313 84.2131C95.7889 84.7257 96.2246 85.1047 96.1734 85.6841C96.1223 86.2623 95.7244 88.0771 95.7244 88.0771L93.9727 87.9527Z" fill="#F7B28A"/>
<path d="M84.6836 86.706L85.0548 85.7453L90.6085 87.9518L91.0452 90.3652L84.6836 86.706Z" fill="#FFD1B6"/>
<path d="M86.2441 84.2705C86.2441 84.2705 84.4327 81.6613 84.9995 78.5418C85.5664 75.4212 90.1861 74.7695 90.1861 74.7695C90.1861 74.7695 95.0043 74.4854 96.0814 79.3927C95.5712 80.0444 93.4739 78.9673 93.4739 78.9673L90.0264 82.115C90.0264 82.115 90.067 79.6473 88.8512 80.2719C87.6354 80.8953 87.9983 82.881 87.9983 82.881C87.9983 82.881 86.8652 84.0725 86.2441 84.2705Z" fill="black"/>
<path d="M218.739 67.9717C218.74 67.8868 218.74 67.8495 218.74 67.8416C218.74 67.8574 218.739 67.9717 218.739 67.9717Z" fill="#D9FFFF"/>
<path d="M218.739 67.9717C218.74 67.8868 218.74 67.8495 218.74 67.8416C218.74 67.8574 218.739 67.9717 218.739 67.9717Z" fill="#D9FFFF"/>
<path d="M269.287 68.1973C269.287 68.1973 269.288 68.0819 269.288 68.0672C269.288 68.0751 269.288 68.1124 269.287 68.1973Z" fill="#D9FFFF"/>
<path d="M269.287 68.1973C269.287 68.1973 269.288 68.0819 269.288 68.0672C269.288 68.0751 269.288 68.1124 269.287 68.1973Z" fill="#D9FFFF"/>
<path d="M244.108 56.0853C238.512 62.0832 229.583 66.9984 220.029 69.0928C220.026 69.7321 220.01 73.2702 219.938 89.5772C219.841 111.33 240.528 121.96 243.739 123.592C246.852 122.158 267.8 111.545 267.897 89.791C267.97 73.4841 267.986 69.9459 267.989 69.3078C258.454 67.1285 249.649 62.133 244.108 56.0853Z" fill="#A3D6D0"/>
<path d="M244.058 58.4439C238.289 63.7393 230.299 67.9009 221.51 70.1695L221.424 89.5721C221.385 98.4509 224.909 106.482 231.9 113.445C236.494 118.02 241.323 120.858 243.773 122.133C243.879 122.08 243.994 122.019 244.109 121.96V58.4892C244.092 58.4733 244.075 58.4586 244.058 58.4439Z" fill="#94CBC5"/>
<path d="M244.107 58.4894V121.96C246.655 120.634 251.287 117.891 255.723 113.552C262.776 106.652 266.371 98.6525 266.411 89.7738L266.498 70.3711C257.756 68.0312 249.824 63.8142 244.107 58.4894Z" fill="#2F6F68"/>
<path d="M261.714 77.9371C255.024 78.969 245.914 85.0757 240.167 92.4178C239.361 88.9555 235.742 85.7953 233.849 85.1039L228.113 90.8745C231.694 92.4891 235.608 97.066 236.127 101.751L241.858 102.64C244.273 97.8637 250.513 86.4402 262.926 80.2985C262.687 79.3628 261.81 78.0707 261.714 77.9371Z" fill="white"/>
</svg>
