<svg width="21" height="20" viewBox="0 0 21 20" fill="none" xmlns="http://www.w3.org/2000/svg">
<path fill-rule="evenodd" clip-rule="evenodd" d="M15.5538 13.564C14.5196 14.1532 13.4813 14.7383 12.4389 15.3193C11.9115 15.6118 11.3841 15.9002 10.8567 16.1969C10.6383 16.3205 10.4076 16.5183 10.1521 16.5636C9.88843 16.6089 9.64533 16.4771 9.40636 16.3864C8.7842 16.1433 8.14967 15.9085 7.52751 15.6695C7.15257 15.5253 7.3009 15.0803 7.49455 14.866C7.76649 14.5653 8.24856 14.8331 8.53286 14.9649C8.96549 15.1668 9.42284 15.2863 9.87607 15.4305C10.8855 15.756 11.9403 14.1162 10.9927 13.4693C10.6424 13.2344 10.1398 13.1149 9.74422 12.9584C8.87896 12.6164 8.00958 12.2785 7.15257 11.9159C6.58397 11.677 6.01125 11.3638 5.39321 11.2855C4.82049 11.2155 4.15713 11.3144 3.60501 11.4751C3.30011 11.5616 2.95401 11.714 2.71091 11.9201C2.5461 12.0602 2.40601 12.2744 2.34009 12.4804V17.0951C2.34009 17.0951 2.36893 17.3588 2.63263 17.297C3.41136 17.1157 4.33842 17.1693 5.11303 17.3382C5.84232 17.4989 6.50568 17.8944 7.19377 18.1705C7.95602 18.4754 8.73887 18.7185 9.50936 18.9904C10.7825 19.4395 11.689 18.3559 12.6985 17.7873C13.9304 17.0951 15.1583 16.3947 16.3861 15.7025C16.5921 15.5871 16.794 15.4717 17 15.3564C17.3173 15.1751 17.6222 14.5117 17.5892 14.1697C17.4945 13.1067 16.246 13.1685 15.5538 13.564Z" fill="#2F6F68"/>
<path fill-rule="evenodd" clip-rule="evenodd" d="M1.52862 12.4678H0.494433C0.222495 12.4678 0 12.6903 0 12.9622V16.8064C0 17.0784 0.222495 17.3009 0.494433 17.3009H1.52862C1.80056 17.3009 2.02305 17.0784 2.02305 16.8064V12.9622C2.02305 12.6903 1.80056 12.4678 1.52862 12.4678ZM1.27728 13.6008C1.07127 13.6008 0.90646 13.436 0.90646 13.23C0.90646 13.024 1.07127 12.8592 1.27728 12.8592C1.4833 12.8592 1.64811 13.024 1.64811 13.23C1.64811 13.4319 1.47918 13.6008 1.27728 13.6008Z" fill="#2F6F68"/>
<path d="M20.6024 9.80176H3.31787V10.5063H20.6024V9.80176Z" fill="#2F6F68"/>
<path fill-rule="evenodd" clip-rule="evenodd" d="M4.80868 9.42306C4.82104 9.31182 4.84164 9.13876 4.8746 8.95747C4.88284 8.92039 4.88696 8.88331 4.8952 8.8421C4.90344 8.8009 4.91168 8.7597 4.92404 8.7185C4.94465 8.63197 4.96525 8.5372 4.98585 8.43832C4.99821 8.38888 5.01057 8.33531 5.02293 8.28587C5.03941 8.2323 5.05177 8.17874 5.06825 8.12518C5.10122 8.01393 5.13418 7.89856 5.16714 7.77907C5.24955 7.5401 5.33195 7.28052 5.4432 7.01682C5.47204 6.9509 5.49676 6.88085 5.5256 6.81493C5.55857 6.74901 5.58741 6.67896 5.62037 6.61304C5.65333 6.54299 5.6863 6.47707 5.71514 6.40702C5.7481 6.33698 5.78518 6.27105 5.82226 6.20101C5.85935 6.13097 5.89643 6.06092 5.93351 5.99088C5.97059 5.92083 6.01592 5.85491 6.053 5.78486C6.0942 5.71482 6.1354 5.64889 6.17661 5.57885C6.22193 5.5088 6.26725 5.44288 6.31258 5.37696C6.3579 5.31103 6.40322 5.24099 6.44855 5.17506C6.49799 5.10914 6.54743 5.04321 6.59688 4.97729C6.69164 4.84544 6.79877 4.71771 6.90178 4.5941C6.95122 4.52818 7.0089 4.4705 7.06247 4.40869C7.11603 4.34689 7.17371 4.2892 7.22728 4.2274C7.28496 4.16972 7.34264 4.11203 7.39621 4.05435C7.45389 3.99666 7.50746 3.93898 7.56926 3.88542C7.62694 3.83185 7.68463 3.77829 7.74231 3.72061C7.79999 3.66704 7.8618 3.6176 7.91948 3.56404C8.03485 3.46103 8.15846 3.36626 8.27383 3.2715C8.33151 3.22205 8.39331 3.18085 8.451 3.13553C8.5128 3.0902 8.57049 3.04488 8.62817 3.0078C8.74766 2.92539 8.86303 2.84299 8.97839 2.77294C9.20913 2.62461 9.43574 2.49689 9.64588 2.38152C9.85601 2.27027 10.0538 2.1755 10.231 2.09722C10.4081 2.01893 10.5647 1.95713 10.6924 1.90769C10.952 1.8088 11.1045 1.77172 11.1045 1.77172C11.1045 1.77172 10.9561 1.82528 10.7089 1.94889C10.4617 2.06838 10.1156 2.25791 9.72416 2.52161C9.53051 2.65346 9.32038 2.80179 9.11024 2.9666C9.00312 3.049 8.90011 3.13965 8.78886 3.23029C8.7353 3.27562 8.68173 3.32506 8.62817 3.3745C8.57461 3.42395 8.52104 3.46927 8.46748 3.52283C8.36447 3.62584 8.25323 3.72885 8.15022 3.84009C8.10078 3.89366 8.04309 3.94722 7.99365 4.0049C7.9442 4.06259 7.89476 4.12027 7.8412 4.17796C7.78763 4.23564 7.74231 4.29332 7.69287 4.35513C7.64342 4.41693 7.59398 4.47462 7.54866 4.53642C7.50334 4.59822 7.45801 4.66003 7.40857 4.72183C7.36325 4.78364 7.3138 4.84544 7.2726 4.91136C7.18607 5.04321 7.09543 5.16682 7.02126 5.30279C6.98006 5.36871 6.94298 5.43464 6.90178 5.50056C6.86469 5.56649 6.82761 5.63653 6.79053 5.70246C6.75345 5.76838 6.71636 5.83431 6.6834 5.90435C6.65044 5.97439 6.61748 6.04032 6.58863 6.10624C6.55567 6.17217 6.52271 6.23809 6.49387 6.30814C6.46503 6.37406 6.43619 6.44411 6.41146 6.51003C6.38262 6.57595 6.35378 6.64188 6.32906 6.7078C6.30434 6.77373 6.28373 6.83965 6.25901 6.90558C6.23429 6.9715 6.21369 7.03743 6.18897 7.09923C6.16837 7.16515 6.15189 7.22696 6.13128 7.29288C6.04888 7.54422 5.99944 7.79143 5.94587 8.01393C5.92527 8.1293 5.90467 8.23642 5.88819 8.33943C5.87995 8.39299 5.86759 8.44244 5.85935 8.49188C5.85111 8.54132 5.84699 8.59077 5.83875 8.63609C5.82638 8.73086 5.81402 8.81738 5.80578 8.89567C5.80166 8.93687 5.79754 8.97395 5.7893 9.01104C5.78518 9.04812 5.78518 9.0852 5.78106 9.11816C5.7687 9.26237 5.76046 9.3695 5.75634 9.44366H19.9301C19.9301 9.4107 19.9301 9.37774 19.9301 9.34478C19.9301 4.91137 16.5061 1.29789 12.2252 1.14544V0.663364C12.6454 0.622161 12.9503 0.490312 12.9503 0.337862C12.9503 0.15245 12.4971 0 11.9409 0C11.3846 0 10.9314 0.15245 10.9314 0.337862C10.9314 0.490312 11.2363 0.622161 11.6566 0.663364V1.12483C7.37561 1.27728 3.95166 4.89076 3.95166 9.32418C3.95166 9.35714 3.95166 9.3901 3.95166 9.42306H4.80868ZM15.1794 2.69466C15.2412 2.71526 15.3154 2.74822 15.3978 2.7853C15.4802 2.82239 15.575 2.86771 15.6738 2.92127C15.7727 2.97484 15.8799 3.03664 15.987 3.10669C16.0405 3.13965 16.0982 3.18085 16.1518 3.21793C16.1806 3.23853 16.2054 3.25914 16.2342 3.27974C16.263 3.30034 16.2919 3.32094 16.3166 3.34154C16.3702 3.38686 16.4278 3.43219 16.4855 3.47751C16.5144 3.50223 16.5432 3.52695 16.5679 3.55167C16.5968 3.5764 16.6215 3.60112 16.6503 3.62996C16.6792 3.65468 16.7039 3.68352 16.7327 3.70825C16.7575 3.73709 16.7863 3.76181 16.811 3.79065C16.8358 3.81949 16.8605 3.84833 16.8893 3.87718C16.914 3.90602 16.9429 3.93486 16.9635 3.9637C17.0129 4.02551 17.0624 4.08319 17.1077 4.14499C17.1324 4.17796 17.153 4.2068 17.1777 4.23976C17.1983 4.27272 17.2189 4.30156 17.2437 4.33453C17.2643 4.36749 17.2849 4.39633 17.3055 4.42929C17.3261 4.46226 17.3425 4.49522 17.3631 4.52818C17.3838 4.56114 17.4044 4.5941 17.4208 4.62707C17.4373 4.66003 17.4538 4.69299 17.4744 4.72595C17.4909 4.75891 17.5115 4.79188 17.5238 4.82484C17.5403 4.8578 17.5527 4.89076 17.5692 4.92373C17.5856 4.95669 17.598 4.98965 17.6145 5.01849C17.6268 5.05145 17.6392 5.08442 17.6516 5.11326C17.7051 5.23687 17.7422 5.36047 17.7834 5.47172C17.7999 5.52941 17.8164 5.58297 17.8287 5.63653C17.837 5.66125 17.8452 5.68598 17.8493 5.7107C17.8535 5.73542 17.8617 5.76014 17.8658 5.78486C17.8782 5.83018 17.8864 5.87551 17.8947 5.91671C17.8988 5.93731 17.9029 5.95791 17.907 5.97439C17.9111 5.995 17.9153 6.01148 17.9153 6.02796C17.94 6.16393 17.9523 6.2999 17.9523 6.2999L17.495 6.29166C17.495 6.29166 17.4909 6.22161 17.4785 6.09388C17.4785 6.0774 17.4744 6.06092 17.4744 6.04444C17.4703 6.02796 17.4703 6.00736 17.4662 5.99088C17.462 5.95379 17.4579 5.91259 17.4497 5.86727C17.4456 5.84667 17.4456 5.82194 17.4414 5.80134C17.4373 5.77662 17.4332 5.75602 17.4291 5.7313C17.4208 5.68186 17.4126 5.63241 17.4002 5.57885C17.3755 5.47584 17.3508 5.35635 17.3137 5.24099C17.3055 5.21214 17.2972 5.17918 17.2849 5.15034C17.2725 5.1215 17.2643 5.08854 17.2519 5.05969C17.2395 5.03085 17.2313 4.99789 17.2189 4.96493C17.2066 4.93197 17.1942 4.90312 17.1819 4.87016C17.1695 4.8372 17.1571 4.80836 17.1407 4.7754C17.1283 4.74243 17.1118 4.71359 17.0953 4.68063C17.0788 4.64767 17.0665 4.61883 17.05 4.58586C17.0335 4.5529 17.017 4.52406 17.0006 4.4911C16.9841 4.45813 16.9676 4.42929 16.947 4.39633C16.9264 4.36749 16.9099 4.33453 16.8893 4.30156C16.8522 4.23976 16.811 4.17796 16.7698 4.11615C16.7492 4.08731 16.7286 4.05847 16.708 4.02551C16.6874 3.99666 16.6627 3.96782 16.6421 3.93898C16.6174 3.91014 16.5968 3.8813 16.5721 3.85245C16.5473 3.82361 16.5267 3.79477 16.502 3.77005C16.4773 3.74121 16.4526 3.71649 16.432 3.68764C16.4072 3.6588 16.3825 3.63408 16.3578 3.60936C16.3084 3.5558 16.2589 3.51047 16.2095 3.46103C16.1848 3.43631 16.16 3.41571 16.1353 3.39098C16.1106 3.37038 16.0859 3.34566 16.0611 3.32506C16.0117 3.28386 15.9623 3.23853 15.9128 3.20145C15.8139 3.12317 15.715 3.05312 15.6244 2.99132C15.439 2.86771 15.2783 2.78118 15.1629 2.7235C15.0476 2.66582 14.9775 2.64109 14.9775 2.64109C14.9775 2.64109 15.0599 2.64933 15.1794 2.69466Z" fill="#2F6F68"/>
</svg>
