<svg width="715" height="159" viewBox="0 0 715 159" fill="none" xmlns="http://www.w3.org/2000/svg">
<path d="M96.8932 159C91.3668 159 86.7499 155.333 85.6306 150.005L66.4632 59.5039C64.3646 59.158 62.3359 58.7428 60.2373 58.1201C55.9001 56.9439 51.4231 55.2833 46.946 53.0692C39.6708 49.5405 32.1158 44.6971 24.4208 38.6775C12.5287 29.2676 4.27408 19.9961 2.73509 18.1971C0.706424 15.8446 -0.202978 13.0078 0.0768376 10.1018C0.356654 7.19582 1.68578 4.49739 3.92431 2.62924C5.95297 0.899478 8.47132 0 11.1296 0C14.3475 0 17.4254 1.38381 19.5241 3.73629L20.1536 4.4282C20.5034 4.84334 21.063 5.46606 21.8325 6.22715C23.2316 7.68016 25.4002 9.96345 28.1983 12.6619C33.0951 17.3668 40.7901 24.0091 49.5343 29.3368C55.3405 32.9347 61.0767 35.4948 66.1134 36.8786C69.1914 37.7089 72.0595 38.124 74.7877 38.124C75.5572 38.124 76.3267 38.0548 77.0962 37.9856L81.923 37.5013C86.2602 37.0862 90.0377 36.7402 93.5354 36.4634C98.9918 36.0483 103.119 35.8407 106.967 35.8407C113.542 35.8407 119.698 36.4634 126.554 37.7781C132.989 39.0235 140.544 40.9608 151.807 44.282C154.745 45.1123 158.033 45.5966 161.671 45.5966C167.897 45.5966 175.312 44.282 183.216 41.7911C190.002 39.6462 197.277 36.671 204.902 32.8655C218.403 26.154 228.197 19.235 228.337 19.1658C230.226 17.782 232.464 17.0901 234.843 17.0901C238.41 17.0901 241.768 18.8198 243.867 21.6567C247.434 26.5692 246.315 33.4882 241.278 37.017C240.229 37.7781 234.493 41.7219 225.888 46.6345C213.507 53.6919 201.544 59.0196 190.422 62.6175C179.929 65.9386 170.625 67.53 161.88 67.5992L106.547 153.672C104.378 156.993 100.811 159 96.8932 159ZM102 119.838L138.306 63.3786C131.59 61.5104 126.554 60.265 122.286 59.4347C116.62 58.3277 112.213 57.9125 106.967 57.9125V54.453V57.9125C103.819 57.9125 100.251 58.1201 95.4241 58.4661C93.4654 58.6044 91.3668 58.812 89.1283 59.0196L102 119.838Z" fill="white"/>
<path d="M521.647 84.6893C520.947 69.1906 510.734 56.8747 494.924 52.7232C489.958 51.4086 484.991 50.7167 480.234 50.7167C472.329 50.7167 464.704 52.5157 457.569 56.1136C445.397 62.1331 436.023 70.2976 429.797 80.3303C423.571 90.2245 420.353 102.125 420.143 115.548C419.794 135.406 431.546 150.835 450.713 155.956C455.05 157.132 459.528 157.685 464.075 157.685C468.062 157.685 472.189 157.201 476.316 156.302C493.665 152.496 506.886 142.394 515.631 126.204L516.4 124.751L514.861 124.197C513.392 123.713 511.923 123.228 510.454 122.744C507.096 121.706 503.948 120.668 500.87 119.423C499.821 119.008 498.772 118.8 497.652 118.8C496.044 118.8 494.505 119.423 493.455 120.599C492.896 121.222 492.476 121.845 492.266 122.191C487.089 130.147 477.855 135.06 468.132 135.06C464.075 135.06 460.087 134.161 456.589 132.431C450.224 129.248 445.816 122.26 445.816 115.479V112.02H478.695C483.592 112.02 489.328 112.02 495.414 112.02H505.697C508.635 112.02 511.643 112.02 514.651 112.02H514.721C516.82 112.02 519.688 111.604 520.038 107.73C520.248 105.308 520.527 102.817 520.807 100.465C521.297 95.2754 521.857 89.9478 521.647 84.6893ZM449.594 92.0235L452.602 86.8342C457.709 78.1162 467.152 72.7885 477.226 72.7885C479.954 72.7885 482.682 73.2036 485.201 74.0339C491.846 76.1788 496.323 81.9908 496.463 88.564L496.533 92.0927H449.594V92.0235Z" fill="white"/>
<path d="M262.258 157.685C257.711 157.685 253.024 157.063 248.407 155.956C229.31 151.112 217.347 135.406 217.138 114.856C216.928 88.218 234.346 63.3786 259.6 54.453C266.525 52.0313 273.381 50.7859 280.096 50.7859C284.643 50.7859 289.26 51.3394 293.737 52.5157C314.654 57.8433 325.916 75.3486 324.727 100.534V100.603C321.859 126.204 306.259 145.3 280.866 154.433C274.85 156.578 268.554 157.685 262.258 157.685ZM276.109 74.4491C269.393 74.4491 263.237 76.6632 257.711 81.0914C248.127 88.7715 243.44 99.4961 243.79 112.919C244.07 123.574 249.596 130.839 259.25 133.33C261.349 133.884 263.447 134.161 265.616 134.161C269.113 134.161 272.751 133.399 276.459 131.946C289.61 126.757 298.214 113.057 298.284 97.0744C298.354 84.966 292.338 76.8707 281.775 75.0026C279.886 74.5875 277.928 74.4491 276.109 74.4491Z" fill="white"/>
<path d="M519.199 154.71L537.247 53.6227H562.78L561.241 62.5483L568.027 57.8433C574.882 53.1384 582.647 50.7167 591.042 50.7167C593.91 50.7167 596.848 50.9935 599.856 51.547C613.847 54.107 622.731 65.2467 622.381 80.0535C622.241 87.0418 620.982 94.03 619.793 100.811C619.513 102.264 619.303 103.717 619.023 105.1C617.134 116.448 615.036 127.933 613.007 139.073L612.797 140.18C612.098 144.262 611.328 148.275 610.629 152.358C610.559 152.704 610.489 152.98 610.349 153.257C610.279 153.396 610.279 153.534 610.209 153.603L609.859 154.572H583.976L586.704 139.35C588.523 128.971 590.412 118.662 592.231 108.352L592.581 106.208C593.35 101.918 594.12 97.4895 594.819 93.0613C595.728 86.9034 594.749 81.9217 591.951 78.6697C589.433 75.7637 585.445 74.2415 580.409 74.2415C578.45 74.2415 576.351 74.4491 574.113 74.9334C563.759 77.2167 557.743 84.4817 555.365 97.9047C553.057 110.774 550.678 123.99 548.44 136.651C547.74 140.664 546.131 149.798 545.292 154.433H519.199V154.71Z" fill="white"/>
<path d="M336.129 154.918C333.191 154.849 330.113 154.849 326.126 154.849C324.027 154.849 321.929 154.849 319.76 154.849C317.521 154.849 315.213 154.849 312.904 154.849H309.896L311.785 152.565C312.135 152.15 312.485 151.735 312.765 151.32L312.835 151.251C313.464 150.49 313.954 149.867 314.513 149.244C317.382 146.061 320.32 142.809 323.188 139.627L323.817 138.935C333.471 128.21 343.474 117.14 353.548 106.277C354.177 105.654 354.597 105.101 354.877 104.547L355.576 103.302L355.227 101.987C355.087 101.433 354.807 100.742 354.317 99.9804C348.581 89.8786 342.915 79.5692 337.458 69.6057C335.57 66.077 333.611 62.6175 331.722 59.0888C331.372 58.3969 331.023 57.705 330.603 56.9439C330.393 56.5287 330.183 56.1828 329.973 55.6984L328.924 53.6919H359.704L375.513 84.1358L381.739 77.0091C387.685 70.1593 393.771 63.171 399.717 56.1136C401.326 54.1762 403.145 53.3459 405.664 53.3459H405.873C408.812 53.4151 411.889 53.4151 416.017 53.4151C417.836 53.4151 419.724 53.4151 421.613 53.4151H422.383C424.621 53.4151 426.93 53.4151 429.238 53.4151H432.246L430.287 55.6984C429.868 56.1828 429.518 56.6671 429.168 57.0131L429.098 57.0822C428.399 57.9125 427.839 58.6044 427.209 59.2271L418.745 68.4987C409.021 79.2924 399.018 90.4321 389.014 101.433C388.945 101.572 388.805 101.641 388.735 101.71L387.196 103.509L388.385 105.723C394.471 116.655 400.487 127.795 406.293 138.589C408.182 142.117 410.141 145.646 412.029 149.175C412.379 149.798 412.729 150.49 413.149 151.32L413.918 152.842L414.967 154.849H412.729C410.63 154.849 408.602 154.849 406.573 154.849C404.544 154.849 402.586 154.849 400.697 154.849C396.709 154.849 391.953 154.849 387.056 154.71C385.237 154.641 383.628 152.773 382.998 151.666C379.571 145.231 376.073 138.589 372.785 132.223L367.748 122.606L364.391 126.55C362.432 128.833 360.473 131.047 358.515 133.33C353.268 139.419 347.882 145.646 342.565 151.873C341.306 153.326 339.557 154.849 336.409 154.918H336.129Z" fill="white"/>
<path d="M663.654 157.547C662.115 157.547 660.576 157.478 659.037 157.339C651.272 156.717 645.256 154.918 640.15 151.735C631.965 146.615 627.418 139.142 626.509 129.386C626.299 126.896 627.418 125.373 629.797 124.751C634.204 123.644 638.541 122.537 643.158 121.36L650.153 119.561L650.293 121.153C651.272 130.424 658.058 136.928 666.732 136.928C670.3 136.928 673.868 135.821 677.085 133.676C678.275 132.915 679.464 131.808 680.303 130.701C682.402 128.072 683.101 125.235 682.402 122.813C681.632 120.392 679.534 118.524 676.456 117.555C673.518 116.586 670.58 115.963 667.432 115.272C665.683 114.856 663.864 114.51 662.045 114.026L660.856 113.749C658.198 113.057 655.47 112.366 652.881 111.328C638.681 105.654 633.014 93.3381 638.051 79.2924C643.438 64.2781 655.19 54.8682 673.028 51.4778C675.826 50.9243 678.624 50.6475 681.423 50.6475C686.879 50.6475 692.265 51.6854 697.512 53.7611C708.075 57.9125 713.951 65.6619 714.931 76.8708C715.07 78.3238 713.881 80.6071 712.412 81.0914C707.795 82.4752 703.248 83.6514 698.491 84.9661C697.022 85.3812 695.553 85.7272 694.084 86.1423L692.755 86.4883L692.335 85.2428C692.196 84.8969 692.126 84.5509 691.986 84.205C691.776 83.5131 691.566 82.8903 691.426 82.2676C689.957 75.487 686.109 72.3042 678.415 71.8199C677.995 71.8199 677.575 71.7507 677.155 71.7507C670.23 71.7507 664.144 75.4178 662.325 80.7454C661.346 83.5131 661.975 85.5196 662.605 86.6958C663.654 88.6332 665.753 90.017 668.691 90.7089C671.489 91.4008 674.357 91.9543 677.155 92.5078C678.904 92.8538 680.653 93.1997 682.332 93.5457C684.081 93.8917 685.97 94.376 687.858 94.9295C697.372 97.9047 704.298 103.578 707.236 111.051C710.174 118.524 709.124 127.311 704.158 135.89C696.323 149.452 681.213 157.547 663.654 157.547Z" fill="white"/>
</svg>
