<svg width="16" height="16" viewBox="0 0 16 16" fill="none" xmlns="http://www.w3.org/2000/svg">
<path d="M5.5 9.5C5.5 9.22386 5.27614 9 5 9C4.72386 9 4.5 9.22386 4.5 9.5H5.5ZM4.5 11.75C4.5 12.0261 4.72386 12.25 5 12.25C5.27614 12.25 5.5 12.0261 5.5 11.75H4.5ZM8.5 9.5C8.5 9.22386 8.27614 9 8 9C7.72386 9 7.5 9.22386 7.5 9.5H8.5ZM7.5 11.75C7.5 12.0261 7.72386 12.25 8 12.25C8.27614 12.25 8.5 12.0261 8.5 11.75H7.5ZM11.5 9.5C11.5 9.22386 11.2761 9 11 9C10.7239 9 10.5 9.22386 10.5 9.5H11.5ZM10.5 11.75C10.5 12.0261 10.7239 12.25 11 12.25C11.2761 12.25 11.5 12.0261 11.5 11.75H10.5ZM1.25 14.25C0.973858 14.25 0.75 14.4739 0.75 14.75C0.75 15.0261 0.973858 15.25 1.25 15.25V14.25ZM14.75 15.25C15.0261 15.25 15.25 15.0261 15.25 14.75C15.25 14.4739 15.0261 14.25 14.75 14.25V15.25ZM1.25 6C0.973858 6 0.75 6.22386 0.75 6.5C0.75 6.77614 0.973858 7 1.25 7V6ZM14.75 7C15.0261 7 15.25 6.77614 15.25 6.5C15.25 6.22386 15.0261 6 14.75 6V7ZM1.04693 3.79309C0.794589 3.90525 0.680942 4.20073 0.793094 4.45307C0.905246 4.70541 1.20073 4.81906 1.45307 4.70691L1.04693 3.79309ZM8 1.25L8.20307 0.793094C8.07379 0.735635 7.92621 0.735635 7.79693 0.793094L8 1.25ZM14.5469 4.70691C14.7993 4.81906 15.0948 4.70541 15.2069 4.45307C15.3191 4.20073 15.2054 3.90525 14.9531 3.79309L14.5469 4.70691ZM2 6.5V6C1.72386 6 1.5 6.22386 1.5 6.5H2ZM14 6.5H14.5C14.5 6.22386 14.2761 6 14 6V6.5ZM14 14.75V15.25C14.2761 15.25 14.5 15.0261 14.5 14.75H14ZM2 14.75H1.5C1.5 15.0261 1.72386 15.25 2 15.25V14.75ZM4.5 9.5V11.75H5.5V9.5H4.5ZM7.5 9.5V11.75H8.5V9.5H7.5ZM10.5 9.5V11.75H11.5V9.5H10.5ZM1.25 15.25H14.75V14.25H1.25V15.25ZM1.25 7H14.75V6H1.25V7ZM1.45307 4.70691L8.20307 1.70691L7.79693 0.793094L1.04693 3.79309L1.45307 4.70691ZM7.79693 1.70691L14.5469 4.70691L14.9531 3.79309L8.20307 0.793094L7.79693 1.70691ZM2 7H14V6H2V7ZM13.5 6.5V14.75H14.5V6.5H13.5ZM14 14.25H2V15.25H14V14.25ZM2.5 14.75V6.5H1.5V14.75H2.5Z" fill="#828282"/>
</svg>
