<svg width="14" height="14" viewBox="0 0 14 14" fill="none" xmlns="http://www.w3.org/2000/svg">
<path fill-rule="evenodd" clip-rule="evenodd" d="M11.2427 10.1033C10.5401 10.7372 9.0712 12.0628 8.06035 12.975C7.47452 13.5037 6.52577 13.504 5.93995 12.9753C4.94675 12.079 3.50619 10.779 2.75736 10.1033C0.414212 7.9887 0.414212 4.56032 2.75736 2.44578C5.1005 0.331226 8.89952 0.331226 11.2427 2.44578C13.5857 4.56032 13.5857 7.9887 11.2427 10.1033Z" stroke="#2F6F68" stroke-linecap="round" stroke-linejoin="round"/>
<path fill-rule="evenodd" clip-rule="evenodd" d="M9.25 6.27438C9.25 7.39582 8.24268 8.30487 7 8.30487C5.75732 8.30487 4.75 7.39582 4.75 6.27438C4.75 5.15298 5.75732 4.2439 7 4.2439C8.24268 4.2439 9.25 5.15298 9.25 6.27438Z" stroke="#2F6F68" stroke-linecap="round" stroke-linejoin="round"/>
</svg>
