<svg width="287" height="153" viewBox="0 0 287 153" fill="none" xmlns="http://www.w3.org/2000/svg">
<path d="M23.6344 152.325C23.6344 152.325 -4.80883 127.527 0.715666 86.7039C6.44009 44.4327 36.5354 21.9433 75.8067 30.4752C107.901 37.4539 128.579 32.9729 161.768 13.0336C216.192 -19.6772 286.348 15.7307 267.996 79.106C259.115 109.77 296.386 124.924 265.186 152.388L23.6344 152.325Z" fill="#2F6F68"/>
<path d="M191.852 42.2184C191.852 42.2184 209.52 24.4096 214.75 28.261C219.98 32.1229 191.852 42.2184 191.852 42.2184Z" fill="#AFCDFB"/>
<path d="M190.642 45.5767C190.642 45.5767 224.031 29.4363 232.292 37.1812C240.542 44.926 223.21 44.4643 216.781 43.7716C210.341 43.0685 190.642 45.5767 190.642 45.5767Z" fill="#AFCDFB"/>
<path d="M189.106 41.9141C189.106 41.9141 189.243 41.064 189.422 39.8047C189.769 37.37 190.295 33.4137 190.348 31.3673C190.421 28.2714 192.852 25.9942 195.683 29.0585C198.513 32.1229 190.137 41.0221 190.137 41.0221L189.106 41.9141Z" fill="#AFCDFB"/>
<path d="M231.113 78.875C229.545 74.8347 222.653 76.8706 222.653 76.8706C222.653 76.8706 218.644 84.6469 217.276 84.9617C215.908 85.2766 219.401 77.6472 219.401 77.6472C216.686 77.6682 210.173 81.677 210.173 81.677C210.173 81.677 211.499 90.1145 210.089 90.0935C208.678 90.062 209.299 82.5585 209.299 82.5585C206.774 83.608 204.659 86.8927 204.659 86.8927C202.133 92.1504 209.036 95.0993 209.036 95.0993C209.036 95.0993 209.436 98.0377 207.963 101.606C207.963 101.606 207.616 102.277 207.311 103.379L208.016 103.306C208.058 103.106 208.1 102.918 208.152 102.739V102.729C208.194 102.613 208.247 102.456 208.31 102.256C208.479 101.805 208.594 101.48 208.668 101.249C209.184 99.8532 209.931 98.0167 210.52 97.5969C210.52 97.5969 210.425 97.492 210.331 97.2926C210.394 97.387 210.457 97.492 210.52 97.5969C212.004 100.063 218.128 99.8637 221.443 98.8143C224.757 97.7648 223.179 96.9672 221.19 95.6135C219.201 94.2597 215.424 95.0678 214.235 94.5745C213.045 94.0813 214.624 93.3047 216.907 93.2418C219.18 93.1788 220.548 95.3091 224.231 95.2777C227.914 95.2462 229.977 88.11 229.977 88.11C227.535 89.149 222.884 88.236 222.611 87.3964C222.348 86.5464 229.04 85.9377 230.05 85.5704C231.071 85.1821 232.681 82.9153 231.113 78.875Z" fill="#CDE0FB"/>
<path d="M106.165 25.2176C110.174 17.4518 123.57 23.0033 123.57 23.0033C123.57 23.0033 129.947 39.4479 132.63 40.3819C135.313 41.3159 129.925 25.2596 129.925 25.2596C135.376 25.8787 147.583 35.3131 147.583 35.3131C147.583 35.3131 143.111 51.9677 145.941 52.209C148.772 52.4504 149.14 37.2651 149.14 37.2651C153.981 39.9097 157.506 46.9514 157.506 46.9514C161.431 58.0229 146.973 62.483 146.973 62.483C146.973 62.483 145.552 68.2864 147.73 75.7583C147.73 75.7583 148.277 77.1646 148.656 79.4523L147.246 79.148C147.215 78.7492 147.162 78.3504 147.099 77.9726C147.099 77.9726 147.099 77.9726 147.099 77.9621C147.099 77.9516 147.099 77.9516 147.099 77.9412C147.046 77.6998 146.973 77.364 146.888 76.9547C146.636 76.0207 146.478 75.3386 146.394 74.8558C145.668 71.9384 144.552 68.108 143.468 67.1215C143.468 67.1215 143.668 66.9326 143.91 66.5443C143.774 66.7332 143.626 66.9221 143.468 67.1215C139.954 71.76 127.716 70.0494 121.286 67.2369C114.867 64.4349 118.192 63.1651 122.475 60.8669C126.748 58.5686 134.156 60.9928 136.65 60.2687C139.144 59.5446 136.134 57.6451 131.578 57.0364C127.021 56.4278 123.833 60.4156 116.446 59.5551C109.069 58.6945 106.46 43.95 106.46 43.95C111.121 46.5631 120.665 45.7235 121.381 44.0759C122.096 42.4283 108.796 39.7732 106.838 38.8182C104.892 37.8738 102.156 32.9834 106.165 25.2176Z" fill="#AFCDFB"/>
<path d="M212.33 36.5935H126.527V152.304H212.33V36.5935Z" fill="white"/>
<path d="M208.91 38.8499H129.21V149.418H208.91V38.8499Z" fill="#E7EDFF"/>
<path d="M155.528 46.3848H134.65V67.2055H155.528V46.3848Z" fill="white"/>
<path d="M152.023 87.3442H135.513L147.351 60.8774L151.445 70.0285L152.939 78.9277L152.023 87.3442Z" fill="#88A0E2"/>
<path d="M139.133 61.5595L141.774 60.8774L144.342 59.9644C144.342 59.9644 145.836 60.678 146.899 60.8774C148.056 61.0872 151.918 67.5203 151.918 67.7931C151.918 68.066 148.898 87.2077 148.898 87.2077H134.324L139.133 61.5595Z" fill="white"/>
<path d="M146.373 61.9268C145.068 62.1472 143.153 61.8324 141.774 60.8774C142.437 59.3872 142.732 58.2013 142.837 57.4352C142.848 57.3933 142.848 57.3513 142.858 57.3198C142.911 56.921 142.911 56.6481 142.89 56.5222L146.257 56.5957C146.257 56.5957 147.172 57.0364 147.162 57.3303C147.162 57.4877 147.151 57.6346 147.151 57.7711C147.151 58.1593 147.162 58.4952 147.172 58.789C147.215 59.7335 147.351 60.8774 147.351 60.8774C147.351 60.8774 147.688 61.696 146.373 61.9268Z" fill="#FFB27D"/>
<path d="M147.172 58.7889C144.605 59.2192 143.163 57.792 142.837 57.4351C142.795 57.3827 142.763 57.3512 142.763 57.3512C142.795 57.3407 142.816 57.3302 142.847 57.3197C143.805 56.9629 145.994 57.1518 147.183 57.624C147.193 58.0018 147.162 58.5056 147.172 58.7889Z" fill="#E2915A"/>
<path d="M141.9 56.2809C142.763 58.6107 145.878 58.002 147.193 57.6137C147.562 57.5088 147.793 57.4143 147.793 57.4143C148.204 57.2254 148.319 56.5118 148.277 55.6093C148.193 53.8252 147.478 51.3171 147.067 50.7189C146.457 49.8164 145.436 48.8929 142.427 50.2047C139.417 51.5165 140.785 53.29 141.9 56.2809Z" fill="#FFB27D"/>
<path d="M146.783 48.6515C145.72 47.8644 144.763 47.6965 144.068 47.686C142.016 47.6545 140.427 48.6935 140.417 48.6935C138.049 50.2571 137.712 52.335 139.606 55.1475C141.606 58.1279 142.826 57.4667 142.826 57.4667C142.826 57.4667 142.595 57.3933 142.448 56.3858C142.437 56.3333 142.437 56.2809 142.427 56.2389C142.406 56.029 142.3 55.8401 142.121 55.7247C141.753 55.4938 141.448 54.6647 141.679 54.3814C141.953 54.0351 142.469 54.3079 142.658 54.5493C142.816 54.7172 143.058 54.7487 143.247 54.5808C143.963 53.9406 143.268 53.0171 143.921 52.272C144.573 51.5269 148.509 51.8628 148.772 49.6484C148.761 49.6694 147.772 49.3861 146.783 48.6515Z" fill="#233862"/>
<path d="M147.351 60.8774C147.351 60.8774 151.487 69.3883 152.023 75.9578C152.56 82.5273 152.023 87.3442 152.023 87.3442C152.023 87.3442 154.717 80.9321 154.97 73.3342C155.086 69.955 154.538 63.8473 153.391 62.7664C152.823 62.2312 151.14 61.7275 147.351 60.8774Z" fill="#AEC3FF"/>
<path d="M142.742 72.1274C142.732 73.1034 142.69 74.1108 142.627 75.1707C142.385 78.8647 141.753 82.989 140.438 87.2182H126.905C126.905 87.2182 128.579 83.1569 130.609 78.7388C130.967 77.9622 131.325 77.1752 131.704 76.4091C133.198 73.2608 134.755 70.2699 135.892 68.7587C138.912 64.7394 141.785 60.8984 141.785 60.8984C141.785 60.8984 142.837 65.4845 142.742 72.1274Z" fill="#AEC3FF"/>
<path d="M139.028 78.2244C139.028 78.2244 136.25 79.3263 130.599 78.7282C130.957 77.9516 131.314 77.1645 131.693 76.3984L139.028 78.2244Z" fill="#9DB0F4"/>
<path d="M142.742 72.1274C142.732 73.1034 142.69 74.1108 142.627 75.1708C140.806 75.0763 134.292 74.7195 134.324 74.6251C134.356 74.5201 134.924 72.0435 134.924 72.0435C134.924 72.0435 140.396 73.3657 142.732 72.0435L142.742 72.1274Z" fill="#9DB0F4"/>
<path d="M140.196 75.0551C140.196 75.0551 142.132 73.9007 143.037 73.9637C143.931 74.0161 145.373 74.31 145.594 75.0551C145.804 75.8107 145.268 75.4434 144.068 75.6742C143.363 75.8107 142.921 76.8286 142.006 76.9231C141.648 76.9546 140.206 76.6712 140.206 76.6712V75.0551H140.196Z" fill="#FFB27D"/>
<path d="M141.774 60.8774C141.774 60.8774 136.807 61.4651 135.513 62.6825C133.324 64.7394 127.568 72.5366 128.137 75.9578C128.515 78.2246 139.028 78.2246 139.028 78.2246C139.028 78.2246 140.322 77.385 140.806 76.6294C141.774 75.0868 141.437 73.9534 141.437 73.9534L134.934 71.7496C134.934 71.7496 138.102 68.6852 140.554 68.5278C142.342 68.4124 141.774 60.8774 141.774 60.8774Z" fill="#AEC3FF"/>
<path d="M187.212 59.1667H161.052V59.6915H187.212V59.1667Z" fill="#AEC3FF"/>
<path d="M187.212 61.6121H161.052V62.1368H187.212V61.6121Z" fill="#AEC3FF"/>
<path d="M187.212 64.0886H161.052V64.6133H187.212V64.0886Z" fill="#AEC3FF"/>
<path d="M169.06 44.821H161.052V52.8073H169.06V44.821Z" fill="white"/>
<path d="M187.212 51.0652H177.068V51.9887H187.212V51.0652Z" fill="#AEC3FF"/>
<path d="M187.212 53.2166H174.858V54.1401H187.212V53.2166Z" fill="#AEC3FF"/>
<path d="M155.528 105.541H134.65V126.362H155.528V105.541Z" fill="white"/>
<path d="M138.859 120.716L141.501 120.034L144.068 119.121C144.068 119.121 145.562 119.834 146.625 120.034C147.783 120.244 151.645 126.677 151.645 126.95C151.645 127.222 151.75 146.501 151.75 146.501L134.05 146.375L138.859 120.716Z" fill="#AEC3FF"/>
<path d="M146.099 121.083C144.794 121.304 142.879 120.989 141.501 120.034C142.164 118.544 142.458 117.358 142.563 116.592C142.574 116.55 142.574 116.508 142.584 116.476C142.637 116.077 142.637 115.805 142.616 115.679L145.983 115.752C145.983 115.752 146.899 116.193 146.888 116.487C146.888 116.644 146.878 116.791 146.878 116.928C146.878 117.316 146.878 117.652 146.899 117.945C146.941 118.89 147.078 120.034 147.078 120.034C147.078 120.034 147.415 120.852 146.099 121.083Z" fill="#FFB27D"/>
<path d="M146.899 117.946C144.331 118.376 142.89 116.949 142.563 116.592C142.521 116.539 142.49 116.508 142.49 116.508C142.521 116.497 142.542 116.487 142.574 116.476C143.532 116.12 145.72 116.309 146.909 116.781C146.92 117.159 146.888 117.662 146.899 117.946Z" fill="#E2915A"/>
<path d="M141.627 115.437C142.49 117.767 145.605 117.159 146.92 116.77C147.288 116.665 147.52 116.571 147.52 116.571C147.93 116.382 148.046 115.668 148.004 114.766C147.92 112.982 147.204 110.474 146.794 109.875C146.183 108.973 145.163 108.049 142.153 109.361C139.144 110.673 140.511 112.447 141.627 115.437Z" fill="#FFB27D"/>
<path d="M146.51 107.818C145.447 107.031 144.489 106.863 143.795 106.853C141.743 106.822 140.154 107.86 140.143 107.86C137.776 109.424 137.439 111.502 139.333 114.315C141.332 117.295 142.553 116.634 142.553 116.634C142.553 116.634 142.321 116.56 142.174 115.553C142.164 115.5 142.164 115.448 142.153 115.406C142.132 115.196 142.027 115.007 141.848 114.892C141.48 114.661 141.174 113.832 141.406 113.548C141.68 113.202 142.195 113.475 142.385 113.716C142.542 113.884 142.784 113.916 142.974 113.748C143.689 113.108 142.995 112.184 143.647 111.439C144.3 110.694 148.235 111.03 148.498 108.815C148.488 108.826 147.499 108.543 146.51 107.818Z" fill="#A9453D"/>
<path d="M147.078 120.034C147.078 120.034 151.213 128.545 151.75 135.114C152.287 141.684 151.75 146.501 151.75 146.501C151.75 146.501 154.444 140.089 154.696 132.491C154.812 129.112 154.265 123.004 153.118 121.923C152.55 121.388 150.866 120.884 147.078 120.034Z" fill="#AEC3FF"/>
<path d="M141.501 120.034C141.501 120.034 136.534 120.622 135.239 121.839C133.051 123.896 127.295 131.693 127.863 135.114C127.989 135.87 130.936 138.189 132.556 138.525C132.967 141.747 131.946 146.501 131.946 146.501L140.154 146.375C141.469 142.156 142.1 138.021 142.342 134.327C142.416 133.278 142.448 132.26 142.458 131.284C142.563 124.641 141.501 120.034 141.501 120.034Z" fill="#AEC3FF"/>
<path d="M142.153 119.153C142.153 119.153 144.237 120.853 145.468 121.147C145.468 121.147 144.321 121.745 140.732 120.139C140.722 120.139 141.248 119.268 142.153 119.153Z" fill="#F99746"/>
<path d="M146.972 118.985C146.972 118.985 147.204 119.688 147.572 120.15C147.572 120.15 147.257 121.283 145.468 121.146C145.457 121.146 147.036 120.013 146.972 118.985Z" fill="#F99746"/>
<path d="M144.047 120.485L146.51 120.181C146.51 120.181 146.436 121.619 145.689 122.196C145.426 122.416 144.016 120.748 144.047 120.485Z" fill="#F99746"/>
<path d="M145.152 121.367C145.152 121.367 145.72 131.662 145.447 136.216C145.299 138.735 144.931 142.356 144.994 142.712C145.057 143.059 146.731 144.706 146.731 144.706C146.731 144.706 148.383 143.174 148.414 142.513C148.456 141.852 148.919 132.218 145.994 121.272C145.899 120.884 145.152 121.367 145.152 121.367Z" fill="#D8FFFB"/>
<path d="M141.932 118.985C141.932 118.985 141.301 119.027 140.185 120.317C140.185 120.317 141.985 121.86 143.626 122.248C143.626 122.248 143.563 121.052 144.047 120.496L141.932 118.985Z" fill="#C5D7FF"/>
<path d="M146.972 118.985L146.11 120.265C146.11 120.265 146.994 120.926 147.278 121.713C147.278 121.713 147.877 120.727 147.825 120.212C147.835 120.202 147.425 119.142 146.972 118.985Z" fill="#C5D7FF"/>
<path d="M188.717 120.401H161.052V120.926H188.717V120.401Z" fill="#AEC3FF"/>
<path d="M188.717 122.847H161.052V123.371H188.717V122.847Z" fill="#AEC3FF"/>
<path d="M188.717 125.323H161.052V125.848H188.717V125.323Z" fill="#AEC3FF"/>
<path d="M169.06 106.056H161.052V114.042H169.06V106.056Z" fill="white"/>
<path d="M188.717 112.3H177.994V113.223H188.717V112.3Z" fill="#AEC3FF"/>
<path d="M188.706 114.451H175.647V115.375H188.706V114.451Z" fill="#AEC3FF"/>
<path d="M155.528 75.4646H134.65V96.2854H155.528V75.4646Z" fill="white"/>
<path d="M147.257 77.2486C145.973 76.8918 144.205 77.1856 143.921 77.2171C140.427 77.4899 139.449 82.863 139.649 84.3847C140.027 87.1867 138.659 87.9213 136.976 90.0832C135.145 92.4444 134.924 94.6377 135.513 96.2958H144.394C146.299 94.6272 148.898 92.3394 150.529 90.9122C150.761 90.8282 150.961 90.7233 151.15 90.5974C154.728 88.1417 150.361 78.0986 147.257 77.2486Z" fill="#233862"/>
<path d="M147.53 89.9991C147.551 90.0096 146.078 90.8912 144.921 90.6498C143.826 90.4294 142.721 88.9497 142.732 88.9497C143.184 88.8343 143.595 88.3306 143.416 85.644L143.626 85.6755L147.13 86.1373C147.13 86.1373 147.12 87.2287 147.183 88.2466C147.225 89.1071 147.33 89.9152 147.53 89.9991Z" fill="#FFB27D"/>
<path d="M147.12 86.1373C147.12 86.1373 147.109 87.2287 147.172 88.2467C145.236 88.3097 144.1 86.62 143.616 85.665L147.12 86.1373Z" fill="#ED975D"/>
<path d="M147.835 87.0609C147.835 87.0609 143.258 87.4282 143.079 84.5842C142.9 81.7403 142.185 79.8723 145.099 79.5155C148.014 79.1587 148.646 80.2081 148.94 81.1421C149.224 82.0761 149.014 86.893 147.835 87.0609Z" fill="#FFB27D"/>
<path d="M148.446 79.6728C148.446 79.6728 146.131 82.7372 144.237 83.3459C142.342 83.965 141.48 83.5033 141.48 83.5033C141.48 83.5033 142.416 82.3174 142.774 80.6383C142.879 80.1451 143.237 79.7463 143.721 79.5994C145.068 79.1796 147.678 78.5499 148.446 79.6728Z" fill="#233862"/>
<path d="M146.615 79.8303C146.615 79.8303 147.762 80.5439 148.214 81.1631C148.646 81.7612 149.077 83.3144 148.982 83.986C148.982 83.986 149.845 80.7853 148.698 79.5784C147.488 78.2771 146.615 79.8303 146.615 79.8303Z" fill="#233862"/>
<path d="M151.676 91.3845C151.592 91.0907 151.413 90.8283 151.161 90.587C149.961 89.4746 147.257 89.0128 147.257 89.0128C147.257 89.0128 147.257 89.0233 147.246 89.0443C147.204 89.1912 147.004 89.7684 146.089 89.7684C145.478 89.7684 144.542 89.5061 143.111 88.6665C143.1 88.6665 143.1 88.656 143.09 88.656C143.09 88.656 139.354 88.8869 138.06 90.6814C137.355 91.6574 136.387 93.8612 135.587 96.2854H153.013C152.413 94.1026 151.866 92.0772 151.676 91.3845Z" fill="#AEC3FF"/>
<path d="M188.201 90.1252H161.052V90.65H188.201V90.1252Z" fill="#AEC3FF"/>
<path d="M188.201 92.5598H161.052V93.0845H188.201V92.5598Z" fill="#AEC3FF"/>
<path d="M188.201 95.0364H161.052V95.5611H188.201V95.0364Z" fill="#AEC3FF"/>
<path d="M169.06 75.7688H161.052V83.755H169.06V75.7688Z" fill="white"/>
<path d="M187.222 82.0132H175.9V82.9366H187.222V82.0132Z" fill="#AEC3FF"/>
<path d="M187.222 84.1643H173.437V85.0878H187.222V84.1643Z" fill="#AEC3FF"/>
<path d="M162.567 79.0747L165.061 82.4959L168.018 77.0283L164.577 80.1556L162.567 79.0747Z" fill="#233862"/>
<path d="M176.31 137.255H148.835V137.717H176.31V137.255Z" fill="#AEC3FF"/>
<path d="M176.31 139.449H148.835V139.91H176.31V139.449Z" fill="#AEC3FF"/>
<path d="M176.31 142.104H148.835V142.565H176.31V142.104Z" fill="#AEC3FF"/>
<path d="M137.397 138.231C137.765 137.717 138.154 136.804 137.86 136.164C137.586 135.576 137.06 135.849 136.702 136.185C136.166 136.689 135.86 137.392 135.629 138.084C135.345 138.924 135.124 139.805 135.029 140.687C134.955 141.4 134.903 142.492 135.366 143.101C135.755 143.615 136.387 143.195 136.818 142.954C138.186 142.188 139.322 140.97 139.638 139.407C139.68 139.207 139.428 139.018 139.27 139.197C138.954 139.533 138.744 139.952 138.733 140.425C138.723 140.687 138.754 141.096 139.059 141.17C139.428 141.254 139.712 140.75 139.87 140.508C140.185 140.026 140.385 139.48 140.48 138.903C140.343 138.861 140.196 138.829 140.059 138.787C139.996 139.207 140.07 139.942 140.69 139.816C141.28 139.69 141.322 138.693 141.343 138.242C141.353 138 140.964 137.937 140.911 138.179C140.827 138.588 140.838 138.987 140.964 139.375C141.027 139.574 141.122 139.753 141.227 139.942C141.322 140.089 141.395 140.246 141.469 140.414C141.606 140.75 141.49 140.897 141.111 140.844C141.069 140.949 141.027 141.054 140.985 141.17C142.016 140.76 143.153 140.204 143.205 138.945C143.216 138.661 142.774 138.661 142.763 138.945C142.721 139.973 141.701 140.414 140.869 140.739C140.732 140.792 140.669 140.928 140.743 141.065C140.985 141.537 141.648 141.495 141.869 141.023C142.016 140.708 141.943 140.372 141.806 140.068C141.522 139.459 141.217 139.008 141.353 138.305C141.206 138.284 141.069 138.263 140.922 138.242C140.911 138.483 140.89 138.714 140.827 138.945C140.806 139.029 140.785 139.102 140.743 139.186C140.669 139.459 140.596 139.365 140.501 138.913C140.543 138.64 140.122 138.515 140.08 138.798C139.996 139.333 139.817 139.837 139.522 140.299C139.386 140.508 139.186 140.918 139.207 140.446C139.217 140.089 139.375 139.784 139.617 139.532C139.491 139.459 139.375 139.386 139.249 139.323C139.038 140.351 138.47 141.212 137.67 141.894C137.291 142.219 136.797 142.618 136.323 142.775C136.134 142.838 135.839 142.859 135.671 142.691C135.608 142.628 135.587 142.387 135.566 142.293C135.492 141.946 135.471 141.589 135.471 141.233C135.492 140.11 135.808 138.945 136.208 137.895C136.397 137.392 136.66 136.898 137.049 136.521C137.555 136.048 137.555 136.793 137.481 137.14C137.407 137.465 137.249 137.759 137.06 138.032C136.86 138.242 137.239 138.462 137.397 138.231Z" fill="#AEC3FF"/>
<path d="M286.684 152.629H4.27223C4.10386 152.629 3.95654 152.493 3.95654 152.315V152.22C3.95654 152.052 4.09334 151.905 4.27223 151.905H286.684C286.853 151.905 287 152.042 287 152.22V152.315C287 152.493 286.863 152.629 286.684 152.629Z" fill="#2E3552"/>
<path d="M187.044 150.782C186.959 151.853 185.444 151.863 183.718 151.664C181.993 151.464 182.456 151.895 180.035 151.937C177.615 151.968 176.784 151.171 176.668 150.835C176.563 150.53 177.731 150.268 178.972 149.974C179.13 149.932 179.288 149.901 179.446 149.859C180.846 149.502 181.782 148.453 182.982 147.54C184.118 146.669 185.581 143.541 185.581 143.541L188.885 143.394C188.885 143.394 187.496 146.207 186.97 147.414C186.665 148.127 186.791 148.998 186.928 149.67C187.001 150.027 187.075 150.405 187.044 150.782Z" fill="#FFB27D"/>
<path d="M183.718 151.664C181.993 151.464 182.456 151.895 180.035 151.937C177.615 151.968 176.784 151.171 176.668 150.835C176.563 150.53 177.731 150.268 178.972 149.974L178.983 149.995C178.983 149.995 180.54 150.824 182.529 150.625C184.15 150.468 185.802 149.785 186.928 149.67C187.001 150.037 187.075 150.405 187.043 150.793C186.97 151.853 185.444 151.863 183.718 151.664Z" fill="#233862"/>
<path d="M209.836 151.003C209.762 152.073 208.237 152.094 206.511 151.895C204.785 151.695 205.248 152.136 202.828 152.168C200.408 152.199 199.576 151.412 199.46 151.066C199.355 150.761 200.523 150.499 201.765 150.195C201.923 150.153 202.081 150.121 202.239 150.079C203.638 149.722 204.575 148.673 205.774 147.76C206.911 146.889 205.774 141.757 205.774 141.757L209.405 141.4C209.405 141.4 209.226 145.724 209.236 147.686C209.236 148.463 209.594 149.208 209.731 149.88C209.794 150.247 209.857 150.625 209.836 151.003Z" fill="#FFB27D"/>
<path d="M206.511 151.895C204.785 151.695 205.248 152.136 202.828 152.168C200.408 152.199 199.576 151.412 199.46 151.066C199.355 150.761 200.523 150.499 201.765 150.195L201.776 150.216C201.776 150.216 203.333 151.045 205.322 150.845C206.942 150.677 208.594 150.006 209.71 149.88C209.783 150.247 209.857 150.615 209.826 150.992C209.752 152.084 208.237 152.094 206.511 151.895Z" fill="#233862"/>
<path d="M199.24 62.2417C198.619 59.681 199.524 58.4847 200.334 57.855C200.723 56.9105 201.165 56.2284 201.618 55.9766C202.438 55.5043 203.428 55.4623 204.122 55.4938C203.943 55.3154 203.596 55.2419 203.596 55.2419C204.027 55.179 204.985 55.5988 204.985 55.5988C210.951 53.311 211.888 62.0633 211.762 64.0992C211.635 66.1351 211.656 68.5278 214.761 70.1334C220.685 73.1873 212.793 84.7205 212.793 84.7205C212.94 83.0729 205.343 74.4046 201.365 71.802C200.397 70.3853 200.06 67.8771 200.029 67.6777C200.197 69.6612 200.534 70.7736 200.839 71.4032C199.029 69.7556 198.766 65.7678 199.24 62.2417Z" fill="#A9453D"/>
<path d="M201.597 71.9384C201.576 71.9489 203.512 72.9458 204.964 72.5575C206.332 72.1902 207.226 70.4167 207.205 70.4062C206.627 70.2908 206.458 69.4932 206.469 66.0825L206.206 66.135L201.797 67.006C201.797 67.006 201.902 68.3913 201.902 69.6926C201.912 70.7735 201.849 71.8124 201.597 71.9384Z" fill="#FFB27D"/>
<path d="M201.807 66.9955C201.807 66.9955 201.912 68.3808 201.912 69.6821C204.375 69.6086 205.679 67.3733 206.216 66.1245L201.807 66.9955Z" fill="#ED975D"/>
<path d="M183.866 145.273C183.645 145.945 184.139 146.648 184.844 146.679L186.57 146.763L188.39 146.816C188.843 146.826 189.285 146.627 189.569 146.28C191.021 144.496 195.504 138.567 198.219 129.951C198.292 129.71 198.377 129.468 198.461 129.217C200.25 124.001 203.975 117.452 205.932 111.523C206.248 110.579 206.521 109.687 206.774 108.847C206.858 108.574 206.932 108.312 207.005 108.05C208.447 103.044 208.868 99.759 209.257 96.2539L195.104 96.3693C195.115 96.3693 192.137 119.457 183.866 145.273Z" fill="#2A4E96"/>
<path d="M197.093 88.2572C197.124 94.9736 196.104 97.849 196.104 97.849C196.104 97.849 202.165 100.924 209.362 98.6571C209.447 98.6256 214.519 97.1984 214.519 97.1984C214.403 96.9255 213.393 92.434 213.277 92.1821C211.762 88.9289 211.341 87.5541 211.162 86.5571C210.825 84.6891 210.825 82.7582 210.983 80.9322C211.425 76.1048 212.73 72.0959 212.73 72.0959C210.773 71.6552 208.931 70.8681 206.89 70.102C206.416 70.6897 204.985 71.2984 203.743 71.2669C202.312 71.2354 201.839 70.6267 201.923 69.9551C200.397 70.8051 199.176 71.6027 199.176 71.6027C197.882 73.8485 195.241 76.0418 195.051 79.4944C194.999 80.355 197.093 88.0683 197.093 88.2572Z" fill="white"/>
<path d="M209.268 89.0023C209.889 89.8733 211.067 95.1834 214.024 95.8446C212.509 92.0666 211.351 90.4085 211.172 89.2437C210.836 87.0713 210.836 84.8255 210.994 82.7057C210.004 80.9741 209.268 79.7987 209.268 79.7987C209.194 79.5154 207.7 74.9189 207.216 79.0326C206.742 83.1464 208.573 88.0263 209.268 89.0023Z" fill="#5F9AA8"/>
<path d="M200.986 68.234C200.986 68.234 206.826 68.3284 206.826 64.7079C206.826 61.0768 207.584 58.6527 203.859 58.4323C200.134 58.2224 199.408 59.5971 199.113 60.8145C198.819 62.0213 199.471 68.1081 200.986 68.234Z" fill="#FFB27D"/>
<path d="M201.197 58.3378C201.197 58.3378 202.796 62.588 205.248 63.2176C207.7 63.8473 208.763 63.1862 208.763 63.1862C208.763 63.1862 206.879 61.696 206.49 59.0934C206.5 59.1039 202.407 56.3124 201.197 58.3378Z" fill="#A9453D"/>
<path d="M201.597 58.6841C201.597 58.6841 200.408 59.639 200.113 60.5625C199.818 61.486 199.692 63.3855 199.134 63.3226C199.134 63.3226 197.935 60.4261 199.282 58.7995C200.723 57.0574 201.597 58.6841 201.597 58.6841Z" fill="#A9453D"/>
<path d="M191.8 92.9165L189.043 101.301L190.621 101.931L195.178 94.5221L191.8 92.9165Z" fill="#FFB27D"/>
<path d="M199.229 71.1199C199.229 71.1199 195.977 72.4107 195.041 74.4151C194.104 76.4195 192.673 89.8732 192.105 91.2585C191.537 92.6438 191.116 93.7352 191.116 93.7352C191.116 93.7352 192.757 95.1099 194.399 95.2149C196.051 95.3093 199.229 71.1199 199.229 71.1199Z" fill="#6BB7BF"/>
<path d="M201.912 69.9656C201.912 69.9656 198.534 78.2876 198.44 79.9667C198.345 81.6458 198.04 107.504 198.04 107.504C198.04 107.504 198.24 108.69 195.956 108.196C193.673 107.703 193.073 107.21 193.073 107.21C193.073 107.21 195.262 91.2586 194.662 85.7176C194.062 80.1661 199.229 71.12 199.229 71.12L201.912 69.9656Z" fill="#6BB7BF"/>
<path d="M186.57 146.753L188.548 146.816C188.906 146.826 189.243 146.679 189.464 146.406C190.79 144.801 195.43 138.787 198.219 129.951C198.292 129.71 198.377 129.468 198.461 129.217C200.25 124.001 203.975 117.452 205.932 111.523C206.248 110.579 206.521 109.687 206.774 108.847C206.858 108.574 206.932 108.312 207.005 108.049L204.922 106.475C204.922 106.475 198.661 116.581 196.725 126.089C195.051 134.348 188.317 144.286 186.57 146.753Z" fill="#1E3D70"/>
<path d="M204.711 126.971C204.68 131.347 204.89 141.096 205.416 145.861C205.469 146.301 205.837 146.627 206.279 146.627H207.752C208.373 146.627 208.836 146.627 209.152 146.616C209.415 146.616 209.647 146.417 209.699 146.154C211.172 138.703 212.214 132.512 212.993 127.16C213.635 122.679 214.213 118.848 214.645 115.542C215.087 112.216 215.392 109.435 215.508 107.084C215.529 106.717 215.539 106.349 215.539 106.003C215.55 105.646 215.55 105.31 215.55 104.975L203.322 103.789C203.48 111.901 204.732 124.284 204.711 126.971Z" fill="#2A4E96"/>
<path d="M207.753 146.627C208.31 146.627 208.742 146.627 209.047 146.616C209.373 146.616 209.647 146.375 209.71 146.06C211.172 138.651 212.214 132.491 212.982 127.17C213.624 122.689 214.203 118.859 214.634 115.553C215.076 112.226 215.382 109.445 215.497 107.094L211.015 109.729C211.015 109.729 213.877 110.736 212.782 118.365C211.688 125.995 209.278 145.546 207.753 146.627Z" fill="#1E3D70"/>
<path d="M207.184 107.01C207.184 107.01 208.047 110.117 211.025 109.718C214.003 109.319 218.244 107.535 218.244 107.535C218.244 107.535 216.971 103.526 215.392 98.2476C213.477 91.8671 211.099 83.6395 209.983 78.4448C209.668 76.9861 209.457 75.7793 209.373 74.9082L206.9 70.1228C206.9 70.1228 203.217 78.3714 203.017 80.4492C202.807 82.5481 207.184 107.01 207.184 107.01Z" fill="#6BB7BF"/>
<path d="M210.152 80.1554L206.89 70.1333C206.9 70.1333 211.015 71.3506 213.077 72.4001C213.077 72.4001 214.371 74.0582 215.171 77.8991C215.171 77.8991 216.013 87.1026 214.129 90.4713C214.129 90.4713 208.173 91.6572 198.64 88.3935V86.2106C198.64 86.2106 209.068 86.7563 211.204 87.0082L210.152 80.1554Z" fill="#FFB27D"/>
<path d="M207.31 84.8254C207.447 88.1941 208.236 94.732 215.318 98.2266C215.339 98.2371 215.36 98.2476 215.371 98.2581C213.456 91.8776 211.078 83.65 209.962 78.4553C208.668 80.3968 207.237 82.9679 207.31 84.8254Z" fill="#D8FFFB"/>
<path d="M206.89 70.1333C206.89 70.1333 212.94 70.5531 214.392 73.7958C215.845 77.0281 216.308 87.7953 214.456 90.9646C214.456 90.9646 211.898 91.6887 207.384 90.8491C207.332 90.8386 207.268 90.8281 207.216 90.8176C207.216 90.8176 205.774 87.302 207.069 86.6094C207.069 86.6094 210.878 86.8088 210.478 85.5495C210.089 84.3007 206.89 70.1333 206.89 70.1333Z" fill="#6BB7BF"/>
<path d="M191.726 87.5644L191.905 88.131L201.828 85.0562C201.828 85.0562 201.965 84.9093 201.891 84.7099C201.818 84.4895 201.649 84.4895 201.649 84.4895L191.726 87.5644Z" fill="#A9453D"/>
<path d="M191.011 88.0997L191.726 87.5645L191.905 88.1311L191.011 88.0997Z" fill="#A9453D"/>
<path d="M189.432 101.071C189.432 101.071 186.917 102.456 186.58 103.516C186.254 104.576 186.475 106.79 186.875 106.759C187.275 106.727 187.875 104.377 188.201 104.219C188.527 104.051 189.001 103.558 189.001 103.925C189.001 104.293 188.675 104.954 188.832 105.048C189.001 105.143 189.527 104.125 189.895 103.925C190.264 103.726 190.411 102.089 190.769 101.658C191.126 101.207 189.432 101.071 189.432 101.071Z" fill="#FFB27D"/>
<path d="M198.64 86.2106C198.64 86.2106 196.388 84.8254 195.441 85.0457C194.494 85.2556 192.084 86.9977 193.252 87.3755C194.41 87.7533 195.346 87.3545 195.788 87.6273C196.23 87.9002 196.567 88.4039 198.64 88.3934C200.713 88.3829 198.64 86.2106 198.64 86.2106Z" fill="#FFB27D"/>
<path d="M120.161 96.636L133.784 95.5162L132.306 77.6319L118.683 78.7516L120.161 96.636Z" fill="white"/>
<path d="M120.743 95.9484L133.117 94.9313L131.74 78.2602L119.365 79.2773L120.743 95.9484Z" fill="#E7EDFF"/>
<path d="M121.04 87.1765L127.49 86.6464L127.481 86.5418L121.032 87.072L121.04 87.1765Z" fill="#AEC3FF"/>
<path d="M121.08 87.669L127.529 87.1388L127.521 87.0342L121.071 87.5644L121.08 87.669Z" fill="#AEC3FF"/>
<path d="M121.12 88.1729L127.57 87.6429L127.561 87.5384L121.112 88.0683L121.12 88.1729Z" fill="#AEC3FF"/>
<path d="M121.064 85.5529L124.536 85.2676L124.517 85.0375L121.045 85.3228L121.064 85.5529Z" fill="#AEC3FF"/>
<path d="M121.064 86.1561L125.291 85.8088L125.272 85.5787L121.045 85.926L121.064 86.1561Z" fill="#AEC3FF"/>
<path d="M128.819 87.548L131.787 87.3041L131.542 84.3443L128.574 84.5882L128.819 87.548Z" fill="white"/>
<path d="M131.032 85.548L130.327 86.7129L129.222 85.0338L130.411 85.9468L131.032 85.548Z" fill="#233862"/>
<path d="M121.52 93.054L127.969 92.5238L127.961 92.4192L121.511 92.9494L121.52 93.054Z" fill="#AEC3FF"/>
<path d="M121.57 93.5454L128.019 93.0155L128.01 92.9109L121.561 93.4409L121.57 93.5454Z" fill="#AEC3FF"/>
<path d="M121.61 94.0496L128.06 93.5194L128.051 93.4148L121.602 93.945L121.61 94.0496Z" fill="#AEC3FF"/>
<path d="M121.544 91.4301L125.015 91.1448L124.996 90.9147L121.525 91.2L121.544 91.4301Z" fill="#AEC3FF"/>
<path d="M121.544 92.0336L125.77 91.6863L125.751 91.4562L121.525 91.8035L121.544 92.0336Z" fill="#AEC3FF"/>
<path d="M129.309 93.4248L132.276 93.1808L132.032 90.221L129.064 90.4649L129.309 93.4248Z" fill="white"/>
<path d="M131.516 91.4247L130.801 92.5896L129.706 90.9105L130.895 91.8235L131.516 91.4247Z" fill="#233862"/>
<path d="M120.441 82.4063L126.891 81.8761L126.882 81.7715L120.433 82.3017L120.441 82.4063Z" fill="#AEC3FF"/>
<path d="M120.48 82.8985L126.93 82.3685L126.921 82.2639L120.472 82.7939L120.48 82.8985Z" fill="#AEC3FF"/>
<path d="M120.52 83.3921L126.97 82.8619L126.961 82.7574L120.512 83.2875L120.52 83.3921Z" fill="#AEC3FF"/>
<path d="M120.464 80.7719L123.936 80.4866L123.917 80.2565L120.445 80.5418L120.464 80.7719Z" fill="#AEC3FF"/>
<path d="M120.465 81.3856L124.692 81.0383L124.673 80.8082L120.446 81.1555L120.465 81.3856Z" fill="#AEC3FF"/>
<path d="M128.219 82.7778L131.187 82.5338L130.943 79.574L127.975 79.818L128.219 82.7778Z" fill="white"/>
<path d="M130.432 80.7731L129.727 81.938L128.622 80.2589L129.811 81.1719L130.432 80.7731Z" fill="#233862"/>
<path d="M117.594 81.2247C117.826 81.0568 118.015 80.6895 118.257 80.4166C118.436 80.2067 118.784 80.0178 118.784 80.0178C118.784 80.0178 118.815 80.5006 118.857 80.8888C119.573 80.6265 120.646 80.3746 122.372 80.7104C122.719 80.7734 123.024 80.9728 123.214 81.2666C123.393 81.5395 123.456 81.8753 123.014 82.1481C122.14 82.6938 122.393 82.3685 121.172 83.1556C119.952 83.9427 118.457 84.1525 117.573 83.5964L116.374 83.397L116.227 81.4345C116.227 81.4136 116.91 81.3296 117.594 81.2247Z" fill="#FFB27D"/>
<path d="M86.2574 64.7589C86.2574 64.7589 89.0776 68.0961 92.6659 66.7003C92.6659 66.7003 93.434 64.8324 93.4445 63.4681C93.4445 63.3002 93.4445 63.1323 93.4551 62.9749C93.4761 61.4322 93.5287 60.5612 93.5287 60.5612C93.3604 60.4982 88.0358 58.3154 88.0463 58.4938C88.1305 62.681 86.2574 64.7589 86.2574 64.7589Z" fill="#FFB27D"/>
<path d="M88.5724 59.4907C89.088 60.4352 90.8453 62.2927 93.4549 62.9749C93.476 61.4322 93.5286 60.5612 93.5286 60.5612C93.3708 60.5192 88.4145 59.2074 88.5724 59.4907Z" fill="#ED975D"/>
<path d="M94.6441 60.4038C94.6441 60.4038 88.6566 61.81 87.8359 58.074C87.0151 54.338 85.6892 52.0083 89.4774 50.9484C93.2656 49.8989 94.3284 51.1582 94.9072 52.3336C95.4754 53.5195 96.1805 59.942 94.6441 60.4038Z" fill="#FFB27D"/>
<path d="M88.0357 59.092C87.9515 59.1444 86.6677 59.5432 84.2265 54.6844C83.8476 53.9183 83.5846 52.2812 84.479 50.8225C85.3734 49.3637 88.5408 48.2199 91.1715 47.7266C93.8022 47.2334 94.4336 48.7026 95.0544 50.1928C95.7068 51.746 97.5799 53.0368 97.5799 53.0368C95.307 54.2961 92.5816 52.491 91.6345 52.7849C90.6875 53.0787 90.3507 54.5689 90.2771 55.0517C90.2034 55.5239 90.0982 55.9227 88.9091 55.5029C87.72 55.0726 88.3724 57.182 88.5619 57.5913C88.5513 57.5808 88.7197 58.6512 88.0357 59.092Z" fill="#A9453D"/>
<path d="M72.5987 152.198H68.9789C68.2212 152.198 67.3689 151.442 67.1584 150.046C66.948 148.651 65.3801 147.895 65.0433 146.762C64.7066 145.628 66.4429 144.023 66.4429 144.023L66.7375 143.655L67.0427 143.267L69.9154 143.939C69.9154 143.939 69.9891 144.621 70.0312 145.492C70.0627 146.122 70.0838 146.846 70.0417 147.486C69.9575 149.008 70.4731 150.634 71.8201 150.928C73.167 151.222 72.5987 152.198 72.5987 152.198Z" fill="#2C3A64"/>
<path d="M97.8535 152.198H88.2356C88.1409 152.177 88.0778 152.156 88.0357 152.135C87.3938 151.809 87.5937 149.364 87.6674 148.609C87.6779 148.472 87.6885 148.388 87.6885 148.388C87.6885 148.388 91.0663 145.691 91.5398 147.759C91.5503 147.822 91.5714 147.885 91.5924 147.948C92.1817 149.878 94.8019 150.76 96.3172 151.001C97.4747 151.19 97.7799 151.862 97.8535 152.198Z" fill="#2C3A64"/>
<path d="M95.9173 96.903C95.9173 96.903 95.4017 103.294 94.8019 110.976C93.9811 121.407 92.992 134.221 92.8973 136.645C92.7289 140.864 92.0554 147.601 92.0554 147.601C92.0554 147.601 90.4454 149.207 87.236 148.525C87.236 148.525 84.3737 138.901 83.553 128.711C83.5424 128.543 83.5319 128.376 83.5109 128.208C82.7532 117.839 81.5641 96.011 81.5641 96.011L95.9173 96.903Z" fill="#6BB7BF"/>
<path d="M95.9173 96.903C95.9173 96.903 95.4017 103.294 94.8019 110.976L83.553 128.722C83.5424 128.554 83.5319 128.386 83.5109 128.218C82.7532 117.85 81.5641 96.0215 81.5641 96.0215L95.9173 96.903Z" fill="#D8FFFB"/>
<path d="M93.5708 97.6692C93.5708 97.6692 84.3107 120.809 78.2285 131.681C72.1463 142.553 70.2417 145.586 70.2417 145.586C70.2417 145.586 66.7586 144.191 66.4429 143.246C66.4429 143.246 68.7685 122.257 72.8408 117.136C75.1453 114.24 77.8497 105.571 77.976 102.528C78.1022 99.4952 78.7967 93.4924 78.7967 93.4924L93.5708 97.6692Z" fill="#6BB7BF"/>
<path d="M72.4619 93.461L72.3672 94.9512C72.3672 94.9512 73.3564 97.5958 70.5889 98.9496C70.5889 98.9496 69.4103 99.4218 69.3577 98.5088C69.3051 97.5958 69.4629 97.9421 69.3682 96.6513C69.2735 95.3605 69.7786 94.1431 70.6415 93.7338L71.3465 92.9258L72.4619 93.461Z" fill="#FFB27D"/>
<path d="M71.3887 94.5419C72.4094 94.8672 72.5777 94.7937 72.5777 94.7937C72.5777 94.7937 77.5656 85.7371 78.0707 84.908C78.5758 84.079 88.6566 74.76 88.6566 74.76L86.068 65.1262C86.068 65.1262 74.5981 79.9337 73.367 82.0536C71.3255 85.5692 70.1259 93.7233 70.1259 93.7233C70.1259 93.7233 70.5889 94.29 71.3887 94.5419Z" fill="#1E3D70"/>
<path d="M97.8746 78.5486C97.843 80.532 97.7273 82.7463 97.5694 85.0131C97.5589 85.1495 97.5484 85.286 97.5379 85.4119C97.4432 86.8076 97.0117 91.6875 96.9907 91.8869C96.4856 97.0081 95.9595 101.059 95.8542 101.122C95.7385 101.195 95.6017 101.237 95.4649 101.227C94.118 101.059 90.0982 101.363 86.8046 100.65C84.0266 100.062 81.6379 98.9601 79.1019 97.4699C78.7652 97.2705 77.997 96.7458 78.0601 96.3575C78.1233 95.9272 78.239 95.3081 78.3758 94.521C78.8704 91.7924 79.7333 87.112 80.0279 81.6234C80.0805 80.6055 80.1647 79.5875 80.2804 78.6011C80.5646 76.0195 81.017 73.5638 81.6274 71.381C82.7533 67.3301 84.4159 64.2238 86.4889 63.017C86.7625 62.8701 88.2252 63.7936 89.5616 64.6541C90.8033 65.4517 92.1081 65.6615 93.3814 65.5566L94.4968 66.7844C95.8542 68.3586 97.2959 70.447 97.6852 73.4169C97.7168 73.6372 97.7378 73.8681 97.7589 74.12C97.8746 75.3058 97.9062 76.838 97.8746 78.5486Z" fill="#2A4E96"/>
<path d="M97.8746 78.5484C97.8431 80.5318 97.7273 82.7461 97.5695 85.0129C97.559 85.1493 97.5484 85.2858 97.5379 85.4117C89.8352 80.6053 88.6566 71.8215 88.6566 71.8215C92.4448 71.9894 95.4544 72.85 97.7694 74.0988C97.8746 75.3057 97.9062 76.8378 97.8746 78.5484Z" fill="#1E3D70"/>
<path d="M117.31 82.3265C117.394 81.1931 116.795 80.9937 116.795 80.9937C116.795 80.9937 105.188 78.8948 104.209 78.5905C103.22 78.2862 94.7914 69.5339 94.7914 69.5339C94.7914 69.5339 91.5609 65.9029 88.9091 66.7004C86.6046 67.393 85.7102 69.1876 85.405 70.8877C85.0367 72.9236 85.9838 74.9595 87.7411 76.0404C91.6977 78.4646 99.6319 83.2395 101.494 83.7852C105.651 85.0026 116.816 83.8797 116.816 83.8797C116.816 83.8797 117.258 83.229 117.31 82.3265Z" fill="#2A4E96"/>
<path d="M80.3019 58.9033H70V48.6294H80.3019V58.9033ZM70.4314 58.4731H79.881V49.0492H70.4314V58.4731Z" fill="#AFCDFB"/>
<path d="M71.7257 52.5437L75.0825 57.1507L79.0706 49.7837L74.4406 53.9814L71.7257 52.5437Z" fill="#AFCDFB"/>
<path d="M116.302 106.903H106V96.6294H116.302V106.903ZM106.431 106.473H115.881V97.0492H106.431V106.473Z" fill="#AFCDFB"/>
<path d="M107.726 100.544L111.082 105.151L115.071 97.7942L110.441 101.992L107.726 100.544Z" fill="#AFCDFB"/>
</svg>
