<svg width="16" height="16" viewBox="0 0 16 16" fill="none" xmlns="http://www.w3.org/2000/svg">
<path d="M14.3964 15.1036C14.5917 15.2988 14.9083 15.2988 15.1036 15.1036C15.2988 14.9083 15.2988 14.5917 15.1036 14.3964L14.3964 15.1036ZM10.6036 9.89645C10.4083 9.70118 10.0917 9.70118 9.89645 9.89645C9.70118 10.0917 9.70118 10.4083 9.89645 10.6036L10.6036 9.89645ZM15.1036 14.3964L10.6036 9.89645L9.89645 10.6036L14.3964 15.1036L15.1036 14.3964ZM11.25 6.5C11.25 9.12336 9.12336 11.25 6.5 11.25V12.25C9.67564 12.25 12.25 9.67564 12.25 6.5H11.25ZM6.5 11.25C3.87665 11.25 1.75 9.12336 1.75 6.5H0.75C0.75 9.67564 3.32437 12.25 6.5 12.25V11.25ZM1.75 6.5C1.75 3.87665 3.87665 1.75 6.5 1.75V0.75C3.32437 0.75 0.75 3.32437 0.75 6.5H1.75ZM6.5 1.75C9.12336 1.75 11.25 3.87665 11.25 6.5H12.25C12.25 3.32437 9.67564 0.75 6.5 0.75V1.75Z" fill="#BDBDBD"/>
</svg>
