<svg width="16" height="16" viewBox="0 0 16 16" fill="none" xmlns="http://www.w3.org/2000/svg">
<circle cx="8" cy="8" r="7.5" stroke="#BDBDBD"/>
<path fill-rule="evenodd" clip-rule="evenodd" d="M9 4C9 4.55228 8.5523 5 8 5C7.44772 5 7 4.55228 7 4C7 3.44772 7.44772 3 8 3C8.5523 3 9 3.44772 9 4Z" fill="#BDBDBD"/>
<path fill-rule="evenodd" clip-rule="evenodd" d="M7 7C6.44772 7 6 7.44772 6 8C6 8.5523 6.44772 9 7 9V12C7 12.5523 7.44772 13 8 13H9C9.5523 13 10 12.5523 10 12C10 11.4477 9.5523 11 9 11V8C9 7.44772 8.5523 7 8 7H7Z" fill="#BDBDBD"/>
</svg>
