<svg width="278" height="164" viewBox="0 0 278 164" fill="none" xmlns="http://www.w3.org/2000/svg">
<path d="M23.6306 152.325C23.6306 152.325 -4.81261 127.527 0.711882 86.7039C6.43631 44.4327 36.5316 21.9433 75.8029 30.4752C107.898 37.4539 128.575 32.9729 161.764 13.0336C216.188 -19.6772 286.344 15.7307 267.992 79.106C259.111 109.77 296.383 124.924 265.182 152.388L23.6306 152.325Z" fill="#2F6F68"/>
<g clip-path="url(#clip0_1997_15965)">
<path d="M66.5412 148.212V122.918C66.5412 118.637 63.0566 115.167 58.7582 115.167C54.4599 115.167 50.9752 118.637 50.9752 122.918C50.9752 123.491 51.042 124.048 51.1606 124.586C50.8151 124.521 50.4599 124.484 50.0954 124.484C48.197 124.484 46.5186 125.403 45.471 126.816C44.7033 124.551 42.557 122.918 40.024 122.918C37.6316 122.918 35.5815 124.373 34.714 126.443C34.0127 125.438 32.8463 124.778 31.5242 124.778C29.3791 124.778 27.64 126.51 27.64 128.647C27.64 128.846 27.6595 129.039 27.6887 129.23C27.1777 128.984 26.6068 128.842 26.0011 128.842C23.8559 128.842 22.1168 130.574 22.1168 132.71C22.1168 132.943 22.1409 133.171 22.1807 133.392C21.2088 132.957 20.1344 132.71 19 132.71V148.212H66.5412Z" fill="#1D3A37"/>
<path d="M256.651 137.555C256.759 137.184 256.82 136.793 256.82 136.387C256.82 134.053 254.92 132.161 252.576 132.161C252.12 132.161 251.681 132.235 251.268 132.368C251.313 132.045 251.344 131.718 251.344 131.383C251.344 127.412 248.111 124.192 244.122 124.192C241.621 124.192 239.419 125.458 238.122 127.38C237.482 126.443 236.403 125.828 235.18 125.828C234.492 125.828 233.853 126.026 233.308 126.362C233.159 123.448 230.747 121.129 227.784 121.129C227.229 121.129 226.693 121.212 226.187 121.364C226.378 120.712 226.486 120.025 226.486 119.312C226.486 115.262 223.189 111.979 219.122 111.979C215.055 111.979 211.759 115.262 211.759 119.312V149.468H258.88V137.137C258.094 137.137 257.344 137.289 256.651 137.555Z" fill="#1D3A37"/>
<path d="M19 146.664H258.88V152.271H19V146.664Z" fill="#94CBC5"/>
<path d="M160.406 146.664H203.929V152.271H160.406V146.664Z" fill="#1D3A37"/>
<path d="M58.7578 146.665H219.121V40.8693H58.7578V146.665Z" fill="#E4E2E0"/>
<path d="M71.9043 134.85H155.455V70.6411H71.9043V134.85Z" fill="#1D3A37"/>
<path d="M75.6025 131.166H151.754V74.3248H75.6025V131.166Z" fill="white"/>
<path d="M79.3037 127.481H148.058V78.0085H79.3037V127.481Z" fill="#94CBC5"/>
<path d="M125.158 78.0085L79.3037 123.674V127.481H81.1685L130.847 78.0085H125.158Z" fill="#B5E6E5"/>
<path d="M116.618 78.0088H107.116L79.3037 105.706V115.168L116.618 78.0088Z" fill="#B5E6E5"/>
<path d="M148.057 114.532V88.0586L108.471 127.481H135.053L148.057 114.532Z" fill="#B5E6E5"/>
<path d="M145.167 78.0085H139.478L89.7998 127.481H95.4883L145.167 78.0085Z" fill="#B5E6E5"/>
<path d="M150.247 103.462H77.1094V102.029H150.247V103.462Z" fill="white"/>
<path d="M93.9219 130.213H95.3612V72.0511H93.9219V130.213Z" fill="white"/>
<path d="M131.997 130.213H133.436V72.0511H131.997V130.213Z" fill="white"/>
<path d="M112.959 130.213H114.398V72.0511H112.959V130.213Z" fill="white"/>
<path d="M58.7578 146.665H219.121V131.166H58.7578V146.665Z" fill="#2F6F68"/>
<path d="M160.406 146.665H203.929V63.299H160.406V146.665Z" fill="#1D3A37"/>
<path d="M164.445 146.665H199.887V61.8256H164.445V146.665Z" fill="white"/>
<path d="M168.146 142.983H196.189V65.5113H168.146V142.983Z" fill="#94CBC5"/>
<path d="M196.189 88.437H190.848L168.146 111.045V118.487L196.189 90.5593V88.437Z" fill="#B5E6E5"/>
<path d="M196.189 104.783V97.3406L168.146 125.269V132.711L196.189 104.783Z" fill="#B5E6E5"/>
<path d="M177.512 142.983H196.189V124.383L177.512 142.983Z" fill="#B5E6E5"/>
<path d="M199.887 114.299H164.445V106.934H199.887V114.299Z" fill="white"/>
<path d="M175.77 110.44C175.77 110.905 175.395 111.279 174.925 111.279H167.523C167.056 111.279 166.682 110.905 166.682 110.44C166.682 109.976 167.056 109.6 167.523 109.6H174.925C175.395 109.6 175.77 109.976 175.77 110.44Z" fill="#AAB4B2"/>
<path d="M215.213 99.8047C211.71 99.8047 208.87 96.9734 208.87 93.4851C208.87 96.4918 206.756 99.0101 203.929 99.6485V88.1168H208.87H219.122V98.4311C218.039 99.2758 216.695 99.8047 215.213 99.8047Z" fill="#92C0C3"/>
<path d="M202.522 99.8047C201.582 99.8047 200.689 99.6007 199.887 99.2347V88.1168H203.929V99.6485C203.476 99.7507 203.006 99.8047 202.522 99.8047Z" fill="#1D3A37"/>
<path d="M199.886 99.2344C197.807 98.2869 196.331 96.254 196.188 93.8646V90.5584V88.4361V88.1165H199.886V99.2344Z" fill="#92C0C3"/>
<path d="M155.454 98.6182V88.1166H160.406V98.3602C158.996 97.2006 158.098 95.4467 158.098 93.4849C158.098 95.5981 157.055 97.4705 155.454 98.6182Z" fill="#92C0C3"/>
<path d="M151.754 99.8047V88.1168H155.454V98.6184C154.413 99.3647 153.135 99.8047 151.754 99.8047Z" fill="#1D3A37"/>
<path d="M151.754 99.8047C150.375 99.8047 149.099 99.3656 148.058 98.6208V88.1168H151.754V99.8047Z" fill="#92C0C3"/>
<path d="M136.713 99.3564C135.299 98.7951 134.136 97.742 133.437 96.41V89.6905L135.017 88.1167H145.41H147.999L136.713 99.3564Z" fill="#94CBC5"/>
<path d="M139.064 99.8047C138.233 99.8047 137.44 99.6456 136.713 99.3565L147.999 88.1168H148.058V98.6208C146.455 97.4731 145.41 95.5998 145.41 93.4851C145.41 96.9734 142.566 99.8047 139.064 99.8047Z" fill="#92C0C3"/>
<path d="M133.437 89.6904V88.1166H135.017L133.437 89.6904Z" fill="#92C0C3"/>
<path d="M126.371 99.8047C125.462 99.8047 124.597 99.614 123.816 99.271L131.996 91.1239V96.4101C130.937 98.4273 128.815 99.8047 126.371 99.8047ZM114.397 99.7645V94.3891L120.696 88.1168H129.328L120.834 96.5749C120.319 95.6614 120.025 94.6074 120.025 93.4851C120.025 96.7311 117.564 99.4086 114.397 99.7645ZM114.397 88.7241V88.1168H115.007L114.397 88.7241Z" fill="#94CBC5"/>
<path d="M114.397 94.3896V88.7246L115.007 88.1174H120.696L114.397 94.3896Z" fill="#92C0C3"/>
<path d="M123.816 99.2715C122.553 98.7177 121.506 97.7655 120.835 96.5754L129.328 88.1173H131.997V91.1244L123.816 99.2715Z" fill="#92C0C3"/>
<path d="M62.9092 99.8047C61.3125 99.8047 59.8742 99.1974 58.7578 98.229V88.1168H69.2549H71.9037V98.6217C70.2998 97.4746 69.2549 95.6007 69.2549 93.4851C69.2549 96.9734 66.4137 99.8047 62.9092 99.8047Z" fill="#92C0C3"/>
<path d="M75.6013 99.8047C74.222 99.8047 72.9454 99.3661 71.9043 98.6217V88.1168H75.6028V99.8047C75.6023 99.8047 75.6018 99.8047 75.6013 99.8047Z" fill="#1D3A37"/>
<path d="M75.6025 99.8047V88.1168H79.3034V98.6174C78.2618 99.3642 76.9838 99.8042 75.6025 99.8047Z" fill="#92C0C3"/>
<path d="M100.987 99.8047C99.2569 99.8047 97.6891 99.1153 96.5449 97.9977L106.467 88.1168H107.333H112.959V90.1574L107.646 95.4488C107.443 94.8305 107.333 94.1707 107.333 93.4851C107.333 94.5993 107.043 95.6461 106.534 96.5553L104.07 99.0097C103.157 99.5161 102.106 99.8047 100.987 99.8047ZM112.959 99.7645C111.898 99.6451 110.916 99.2648 110.079 98.69L112.959 95.8224V99.7645ZM85.757 99.2791C83.5136 98.304 81.9467 96.0756 81.9467 93.4851C81.9467 95.5979 80.9047 97.4698 79.3037 98.6174V88.1168H81.9467H93.922V91.1478L85.757 99.2791ZM95.3613 89.7145V88.1168H96.9656L95.3613 89.7145Z" fill="#94CBC5"/>
<path d="M104.069 99.0098L106.534 96.5554C105.959 97.5841 105.103 98.4364 104.069 99.0098ZM110.079 98.6901C108.947 97.9118 108.081 96.7771 107.645 95.4489L112.958 90.1575V95.8225L110.079 98.6901Z" fill="#92C0C3"/>
<path d="M88.2948 99.8047C87.3923 99.8047 86.5336 99.6169 85.7568 99.2791L93.9219 91.1478V96.4101C92.8621 98.4273 90.7401 99.8047 88.2948 99.8047ZM96.5447 97.9977C96.0717 97.5357 95.6711 97.0006 95.3612 96.4106V89.7145L96.9655 88.1168H106.467L96.5447 97.9977Z" fill="#92C0C3"/>
<path d="M95.3612 96.4102C94.9015 95.5353 94.6415 94.5401 94.6415 93.4847C94.6415 94.5401 94.3815 95.5349 93.9219 96.4097V91.1474V88.1164H94.6415H95.3612V89.7141V96.4102Z" fill="#C9CCD1"/>
<path d="M133.436 96.4102C132.977 95.5353 132.717 94.5406 132.717 93.4852C132.717 94.5406 132.457 95.5353 131.997 96.4102V91.124V88.1169H132.717H133.436V89.6907V96.4102Z" fill="#C9CCD1"/>
<path d="M113.679 99.8047C113.435 99.8047 113.195 99.7908 112.959 99.7645V95.8224V90.1574V88.1168H114.398V88.7241V94.3891V99.7645C114.162 99.7908 113.922 99.8047 113.679 99.8047Z" fill="#C9CCD1"/>
<path d="M164.445 99.8047C162.911 99.8047 161.503 99.2624 160.406 98.3604V88.1168H164.445V99.8047Z" fill="#1D3A37"/>
<path d="M164.445 99.8047V88.1168H168.146V98.6212C167.105 99.3656 165.827 99.8047 164.445 99.8047Z" fill="#92C0C3"/>
<path d="M189.831 99.8047C188.967 99.8047 188.142 99.6322 187.391 99.3207L196.189 90.5587V93.865C196.182 93.7393 196.178 93.6127 196.178 93.4851C196.178 96.9734 193.338 99.8047 189.831 99.8047ZM177.14 99.8047C173.633 99.8047 170.793 96.9734 170.793 93.4851C170.793 95.6002 169.749 97.4741 168.146 98.6212V88.1168H170.793H183.484H196.178H196.189V88.4364H190.848L183.799 95.4564C183.594 94.8358 183.484 94.1731 183.484 93.4851C183.484 94.6084 183.189 95.6628 182.673 96.5773L180.242 98.9982C179.325 99.5118 178.267 99.8047 177.14 99.8047Z" fill="#94CBC5"/>
<path d="M187.391 99.3213C185.697 98.618 184.375 97.2052 183.799 95.457L190.848 88.437H196.189V90.5593L187.391 99.3213ZM180.242 98.9988L182.673 96.5779C182.102 97.5898 181.258 98.4298 180.242 98.9988Z" fill="#92C0C3"/>
<path d="M58.7578 59.5947H219.121V46.3278H58.7578V59.5947Z" fill="#C3C3C0"/>
<path d="M223.521 56.3682H54.3594V40.8695H223.521V56.3682Z" fill="#E4E2E0"/>
<path d="M223.521 50.79H54.3594V46.4475H223.521V50.79Z" fill="#2F6F68"/>
<path d="M206.82 61.826H70.8143L43.751 82.2744H233.889L206.82 61.826Z" fill="white"/>
<path d="M206.819 61.826H197.754L221.209 82.2744H233.888L206.819 61.826Z" fill="#2F6F68"/>
<path d="M188.684 61.826H179.621L195.858 82.2744H208.535L188.684 61.826Z" fill="#2F6F68"/>
<path d="M170.552 61.826H161.486L170.509 82.2744H183.182L170.552 61.826Z" fill="#2F6F68"/>
<path d="M152.416 61.826H143.354L145.155 82.2744H157.832L152.416 61.826Z" fill="#2F6F68"/>
<path d="M125.218 61.826L119.804 82.2744H132.481L134.284 61.826H125.218Z" fill="#2F6F68"/>
<path d="M107.083 61.826L94.4541 82.2744H107.127L116.153 61.826H107.083Z" fill="#2F6F68"/>
<path d="M88.9483 61.826L69.1006 82.2744H81.7773L98.0157 61.826H88.9483Z" fill="#2F6F68"/>
<path d="M70.8143 61.826L43.751 82.2744H56.4244L79.8804 61.826H70.8143Z" fill="#2F6F68"/>
<path d="M56.4403 87.6428C56.4403 91.1306 53.5992 93.96 50.0947 93.96C46.5902 93.96 43.751 91.1306 43.751 87.6428V82.2745H56.4403V87.6428Z" fill="#1D3A37"/>
<path d="M69.1334 87.6428C69.1334 91.1306 66.2924 93.96 62.7878 93.96C59.2833 93.96 56.4404 91.1306 56.4404 87.6428V82.2745H69.1334V87.6428Z" fill="#D3D2CF"/>
<path d="M81.8239 87.6428C81.8239 91.1306 78.9828 93.96 75.4786 93.96C71.974 93.96 69.1328 91.1306 69.1328 87.6428V82.2745H81.8239V87.6428Z" fill="#1D3A37"/>
<path d="M94.5187 87.6428C94.5187 91.1306 91.678 93.96 88.1719 93.96C84.6654 93.96 81.8242 91.1306 81.8242 87.6428V82.2745H94.5187V87.6428Z" fill="#D3D2CF"/>
<path d="M107.21 87.6428C107.21 91.1306 104.369 93.96 100.864 93.96C97.3578 93.96 94.5186 91.1306 94.5186 87.6428V82.2745H107.21V87.6428Z" fill="#1D3A37"/>
<path d="M119.902 87.6428C119.902 91.1306 117.061 93.96 113.556 93.96C110.051 93.96 107.21 91.1306 107.21 87.6428V82.2745H119.902V87.6428Z" fill="#D3D2CF"/>
<path d="M132.593 87.6428C132.593 91.1306 129.753 93.96 126.248 93.96C122.743 93.96 119.902 91.1306 119.902 87.6428V82.2745H132.593V87.6428Z" fill="#1D3A37"/>
<path d="M145.287 87.6428C145.287 91.1306 142.444 93.96 138.94 93.96C135.435 93.96 132.594 91.1306 132.594 87.6428V82.2745H145.287V87.6428Z" fill="#D3D2CF"/>
<path d="M157.976 87.6428C157.976 91.1306 155.135 93.96 151.631 93.96C148.128 93.96 145.287 91.1306 145.287 87.6428V82.2745H157.976V87.6428Z" fill="#1D3A37"/>
<path d="M170.671 87.6428C170.671 91.1306 167.833 93.96 164.323 93.96C160.818 93.96 157.977 91.1306 157.977 87.6428V82.2745H170.671V87.6428Z" fill="#D3D2CF"/>
<path d="M183.361 87.6428C183.361 91.1306 180.52 93.96 177.017 93.96C173.511 93.96 170.671 91.1306 170.671 87.6428V82.2745H183.361V87.6428Z" fill="#1D3A37"/>
<path d="M196.056 87.6428C196.056 91.1306 193.216 93.96 189.709 93.96C186.203 93.96 183.361 91.1306 183.361 87.6428V82.2745H196.056V87.6428Z" fill="#D3D2CF"/>
<path d="M208.747 87.6428C208.747 91.1306 205.903 93.96 202.399 93.96C198.897 93.96 196.056 91.1306 196.056 87.6428V82.2745H208.747V87.6428Z" fill="#1D3A37"/>
<path d="M221.438 87.6428C221.438 91.1306 218.597 93.96 215.091 93.96C211.588 93.96 208.747 91.1306 208.747 87.6428V82.2745H221.438V87.6428Z" fill="#D3D2CF"/>
<path d="M234.13 87.6428C234.13 91.1306 231.292 93.96 227.786 93.96C224.28 93.96 221.438 91.1306 221.438 87.6428V82.2745H234.13V87.6428Z" fill="#1D3A37"/>
</g>
<defs>
<clipPath id="clip0_1997_15965">
<rect width="240" height="129" fill="white" transform="translate(19 35)"/>
</clipPath>
</defs>
</svg>
