<svg width="12" height="16" viewBox="0 0 12 16" fill="none" xmlns="http://www.w3.org/2000/svg">
<path d="M5 0C4.44772 0 4 0.44772 4 1C4 1.55228 4.44772 2 5 2H7C7.5523 2 8 1.55228 8 1C8 0.44772 7.5523 0 7 0H5Z" fill="white"/>
<path fill-rule="evenodd" clip-rule="evenodd" d="M0 3C0 1.89543 0.89543 1 2 1C2 2.65685 3.34315 4 5 4H7C8.6569 4 10 2.65685 10 1C11.1046 1 12 1.89543 12 3V14C12 15.1046 11.1046 16 10 16H2C0.89543 16 0 15.1046 0 14V3ZM9.7071 8.7071C10.0976 8.3166 10.0976 7.68342 9.7071 7.29289C9.3166 6.90237 8.6834 6.90237 8.2929 7.29289L5 10.5858L3.70711 9.2929C3.31658 8.9024 2.68342 8.9024 2.29289 9.2929C1.90237 9.6834 1.90237 10.3166 2.29289 10.7071L4.29289 12.7071C4.68342 13.0976 5.31658 13.0976 5.70711 12.7071L9.7071 8.7071Z" fill="white"/>
</svg>
