<svg width="27" height="27" viewBox="0 0 27 27" fill="none" xmlns="http://www.w3.org/2000/svg">
<path d="M25.875 0.375C26.2892 0.375 26.625 0.710786 26.625 1.125C26.625 1.53921 26.2892 1.875 25.875 1.875V0.375ZM23.125 1.125L22.3896 0.977913C22.4597 0.627345 22.7675 0.375 23.125 0.375V1.125ZM23.3104 4.02209C23.2292 4.42826 22.8341 4.69167 22.4279 4.61044C22.0217 4.5292 21.7583 4.13408 21.8396 3.72791L23.3104 4.02209ZM20.375 14.125C20.7892 14.125 21.125 14.4608 21.125 14.875C21.125 15.2892 20.7892 15.625 20.375 15.625V14.125ZM6.62499 14.875V15.625C6.34091 15.625 6.08121 15.4645 5.95417 15.2104L6.62499 14.875ZM1.12499 3.875L0.45417 4.21041C0.337925 3.97792 0.350348 3.70181 0.487001 3.4807C0.623657 3.25959 0.865057 3.125 1.12499 3.125V3.875ZM22.575 3.125C22.9892 3.125 23.325 3.46079 23.325 3.875C23.325 4.28921 22.9892 4.625 22.575 4.625V3.125ZM21.1104 15.0221C21.0292 15.4283 20.6341 15.6917 20.2279 15.6104C19.8217 15.5292 19.5583 15.1341 19.6396 14.7279L21.1104 15.0221ZM21.8396 3.72791C21.9208 3.32174 22.3159 3.05833 22.7221 3.13956C23.1282 3.2208 23.3917 3.61592 23.3104 4.02209L21.8396 3.72791ZM19.8447 15.4053C19.5518 15.1124 19.5518 14.6376 19.8447 14.3447C20.1376 14.0518 20.6124 14.0518 20.9053 14.3447L19.8447 15.4053ZM23.5277 18.0277L24.058 17.4974L24.0581 17.4974L23.5277 18.0277ZM6.62499 21.125C6.21078 21.125 5.87499 20.7892 5.87499 20.375C5.87499 19.9608 6.21078 19.625 6.62499 19.625V21.125ZM25.875 1.875H23.125V0.375H25.875V1.875ZM23.8604 1.27209L23.3104 4.02209L21.8396 3.72791L22.3896 0.977913L23.8604 1.27209ZM20.375 15.625H6.62499V14.125H20.375V15.625ZM5.95417 15.2104L0.45417 4.21041L1.79581 3.53959L7.29581 14.5396L5.95417 15.2104ZM1.12499 3.125H22.575V4.625H1.12499V3.125ZM19.6396 14.7279L21.8396 3.72791L23.3104 4.02209L21.1104 15.0221L19.6396 14.7279ZM20.9053 14.3447L24.058 17.4974L22.9974 18.5581L19.8447 15.4053L20.9053 14.3447ZM24.0581 17.4974C25.3967 18.8361 24.4486 21.125 22.5555 21.125V19.625C23.1123 19.625 23.3911 18.9518 22.9974 18.5581L24.0581 17.4974ZM22.5555 21.125H6.62499V19.625H22.5555V21.125ZM6.625 19.625C8.55804 19.625 10.125 21.192 10.125 23.125H8.625C8.625 22.0204 7.72961 21.125 6.625 21.125V19.625ZM10.125 23.125C10.125 25.058 8.55804 26.625 6.625 26.625V25.125C7.72961 25.125 8.625 24.2296 8.625 23.125H10.125ZM6.625 26.625C4.69196 26.625 3.125 25.058 3.125 23.125H4.625C4.625 24.2296 5.52039 25.125 6.625 25.125V26.625ZM3.125 23.125C3.125 21.192 4.69196 19.625 6.625 19.625V21.125C5.52039 21.125 4.625 22.0204 4.625 23.125H3.125ZM18.375 23.125C18.375 24.2296 19.2704 25.125 20.375 25.125V26.625C18.442 26.625 16.875 25.058 16.875 23.125H18.375ZM20.375 25.125C21.4796 25.125 22.375 24.2296 22.375 23.125H23.875C23.875 25.058 22.308 26.625 20.375 26.625V25.125ZM22.375 23.125C22.375 22.0204 21.4796 21.125 20.375 21.125V19.625C22.308 19.625 23.875 21.192 23.875 23.125H22.375ZM20.375 21.125C19.2704 21.125 18.375 22.0204 18.375 23.125H16.875C16.875 21.192 18.442 19.625 20.375 19.625V21.125Z" fill="#495464"/>
</svg>
