<svg width="176" height="39" viewBox="0 0 176 39" fill="none" xmlns="http://www.w3.org/2000/svg">
<path d="M23.8507 39C22.4904 39 21.3539 38.1005 21.0784 36.7937L16.3603 14.5953C15.8437 14.5104 15.3443 14.4086 14.8277 14.2559C13.7601 13.9674 12.6581 13.5601 11.556 13.017C9.76523 12.1514 7.90553 10.9634 6.01139 9.48695C3.08408 7.17885 1.05219 4.9047 0.673358 4.46345C0.173994 3.88642 -0.0498588 3.1906 0.019019 2.47781C0.0878968 1.76501 0.415066 1.10313 0.966089 0.644909C1.46545 0.220627 2.08535 0 2.73969 0C3.53179 0 4.28944 0.339426 4.80603 0.916449L4.961 1.08616C5.0471 1.18799 5.18485 1.34073 5.37427 1.52742C5.71866 1.88381 6.25246 2.44386 6.94124 3.10574C8.1466 4.25979 10.0407 5.88903 12.1932 7.19582C13.6224 8.07833 15.0344 8.70627 16.2742 9.04569C17.0318 9.24935 17.7378 9.35117 18.4094 9.35117C18.5988 9.35117 18.7882 9.3342 18.9776 9.31723L20.1658 9.19843C21.2334 9.09661 22.1632 9.01175 23.0242 8.94386C24.3673 8.84204 25.3833 8.79112 26.3303 8.79112C27.949 8.79112 29.4643 8.94386 31.1518 9.26632C32.736 9.5718 34.5957 10.047 37.368 10.8616C38.0912 11.0653 38.9005 11.1841 39.7959 11.1841C41.3285 11.1841 43.1537 10.8616 45.0995 10.2507C46.7698 9.72454 48.5606 8.99478 50.4376 8.06136C53.7609 6.41514 56.1716 4.71802 56.2061 4.70104C56.671 4.36162 57.222 4.19191 57.8075 4.19191C58.6857 4.19191 59.5122 4.61619 60.0288 5.31201C60.907 6.51697 60.6315 8.2141 59.3917 9.07963C59.1334 9.26632 57.7214 10.2337 55.6034 11.4386C52.5556 13.1697 49.611 14.4765 46.8731 15.359C44.2902 16.1736 42 16.564 39.8476 16.5809L26.227 37.6932C25.6932 38.5078 24.815 39 23.8507 39ZM25.1078 29.3943L34.0447 15.5457C32.3916 15.0875 31.1518 14.782 30.1014 14.5783C28.7066 14.3068 27.6218 14.205 26.3303 14.205V13.3564V14.205C25.5555 14.205 24.6773 14.2559 23.4891 14.3407C23.007 14.3747 22.4904 14.4256 21.9394 14.4765L25.1078 29.3943Z" fill="#2F6F68"/>
<path d="M128.406 20.7733C128.233 16.9718 125.719 13.9509 121.828 12.9326C120.605 12.6101 119.383 12.4404 118.212 12.4404C116.266 12.4404 114.389 12.8817 112.632 13.7642C109.636 15.2407 107.329 17.2433 105.796 19.7041C104.264 22.131 103.472 25.0501 103.42 28.3425C103.334 33.2133 106.227 36.9979 110.945 38.2537C112.013 38.5423 113.115 38.678 114.234 38.678C115.215 38.678 116.231 38.5592 117.247 38.3386C121.518 37.4052 124.772 34.9274 126.925 30.9561L127.114 30.5997L126.735 30.4639C126.374 30.3451 126.012 30.2263 125.65 30.1075C124.824 29.853 124.049 29.5984 123.291 29.2929C123.033 29.1911 122.775 29.1402 122.499 29.1402C122.103 29.1402 121.724 29.2929 121.466 29.5814C121.328 29.7342 121.225 29.8869 121.173 29.9718C119.899 31.9235 117.626 33.1284 115.233 33.1284C114.234 33.1284 113.252 32.9078 112.391 32.4835C110.824 31.7028 109.74 29.9887 109.74 28.3255V27.477H117.833C119.038 27.477 120.45 27.477 121.948 27.477H124.479C125.203 27.477 125.943 27.477 126.684 27.477H126.701C127.217 27.477 127.923 27.3752 128.009 26.4248C128.061 25.8308 128.13 25.2198 128.199 24.6428C128.319 23.3699 128.457 22.0631 128.406 20.7733ZM110.669 22.5723L111.41 21.2994C112.667 19.1611 114.992 17.8543 117.471 17.8543C118.143 17.8543 118.814 17.9561 119.434 18.1597C121.07 18.6859 122.172 20.1114 122.207 21.7237L122.224 22.5893H110.669V22.5723Z" fill="#2F6F68"/>
<path d="M64.5557 38.6777C63.4365 38.6777 62.2828 38.5249 61.1463 38.2534C56.4454 37.0654 53.5009 33.2129 53.4492 28.1724C53.3975 21.6385 57.6852 15.5458 63.9014 13.3565C65.6061 12.7625 67.2936 12.457 68.9467 12.457C70.066 12.457 71.2025 12.5928 72.3045 12.8813C77.4531 14.1881 80.2254 18.4818 79.9327 24.6594V24.6764C79.2267 30.9557 75.3868 35.6398 69.1361 37.88C67.6552 38.4061 66.1055 38.6777 64.5557 38.6777ZM67.9652 18.2612C66.3121 18.2612 64.7968 18.8043 63.4365 19.8905C61.0774 21.7743 59.9237 24.4048 60.0098 27.6972C60.0787 30.3108 61.439 32.0928 63.8153 32.7038C64.3319 32.8395 64.8485 32.9074 65.3823 32.9074C66.2433 32.9074 67.1387 32.7207 68.0513 32.3643C71.2886 31.0915 73.4065 27.7312 73.4238 23.8108C73.441 20.8408 71.9601 18.8552 69.36 18.397C68.895 18.2952 68.4129 18.2612 67.9652 18.2612Z" fill="#2F6F68"/>
<path d="M127.803 37.9483L132.245 13.1532H138.53L138.152 15.3425L139.822 14.1885C141.509 13.0344 143.421 12.4404 145.487 12.4404C146.193 12.4404 146.916 12.5083 147.657 12.6441C151.101 13.272 153.288 16.0044 153.201 19.6362C153.167 21.3503 152.857 23.0644 152.564 24.7276C152.495 25.084 152.444 25.4404 152.375 25.7799C151.91 28.5631 151.393 31.3804 150.894 34.1127L150.842 34.3843C150.67 35.3856 150.481 36.3699 150.309 37.3712C150.291 37.4561 150.274 37.524 150.24 37.5919C150.222 37.6258 150.222 37.6597 150.205 37.6767L150.119 37.9143H143.748L144.42 34.1806C144.867 31.6349 145.332 29.1062 145.78 26.5775L145.866 26.0514C146.055 24.9992 146.245 23.913 146.417 22.8269C146.641 21.3164 146.4 20.0945 145.711 19.2968C145.091 18.584 144.11 18.2107 142.87 18.2107C142.388 18.2107 141.871 18.2616 141.32 18.3804C138.772 18.9404 137.291 20.7224 136.705 24.0148C136.137 27.1715 135.551 30.413 135 33.5188C134.828 34.5031 134.432 36.7433 134.226 37.8804H127.803V37.9483Z" fill="#2F6F68"/>
<path d="M82.7395 37.9988C82.0163 37.9818 81.2587 37.9818 80.2771 37.9818C79.7606 37.9818 79.244 37.9818 78.7102 37.9818C78.1591 37.9818 77.5909 37.9818 77.0227 37.9818H76.2822L76.7472 37.4218C76.8333 37.3199 76.9193 37.2181 76.9882 37.1163L77.0054 37.0993C77.1604 36.9126 77.281 36.7599 77.4187 36.6072C78.1247 35.8265 78.8479 35.0288 79.5539 34.2481L79.7089 34.0784C82.0852 31.4479 84.5476 28.7325 87.0272 26.068C87.1821 25.9152 87.2855 25.7795 87.3543 25.6437L87.5265 25.3382L87.4404 25.0158C87.406 24.88 87.3371 24.7103 87.2166 24.5236C85.8046 22.0458 84.4098 19.5171 83.0667 17.0732C82.6018 16.2077 82.1196 15.3591 81.6547 14.4936C81.5686 14.3239 81.4825 14.1542 81.3792 13.9675C81.3275 13.8656 81.2759 13.7808 81.2242 13.662L80.9659 13.1698H88.5425L92.4341 20.6372L93.9666 18.8891C95.4303 17.209 96.9284 15.4949 98.392 13.7638C98.7881 13.2886 99.2358 13.085 99.8557 13.085H99.9073C100.631 13.1019 101.388 13.1019 102.404 13.1019C102.852 13.1019 103.317 13.1019 103.782 13.1019H103.971C104.522 13.1019 105.09 13.1019 105.659 13.1019H106.399L105.917 13.662C105.814 13.7808 105.727 13.8996 105.641 13.9844L105.624 14.0014C105.452 14.2051 105.314 14.3748 105.159 14.5275L103.076 16.8017C100.682 19.4492 98.2198 22.1816 95.7574 24.88C95.7402 24.9139 95.7058 24.9309 95.6886 24.9479L95.3097 25.3891L95.6025 25.9322C97.1005 28.6137 98.5814 31.3461 100.011 33.9936C100.476 34.8591 100.958 35.7246 101.423 36.5902C101.509 36.7429 101.595 36.9126 101.698 37.1163L101.888 37.4897L102.146 37.9818H101.595C101.078 37.9818 100.579 37.9818 100.08 37.9818C99.5801 37.9818 99.098 37.9818 98.6331 37.9818C97.6516 37.9818 96.4806 37.9818 95.2753 37.9479C94.8276 37.9309 94.4315 37.4727 94.2766 37.2012C93.4328 35.6228 92.5718 33.9936 91.7625 32.4322L90.5227 30.0732L89.6962 31.0406C89.214 31.6006 88.7319 32.1437 88.2497 32.7038C86.9583 34.1972 85.6324 35.7246 84.3237 37.2521C84.0138 37.6085 83.5833 37.9818 82.8084 37.9988H82.7395Z" fill="#2F6F68"/>
<path d="M163.361 38.6435C162.982 38.6435 162.603 38.6265 162.224 38.5926C160.313 38.4398 158.832 37.9986 157.575 37.2179C155.56 35.962 154.441 34.1291 154.217 31.7362C154.166 31.1252 154.441 30.7518 155.027 30.5991C156.111 30.3276 157.179 30.056 158.316 29.7675L160.037 29.3263L160.072 29.7166C160.313 31.9907 161.983 33.586 164.118 33.586C164.997 33.586 165.875 33.3145 166.667 32.7884C166.96 32.6017 167.252 32.3302 167.459 32.0586C167.976 31.4137 168.148 30.7179 167.976 30.1239C167.786 29.5299 167.27 29.0717 166.512 28.8341C165.789 28.5965 165.066 28.4437 164.291 28.274C163.86 28.1722 163.412 28.0873 162.965 27.9685L162.672 27.9007C162.018 27.7309 161.346 27.5612 160.709 27.3067C157.213 25.915 155.819 22.8941 157.059 19.449C158.384 15.7662 161.277 13.4581 165.668 12.6265C166.357 12.4907 167.046 12.4229 167.735 12.4229C169.078 12.4229 170.404 12.6774 171.695 13.1866C174.295 14.2048 175.742 16.1056 175.983 18.855C176.017 19.2114 175.724 19.7714 175.363 19.8902C174.226 20.2296 173.107 20.5182 171.936 20.8406C171.574 20.9424 171.213 21.0273 170.851 21.1291L170.524 21.214L170.421 20.9085C170.386 20.8236 170.369 20.7388 170.335 20.6539C170.283 20.4842 170.231 20.3315 170.197 20.1787C169.835 18.5155 168.888 17.7349 166.994 17.6161C166.891 17.6161 166.787 17.5991 166.684 17.5991C164.979 17.5991 163.481 18.4986 163.034 19.8054C162.793 20.4842 162.948 20.9764 163.103 21.2649C163.361 21.7401 163.877 22.0795 164.601 22.2492C165.289 22.4189 165.995 22.5547 166.684 22.6905C167.115 22.7753 167.545 22.8602 167.958 22.945C168.389 23.0299 168.854 23.1487 169.319 23.2845C171.661 24.0142 173.365 25.4059 174.089 27.2388C174.812 29.0717 174.553 31.227 173.331 33.3315C171.402 36.6578 167.683 38.6435 163.361 38.6435Z" fill="#2F6F68"/>
</svg>
