<svg width="31" height="30" viewBox="0 0 31 30" fill="none" xmlns="http://www.w3.org/2000/svg">
<circle cx="15.4998" cy="15" r="15" fill="#2F6F68"/>
<circle cx="15.4998" cy="15" r="13" fill="white"/>
<path fill-rule="evenodd" clip-rule="evenodd" d="M8.71558 12.6473C8.71558 11.8314 9.37697 11.17 10.1928 11.17H10.8795C11.3734 11.17 11.8347 10.9232 12.1087 10.5122L12.7088 9.61193C12.9828 9.20095 13.4441 8.9541 13.938 8.9541H16.7886C17.2825 8.9541 17.7438 9.20095 18.0177 9.61193L18.618 10.5122C18.8919 10.9232 19.3532 11.17 19.8471 11.17H20.5338C21.3497 11.17 22.011 11.8314 22.011 12.6473V19.295C22.011 20.1109 21.3497 20.7723 20.5338 20.7723H10.1928C9.37697 20.7723 8.71558 20.1109 8.71558 19.295V12.6473Z" stroke="#2F6F68" stroke-width="1.5" stroke-linecap="round" stroke-linejoin="round"/>
<path fill-rule="evenodd" clip-rule="evenodd" d="M17.5793 15.6017C17.5793 16.8255 16.5872 17.8176 15.3634 17.8176C14.1395 17.8176 13.1475 16.8255 13.1475 15.6017C13.1475 14.3778 14.1395 13.3857 15.3634 13.3857C16.5872 13.3857 17.5793 14.3778 17.5793 15.6017Z" stroke="#2F6F68" stroke-width="1.5" stroke-linecap="round" stroke-linejoin="round"/>
</svg>
