<svg width="10" height="10" viewBox="0 0 10 10" fill="none" xmlns="http://www.w3.org/2000/svg">
<path d="M0.146447 9.14645C-0.0488155 9.34171 -0.0488155 9.65829 0.146447 9.85355C0.341709 10.0488 0.658291 10.0488 0.853553 9.85355L0.146447 9.14645ZM9.85355 0.853553C10.0488 0.658291 10.0488 0.341709 9.85355 0.146447C9.65829 -0.0488155 9.34171 -0.0488155 9.14645 0.146447L9.85355 0.853553ZM0.853553 0.146447C0.658291 -0.0488155 0.341709 -0.0488155 0.146447 0.146447C-0.0488155 0.341709 -0.0488155 0.658291 0.146447 0.853553L0.853553 0.146447ZM9.14645 9.85355C9.34171 10.0488 9.65829 10.0488 9.85355 9.85355C10.0488 9.65829 10.0488 9.34171 9.85355 9.14645L9.14645 9.85355ZM0.853553 9.85355L9.85355 0.853553L9.14645 0.146447L0.146447 9.14645L0.853553 9.85355ZM0.146447 0.853553L9.14645 9.85355L9.85355 9.14645L0.853553 0.146447L0.146447 0.853553Z" fill="#BDBDBD"/>
</svg>
