<svg width="20" height="20" viewBox="0 0 20 20" fill="none" xmlns="http://www.w3.org/2000/svg">
<path d="M7.53033 9.46967C7.23744 9.17678 6.76256 9.17678 6.46967 9.46967C6.17678 9.76256 6.17678 10.2374 6.46967 10.5303L7.53033 9.46967ZM9 12L8.46967 12.5303C8.76256 12.8232 9.23744 12.8232 9.53033 12.5303L9 12ZM13.5303 8.53033C13.8232 8.23744 13.8232 7.76256 13.5303 7.46967C13.2374 7.17678 12.7626 7.17678 12.4697 7.46967L13.5303 8.53033ZM6.46967 10.5303L8.46967 12.5303L9.53033 11.4697L7.53033 9.46967L6.46967 10.5303ZM9.53033 12.5303L13.5303 8.53033L12.4697 7.46967L8.46967 11.4697L9.53033 12.5303ZM18.25 10C18.25 14.5564 14.5564 18.25 10 18.25V19.75C15.3848 19.75 19.75 15.3848 19.75 10H18.25ZM10 18.25C5.44365 18.25 1.75 14.5564 1.75 10H0.25C0.25 15.3848 4.61523 19.75 10 19.75V18.25ZM1.75 10C1.75 5.44365 5.44365 1.75 10 1.75V0.25C4.61523 0.25 0.25 4.61523 0.25 10H1.75ZM10 1.75C14.5564 1.75 18.25 5.44365 18.25 10H19.75C19.75 4.61523 15.3848 0.25 10 0.25V1.75Z" fill="#2F80ED"/>
</svg>
