<svg width="19" height="19" viewBox="0 0 19 19" fill="none" xmlns="http://www.w3.org/2000/svg">
<path d="M8 3.75C8.41421 3.75 8.75 3.41421 8.75 3C8.75 2.58578 8.41421 2.25 8 2.25V3.75ZM16.75 11C16.75 10.5858 16.4142 10.25 16 10.25C15.5858 10.25 15.25 10.5858 15.25 11H16.75ZM14.5858 1.58579L15.1161 2.11612L15.1161 2.1161L14.5858 1.58579ZM17.4142 1.58579L16.8839 2.1161L16.8839 2.11614L17.4142 1.58579ZM17.4142 4.41421L16.8839 3.88386L16.8839 3.88388L17.4142 4.41421ZM8.8284 13V13.75C9.02731 13.75 9.21808 13.671 9.35873 13.5303L8.8284 13ZM6 13H5.25C5.25 13.4142 5.58579 13.75 6 13.75V13ZM6 10.1716L5.46967 9.64127C5.32902 9.78192 5.25 9.97268 5.25 10.1716H6ZM8 2.25H3V3.75H8V2.25ZM3 2.25C1.48122 2.25 0.25 3.48121 0.25 5H1.75C1.75 4.30964 2.30964 3.75 3 3.75V2.25ZM0.25 5V16H1.75V5H0.25ZM0.25 16C0.25 17.5188 1.48122 18.75 3 18.75V17.25C2.30964 17.25 1.75 16.6904 1.75 16H0.25ZM3 18.75H14V17.25H3V18.75ZM14 18.75C15.5188 18.75 16.75 17.5188 16.75 16H15.25C15.25 16.6904 14.6904 17.25 14 17.25V18.75ZM16.75 16V11H15.25V16H16.75ZM15.1161 2.1161C15.6042 1.62797 16.3958 1.62797 16.8839 2.1161L17.9445 1.05547C16.8706 -0.0184915 15.1294 -0.0184915 14.0555 1.05547L15.1161 2.1161ZM16.8839 2.11614C17.3721 2.60428 17.3721 3.39571 16.8839 3.88386L17.9445 4.94455C19.0185 3.87061 19.0185 2.12938 17.9445 1.05544L16.8839 2.11614ZM16.8839 3.88388L8.29807 12.4697L9.35873 13.5303L17.9445 4.94454L16.8839 3.88388ZM8.8284 12.25H6V13.75H8.8284V12.25ZM6.75 13V10.1716H5.25V13H6.75ZM6.53033 10.7019L15.1161 2.11612L14.0555 1.05546L5.46967 9.64127L6.53033 10.7019Z" fill="#2F6F68"/>
</svg>
