<svg width="40" height="44" viewBox="0 0 40 44" fill="none" xmlns="http://www.w3.org/2000/svg">
<path d="M9.58333 31.3337C10.1356 31.3337 10.5833 30.8859 10.5833 30.3337C10.5833 29.7814 10.1356 29.3337 9.58333 29.3337V31.3337ZM7.75148 13.869L7.97035 14.8447C8.50908 14.7239 8.84794 14.1893 8.72733 13.6505L7.75148 13.869ZM28.1254 9.50237L27.1454 9.70111C27.2414 10.1745 27.662 10.5116 28.145 10.5022L28.1254 9.50237ZM30.2177 29.1453C29.6765 29.2552 29.3268 29.783 29.4367 30.3243C29.5465 30.8655 30.0744 31.2152 30.6156 31.1053L30.2177 29.1453ZM25.5429 24.7908C25.9334 25.1813 26.5666 25.1813 26.9571 24.7908C27.3476 24.4002 27.3476 23.7671 26.9571 23.3766L25.5429 24.7908ZM20.7071 17.1265C20.3166 16.736 19.6834 16.736 19.2929 17.1265C18.9024 17.5171 18.9024 18.1502 19.2929 18.5408L20.7071 17.1265ZM20.7071 18.5408C21.0976 18.1502 21.0976 17.5171 20.7071 17.1265C20.3166 16.736 19.6834 16.736 19.2929 17.1265L20.7071 18.5408ZM13.0429 23.3766C12.6524 23.7671 12.6524 24.4002 13.0429 24.7908C13.4334 25.1813 14.0666 25.1813 14.4571 24.7908L13.0429 23.3766ZM21 17.8337C21 17.2814 20.5523 16.8337 20 16.8337C19.4477 16.8337 19 17.2814 19 17.8337H21ZM19 42.8337C19 43.3859 19.4477 43.8337 20 43.8337C20.5523 43.8337 21 43.3859 21 42.8337H19ZM9.58333 29.3337C5.53325 29.3337 2.25 26.0503 2.25 22.0003H0.25C0.25 27.1549 4.42867 31.3337 9.58333 31.3337V29.3337ZM2.25 22.0003C2.25 18.5052 4.69594 15.5792 7.97035 14.8447L7.53261 12.8932C3.36477 13.8281 0.25 17.5492 0.25 22.0003H2.25ZM8.72733 13.6505C8.57865 12.9863 8.5 12.2948 8.5 11.5837H6.5C6.5 12.4427 6.59506 13.2808 6.77563 14.0874L8.72733 13.6505ZM8.5 11.5837C8.5 6.38299 12.716 2.16699 17.9167 2.16699V0.166992C11.6114 0.166992 6.5 5.27842 6.5 11.5837H8.5ZM17.9167 2.16699C22.4719 2.16699 26.2737 5.40239 27.1454 9.70111L29.1055 9.30363C28.0484 4.09097 23.4419 0.166992 17.9167 0.166992V2.16699ZM28.145 10.5022C28.2077 10.5009 28.2704 10.5003 28.3333 10.5003V8.50033C28.2571 8.50033 28.1815 8.50108 28.1058 8.50256L28.145 10.5022ZM28.3333 10.5003C33.534 10.5003 37.75 14.7163 37.75 19.917H39.75C39.75 13.6117 34.6385 8.50033 28.3333 8.50033V10.5003ZM37.75 19.917C37.75 24.4716 34.5155 28.2729 30.2177 29.1453L30.6156 31.1053C35.827 30.0474 39.75 25.4415 39.75 19.917H37.75ZM26.9571 23.3766L20.7071 17.1265L19.2929 18.5408L25.5429 24.7908L26.9571 23.3766ZM19.2929 17.1265L13.0429 23.3766L14.4571 24.7908L20.7071 18.5408L19.2929 17.1265ZM19 17.8337V42.8337H21V17.8337H19Z" fill="#2F6F68"/>
</svg>
