<svg width="252" height="165" viewBox="0 0 252 165" fill="none" xmlns="http://www.w3.org/2000/svg">
<path d="M109.502 165C103.254 165 98.0352 160.872 96.7699 154.874L75.1022 52.9887C72.7298 52.5992 70.4365 52.1319 68.0641 51.4308C63.1612 50.1066 58.1001 48.2372 53.0391 45.7446C44.8148 41.772 36.2743 36.3194 27.5755 29.5426C14.1321 18.9491 4.80071 8.51131 3.06096 6.48607C0.767664 3.83768 -0.260367 0.644038 0.0559501 -2.6275C0.372267 -5.89904 1.87477 -8.9369 4.40531 -11.04C6.69861 -12.9874 9.54546 -14 12.5505 -14C16.1881 -14 19.6676 -12.4421 22.04 -9.79373L22.7517 -9.0148C23.1471 -8.54743 23.7797 -7.84639 24.6496 -6.98956C26.2312 -5.35379 28.6826 -2.78329 31.8458 0.254568C37.3814 5.55135 46.0801 13.0292 55.965 19.027C62.5286 23.0775 69.0131 25.9595 74.7068 27.5174C78.1863 28.4521 81.4285 28.9195 84.5126 28.9195C85.3825 28.9195 86.2523 28.8416 87.1222 28.7637L92.5787 28.2184C97.4816 27.7511 101.752 27.3616 105.706 27.05C111.874 26.5827 116.54 26.349 120.889 26.349C128.323 26.349 135.281 27.05 143.031 28.53C150.307 29.9321 158.847 32.1131 171.579 35.852C174.9 36.7868 178.617 37.332 182.729 37.332C189.767 37.332 198.15 35.852 207.085 33.0479C214.756 30.6332 222.98 27.2837 231.6 22.9996C246.862 15.4439 257.933 7.65448 258.092 7.57659C260.227 6.01871 262.757 5.23977 265.446 5.23977C269.479 5.23977 273.275 7.18712 275.647 10.3808C279.68 15.9112 278.415 23.7006 272.721 27.6732C271.535 28.53 265.051 32.97 255.324 38.5004C241.327 46.4456 227.804 52.4434 215.231 56.4939C203.369 60.2328 192.851 62.0244 182.966 62.1023L120.415 159.002C117.963 162.741 113.93 165 109.502 165ZM115.274 120.912L156.317 57.3507C148.725 55.2476 143.031 53.8455 138.207 52.9108C131.802 51.6645 126.82 51.1971 120.889 51.1971V47.3024V51.1971C117.33 51.1971 113.297 51.4308 107.841 51.8203C105.627 51.9761 103.254 52.2097 100.724 52.4434L115.274 120.912Z" fill="#F1F1F1"/>
</svg>
