<svg width="123" height="109" viewBox="0 0 123 109" fill="none" xmlns="http://www.w3.org/2000/svg">
<path d="M9.5293 28.0028C9.5293 25.3715 11.6625 23.2383 14.2938 23.2383H24.5513C26.8804 23.2383 28.8681 24.9221 29.251 27.2195L32.7735 48.3544C33.1173 50.4176 32.0754 52.4638 30.2045 53.3992L22.8284 57.0873C28.147 70.3038 38.6963 80.853 51.9127 86.1717L55.601 78.7957C56.5362 76.9246 58.5826 75.8826 60.6457 76.2266L81.7807 79.7491C84.0781 80.1321 85.7619 82.1199 85.7619 84.4488V94.7064C85.7619 97.3378 83.6288 99.4709 80.9974 99.4709H71.4683C37.2603 99.4709 9.5293 71.7399 9.5293 37.5319V28.0028Z" fill="#2F6F68" stroke="#2F6F68" stroke-width="1.5"/>
<path d="M68.1899 62.0193L69.1131 60.2451L68.4405 59.8951L67.7048 60.079L68.1899 62.0193ZM53.0273 65.8099L51.1891 65.0221L49.6007 68.7281L53.5124 67.7502L53.0273 65.8099ZM58.2082 53.7214L60.0464 54.5092L60.5059 53.4372L59.7992 52.5095L58.2082 53.7214ZM72.3833 34.8404H74.3833V32.8404H72.3833V34.8404ZM64.6409 34.8404V32.8404H62.6409V34.8404H64.6409ZM64.6409 42.5828H62.6409V44.5828H64.6409V42.5828ZM72.3833 42.5828V44.5828H74.3833V42.5828H72.3833ZM103.353 34.8404H105.353V32.8404H103.353V34.8404ZM95.6104 34.8404V32.8404H93.6104V34.8404H95.6104ZM95.6104 42.5828H93.6104V44.5828H95.6104V42.5828ZM103.353 42.5828V44.5828H105.353V42.5828H103.353ZM80.1257 34.8404V32.8404H78.1257V34.8404H80.1257ZM87.868 34.8404H89.868V32.8404H87.868V34.8404ZM87.868 42.5828V44.5828H89.868V42.5828H87.868ZM80.1257 42.5828H78.1257V44.5828H80.1257V42.5828ZM112.966 38.7116C112.966 52.3306 100.256 63.8099 83.9969 63.8099V67.8099C101.946 67.8099 116.966 55.0247 116.966 38.7116H112.966ZM83.9969 63.8099C78.542 63.8099 73.4536 62.5037 69.1131 60.2451L67.2667 63.7934C72.1807 66.3505 77.9029 67.8099 83.9969 67.8099V63.8099ZM67.7048 60.079L52.5423 63.8696L53.5124 67.7502L68.675 63.9595L67.7048 60.079ZM54.8656 66.5978L60.0464 54.5092L56.3699 52.9335L51.1891 65.0221L54.8656 66.5978ZM59.7992 52.5095C56.7697 48.5324 55.0273 43.7906 55.0273 38.7116H51.0273C51.0273 44.7352 53.1004 50.3163 56.6171 54.9333L59.7992 52.5095ZM55.0273 38.7116C55.0273 25.0927 67.7382 13.6133 83.9969 13.6133V9.61328C66.0475 9.61328 51.0273 22.3986 51.0273 38.7116H55.0273ZM83.9969 13.6133C100.256 13.6133 112.966 25.0927 112.966 38.7116H116.966C116.966 22.3986 101.946 9.61328 83.9969 9.61328V13.6133ZM72.3833 32.8404H64.6409V36.8404H72.3833V32.8404ZM62.6409 34.8404V42.5828H66.6409V34.8404H62.6409ZM64.6409 44.5828H72.3833V40.5828H64.6409V44.5828ZM74.3833 42.5828V34.8404H70.3833V42.5828H74.3833ZM103.353 32.8404H95.6104V36.8404H103.353V32.8404ZM93.6104 34.8404V42.5828H97.6104V34.8404H93.6104ZM95.6104 44.5828H103.353V40.5828H95.6104V44.5828ZM105.353 42.5828V34.8404H101.353V42.5828H105.353ZM80.1257 36.8404H87.868V32.8404H80.1257V36.8404ZM85.868 34.8404V42.5828H89.868V34.8404H85.868ZM87.868 40.5828H80.1257V44.5828H87.868V40.5828ZM82.1257 42.5828V34.8404H78.1257V42.5828H82.1257Z" fill="#2F6F68"/>
<path d="M65.499 35.5H71.499V41.5L65.499 41.4998V35.5Z" fill="#F4FF00" stroke="#F4FF00"/>
<path d="M80.999 35.5H86.999V41.5H80.999L80.999 35.5Z" fill="#F4FF00" stroke="#F4FF00"/>
<path d="M96.499 35.5H102.499V41.5H96.499V35.5Z" fill="#F4FF00" stroke="#F4FF00"/>
</svg>
