<svg width="953" height="669" viewBox="0 0 953 669" fill="none" xmlns="http://www.w3.org/2000/svg">
<rect width="953" height="647" fill="#F7FFFE"/>
<mask id="mask0_1994_14943" style="mask-type:alpha" maskUnits="userSpaceOnUse" x="0" y="0" width="953" height="669">
<rect width="953" height="669" fill="#F2F2F2"/>
</mask>
<g mask="url(#mask0_1994_14943)">
<path d="M751.337 236.267H774.254V207.303H751.337V236.267ZM775.61 237.628H749.978V205.946H775.61V237.628Z" fill="#94CBC5"/>
<path d="M771.153 213.578H758.599V211.605H771.153V213.578Z" fill="#0041A6"/>
<path d="M771.154 218.21H754.887V216.237H771.154V218.21Z" fill="#0041A6"/>
<path d="M771.154 222.842H754.887V220.868H771.154V222.842Z" fill="#0041A6"/>
<path d="M771.154 227.475H754.887V225.505H771.154V227.475Z" fill="#0041A6"/>
<path d="M771.154 232.11H754.887V230.137H771.154V232.11Z" fill="#0041A6"/>
<path d="M778.817 240.665H754.545V210.344H778.817V240.665Z" fill="#94CBC5"/>
<path d="M775.042 217.291H762.483V215.321H775.042V217.291Z" fill="#2F6F68"/>
<path d="M775.042 221.924H758.771V219.954H775.042V221.924Z" fill="#2F6F68"/>
<path d="M775.042 226.561H758.771V224.587H775.042V226.561Z" fill="#2F6F68"/>
<path d="M775.042 231.192H758.771V229.219H775.042V231.192Z" fill="#2F6F68"/>
<path d="M775.042 235.824H758.771V233.854H775.042V235.824Z" fill="#2F6F68"/>
<path d="M638.707 120.353H636.441V118.656H638.707V120.353Z" fill="#2F6F68"/>
<path d="M638.707 127.46H636.441V123.904H638.707V127.46ZM638.707 134.564H636.441V131.012H638.707V134.564ZM638.707 141.668H636.441V138.116H638.707V141.668ZM638.707 148.772H636.441V145.22H638.707V148.772ZM638.707 155.876H636.441V152.324H638.707V155.876ZM638.707 162.984H636.441V159.429H638.707V162.984ZM638.707 170.088H636.441V166.536H638.707V170.088ZM638.707 177.193H636.441V173.641H638.707V177.193ZM638.707 184.297H636.441V180.745H638.707V184.297Z" fill="#2F6F68"/>
<path d="M638.707 189.551H636.441V187.851H638.707V189.551Z" fill="#2F6F68"/>
<path d="M620.206 120.353H617.943V118.656H620.206V120.353Z" fill="#2F6F68"/>
<path d="M620.112 127.178H618.078V123.765H620.112V127.178ZM620.112 134.006H618.078V130.594H620.112V134.006ZM620.112 140.835H618.078V137.419H620.112V140.835ZM620.112 147.66H618.078V144.247H620.112V147.66ZM620.112 154.489H618.078V151.076H620.112V154.489ZM620.112 161.317H618.078V157.905H620.112V161.317ZM620.112 168.146H618.078V164.73H620.112V168.146ZM620.112 174.974H618.078V171.558H620.112V174.974ZM620.112 181.799H618.078V178.387H620.112V181.799ZM620.112 188.628H618.078V185.215H620.112V188.628ZM620.112 195.456H618.078V192.044H620.112V195.456ZM620.112 202.285H618.078V198.869H620.112V202.285ZM620.112 209.11H618.078V205.697H620.112V209.11ZM620.112 215.939H618.078V212.526H620.112V215.939ZM620.112 222.767H618.078V219.355H620.112V222.767ZM620.112 229.596H618.078V226.18H620.112V229.596ZM619.4 236.681L617.456 236.015C617.733 235.004 617.92 233.956 618.01 232.897L620.037 233.116C619.932 234.324 619.717 235.525 619.4 236.681ZM616.299 243.034L614.745 241.569C615.357 240.757 615.895 239.875 616.349 238.945L618.137 240.031C617.618 241.093 617.002 242.104 616.299 243.034V243.034ZM611.23 247.533L610.307 245.509C611.15 245.03 611.955 244.45 612.701 243.791L613.967 245.568C613.118 246.322 612.194 246.985 611.23 247.533V247.533ZM604.986 249.463L604.846 247.196C605.794 247.124 606.74 246.943 607.651 246.662L608.195 248.852C607.15 249.175 606.071 249.38 604.986 249.463V249.463ZM210.41 249.505H207.352V247.235H210.41V249.505ZM216.526 249.505H213.468V247.235H216.526V249.505ZM222.643 249.505H219.584V247.235H222.643V249.505ZM228.759 249.505H225.701V247.235H228.759V249.505ZM234.875 249.505H231.817V247.235H234.875V249.505ZM240.992 249.505H237.934V247.235H240.992V249.505ZM247.108 249.505H244.05V247.235H247.108V249.505ZM253.225 249.505H250.167V247.235H253.225V249.505ZM259.341 249.505H256.283V247.235H259.341V249.505ZM265.458 249.505H262.399V247.235H265.458V249.505ZM271.574 249.505H268.516V247.235H271.574V249.505ZM277.69 249.505H274.632V247.235H277.69V249.505ZM283.806 249.505H280.748V247.235H283.806V249.505ZM289.923 249.505H286.865V247.235H289.923V249.505ZM296.039 249.505H292.981V247.235H296.039V249.505ZM302.156 249.505H299.097V247.235H302.156V249.505ZM308.272 249.505H305.214V247.235H308.272V249.505ZM314.389 249.505H311.33V247.235H314.389V249.505ZM320.505 249.505H317.447V247.235H320.505V249.505ZM326.621 249.505H323.563V247.235H326.621V249.505ZM332.737 249.505H329.679V247.235H332.737V249.505ZM338.854 249.505H335.796V247.235H338.854V249.505ZM344.97 249.505H341.912V247.235H344.97V249.505ZM351.087 249.505H348.028V247.235H351.087V249.505ZM357.203 249.505H354.145V247.235H357.203V249.505ZM363.319 249.505H360.261V247.235H363.319V249.505ZM369.436 249.505H366.378V247.235H369.436V249.505ZM375.552 249.505H372.494V247.235H375.552V249.505ZM381.668 249.505H378.611V247.235H381.668V249.505ZM387.786 249.505H384.726V247.235H387.786V249.505ZM393.9 249.505H390.843V247.235H393.9V249.505ZM400.017 249.505H396.96V247.235H400.017V249.505ZM406.134 249.505H403.077V247.235H406.134V249.505ZM412.251 249.505H409.191V247.235H412.251V249.505ZM418.368 249.505H415.308V247.235H418.368V249.505ZM424.482 249.505H421.425V247.235H424.482V249.505ZM430.599 249.505H427.542V247.235H430.599V249.505ZM436.716 249.505H433.656V247.235H436.716V249.505ZM442.833 249.505H439.773V247.235H442.833V249.505ZM448.947 249.505H445.89V247.235H448.947V249.505ZM455.064 249.505H452.007V247.235H455.064V249.505ZM461.181 249.505H458.124V247.235H461.181V249.505ZM467.298 249.505H464.238V247.235H467.298V249.505ZM473.415 249.505H470.355V247.235H473.415V249.505ZM479.529 249.505H476.472V247.235H479.529V249.505ZM485.646 249.505H482.589V247.235H485.646V249.505ZM491.763 249.505H488.706V247.235H491.763V249.505ZM497.88 249.505H494.82V247.235H497.88V249.505ZM503.994 249.505H500.937V247.235H503.994V249.505ZM510.111 249.505H507.054V247.235H510.111V249.505ZM516.228 249.505H513.171V247.235H516.228V249.505ZM522.345 249.505H519.285V247.235H522.345V249.505ZM528.462 249.505H525.402V247.235H528.462V249.505ZM534.576 249.505H531.519V247.235H534.576V249.505ZM540.693 249.505H537.636V247.235H540.693V249.505ZM546.81 249.505H543.753V247.235H546.81V249.505ZM552.927 249.505H549.867V247.235H552.927V249.505ZM559.044 249.505H555.984V247.235H559.044V249.505ZM565.158 249.505H562.101V247.235H565.158V249.505ZM571.275 249.505H568.218V247.235H571.275V249.505ZM577.392 249.505H574.335V247.235H577.392V249.505ZM583.509 249.505H580.449V247.235H583.509V249.505ZM589.623 249.505H586.566V247.235H589.623V249.505ZM595.74 249.505H592.683V247.235H595.74V249.505ZM601.857 249.505H598.8V247.235H601.857V249.505ZM201.593 250.179L201.006 248.005C202.044 247.655 203.119 247.422 204.204 247.311L204.389 249.574C203.441 249.672 202.5 249.873 201.593 250.179ZM196.604 253.181L195.301 251.435C196.136 250.658 197.043 249.974 197.998 249.397L198.964 251.397C198.128 251.9 197.335 252.501 196.604 253.181V253.181ZM193.054 258.114L191.245 257.073C191.742 255.997 192.34 254.973 193.02 254.028L194.607 255.448C194.011 256.278 193.489 257.174 193.054 258.114V258.114ZM191.517 264.204L189.488 264.037C189.568 262.825 189.757 261.621 190.05 260.458L192.01 261.072C191.753 262.089 191.587 263.145 191.517 264.204V264.204ZM191.478 270.945H189.443V267.533H191.478V270.945Z" fill="#2F6F68"/>
<path d="M652.321 120.353H650.059V118.656H652.321V120.353Z" fill="#2F6F68"/>
<path d="M652.321 127.427H650.059V123.892H652.321V127.427ZM652.321 134.497H650.059V130.962H652.321V134.497ZM652.321 141.57H650.059V138.031H652.321V141.57ZM652.321 148.639H650.059V145.105H652.321V148.639ZM652.321 155.709H650.059V152.174H652.321V155.709Z" fill="#2F6F68"/>
<path d="M652.889 162.078H650.059V159.246H652.321V159.81H652.889V162.078" fill="#2F6F68"/>
<path d="M659.641 162.079H656.265V159.812H659.641V162.079ZM666.398 162.079H663.018V159.812H666.398V162.079ZM673.151 162.079H669.774V159.812H673.151V162.079ZM679.904 162.079H676.527V159.812H679.904V162.079ZM686.66 162.079H683.284V159.812H686.66V162.079ZM693.414 162.079H690.037V159.812H693.414V162.079ZM700.17 162.079H696.794V159.812H700.17V162.079ZM706.923 162.079H703.547V159.812H706.923V162.079ZM713.68 162.079H710.303V159.812H713.68V162.079ZM720.367 162.1C720.125 162.086 719.879 162.079 719.634 162.079H717.056V159.812H719.634C719.921 159.812 720.211 159.822 720.499 159.84L720.367 162.1ZM726.221 163.932C725.339 163.388 724.394 162.959 723.408 162.651L724.083 160.49C725.245 160.854 726.363 161.359 727.404 161.996L726.221 163.932ZM730.528 168.308C730.005 167.418 729.369 166.594 728.646 165.857L730.258 164.268C731.113 165.137 731.86 166.109 732.479 167.158L730.528 168.308ZM732.265 174.197C732.22 173.158 732.054 172.133 731.759 171.143L733.932 170.503C734.275 171.67 734.475 172.881 734.527 174.103L732.265 174.197ZM734.541 180.91H732.275V177.527H734.541V180.91ZM734.541 187.668H732.275V184.289H734.541V187.668ZM734.541 194.426H732.275V191.047H734.541V194.426ZM734.541 201.187H732.275V197.808H734.541V201.187ZM734.541 207.945H732.275V204.566H734.541V207.945ZM734.541 214.707H732.275V211.328H734.541V214.707ZM734.541 221.465H732.275V218.086H734.541V221.465ZM734.541 228.226H732.275V224.847H734.541V228.226ZM734.541 234.984H732.275V231.605H734.541V234.984ZM734.541 241.746H732.275V238.363H734.541V241.746ZM734.541 248.504H732.275V245.125H734.541V248.504ZM734.541 255.265H732.275V251.883H734.541V255.265ZM734.541 262.023H732.275V258.644H734.541V262.023Z" fill="#2F6F68"/>
<path d="M734.54 267.114H732.274V265.414H734.54V267.114Z" fill="#97C6FF"/>
<path d="M622.277 118.512C622.322 117.93 622.353 117.345 622.353 116.753C622.353 104.352 612.307 94.2977 599.914 94.2977C587.522 94.2977 577.476 104.352 577.476 116.753C577.476 117.345 577.507 117.93 577.552 118.512H622.277" fill="#2F6F68"/>
<path d="M695.987 118.512C696.032 117.93 696.063 117.345 696.063 116.753C696.063 104.352 686.016 94.2977 673.624 94.2977C661.235 94.2977 651.188 104.352 651.188 116.753C651.188 117.345 651.216 117.93 651.261 118.512H695.987Z" fill="#2F6F68"/>
<path d="M670.178 118.512C670.351 117.141 670.441 115.742 670.441 114.326C670.441 96.1569 655.727 81.4326 637.572 81.4326C619.419 81.4326 604.702 96.1569 604.702 114.326C604.702 115.742 604.792 117.141 604.969 118.512H670.178Z" fill="#2F6F68"/>
<path d="M215.771 355.257H191.579C190.04 355.257 188.794 356.507 188.794 358.044C188.794 359.585 190.04 360.831 191.579 360.831H215.771C217.308 360.831 218.555 359.585 218.555 358.044C218.555 356.507 217.308 355.257 215.771 355.257Z" fill="#D1F5FF"/>
<path d="M252.975 355.257H228.782C227.245 355.257 225.998 356.507 225.998 358.044C225.998 359.585 227.245 360.831 228.782 360.831H252.975C254.513 360.831 255.759 359.585 255.759 358.044C255.759 356.507 254.513 355.257 252.975 355.257Z" fill="#D1F5FF"/>
<path d="M309.978 180.722L310.145 180.06C301.741 177.931 294.75 173.098 289.855 166.721C284.96 160.344 282.166 152.426 282.166 144.138C282.166 141.119 282.536 138.048 283.313 134.984C285.439 126.588 290.267 119.598 296.638 114.706C303.009 109.811 310.918 107.017 319.2 107.017C322.218 107.017 325.287 107.387 328.351 108.163C336.742 110.292 343.726 115.125 348.618 121.499C353.51 127.876 356.303 135.787 356.303 144.068C356.303 147.084 355.933 150.144 355.159 153.201C353.028 161.614 348.196 168.611 341.825 173.51C335.453 178.412 327.545 181.206 319.271 181.206C316.259 181.206 313.199 180.836 310.145 180.06L309.978 180.722L309.811 181.379C312.975 182.183 316.148 182.567 319.271 182.567C327.852 182.567 336.049 179.666 342.652 174.59C349.256 169.511 354.269 162.251 356.476 153.537C357.278 150.369 357.662 147.195 357.662 144.068C357.662 135.482 354.765 127.281 349.696 120.671C344.627 114.066 337.379 109.049 328.684 106.847C325.511 106.041 322.33 105.656 319.2 105.656C310.612 105.656 302.413 108.554 295.811 113.626C289.208 118.698 284.198 125.951 281.996 134.648C281.192 137.823 280.807 141.008 280.807 144.138C280.807 152.734 283.704 160.939 288.778 167.548C293.85 174.157 301.105 179.174 309.811 181.379L309.978 180.722ZM386.646 161.188L387.303 161.355C388.763 155.583 389.465 149.777 389.465 144.061C389.465 140.579 389.206 137.134 388.697 133.751L388.026 133.852L388.127 134.523L390.936 134.101L396.509 133.267L396.599 133.246L397.222 133.114L397.128 132.481C395.61 122.261 392.119 112.515 386.891 103.776L386.542 103.195L378.651 107.9L378.997 108.485L379.581 108.135C374.845 100.224 368.601 93.21 361.042 87.6499L360.64 88.1969L361.187 88.602L366.663 81.1965L366.12 80.7915C358.135 74.8228 348.841 70.3117 338.594 67.7116L337.936 67.5455L335.671 76.4881L336.329 76.6543L336.496 75.9965C330.717 74.532 324.925 73.8292 319.226 73.8292C315.746 73.8292 312.3 74.0923 308.912 74.6012L309.013 75.2729L309.684 75.1725L308.316 66.0637L307.645 66.1641C297.429 67.684 287.684 71.2084 278.961 76.4085L278.378 76.7547L283.08 84.6552L283.664 84.309L283.315 83.7239C275.41 88.4635 268.402 94.7126 262.845 102.277L263.392 102.679L263.796 102.132L256.396 96.6514L255.991 97.1949C250.029 105.185 245.518 114.485 242.922 124.739L242.755 125.401L251.693 127.665L251.86 127.007L251.201 126.841C249.737 132.623 249.035 138.422 249.035 144.124C249.035 147.607 249.297 151.055 249.805 154.444L250.477 154.344L250.377 153.672L244.408 154.562L241.972 154.95L242.078 155.621L242.244 154.96L242.213 154.953L241.225 154.704L241.374 155.711C242.893 165.935 246.415 175.688 251.611 184.416L251.959 185.001L259.853 180.296L259.506 179.711L258.923 180.06C263.659 187.971 269.934 194.992 277.493 200.552L277.895 200.005L277.349 199.6L271.872 207.006L272.413 207.411C280.398 213.38 289.662 217.884 299.909 220.484L300.568 220.65L302.833 211.704L302.174 211.538L302.007 212.199C307.796 213.667 313.61 214.37 319.328 214.37C322.805 214.37 326.245 214.11 329.623 213.601L329.522 212.929L328.85 213.03L329.826 219.594L330.222 222.139L330.889 222.038C341.106 220.518 350.82 216.987 359.54 211.787L360.125 211.441L355.423 203.537L354.84 203.886L355.189 204.468C363.093 199.732 370.109 193.452 375.696 185.897L375.15 185.492L374.745 186.039L382.148 191.52L382.553 190.976C388.483 182.979 392.984 173.707 395.582 163.453L395.748 162.795L386.812 160.527L386.646 161.188L387.303 161.355L386.646 161.188L386.476 161.846L394.755 163.944L394.921 163.286L394.264 163.12C391.711 173.202 387.289 182.307 381.46 190.166L382.007 190.571L382.411 190.024L375.008 184.54L374.603 185.087C369.127 192.493 362.245 198.655 354.491 203.305L353.91 203.651L358.609 211.552L359.194 211.202L358.845 210.62C350.273 215.73 340.727 219.203 330.689 220.695L330.789 221.367L331.46 221.263L331.168 219.386L331.169 219.39L330.094 212.157L329.421 212.258C326.11 212.756 322.737 213.013 319.328 213.013C313.722 213.013 308.02 212.32 302.341 210.88L301.683 210.714L299.418 219.656L300.077 219.823L300.243 219.165C290.169 216.61 281.07 212.185 273.226 206.324L272.82 206.867L273.366 207.272L278.846 199.86L278.297 199.458C270.889 194.009 264.734 187.123 260.089 179.361L259.74 178.779L251.847 183.484L252.195 184.069L252.778 183.72C247.672 175.144 244.21 165.558 242.718 155.511L242.046 155.611L241.88 156.272L241.911 156.279L242.046 156.314L244.617 155.905L244.612 155.909L251.25 154.915L251.149 154.243C250.65 150.92 250.394 147.537 250.394 144.124C250.394 138.532 251.081 132.848 252.518 127.173L252.685 126.515L243.747 124.248L243.58 124.909L244.239 125.075C246.791 114.994 251.223 105.857 257.08 98.0085L256.536 97.6L256.132 98.147L263.536 103.631L263.94 103.08C269.385 95.6681 276.256 89.5402 284.013 84.8906L284.594 84.5409L279.892 76.6439L279.309 76.9901L279.656 77.5752C288.228 72.4651 297.807 68.9995 307.845 67.5074L307.745 66.8358L307.074 66.9361L308.442 76.045L309.114 75.9445C312.435 75.446 315.813 75.1898 319.226 75.1898C324.814 75.1898 330.493 75.8753 336.162 77.3155L336.821 77.4817L339.086 68.5391L338.427 68.3694L338.26 69.0307C348.334 71.5857 357.464 76.0172 365.307 81.8786L365.715 81.335L365.169 80.93L359.689 88.3423L360.235 88.7439C367.646 94.1932 373.769 101.072 378.416 108.831L378.761 109.413L386.656 104.708L386.307 104.126L385.726 104.476C390.863 113.058 394.292 122.634 395.786 132.681L396.457 132.581L396.315 131.916L396.267 131.927L390.735 132.754L387.255 133.28L387.355 133.952C387.853 137.269 388.109 140.648 388.109 144.061C388.106 149.667 387.417 155.362 385.985 161.019L385.819 161.68L386.476 161.846L386.646 161.188" fill="#2F6F68"/>
<path d="M202.592 210.34L202.169 209.807C198.63 212.628 194.411 213.996 190.218 213.996C184.572 213.996 178.986 211.517 175.191 206.75C172.378 203.215 171.014 198.998 171.013 194.809C171.014 189.159 173.492 183.564 178.258 179.766C181.791 176.948 186.006 175.584 190.196 175.584C195.839 175.584 201.423 178.059 205.212 182.819C208.032 186.365 209.398 190.588 209.399 194.785C209.398 200.431 206.924 206.019 202.169 209.807L202.592 210.34L203.016 210.869C208.104 206.815 210.758 200.826 210.757 194.785C210.758 190.294 209.291 185.762 206.274 181.975C202.22 176.879 196.233 174.223 190.196 174.223C185.711 174.223 181.191 175.688 177.411 178.703C172.312 182.768 169.654 188.764 169.655 194.809C169.654 199.292 171.119 203.817 174.128 207.598C178.188 212.697 184.177 215.356 190.218 215.356C194.705 215.356 199.23 213.888 203.016 210.869L202.592 210.34ZM218.84 171.959L219.371 171.533C216.205 167.555 212.366 164.377 208.156 162.071L207.831 162.667L208.426 162.995L209.145 161.68H209.145L210.575 159.069L210.601 159.018L210.872 158.439L210.313 158.131C205.511 155.493 200.276 153.838 194.908 153.243L194.234 153.167L193.654 158.294L194.329 158.37L194.404 157.695C193.011 157.543 191.609 157.463 190.205 157.463C186.709 157.463 183.202 157.948 179.791 158.955L179.983 159.61L180.635 159.419L179.189 154.454L178.539 154.638C173.455 156.099 168.565 158.578 164.178 162.075L163.647 162.5L166.872 166.551L167.403 166.129L166.98 165.596C162.991 168.774 159.828 172.606 157.524 176.82L158.119 177.145L158.445 176.55L153.913 174.067L153.586 174.659C150.947 179.468 149.306 184.717 148.7 190.076L148.623 190.751L153.75 191.329L153.827 190.654L153.152 190.582C152.997 191.977 152.919 193.379 152.919 194.785C152.919 198.281 153.404 201.792 154.411 205.205L155.062 205.012L154.872 204.361L149.911 205.808L150.097 206.459C151.555 211.545 154.033 216.44 157.528 220.83L157.951 221.36L162 218.133L161.577 217.603L161.045 218.026C164.222 222.017 168.05 225.182 172.26 227.487L172.585 226.892L171.99 226.563L170.461 229.354L169.845 230.5L170.444 230.822L170.02 230.292L170.007 230.302L169.21 230.936L170.103 231.427C174.906 234.069 180.154 235.713 185.507 236.319L186.182 236.396L186.762 231.265L186.087 231.188L186.012 231.864C187.395 232.016 188.787 232.096 190.182 232.096C193.693 232.096 197.218 231.604 200.638 230.593L200.446 229.942L199.794 230.133L201.241 235.097L201.891 234.91C206.974 233.449 211.852 230.981 216.238 227.484L216.769 227.062L213.545 223.008L213.013 223.433L213.436 223.963C217.425 220.785 220.602 216.945 222.906 212.732L222.31 212.403L221.983 212.999L225.043 214.681L226.518 215.481L226.843 214.889C229.483 210.08 231.11 204.842 231.717 199.486L231.793 198.811L226.666 198.229L226.59 198.904L227.265 198.977C227.418 197.592 227.496 196.197 227.496 194.798C227.496 191.288 227.008 187.76 226.009 184.332L225.357 184.523L225.547 185.177L230.51 183.727L230.321 183.076C228.85 178 226.383 173.122 222.888 168.732L222.465 168.199L218.417 171.426L218.84 171.959L219.371 171.533L218.84 171.959L219.263 172.489L222.78 169.688L222.357 169.155L221.826 169.577C225.208 173.828 227.594 178.547 229.017 183.453L229.669 183.266L229.479 182.612L224.514 184.062L224.705 184.713C225.667 188.016 226.137 191.412 226.137 194.798C226.137 196.145 226.063 197.492 225.914 198.828L225.84 199.503L230.965 200.085L231.042 199.41L230.367 199.33C229.78 204.516 228.205 209.585 225.652 214.235L226.248 214.56L226.571 213.965L225.691 213.487L225.695 213.49L222.041 211.482L221.715 212.078C219.495 216.135 216.436 219.836 212.59 222.9L212.059 223.323L215.284 227.377L215.815 226.951L215.392 226.421C211.145 229.807 206.431 232.193 201.516 233.602L201.703 234.256L202.355 234.065L200.908 229.097L200.254 229.288C196.962 230.261 193.566 230.735 190.182 230.735C188.838 230.735 187.495 230.659 186.162 230.513L185.489 230.437L184.908 235.568L185.583 235.644L185.66 234.969C180.481 234.381 175.403 232.791 170.757 230.236L170.43 230.832L170.854 231.365L170.867 231.355L170.976 231.265L171.656 230.001L171.653 230.004L173.508 226.622L172.912 226.297C168.857 224.074 165.171 221.027 162.108 217.177L161.685 216.648L157.636 219.874L158.059 220.404L158.59 219.982C155.208 215.734 152.813 211.001 151.403 206.081L150.75 206.272L150.94 206.923L155.906 205.475L155.713 204.821C154.745 201.536 154.277 198.157 154.277 194.785C154.277 193.431 154.353 192.077 154.502 190.73L154.576 190.055L149.451 189.477L149.374 190.152L150.049 190.228C150.636 185.046 152.224 179.963 154.777 175.314L154.182 174.988L153.856 175.584L158.389 178.066L158.715 177.471C160.935 173.413 163.98 169.726 167.826 166.658L168.357 166.236L165.132 162.185L164.601 162.608L165.025 163.137C169.271 159.755 173.999 157.356 178.913 155.947L178.726 155.292L178.074 155.483L179.522 160.454L180.175 160.26C183.457 159.291 186.835 158.824 190.205 158.824C191.558 158.824 192.91 158.896 194.255 159.049L194.928 159.121L195.508 153.994L194.833 153.918L194.758 154.593C199.949 155.168 205.012 156.767 209.659 159.322L209.986 158.727L209.371 158.436L209.364 158.453L207.946 161.043L206.909 162.937L207.504 163.266C211.558 165.485 215.256 168.545 218.309 172.381L218.732 172.914L219.263 172.489L218.84 171.959" fill="#2F6F68"/>
<path d="M752.821 491.656L752.396 491.123C748.293 494.394 743.401 495.98 738.54 495.98C731.995 495.98 725.515 493.106 721.118 487.577C717.855 483.482 716.274 478.593 716.274 473.733C716.274 467.182 719.149 460.698 724.674 456.294C728.77 453.029 733.655 451.444 738.513 451.444C745.055 451.444 751.531 454.317 755.925 459.836C759.194 463.942 760.778 468.841 760.778 473.708C760.778 480.255 757.91 486.729 752.396 491.123L752.821 491.656L753.243 492.189C759.09 487.529 762.138 480.65 762.138 473.708C762.138 468.546 760.453 463.343 756.987 458.987C752.327 453.133 745.449 450.083 738.513 450.083C733.361 450.083 728.168 451.769 723.827 455.228C717.966 459.898 714.915 466.788 714.915 473.733C714.915 478.888 716.596 484.081 720.056 488.426C724.719 494.287 731.6 497.341 738.54 497.341C743.695 497.341 748.895 495.655 753.243 492.189L752.821 491.656ZM771.569 447.365L772.102 446.943C768.455 442.362 764.037 438.703 759.19 436.048L758.865 436.643L759.46 436.972L760.291 435.456L761.937 432.447L761.965 432.392L762.242 431.81L761.678 431.502C756.15 428.462 750.123 426.555 743.941 425.869L743.266 425.796L742.609 431.609L743.283 431.685L743.359 431.01C741.754 430.834 740.142 430.744 738.526 430.744C734.499 430.744 730.462 431.301 726.536 432.461L726.729 433.115L727.38 432.925L725.74 427.295L725.093 427.479C719.239 429.161 713.607 432.018 708.556 436.044L708.023 436.467L711.68 441.061L712.213 440.635L711.787 440.105C707.196 443.765 703.557 448.175 700.903 453.022L701.499 453.351L701.824 452.752L696.686 449.938L696.361 450.533C693.32 456.069 691.431 462.114 690.732 468.283L690.656 468.958L696.468 469.616L696.544 468.941L695.87 468.868C695.693 470.471 695.603 472.088 695.603 473.705C695.603 477.731 696.16 481.772 697.319 485.701L697.97 485.511L697.78 484.856L692.154 486.497L692.341 487.148C694.022 493.006 696.873 498.639 700.897 503.697L701.322 504.227L705.913 500.567L705.487 500.038L704.958 500.46C708.615 505.054 713.022 508.7 717.866 511.355L718.191 510.756L717.596 510.431L715.835 513.647L715.122 514.97L715.721 515.292L715.295 514.762L715.281 514.772L714.486 515.409L715.378 515.901C720.91 518.941 726.951 520.834 733.116 521.53L733.79 521.606L734.448 515.79L733.773 515.714L733.697 516.389C735.292 516.566 736.894 516.656 738.499 516.656C742.54 516.656 746.598 516.091 750.535 514.928L750.344 514.277L749.691 514.468L751.33 520.097L751.981 519.91C757.834 518.227 763.449 515.385 768.5 511.359L769.033 510.936L765.376 506.342L764.847 506.764L765.269 507.298C769.86 503.638 773.517 499.214 776.17 494.367L775.575 494.038L775.246 494.633L778.775 496.575H778.779L780.387 497.448L780.713 496.856C783.753 491.32 785.625 485.286 786.324 479.12L786.4 478.444L780.588 477.783L780.512 478.458L781.186 478.534C781.363 476.938 781.453 475.332 781.453 473.722C781.453 469.678 780.892 465.621 779.74 461.674L779.09 461.864L779.28 462.519L784.905 460.878L784.719 460.223C783.024 454.379 780.183 448.76 776.16 443.706L775.734 443.173L771.147 446.832L771.569 447.365L772.102 446.943L771.569 447.365L771.991 447.895L776.052 444.661L775.627 444.128L775.098 444.554C779.007 449.467 781.768 454.926 783.414 460.604L784.065 460.414L783.875 459.76L778.246 461.404L778.436 462.055C779.55 465.874 780.093 469.807 780.093 473.722C780.093 475.28 780.007 476.838 779.837 478.386L779.761 479.057L785.573 479.719L785.649 479.043L784.975 478.967C784.297 484.96 782.473 490.825 779.522 496.202L780.117 496.527L780.439 495.932L779.422 495.381L775.305 493.117L774.977 493.712C772.409 498.407 768.87 502.686 764.421 506.235L763.892 506.657L767.549 511.251L768.078 510.825L767.656 510.296C762.743 514.211 757.291 516.971 751.607 518.601L751.794 519.256L752.444 519.065L750.804 513.432L750.151 513.623C746.342 514.748 742.412 515.295 738.499 515.295C736.942 515.295 735.389 515.208 733.849 515.039L733.174 514.966L732.517 520.779L733.192 520.855L733.268 520.18C727.279 519.501 721.405 517.663 716.032 514.71L715.707 515.305L716.129 515.835L716.146 515.825L716.254 515.738L717.029 514.294L719.115 510.486L718.52 510.161C713.829 507.592 709.563 504.064 706.02 499.612L705.598 499.082L701.007 502.741L701.429 503.271L701.962 502.849C698.049 497.933 695.278 492.459 693.649 486.774L692.995 486.961L693.185 487.612L698.814 485.971L698.624 485.317C697.503 481.515 696.96 477.607 696.96 473.705C696.96 472.14 697.05 470.572 697.219 469.017L697.295 468.342L691.483 467.684L691.407 468.359L692.082 468.436C692.76 462.443 694.597 456.564 697.551 451.187L696.956 450.862L696.627 451.457L701.768 454.272L702.094 453.677C704.664 448.982 708.186 444.713 712.635 441.168L713.168 440.746L709.511 436.151L708.978 436.574L709.404 437.107C714.313 433.191 719.782 430.418 725.466 428.788L725.28 428.133L724.626 428.324L726.269 433.96L726.923 433.766C730.718 432.644 734.627 432.101 738.526 432.101C740.09 432.101 741.654 432.191 743.211 432.36L743.882 432.437L744.539 426.62L743.865 426.544L743.792 427.223C749.794 427.887 755.651 429.736 761.024 432.693L761.353 432.097L760.74 431.803L760.727 431.827L759.097 434.801L757.942 436.913L758.537 437.242C763.228 439.811 767.507 443.353 771.036 447.788L771.462 448.321L771.991 447.895L771.569 447.365" fill="#2F6F68"/>
<path d="M772.309 559.68H133.445C131.354 559.68 129.659 557.983 129.659 555.892C129.659 553.801 131.354 552.105 133.445 552.105H772.309C774.402 552.105 776.094 553.801 776.094 555.892C776.094 557.983 774.402 559.68 772.309 559.68Z" fill="#3F8179"/>
<path d="M711.177 532.859H198.436C191.538 532.859 185.945 527.261 185.945 520.358V201.931C185.945 195.028 191.538 189.429 198.436 189.429H711.177C718.079 189.429 723.67 195.028 723.67 201.931V520.358C723.67 527.261 718.079 532.859 711.177 532.859Z" fill="#94CBC5"/>
<path d="M198.436 530.537C192.827 530.537 188.264 525.971 188.264 520.359V201.932C188.264 196.316 192.827 191.75 198.436 191.75H711.177C716.788 191.75 721.352 196.316 721.352 201.932V520.359C721.352 525.971 716.788 530.537 711.177 530.537H198.436Z" fill="#2F6F68"/>
<path d="M204.107 517.376H706.051V203.313H204.107V517.376Z" fill="#94CBC5"/>
<path d="M760.452 532.857V541.222C760.452 541.647 760.428 542.07 760.376 542.482C759.757 547.9 755.156 552.106 749.575 552.106H153.105C147.524 552.106 142.928 547.9 142.309 542.482C142.255 542.07 142.232 541.647 142.232 541.222V532.857H760.452Z" fill="#94CBC5"/>
<path d="M760.377 542.482C759.758 547.9 755.157 552.106 749.576 552.106H153.106C147.525 552.106 142.93 547.9 142.31 542.482H760.377Z" fill="#5BA29A"/>
<path d="M595.617 458.607H317.707C310.108 458.607 303.948 452.445 303.948 444.839V283.702C303.948 276.099 310.108 269.933 317.707 269.933H595.617C603.214 269.933 609.375 276.099 609.375 283.702V444.839C609.375 452.445 603.214 458.607 595.617 458.607Z" fill="#2F6F68"/>
<path d="M502.947 409.663H458.08C454.281 409.663 451.178 406.554 451.178 402.756C451.178 398.955 454.281 395.849 458.08 395.849H502.947C506.745 395.849 509.852 398.955 509.852 402.756C509.852 406.554 506.745 409.663 502.947 409.663Z" fill="#1C5C55"/>
<path d="M535.531 354.628H437.625C433.829 354.628 430.723 351.519 430.723 347.721C430.723 343.92 433.829 340.811 437.625 340.811H535.531C539.329 340.811 542.432 343.92 542.432 347.721C542.432 351.519 539.329 354.628 535.531 354.628Z" fill="white"/>
<path d="M535.531 380.631H437.625C433.829 380.631 430.723 377.522 430.723 373.724C430.723 369.926 433.829 366.817 437.625 366.817H535.531C539.329 366.817 542.432 369.926 542.432 373.724C542.432 377.522 539.329 380.631 535.531 380.631Z" fill="white"/>
<path d="M462.525 374.336C462.525 375.68 461.439 376.767 460.096 376.767C458.754 376.767 457.664 375.68 457.664 374.336C457.664 372.993 458.754 371.902 460.096 371.902C461.439 371.902 462.525 372.993 462.525 374.336Z" fill="#1C5C55"/>
<path d="M470.859 374.336C470.859 375.68 469.769 376.767 468.427 376.767C467.084 376.767 465.998 375.68 465.998 374.336C465.998 372.993 467.084 371.902 468.427 371.902C469.769 371.902 470.859 372.993 470.859 374.336Z" fill="#1C5C55"/>
<path d="M479.19 374.336C479.19 375.68 478.1 376.767 476.758 376.767C475.415 376.767 474.329 375.68 474.329 374.336C474.329 372.993 475.415 371.902 476.758 371.902C478.1 371.902 479.19 372.993 479.19 374.336Z" fill="#1C5C55"/>
<path d="M487.52 374.336C487.52 375.68 486.434 376.767 485.091 376.767C483.749 376.767 482.659 375.68 482.659 374.336C482.659 372.993 483.749 371.902 485.091 371.902C486.434 371.902 487.52 372.993 487.52 374.336Z" fill="#1C5C55"/>
<path d="M495.854 374.336C495.854 375.68 494.764 376.767 493.422 376.767C492.079 376.767 490.993 375.68 490.993 374.336C490.993 372.993 492.079 371.902 493.422 371.902C494.764 371.902 495.854 372.993 495.854 374.336Z" fill="#1C5C55"/>
<path d="M504.185 374.336C504.185 375.68 503.099 376.767 501.756 376.767C500.414 376.767 499.324 375.68 499.324 374.336C499.324 372.993 500.414 371.902 501.756 371.902C503.099 371.902 504.185 372.993 504.185 374.336Z" fill="#1C5C55"/>
<path d="M512.519 374.336C512.519 375.68 511.429 376.767 510.087 376.767C508.745 376.767 507.658 375.68 507.658 374.336C507.658 372.993 508.745 371.902 510.087 371.902C511.429 371.902 512.519 372.993 512.519 374.336Z" fill="#1C5C55"/>
<path d="M520.849 374.336C520.849 375.68 519.763 376.767 518.42 376.767C517.078 376.767 515.988 375.68 515.988 374.336C515.988 372.993 517.078 371.902 518.42 371.902C519.763 371.902 520.849 372.993 520.849 374.336Z" fill="#1C5C55"/>
<path d="M497.981 310.634C497.981 318.6 491.526 325.061 483.562 325.061C475.601 325.061 469.146 318.6 469.146 310.634C469.146 302.664 475.601 296.204 483.562 296.204C491.526 296.204 497.981 302.664 497.981 310.634Z" fill="white"/>
<path d="M483.583 310.052C484.991 310.052 486.292 309.366 487.122 308.317C487.734 307.559 488.098 306.583 488.098 305.499C488.098 303.006 486.074 300.95 483.583 300.95C481.058 300.95 479.037 303.006 479.037 305.499C479.037 306.583 479.397 307.559 480.009 308.317C480.84 309.366 482.14 310.052 483.583 310.052Z" fill="#2F6F68"/>
<path d="M491.573 318.16C491.573 321.034 475.545 321.034 475.545 318.16L475.552 314.816C476.185 310.239 490.272 310.045 491.577 314.816L491.573 318.16" fill="#2F6F68"/>
<path d="M450.185 374.918V376.334C450.185 376.587 449.967 376.767 449.714 376.767C449.458 376.767 449.278 376.587 449.278 376.334V374.918C449.022 374.772 448.843 374.52 448.843 374.191C448.843 373.72 449.24 373.322 449.714 373.322C450.185 373.322 450.583 373.72 450.583 374.191C450.583 374.52 450.403 374.772 450.185 374.918ZM447.974 372.079C447.974 371.141 448.555 370.286 449.721 370.286C450.891 370.286 451.489 371.085 451.489 372.079V372.449H447.974V372.079ZM452.437 372.449V372.079C452.437 370.58 451.219 369.361 449.721 369.361C448.223 369.361 447.005 370.58 447.005 372.079V372.449H446.594V377.348C446.594 378.196 452.869 378.196 452.869 377.348V372.449H452.437Z" fill="#4D4D4D"/>
<path d="M440.673 347.218C441.219 347.218 441.728 346.951 442.053 346.539C442.292 346.245 442.434 345.864 442.434 345.442C442.434 344.469 441.645 343.666 440.673 343.666C439.683 343.666 438.895 344.469 438.895 345.442C438.895 345.864 439.036 346.245 439.275 346.539C439.6 346.951 440.109 347.218 440.673 347.218Z" fill="#4D4D4D"/>
<path d="M443.791 350.381C443.791 351.503 437.505 351.503 437.505 350.381L437.536 349.076C437.785 347.29 443.282 347.214 443.794 349.076L443.791 350.381" fill="#4D4D4D"/>
<path d="M476.78 349.745H451.356C450.242 349.745 449.332 348.835 449.332 347.72C449.332 346.605 450.242 345.691 451.356 345.691H476.78C477.894 345.691 478.808 346.605 478.808 347.72C478.808 348.835 477.894 349.745 476.78 349.745Z" fill="#1C5C55"/>
<path d="M461.026 334.956H436.477C435.363 334.956 434.449 334.046 434.449 332.927C434.449 331.812 435.363 330.902 436.477 330.902H461.026C462.14 330.902 463.049 331.812 463.049 332.927C463.049 334.046 462.14 334.956 461.026 334.956Z" fill="#94CBC5"/>
<path d="M510.315 349.745H484.891C483.777 349.745 482.863 348.835 482.863 347.72C482.863 346.605 483.777 345.691 484.891 345.691H510.315C511.429 345.691 512.339 346.605 512.339 347.72C512.339 348.835 511.429 349.745 510.315 349.745Z" fill="#1C5C55"/>
<path d="M354.09 346.813V382.646C354.09 386.627 402.775 386.627 402.775 382.646V346.813H354.09Z" fill="white"/>
<path d="M384.442 360.345C384.442 363.665 381.75 366.358 378.433 366.358C375.111 366.358 372.42 363.665 372.42 360.345C372.42 357.021 375.111 354.331 378.433 354.331C381.75 354.331 384.442 357.021 384.442 360.345Z" fill="#2F6F68"/>
<path d="M378.433 378.46C377.073 378.46 375.97 377.359 375.97 375.995V362.198H380.896V375.995C380.896 377.359 379.793 378.46 378.433 378.46" fill="#2F6F68"/>
<path d="M398.508 344.263H393.582V341.846C393.582 333.489 386.784 326.686 378.432 326.686C370.077 326.686 363.283 333.489 363.283 341.846V344.263H358.356V341.846C358.356 330.767 367.362 321.756 378.432 321.756C389.503 321.756 398.508 330.767 398.508 341.846V344.263Z" fill="white"/>
<path d="M587.824 344.85L590.149 354.208L590.575 355.949C591.045 358.158 605.638 357.22 604.603 354.634L603.735 352.726L599.244 342.873L587.824 344.85" fill="#F7A58E"/>
<path d="M579.29 330.964C579.141 341.111 583.849 349.365 591.218 349.33C598.584 349.295 605.714 343.039 605.97 330.832C606.136 323.056 599.929 316.779 592.564 316.814C585.195 316.852 579.404 323.184 579.29 330.964" fill="#F7A58E"/>
<path d="M592.341 314.024C592.341 314.024 577.659 314.751 576.438 325.878C574.808 335.641 582.129 328.464 585.118 335.018C588.543 342.524 585.052 348.018 580.603 349.51C584.557 355.036 607.18 354.838 613.002 345.138C616.988 332.975 611.345 314.699 592.341 314.024Z" fill="black"/>
<path d="M582.046 334.616C581.925 336.123 583.046 337.442 584.551 337.566C586.056 337.687 587.377 336.566 587.498 335.06C587.62 333.554 586.499 332.231 584.994 332.11C583.489 331.985 582.171 333.11 582.046 334.616Z" fill="#F7A58E"/>
<path d="M584.295 523.442C583.606 522.712 580.361 522.701 580.064 523.778C579.77 524.858 580.341 525.627 578.971 527.337C579.759 527.566 582.555 527.587 583.409 527.337C584.267 527.088 584.983 524.169 584.295 523.442Z" fill="white"/>
<path d="M589.661 527.126H581.749C581.009 493.63 581.151 457.164 581.417 429.699C581.514 419.863 581.784 414.888 583.565 408.985C587.167 397.062 604.094 400.732 605.295 411.54C605.793 417.537 606.16 429.235 595.082 468.994C599.881 486.498 591.509 507.485 589.661 527.126" fill="#00050D"/>
<path d="M577.317 527.639C578.483 527.576 581.205 526.455 581.717 525.679C582.472 526.524 584.049 526.759 585.948 526.475C588.194 526.14 588.488 525.094 590.1 525.236C590.778 527.123 592.432 531.361 590.837 532.344C590.837 532.344 581.403 532.344 574.203 532.344C572.719 530.987 572.761 528.092 577.317 527.639Z" fill="white"/>
<path d="M624.568 524.29C623.99 523.674 621.264 523.667 621.015 524.571C620.766 525.478 621.247 526.125 620.095 527.562C620.755 527.756 623.108 527.773 623.824 527.562C624.544 527.354 625.145 524.903 624.568 524.29Z" fill="white"/>
<path d="M598.499 411.236C600.115 398.887 622.069 400.154 623.529 410.938C624.059 416.741 625.667 425.476 621.544 468.572C630.244 485.02 627.788 508.621 630.386 525.994C630.674 528.636 623.19 529.269 622.609 526.915C614.638 494.683 603.495 458.521 599.354 431.707C597.849 421.986 597.697 417.353 598.499 411.236" fill="#00050D"/>
<path d="M618.682 527.126C619.845 527.064 621.564 525.548 622.076 524.772C622.834 525.62 624.276 526.759 626.176 526.475C628.421 526.14 628.718 525.094 630.327 525.236C631.009 527.123 632.662 531.361 631.064 532.344C631.064 532.344 622.086 532.344 614.887 532.344C613.403 530.987 614.122 527.583 618.682 527.126Z" fill="white"/>
<path d="M528.551 393.78L527.731 389.664C529.741 388.878 532.786 387.254 536.332 385.873L538.276 392.548C534.353 393.129 530.876 393.555 528.551 393.78" fill="#F7A58E"/>
<path d="M536.332 385.873C543.161 382.698 554.862 375.788 557.55 374.535L586.42 356.798C592.644 354.905 599.905 367.24 592.031 372.804C592.031 372.804 547.392 391.191 538.276 392.548L536.332 385.873" fill="#FF7268"/>
<path d="M525.63 397.09C522.838 396.252 521.869 392.136 521.8 391.824L527.574 389.712C530.386 388.577 531.995 391.976 530.22 394.431C530.22 394.431 528.29 397.71 525.63 397.09" fill="#F7A58E"/>
<path d="M523.139 393.43C516.465 394.864 516.725 393.226 516.725 393.226C516.725 393.226 518.977 392.478 523.042 391.367C525.391 390.844 524.744 392.908 523.139 393.43" fill="#F7A58E"/>
<path d="M581.59 374.42C580.202 367.662 579.458 360.99 586.419 356.798C590.543 354.308 603.807 352.532 610.01 354.585C616.258 357.379 614.909 369.569 616.078 388.819C620.385 398.426 622.257 401.58 623.53 410.938C623.53 410.938 621.226 417.987 604.997 417.997C597.628 418.001 586.772 417.343 581.835 413.583C582.326 407.202 584.994 401.054 586.104 392.021C586.104 392.021 581.69 375.195 581.59 374.42" fill="#FF7268"/>
<path d="M613.34 355.945C620.958 361.765 628.389 370.915 631.901 375.776C635.412 380.637 644.508 400.17 644.508 400.17L638.72 404.442L623.062 383.092L603.934 367.391C597.295 360.609 605.923 350.274 613.34 355.945" fill="#FF7268"/>
<path d="M646.935 405.125L643.181 397.366C642.299 399.699 638.006 401.825 636.771 401.784C636.771 401.784 640.804 407.593 641.79 408.58C642.78 409.566 646.852 407.894 646.935 405.125Z" fill="#F7A58E"/>
<path d="M640.84 407.282C640.854 407.341 640.84 407.42 640.854 407.476C641.041 410.301 643.21 411.637 643.798 411.952C643.843 411.99 643.895 412.001 643.947 412.015C641.909 411.603 641.297 414.338 642.335 414.971C645.338 417.004 649.614 414.206 649.977 412.51C650.344 410.789 646.926 405.09 646.926 405.09C645.182 403.681 640.716 403.899 640.84 407.282Z" fill="#F7A58E"/>
<path d="M640.855 407.476C640.977 410.668 643.848 411.98 643.9 411.99C645.581 411.945 646.183 411.845 647.785 411.848C646.74 411.336 644.592 409.979 645.422 407.337C643.779 406.077 641.305 407.178 640.855 407.476" fill="#E6856A"/>
<path d="M640.809 407.117C640.37 409.748 640.557 413.501 641.183 415.152C641.183 415.152 642.795 415.239 642.643 412.189C642.605 411.396 642.719 409.672 643.504 409.097C645.919 407.501 646.307 406.036 645.421 404.832C644.241 403.232 640.903 404.856 640.809 407.117" fill="#F7A58E"/>
<path d="M648.286 414.314C646.978 415.221 643.508 416.986 642.962 416.55C642.411 416.114 645.186 413.161 646.978 412.769C648.767 412.378 648.961 413.846 648.286 414.314" fill="#F7A58E"/>
<path d="M549.57 189.405C553.317 183.973 549.868 167.071 533.867 162.214C520.351 158.728 513.314 163.007 495.03 167.989L497.756 189.405H549.57Z" fill="#2F6F68"/>
<path d="M516.954 163.1C516.954 163.1 484.199 169.868 472.108 174.321C465.175 176.872 463.455 182.612 466.126 187.027C470.087 193.567 517.075 188.927 517.075 188.927C533.287 184.388 524.707 162.816 516.954 163.1" fill="#2F6F68"/>
<path d="M532.2 161.261C532.2 161.261 553.117 168.362 564.879 173.618C576.296 174.518 575.549 188.705 570.145 189.623C557.714 192.995 530.339 187.026 530.339 187.026C514.47 181.4 524.482 160.458 532.2 161.261" fill="#2F6F68"/>
<path d="M499.034 175.861C499.034 175.861 492.44 165.818 508.807 158.038C525.171 150.259 536.183 158.035 533.453 167.455C530.727 176.872 521.082 183.152 521.082 183.152C521.082 183.152 504.763 183.232 499.034 175.861Z" fill="#2F6F68"/>
<path d="M517.46 174.518C525.334 169.047 522.171 158.398 522.171 158.398L519.189 152.703L516.702 147.963L503.562 153.028L505.953 162.764C505.953 162.764 506.603 165.042 508.032 167.59C509.845 170.827 512.903 174.504 517.46 174.518" fill="#F7A28A"/>
<path d="M508.032 167.589C514.339 163.517 517.567 157.365 519.189 152.702L516.702 147.962L503.562 153.027L505.953 162.763C505.953 162.763 506.603 165.041 508.032 167.589" fill="#F0896C"/>
<path d="M488.44 135.438C488.44 135.438 485.416 136.248 484.981 139.863C484.548 143.477 488.132 144.952 488.132 144.952C488.132 144.952 485.783 149.463 490.748 151.288C500.86 155.009 499.874 133.184 488.44 135.438Z" fill="#3D3D3D"/>
<path d="M491.322 147.091C494.419 156.238 500.867 164.81 506.057 162.677C514.858 159.059 522.247 149.217 518.594 138.858C514.941 128.496 507.091 123.736 498.767 126.675C490.44 129.614 487.797 136.684 491.322 147.091" fill="#F7A28A"/>
<path d="M487.083 135.275C488.941 136.854 495.829 139.533 510.069 132.63C512.435 134.34 514.196 136.94 515.4 139.834C516.742 139.516 517.285 138.817 518.209 139.966C519.489 141.555 520.16 145.031 518.572 146.309C518.171 146.634 517.721 146.859 517.254 146.991C516.683 149.428 517.227 152.108 519.188 152.703C522.215 150.262 521.849 149.698 522.966 146.89C526.502 144.408 526.512 138.959 523.665 137.466C526.367 134.932 523.104 129.379 519.105 129.195C519.133 126.121 515.227 120.634 510.314 123.847C510.456 120.544 504.468 118.376 501.226 123.241C498.614 119.675 490.688 121.832 490.993 126.571C486.201 125.737 483.568 132.187 487.083 135.275" fill="#3D3D3D"/>
<path d="M466.136 184.566C466.136 184.566 465.305 192.525 479.953 193.799C496.639 195.25 510.719 194.828 510.719 194.828L512.221 188.523C512.221 188.523 482.624 178.476 475.38 178.04C466.751 177.517 466.136 184.566 466.136 184.566" fill="#F7A28A"/>
<path d="M511.865 188.401L521.21 186.448C521.21 186.448 527.233 189.332 529.108 193.078C527.734 194.619 523.998 191.375 523.998 191.375C523.998 191.375 524.375 197.644 523.458 198.835C522.538 200.026 517.947 200.823 516.446 199.528C514.941 198.233 517.556 196.696 517.556 196.696L510.72 194.826C510.72 194.826 507.541 190.052 511.865 188.401" fill="#F7A28A"/>
<path d="M516.964 135.02C516.964 134.878 516.85 134.76 516.708 134.76C516.566 134.76 516.448 134.878 516.448 135.02C516.448 135.162 516.566 135.276 516.708 135.276C516.85 135.276 516.964 135.162 516.964 135.02Z" fill="#F7A28A"/>
<path d="M570.781 180.016C570.781 180.016 575.714 186.31 563.99 195.191C550.639 205.307 538.493 212.449 538.493 212.449L533.867 207.91C533.867 207.91 553.58 183.641 559.482 179.414C566.508 174.377 570.781 180.016 570.781 180.016" fill="#F7A28A"/>
<path d="M533.861 207.904L528.644 215.909C528.644 215.909 529.138 222.573 531.947 225.679C533.878 224.962 532.217 220.299 532.217 220.299C532.217 220.299 537.919 222.926 539.361 222.504C540.804 222.082 543.212 218.09 542.555 216.22C541.897 214.347 539.514 216.227 539.514 216.227L540.645 210.269C541.569 206.949 536.047 204.553 533.861 207.904" fill="#F7A28A"/>
<path d="M275.765 327.627C276.67 336.172 272.369 345.28 266.957 345.214C259.532 345.124 249.932 339.007 249.027 330.466C248.122 321.922 253.374 314.36 260.757 313.578C268.141 312.796 274.86 319.086 275.765 327.627" fill="#F7B28A"/>
<path d="M229.755 524.29C229.755 524.29 237.553 523.418 243.632 524.29C248.674 527.621 250.849 527.427 250.849 527.427C253.004 527.991 253.964 530.955 252.095 530.955H229.126L229.755 524.29Z" fill="white"/>
<path d="M266.954 524.29C266.954 524.29 274.618 523.418 280.831 524.29C286.383 527.621 288.529 527.427 288.529 527.427C290.77 527.991 292.184 530.955 290.314 530.955H267.346L266.954 524.29Z" fill="white"/>
<path d="M259.809 355.322L245.372 350.448L255.83 328.65L265.98 333.528L259.809 355.322Z" fill="#F7B28A"/>
<path d="M274.137 370.612C274.137 370.612 285.337 378.824 279.871 387.538C275.797 394.029 262.758 386.998 262.758 379.443C262.758 372.633 267.997 368.617 274.137 370.612" fill="#F7A28A"/>
<path d="M239.542 404.415C239.542 404.415 236.849 409.089 235.048 418.395C234.408 421.701 235.157 436.657 234.944 461.844C229.707 494.419 229.126 527.039 229.126 527.039L243.632 524.29L265.839 405.772L239.542 404.415" fill="#00050D"/>
<path d="M272.38 407.438C275.231 429.799 277.292 449.873 277.477 464.514L280.83 524.291L267.037 526.929C264.209 508.379 259.503 485.214 258.759 463.721L243.72 407.611L272.38 407.438" fill="#00050D"/>
<path d="M235.25 406.288C236.207 412.07 236.727 412.461 236.727 412.461L273.473 413.271C273.473 413.271 272.381 407.438 273.305 404.419C273.476 403.858 273.52 402.113 273.274 399.503C272.926 395.76 272.131 390.301 271.066 384.325C268.774 371.477 265.223 356.24 262.098 350.514L246.057 346.664C246.057 346.664 238.903 353.924 237.328 360.353C235.75 366.779 234.295 400.514 235.25 406.288" fill="#2F6F68"/>
<path d="M261.1 380.098L273.274 399.503C272.925 395.76 272.131 390.301 271.066 384.325L261.1 380.098" fill="#F7A28A"/>
<path d="M256.71 375.261C256.71 375.261 252.395 384.563 256.876 387.052C261.358 389.545 265.839 381.572 265.839 381.572L256.71 375.261Z" fill="#F7B28A"/>
<path d="M274.483 350.476L271.377 370.546L261.712 359.159C261.712 359.159 253.025 350.344 246.052 358.304C239.078 366.26 249.967 374.219 249.967 374.219C249.967 374.219 265.871 387.174 276.026 385.828C286.181 384.481 279.843 350.857 279.843 350.857L274.483 350.476" fill="#2F6F68"/>
<path d="M274.482 350.476L272.916 342.831L276.909 336.762C276.909 336.762 278.397 335.665 278.945 339.033C280.039 340.602 281.372 341.762 281.216 343.534C281.059 345.303 279.842 350.856 279.842 350.856L274.482 350.476" fill="#F7B28A"/>
<path d="M246.057 346.664L247.192 343.724L264.186 350.476L265.522 357.86L246.057 346.664Z" fill="#FFD1B6"/>
<path d="M250.832 339.21C250.832 339.21 245.289 331.226 247.024 321.681C248.758 312.133 262.894 310.139 262.894 310.139C262.894 310.139 277.636 309.27 280.932 324.285C279.371 326.279 272.953 322.983 272.953 322.983L262.405 332.615C262.405 332.615 262.529 325.064 258.809 326.975C255.089 328.883 256.199 334.959 256.199 334.959C256.199 334.959 252.732 338.604 250.832 339.21" fill="black"/>
<path d="M656.239 289.339C656.243 289.079 656.243 288.965 656.243 288.941C656.243 288.989 656.239 289.339 656.239 289.339Z" fill="#D9FFFF"/>
<path d="M656.239 289.339C656.243 289.079 656.243 288.965 656.243 288.941C656.243 288.989 656.239 289.339 656.239 289.339Z" fill="#D9FFFF"/>
<path d="M810.908 290.031C810.908 290.031 810.912 289.678 810.912 289.633C810.912 289.657 810.912 289.772 810.908 290.031Z" fill="#D9FFFF"/>
<path d="M810.908 290.031C810.908 290.031 810.912 289.678 810.912 289.633C810.912 289.657 810.912 289.772 810.908 290.031Z" fill="#D9FFFF"/>
<path d="M733.863 252.968C716.741 271.321 689.421 286.36 660.188 292.769C660.177 294.725 660.129 305.551 659.907 355.447C659.61 422.006 722.91 454.532 732.735 459.524C742.259 455.138 806.355 422.663 806.652 356.101C806.877 306.205 806.926 295.379 806.932 293.427C777.758 286.759 750.818 271.473 733.863 252.968Z" fill="#A3D6D0"/>
<path d="M733.708 260.187C716.057 276.389 691.608 289.123 664.717 296.065L664.454 355.433C664.333 382.6 675.117 407.174 696.507 428.48C710.563 442.477 725.339 451.16 732.836 455.062C733.161 454.899 733.514 454.712 733.864 454.532V260.325C733.812 260.277 733.76 260.232 733.708 260.187" fill="#94CBC5"/>
<path d="M733.863 260.326V454.532C741.658 450.475 755.832 442.083 769.403 428.805C790.984 407.693 801.986 383.216 802.107 356.049L802.373 296.681C775.624 289.522 751.355 276.618 733.863 260.326Z" fill="#2F6F68"/>
<path d="M787.735 319.832C767.264 322.99 739.39 341.675 721.805 364.14C719.339 353.546 708.265 343.877 702.473 341.761L684.923 359.418C695.879 364.358 707.856 378.363 709.444 392.699L726.978 395.417C734.367 380.803 753.461 345.85 791.443 327.058C790.71 324.195 788.029 320.241 787.735 319.832" fill="white"/>
</g>
</svg>
