<svg width="303" height="176" viewBox="0 0 303 176" fill="none" xmlns="http://www.w3.org/2000/svg">
<path d="M302.955 136.084C302.944 136.745 302.933 137.395 302.888 138.045C302.866 138.695 302.832 139.323 302.776 139.962C302.585 142.73 302.249 145.42 301.811 147.976C301.677 148.738 301.542 149.489 301.396 150.229C301.374 150.408 301.329 150.576 301.307 150.745L301.284 150.834C301.195 151.294 301.094 151.731 301.004 152.19C300.825 152.986 300.645 153.771 300.454 154.544C300.41 154.69 300.376 154.825 300.342 154.97C299.826 156.988 299.277 158.882 298.705 160.653C298.615 160.945 298.514 161.247 298.425 161.539C298.167 162.323 297.909 163.052 297.662 163.78C297.471 164.307 297.281 164.8 297.112 165.282C296.137 167.883 295.172 170.046 294.41 171.694C293.692 173.207 293.098 174.485 292.784 175.135C292.649 175.415 292.57 175.583 292.57 175.583C292.57 175.583 143.571 175.606 61.3335 175.628C29.977 175.628 8.33256 175.628 8.33256 175.628C8.33256 175.617 8.32135 175.617 8.32135 175.617C8.1307 175.471 7.96248 175.336 7.78304 175.191C7.77182 175.191 7.77182 175.191 7.77182 175.191C7.69332 175.124 7.61482 175.067 7.54753 175L3.63358 170.775C2.77004 169.553 2.07473 168.253 1.53642 166.896C0.504664 164.374 0 161.628 0 158.77C0 158.635 -1.71363e-07 158.49 0.0112146 158.344C0.0112146 158.086 0.0224292 157.817 0.0224292 157.559C0.0336439 157.335 0.0448588 157.1 0.0672883 156.876C0.134577 156.046 0.224295 155.206 0.358872 154.376C0.358872 154.354 0.370086 154.32 0.370086 154.298C0.392516 154.163 0.426161 154.018 0.437376 153.872C0.459805 153.692 0.504664 153.524 0.549523 153.345C0.672885 152.728 0.818677 152.112 0.975683 151.473C0.998113 151.327 1.04297 151.182 1.08783 151.025C1.1439 150.845 1.17755 150.677 1.24484 150.498C1.39063 149.949 1.58128 149.4 1.77193 148.828C2.1308 147.752 2.56818 146.676 3.05041 145.589C3.07284 145.51 3.1177 145.409 3.16256 145.331C3.61115 144.356 4.09338 143.38 4.60926 142.405C5.40551 140.926 6.30269 139.469 7.27838 138.011C7.49146 137.698 7.70454 137.395 7.92883 137.104C9.01666 135.557 10.2166 134.044 11.5176 132.553C13.0876 130.737 14.8147 128.955 16.6651 127.229C17.0801 126.836 17.495 126.466 17.91 126.085C17.9997 126.007 18.1006 125.928 18.1903 125.828C18.4371 125.626 18.6726 125.413 18.9193 125.211C19.9398 124.326 20.9379 123.496 21.9136 122.689C22.4071 122.286 22.8893 121.893 23.3828 121.512C24.336 120.75 25.2668 119.999 26.1528 119.27C28.878 117.029 31.3004 114.921 33.2069 112.545C33.8686 111.738 34.4517 110.898 34.9788 110.023C35.9321 108.42 36.6722 106.694 37.1545 104.733C37.2666 104.24 37.3676 103.724 37.4461 103.197C37.6928 101.774 37.8049 100.227 37.7713 98.5343C37.7601 97.2005 37.6479 95.7658 37.4461 94.2414C37.4012 93.9163 37.3563 93.5801 37.3003 93.2326C37.0199 91.3383 36.5825 89.2871 36.0106 87.0454C35.8536 86.4177 35.6741 85.7676 35.4835 85.1063C35.1583 83.963 34.9003 82.8309 34.6984 81.7324C34.3059 79.5916 34.1489 77.5404 34.1714 75.5452C34.1826 73.7294 34.362 71.9696 34.6984 70.2771V70.2547C34.99 68.6407 35.4274 67.0826 35.9433 65.5807C42.3806 47.2768 64.283 36.4604 70.1034 34.0505C78.3911 30.5982 88.2152 28.6591 98.4207 27.953C99.2506 27.8969 100.092 27.8409 100.922 27.8073C103.277 27.684 105.654 27.6279 108.021 27.6279C108.985 27.6279 109.938 27.6391 110.891 27.6503C112.495 27.6952 114.076 27.74 115.68 27.8409C117.161 27.9194 118.618 28.0202 120.088 28.1323C126.166 28.6479 132.087 29.4998 137.594 30.6543C142.607 31.6967 147.126 33.0193 151.231 34.5325C151.231 34.5325 151.231 34.5325 151.242 34.5437C160.943 38.1305 168.277 42.8158 174.143 47.6915C175.5 48.8236 176.789 49.9669 178.001 51.099C178.158 51.2447 178.337 51.4128 178.494 51.5698C178.875 51.9172 179.234 52.2647 179.593 52.6346C179.75 52.7915 179.929 52.9596 180.087 53.1166C181.152 54.1814 182.172 55.235 183.137 56.2774C183.619 56.8042 184.101 57.3198 184.572 57.8354C187.129 60.66 189.384 63.2941 191.537 65.5583C191.806 65.8497 192.075 66.1187 192.344 66.3989C196.045 70.165 199.466 72.7094 203.66 72.9896C206.295 73.169 209.368 72.7206 212.822 72.0481C213.17 71.9809 213.506 71.9136 213.854 71.8351C219.159 70.7703 225.349 69.2683 232.213 68.6407C241.084 67.8224 251.121 68.4613 261.954 73.3819C262.302 73.5389 262.638 73.707 262.986 73.8639C264.567 74.6261 266.171 75.478 267.786 76.4307C268.122 76.6213 268.459 76.823 268.795 77.0248C270.433 78.0336 272.104 79.1432 273.786 80.3874C273.831 80.4098 273.864 80.4434 273.909 80.4771C274.638 81.0039 275.356 81.5643 276.085 82.1472C276.926 82.8197 277.789 83.5146 278.653 84.2544C280.728 86.0366 282.836 87.9981 284.944 90.1726C286.481 91.7418 287.905 93.3335 289.195 94.9363C290.092 96.0348 290.944 97.1556 291.718 98.2653C291.864 98.4671 291.999 98.6688 292.144 98.8706C293.49 100.843 294.701 102.838 295.778 104.834C295.901 105.08 296.036 105.327 296.17 105.573C297.583 108.342 298.75 111.122 299.681 113.89C299.759 114.137 299.838 114.361 299.927 114.585C300.331 115.829 300.679 117.085 301.004 118.329C301.43 120.033 301.789 121.725 302.069 123.418C302.787 127.755 303.034 132.004 302.955 136.084Z" fill="#2F6F68"/>
<path d="M253.323 88.6621H162.497C160.013 88.6621 158 86.6481 158 84.1622V31.4996C158 29.0149 160.013 26.9997 162.497 26.9997H253.323C255.806 26.9997 257.82 29.0149 257.82 31.4996V84.1622C257.82 86.6481 255.806 88.6621 253.323 88.6621Z" fill="#37887F"/>
<path d="M223.036 72.666H208.373C207.131 72.666 206.117 71.6499 206.117 70.4087C206.117 69.1663 207.131 68.1514 208.373 68.1514H223.036C224.278 68.1514 225.293 69.1663 225.293 70.4087C225.293 71.6499 224.278 72.666 223.036 72.666Z" fill="#1C5C55"/>
<path d="M233.685 54.2861H201.687C200.447 54.2861 199.432 53.2701 199.432 52.0288C199.432 50.7865 200.447 49.7704 201.687 49.7704H233.685C234.926 49.7704 235.941 50.7865 235.941 52.0288C235.941 53.2701 234.926 54.2861 233.685 54.2861Z" fill="white"/>
<path d="M233.685 62.7842H201.687C200.447 62.7842 199.432 61.7681 199.432 60.5268C199.432 59.2856 200.447 58.2695 201.687 58.2695H233.685C234.926 58.2695 235.941 59.2856 235.941 60.5268C235.941 61.7681 234.926 62.7842 233.685 62.7842Z" fill="white"/>
<path d="M209.826 60.7272C209.826 61.1662 209.471 61.5215 209.032 61.5215C208.593 61.5215 208.237 61.1662 208.237 60.7272C208.237 60.2882 208.593 59.9318 209.032 59.9318C209.471 59.9318 209.826 60.2882 209.826 60.7272Z" fill="#94CBC5"/>
<path d="M206.985 60.7272C206.985 61.1662 206.63 61.5215 206.191 61.5215C205.753 61.5215 205.396 61.1662 205.396 60.7272C205.396 60.2882 205.753 59.9318 206.191 59.9318C206.63 59.9318 206.985 60.2882 206.985 60.7272Z" fill="#94CBC5"/>
<path d="M212.55 60.7272C212.55 61.1662 212.193 61.5215 211.755 61.5215C211.316 61.5215 210.961 61.1662 210.961 60.7272C210.961 60.2882 211.316 59.9318 211.755 59.9318C212.193 59.9318 212.55 60.2882 212.55 60.7272Z" fill="#94CBC5"/>
<path d="M215.272 60.7272C215.272 61.1662 214.916 61.5215 214.477 61.5215C214.039 61.5215 213.684 61.1662 213.684 60.7272C213.684 60.2882 214.039 59.9318 214.477 59.9318C214.916 59.9318 215.272 60.2882 215.272 60.7272Z" fill="#94CBC5"/>
<path d="M217.995 60.7272C217.995 61.1662 217.64 61.5215 217.201 61.5215C216.762 61.5215 216.406 61.1662 216.406 60.7272C216.406 60.2882 216.762 59.9318 217.201 59.9318C217.64 59.9318 217.995 60.2882 217.995 60.7272Z" fill="#94CBC5"/>
<path d="M220.717 60.7272C220.717 61.1662 220.361 61.5215 219.923 61.5215C219.484 61.5215 219.129 61.1662 219.129 60.7272C219.129 60.2882 219.484 59.9318 219.923 59.9318C220.361 59.9318 220.717 60.2882 220.717 60.7272Z" fill="#94CBC5"/>
<path d="M223.441 60.7272C223.441 61.1662 223.086 61.5215 222.647 61.5215C222.209 61.5215 221.853 61.1662 221.853 60.7272C221.853 60.2882 222.209 59.9318 222.647 59.9318C223.086 59.9318 223.441 60.2882 223.441 60.7272Z" fill="#80B2FF"/>
<path d="M226.165 60.7272C226.165 61.1662 225.809 61.5215 225.37 61.5215C224.931 61.5215 224.576 61.1662 224.576 60.7272C224.576 60.2882 224.931 59.9318 225.37 59.9318C225.809 59.9318 226.165 60.2882 226.165 60.7272Z" fill="#80B2FF"/>
<path d="M228.887 60.7272C228.887 61.1662 228.532 61.5215 228.094 61.5215C227.655 61.5215 227.299 61.1662 227.299 60.7272C227.299 60.2882 227.655 59.9318 228.094 59.9318C228.532 59.9318 228.887 60.2882 228.887 60.7272Z" fill="#80B2FF"/>
<path d="M221.414 39.9072C221.414 42.5107 219.304 44.6221 216.702 44.6221C214.1 44.6221 211.99 42.5107 211.99 39.9072C211.99 37.3025 214.1 35.1911 216.702 35.1911C219.304 35.1911 221.414 37.3025 221.414 39.9072Z" fill="white"/>
<path d="M216.708 39.7178C217.169 39.7178 217.594 39.4937 217.865 39.1509C218.065 38.9031 218.184 38.584 218.184 38.2299C218.184 37.4152 217.522 36.7431 216.708 36.7431C215.883 36.7431 215.223 37.4152 215.223 38.2299C215.223 38.584 215.34 38.9031 215.54 39.1509C215.812 39.4937 216.237 39.7178 216.708 39.7178Z" fill="#2F6F68"/>
<path d="M219.319 42.3679C219.319 43.307 214.081 43.307 214.081 42.3679L214.083 41.2749C214.29 39.7791 218.894 39.7157 219.321 41.2749L219.319 42.3679" fill="#2F6F68"/>
<path d="M202.57 60.9177V61.3805C202.57 61.4631 202.499 61.5219 202.416 61.5219C202.333 61.5219 202.274 61.4631 202.274 61.3805V60.9177C202.19 60.8702 202.131 60.7876 202.131 60.6801C202.131 60.5262 202.261 60.3961 202.416 60.3961C202.57 60.3961 202.7 60.5262 202.7 60.6801C202.7 60.7876 202.641 60.8702 202.57 60.9177ZM201.848 59.9899C201.848 59.6833 202.038 59.4038 202.419 59.4038C202.801 59.4038 202.996 59.6652 202.996 59.9899V60.111H201.848V59.9899ZM203.306 60.111V59.9899C203.306 59.5 202.908 59.1017 202.419 59.1017C201.929 59.1017 201.531 59.5 201.531 59.9899V60.111H201.396V61.712C201.396 61.9892 203.448 61.9892 203.448 61.712V60.111H203.306Z" fill="#4D4D4D"/>
<path d="M202.685 51.8643C202.863 51.8643 203.03 51.7771 203.136 51.6425C203.214 51.5463 203.26 51.4218 203.26 51.2838C203.26 50.9658 203.002 50.7033 202.685 50.7033C202.361 50.7033 202.104 50.9658 202.104 51.2838C202.104 51.4218 202.15 51.5463 202.228 51.6425C202.334 51.7771 202.5 51.8643 202.685 51.8643Z" fill="#4D4D4D"/>
<path d="M203.703 52.8979C203.703 53.2645 201.648 53.2645 201.648 52.8979L201.659 52.4714C201.74 51.8875 203.537 51.8627 203.704 52.4714L203.703 52.8979" fill="#4D4D4D"/>
<path d="M214.484 52.6895H206.175C205.811 52.6895 205.514 52.3919 205.514 52.0275C205.514 51.6632 205.811 51.3645 206.175 51.3645H214.484C214.848 51.3645 215.147 51.6632 215.147 52.0275C215.147 52.3919 214.848 52.6895 214.484 52.6895Z" fill="#94CBC5"/>
<path d="M209.336 47.8564H201.313C200.949 47.8564 200.65 47.5589 200.65 47.1934C200.65 46.8291 200.949 46.5315 201.313 46.5315H209.336C209.7 46.5315 209.998 46.8291 209.998 47.1934C209.998 47.5589 209.7 47.8564 209.336 47.8564Z" fill="#94CBC5"/>
<path d="M225.444 52.6895H217.135C216.771 52.6895 216.473 52.3919 216.473 52.0275C216.473 51.6632 216.771 51.3645 217.135 51.3645H225.444C225.808 51.3645 226.106 51.6632 226.106 52.0275C226.106 52.3919 225.808 52.6895 225.444 52.6895Z" fill="#94CBC5"/>
<path d="M184.306 56.1537C184.306 57.2388 183.426 58.1191 182.342 58.1191C181.257 58.1191 180.377 57.2388 180.377 56.1537C180.377 55.0675 181.257 54.1884 182.342 54.1884C183.426 54.1884 184.306 55.0675 184.306 56.1537Z" fill="#2F6F68"/>
<path d="M182.342 62.0742C181.898 62.0742 181.537 61.7144 181.537 61.2686V56.7596H183.147V61.2686C183.147 61.7144 182.786 62.0742 182.342 62.0742" fill="#2F6F68"/>
<path d="M188.904 50.8984H187.294V50.1087C187.294 47.3773 185.072 45.1539 182.342 45.1539C179.612 45.1539 177.391 47.3773 177.391 50.1087V50.8984H175.781V50.1087C175.781 46.4879 178.724 43.5427 182.342 43.5427C185.961 43.5427 188.904 46.4879 188.904 50.1087V50.8984Z" fill="white"/>
<path d="M174.387 51.7312V63.4421C174.387 64.7433 190.298 64.7433 190.298 63.4421V51.7312H174.387Z" fill="white"/>
<path d="M28.803 167.181C28.803 171.635 74.9611 175.245 131.901 175.245C188.84 175.245 234.999 171.635 234.999 167.181C234.999 162.728 188.84 159.118 131.901 159.118C74.9611 159.118 28.803 162.728 28.803 167.181" fill="#35766F"/>
<path d="M132.064 66.8945C132.921 60.9832 135.488 57.3131 135.488 57.3131C135.488 57.3131 135.897 62.7771 132.064 66.8945Z" fill="#27203F"/>
<path d="M153.085 64.311L132.594 58.0529L130.28 64.311L151.884 69.541C151.884 69.541 154.741 79.1061 159.515 72.541C159.515 72.541 160.612 71.2413 160.558 66.9253C160.558 66.9253 160.667 64.8776 157.553 64.7953L153.085 64.311" fill="#27203F"/>
<path d="M132.756 57.3146L126.026 54.5033L108.614 35.1164C108.614 35.1164 105.394 30.7266 103.273 38.4078C103.273 38.4078 101.934 42.6891 106.053 46.6753L120.758 62.9169L130.872 64.4541L132.756 57.3146" fill="#27203F"/>
<path d="M131.489 55.8312L135.489 57.3131C135.489 57.3131 132.922 60.9832 132.065 66.8945L128.064 65.4126C128.921 59.5013 131.489 55.8312 131.489 55.8312" fill="#27203F"/>
<path d="M153.999 82.5L166.082 76.9349C166.082 76.9349 164.927 71.4575 174.054 70.5279C174.054 70.5279 172.584 49.4103 154.097 58.3833L155.798 62.0966L149.045 65.4221C149.045 65.4221 143.521 68.1126 153.999 82.5Z" fill="#1C2F36"/>
<path d="M158.925 56.5962C172.849 53.2403 174.054 70.5277 174.054 70.5277C172.278 70.7085 170.895 71.0637 169.814 71.5146L169.812 71.5132C169.812 71.5132 166.231 59.6884 158.925 56.5962" fill="#B0E1DC"/>
<path d="M172.139 63.1868C173.793 66.8307 174.054 70.5277 174.054 70.5277C172.278 70.7085 170.895 71.0637 169.814 71.5146L169.812 71.5132C169.812 71.5132 168.603 67.5291 166.162 63.5818C168.381 63.6463 170.438 63.4556 172.139 63.1868Z" fill="#B0E1DC"/>
<path d="M149.045 65.4221L155.799 62.0966C155.799 62.0966 163.635 61.5506 166.049 76.6733L165.945 76.9966L153.999 82.5C143.521 68.1126 149.045 65.4221 149.045 65.4221Z" fill="#94CBC5"/>
<path d="M149.101 75.6409L151.378 69.4176C155.752 73.7017 161.658 73.8676 165.387 73.4202C165.635 74.4178 165.86 75.492 166.049 76.6733L166.5 77L153.999 82.5C152.001 79.7567 150.052 77.6071 149.101 75.6409Z" fill="#94CBC5"/>
<path d="M159.706 79.8286L153.999 82.5C143.521 68.1126 149.044 65.4221 149.044 65.4221L149.175 65.3583C149.952 65.0392 154.154 64.2053 159.706 79.8286Z" fill="#94CBC5"/>
<path d="M114.879 97.4647V152.598H83.7693V97.4647H114.879Z" fill="#94CBC5"/>
<path d="M176.808 148.247C176.808 160.817 186.998 171.007 199.568 171.007C212.138 171.007 222.328 160.817 222.328 148.247C222.328 135.676 212.138 125.486 199.568 125.486C186.998 125.486 176.808 135.676 176.808 148.247Z" fill="#1C2F36"/>
<path d="M187.697 148.247C187.697 154.804 193.012 160.118 199.568 160.118C206.124 160.118 211.438 154.804 211.438 148.247C211.438 141.691 206.124 136.376 199.568 136.376C193.012 136.376 187.697 141.691 187.697 148.247Z" fill="#B1EAE4"/>
<path d="M199.568 125.487C207.626 125.487 214.701 129.677 218.745 135.996C217.597 136.207 216.388 136.098 216.388 136.098C184.509 134.335 177.456 151.524 177.456 151.524L177.056 151.607C176.894 150.51 176.808 149.389 176.808 148.247C176.808 135.676 186.998 125.487 199.568 125.487Z" fill="#94CBC5"/>
<path d="M43.4357 148.247C43.4357 160.817 53.6254 171.007 66.1955 171.007C78.7656 171.007 88.9561 160.817 88.9561 148.247C88.9561 135.676 78.7656 125.486 66.1955 125.486C53.6254 125.486 43.4357 135.676 43.4357 148.247" fill="#1C2F36"/>
<path d="M54.3258 148.247C54.3258 154.804 59.6408 160.118 66.1967 160.118C72.7526 160.118 78.0684 154.804 78.0684 148.247C78.0684 141.691 72.7526 136.376 66.1967 136.376C59.6408 136.376 54.3258 141.691 54.3258 148.247Z" fill="#B1EAE4"/>
<path d="M66.1955 125.485C78.7656 125.485 88.9561 135.674 88.9561 148.245C88.9561 148.498 88.9447 148.75 88.9369 149.001L44.3432 141.881C47.0979 132.409 55.8348 125.485 66.1955 125.485Z" fill="#94CBC5"/>
<path d="M150.361 68.1163C152.063 68.1163 153.442 69.6784 153.442 71.607C153.442 72.4231 153.195 73.174 152.78 73.7696L146.947 77.1191L144.647 70.6739L150.361 68.1163" fill="#342957"/>
<path d="M142.448 74.0194C142.448 75.9473 143.827 77.5107 145.53 77.5107C147.231 77.5107 148.611 75.9473 148.611 74.0194C148.611 72.0922 147.231 70.5287 145.53 70.5287C143.827 70.5287 142.448 72.0922 142.448 74.0194Z" fill="#1C2F36"/>
<path d="M186.567 94.2322C184.574 90.6444 182.068 86.7765 178.964 83.0029C181.304 81.6309 185.224 79.8292 189.484 79.9781C189.484 79.9781 195.27 83.544 192.02 95.1143C192.02 95.1143 189.733 94.9505 186.567 94.2322" fill="#1A2E35"/>
<path d="M64.161 142.787C64.161 142.787 69.1754 138.041 78.4881 142.787L93.4413 150.677L107.101 149.419L110.377 154.371L76.2489 157.74L61.8324 154.16C61.8324 154.16 54.5803 152.099 64.161 142.787" fill="#18252A"/>
<path d="M98.7129 142.852L43.4841 134.034L38.9973 127.537C38.9973 127.537 53.8491 94.7389 94.3813 104.331C94.3813 104.331 133.366 116.088 98.7129 142.852Z" fill="#B0E1DC"/>
<path d="M38.997 127.537C38.997 127.537 39.8486 125.66 41.6935 122.939L47.0284 127.227L99.8698 132.414C107.742 132.45 110.43 130.693 110.43 130.693C108.225 134.339 104.495 138.387 98.7126 142.852L43.4839 134.034L38.997 127.537Z" fill="#94CBC5"/>
<path d="M91.1839 110.39L91.2284 110.402C91.2699 110.413 91.3327 110.43 91.4146 110.454C91.5785 110.501 91.8187 110.574 92.118 110.677C92.7172 110.883 93.5512 111.207 94.4845 111.675C96.357 112.615 98.5971 114.12 100.16 116.397C101.712 118.657 102.621 121.71 101.792 125.813C100.969 129.89 98.425 135.025 93.0405 141.44L44.1741 133.638C44.2519 133.447 44.3513 133.21 44.4737 132.933C44.8321 132.122 45.3865 130.966 46.1674 129.598C47.7299 126.86 50.1952 123.277 53.8051 119.896C61.0061 113.152 72.7955 107.178 91.1839 110.39Z" fill="#94CBC5" stroke="#B1EAE4"/>
<path d="M47.0274 127.227L99.8652 132.414C98.3869 135.254 96.2399 138.429 93.2384 141.979L43.4829 134.034C43.4829 134.034 44.5082 131.093 47.0274 127.227Z" fill="#94CBC5"/>
<path d="M60.6867 91.6342L92.2132 88.6994C102.898 96.2891 121.789 91.2158 121.789 91.2158L138.236 102.048L134.111 114.364C121.571 112.432 58.3766 95.01 58.3766 95.01L60.6867 91.6342" fill="#94CBC5"/>
<path d="M135.61 109.934L64.9696 91.16L67.6456 90.9112L135.905 109.052L135.61 109.934" fill="#5F9D96"/>
<path d="M99.8698 106.556L100.127 106.129C112.382 109.327 124.264 112.313 130.896 113.679L131.089 114.284C123.522 132.981 136.763 133.64 136.763 133.64H143.328C155.455 135.087 160.671 126.607 160.671 126.607C168.354 109.81 157.675 88.6507 154.102 82.3728L168.953 75.6553C167.549 78.7779 165.624 85.9237 171.578 94.7387L179.003 107.425C179.003 107.425 182.562 112.684 175.755 122.585L161.194 146.719C161.194 146.719 156.108 152.443 139.09 150.122L105.52 147.028L101.698 140.429C123.498 121.796 108.823 110.912 99.8698 106.556Z" fill="#94CBC5"/>
<path d="M99.87 106.556L100.127 106.129C112.383 109.328 124.264 112.314 130.896 113.679L131.089 114.285C130.566 115.578 130.152 116.774 129.816 117.9C124.758 116.821 117.216 114.97 108.895 112.843C106.234 110.043 102.755 107.96 99.87 106.556" fill="#94CBC5"/>
<path d="M114.878 146.403V145.411C114.878 144.899 115.294 144.482 115.807 144.482H130.818C131.331 144.482 131.746 144.899 131.746 145.411V146.403C131.746 146.916 131.331 147.331 130.818 147.331H115.807C115.294 147.331 114.878 146.916 114.878 146.403Z" fill="#5F9D96"/>
<path d="M127.02 112.835C128.453 113.16 129.752 113.444 130.895 113.68L131.088 114.286C123.522 132.982 136.763 133.641 136.763 133.641H143.327C155.455 135.088 160.671 126.608 160.671 126.608C168.353 109.811 157.675 88.6519 154.101 82.374L168.953 75.6564C168.128 77.4922 167.124 80.7205 167.646 84.8585C167.643 84.8613 160.13 89.9169 166.917 105.826C166.917 105.826 172.595 117.931 165.025 128.636C165.025 128.636 161.91 132.752 157.57 137.425C157.57 137.425 152.007 141.875 142.327 140.318L130.422 137.982C130.422 137.982 118.071 134.198 123.078 121.402L127.02 112.835Z" fill="#94CBC5"/>
<path d="M188.126 117.93C199.527 111.016 209.575 118.171 209.575 118.171C227.169 130.211 215.042 129.105 215.042 129.105C185.386 127.464 178.825 143.455 178.825 143.455L174.861 144.274L172.595 141.869L188.126 117.93" fill="#94CBC5"/>
<path d="M179.388 131.399C176.103 138.328 174.862 144.274 174.862 144.274L172.596 141.869L179.388 131.399" fill="#94CBC5"/>
<path d="M192.114 111.785C201.123 112.769 208.311 117.412 208.311 117.412L208.31 117.413C205.268 115.776 197.121 112.477 188.127 117.931L192.114 111.785Z" fill="#94CBC5"/>
<path d="M209.576 118.172C209.576 118.172 209.123 117.853 208.309 117.414L208.31 117.413C208.31 117.413 202.952 113.954 195.692 112.374C196.07 111.605 196.755 110.477 197.715 109.998L208.974 110.454C208.974 110.454 213.852 113.113 212.589 120.319C211.698 119.654 210.698 118.94 209.576 118.172" fill="#1A2E35"/>
<path d="M208.974 110.454C208.974 110.454 213.852 113.113 212.589 120.319C211.996 119.876 211.35 119.41 210.657 118.923C209.2 114.78 208.974 110.454 208.974 110.454" fill="#B0E1DC"/>
<path d="M186.568 94.2347C185.945 93.113 185.273 91.9651 184.547 90.8001C183.423 86.7556 183.581 83.0409 183.864 80.8081C184.722 80.5387 185.628 80.3153 186.568 80.1678C186.148 82.8793 185.733 88.7906 188.625 94.6523C188 94.541 187.307 94.4021 186.568 94.2347Z" fill="#B0E1DC"/>
<path d="M89.2344 103.26L89.2266 103.315C81.0746 102.03 74.0642 102.516 68.0898 104.049L68.0876 104.045C69.532 98.9174 67.6835 97.4639 67.6835 97.4639C73.3346 99.0011 81.0299 101.081 89.2344 103.26Z" fill="#94CBC5"/>
<path d="M75.0855 85.9443V59.3882C75.0855 59.3882 75.3457 43.5154 63.1245 44.2571H31.6185C31.6185 44.2571 17.5247 42.9219 23.4588 62.9491L30.8761 85.9443H75.0855Z" fill="#94CBC5"/>
<path d="M46.6557 76.375H45.2207V79.875H46.6407C47.7007 79.875 48.4657 79.135 48.4657 78.125C48.4657 77.11 47.7057 76.375 46.6557 76.375ZM46.6707 79.345H45.8107V76.905H46.6457C47.3357 76.905 47.8707 77.415 47.8707 78.13C47.8707 78.84 47.3507 79.345 46.6707 79.345ZM49.0977 76.375V79.875H51.6577V79.345H49.6877V78.38H51.3977V77.85H49.6877V76.905H51.5977V76.375H49.0977ZM52.3789 76.375V79.875H54.4839V79.34H52.9689V76.375H52.3789ZM55.0498 76.375V79.875H55.6398V76.375H55.0498ZM56.1136 76.375L57.5086 79.875H58.1186L59.5336 76.375H58.9186L57.8286 79.22L56.7486 76.375H56.1136ZM60.0108 76.375V79.875H62.5708V79.345H60.6008V78.38H62.3108V77.85H60.6008V76.905H62.5108V76.375H60.0108ZM66.182 79.875L65.397 78.705C65.862 78.525 66.122 78.13 66.122 77.57C66.122 76.81 65.607 76.375 64.712 76.375H63.292V79.875H63.882V78.82H64.712C64.767 78.82 64.822 78.82 64.872 78.815L65.512 79.875H66.182ZM63.882 78.29V76.905H64.712C65.252 76.905 65.562 77.125 65.562 77.585C65.562 78.06 65.252 78.29 64.712 78.29H63.882ZM69.5862 76.375H68.9862L68.0062 78.08L67.0062 76.375H66.4112L67.7162 78.73V79.875H68.3012V78.71L69.5862 76.375Z" fill="#2F6F68"/>
<path d="M31.6188 44.2571H40.477C37.282 44.4393 28.5167 46.4013 33.4205 62.9491L40.8379 85.9443H30.8764L23.4591 62.9491C17.525 42.9219 31.6188 44.2571 31.6188 44.2571Z" fill="#1C5C55"/>
<path d="M40.3885 66.5617C40.3885 69.1242 42.4667 71.2031 45.0299 71.2031H52.0594C54.6227 71.2031 56.7002 69.1242 56.7002 66.5617V60.1043C56.7002 57.5404 54.6227 55.4629 52.0594 55.4629H45.0299C42.4667 55.4629 40.3885 57.5404 40.3885 60.1043V66.5617Z" fill="#1C5C55"/>
<path d="M33.3777 53.7837L74.0362 54.6246L74.551 54.5403C75.1189 57.229 75.0856 59.3894 75.0856 59.3894V64.7619L24.984 67.6797L23.4588 62.9503C22.8696 60.9593 22.4846 59.1874 22.257 57.597L33.3777 53.7837" fill="#2F6F68"/>
<path d="M79.5818 85.9445C80.3468 85.9445 80.9736 86.5706 80.9736 87.3364V87.3513C80.9736 88.1164 80.3468 88.7432 79.5818 88.7432H26.3944C25.6279 88.7432 25.0018 88.1164 25.0018 87.3513V87.3364C25.0018 86.5706 25.6279 85.9445 26.3944 85.9445H79.5818Z" fill="#354D56"/>
<path d="M50.7832 112.913L35.4791 88.7436H38.0147L52.4736 111.577C51.8894 112.016 51.3257 112.463 50.7832 112.913" fill="#354D56"/>
<path d="M75.0844 59.3884C75.0844 59.3884 75.0866 59.1963 75.0766 58.868H77.162C77.6753 58.868 78.0908 59.2842 78.0908 59.7961V69.6165C78.0908 70.1291 77.6753 70.5439 77.162 70.5439H75.0844V59.3884" fill="#1C5C55"/>
<path d="M169.876 73.9544C169.876 73.9544 163.532 82.8267 171.577 94.7395L179.003 107.426C179.003 107.426 182.561 112.685 175.754 122.586L161.194 146.72C161.194 146.72 156.107 152.444 139.09 150.123L105.519 147.028L111.608 156.233H156.111C161.535 154.471 166.15 151.708 168.948 147.493L193.235 110.056C193.235 110.056 187.666 88.285 169.876 73.9544" fill="#94CBC5"/>
<path d="M182.193 95.6783C181.801 95.021 180.854 94.4829 180.088 94.4829H179.624C178.858 94.4829 178.53 95.0338 178.894 95.7067L183.83 104.829C184.194 105.503 185.115 105.986 185.877 105.903L186.743 105.809C187.503 105.726 187.806 105.119 187.415 104.461L182.193 95.6783" fill="#5F9D96"/>
<path d="M174.848 92.5314L182.383 105.389C183.207 106.732 186.658 113.621 179.074 124.721L164.386 149.069L164.145 149.34C163.588 149.966 159.034 154.615 146.647 154.615C144.276 154.615 141.617 154.445 138.645 154.044L108.312 151.247L105.521 147.028L139.092 150.123C156.109 152.443 161.196 146.72 161.196 146.72L175.756 122.586C182.563 112.685 179.004 107.426 179.004 107.426L171.579 94.7394C163.534 82.8266 169.877 73.9543 169.877 73.9543C170.927 74.7995 171.934 75.6716 172.9 76.5643C172.048 78.0887 169.274 84.2773 174.848 92.5314" fill="#94CBC5"/>
<path d="M168.953 75.6554C168.519 76.6197 168.037 77.969 167.751 79.6303C165.186 80.8782 160.597 83.5982 157.163 88.3467C155.982 85.7884 154.774 83.8593 154 82.5L168.953 75.6554Z" fill="#94CBC5"/>
<path d="M189.484 79.9781C189.484 79.9781 195.27 83.544 192.02 95.1143C185.066 86.6645 189.484 79.9781 189.484 79.9781Z" fill="#B0E1DC"/>
<path d="M192.021 95.1143C189.723 92.322 188.671 89.7241 188.287 87.4941C189.926 88.7775 191.541 89.5057 192.963 89.902C192.859 91.4251 192.573 93.1523 192.021 95.1143" fill="#B0E1DC"/>
<path d="M23.5829 63.333L23.4588 62.9487C17.5247 42.9215 31.6185 44.2567 31.6185 44.2567H63.1245C75.3457 43.515 75.0855 59.3878 75.0855 59.3878V63.333H23.5829" fill="#94CBC5"/>
<path d="M31.6194 44.2567H40.4775C37.2826 44.4389 28.5173 46.4009 33.4211 62.9487L33.5451 63.333H23.5837L23.4596 62.9487C17.5255 42.9215 31.6194 44.2567 31.6194 44.2567" fill="#1C5C55"/>
<path d="M63.1247 44.2568C63.6267 44.2263 64.0997 44.2334 64.5605 44.2568H63.1247Z" fill="#C82240"/>
<path d="M74.7256 55.4629H22.0353C22.0012 54.8737 21.992 54.3114 22.0076 53.7817H74.376C74.5214 54.3646 74.6341 54.929 74.7256 55.4629Z" fill="#468982"/>
<path d="M22.0071 53.7817H31.9728C31.9565 54.3121 31.9657 54.8723 31.999 55.4629H22.0411C22.0369 55.3969 22.0305 55.326 22.0269 55.2608C22.0206 55.1183 22.0156 54.9779 22.0113 54.8389C22.0021 54.4972 21.9986 54.1618 22.0071 53.842C22.0071 53.8221 22.0064 53.8009 22.0071 53.7817" fill="#468982"/>
<path d="M88.0671 75.7541L111.622 75.9044L140.68 84.9363C140.68 84.9363 150.39 88.0796 143.874 99.1542L124.547 132.796L112.326 127.537L128.873 97.6007L106.138 93.657C106.138 93.657 83.7645 91.4986 88.0671 75.7541" fill="#17141E"/>
<path d="M130.273 88.9833C130.273 88.9833 139.983 92.1265 133.467 103.201L118.067 130.007L112.325 127.537L128.872 97.6004L106.137 93.6566C106.137 93.6566 84.6688 91.5748 87.8574 76.6741L95.6839 77.5108L130.273 88.9833" fill="#17141E"/>
<path d="M87.5567 78.7278C87.6205 77.794 87.7808 76.8056 88.0686 75.7533L111.624 75.9037C111.624 75.9037 101.568 80.4841 87.5567 78.7278Z" fill="#17141E"/>
<path d="M104.206 29.0296L110.936 33.9022C110.936 33.9022 113.372 41.2118 109.079 61.4006L111.624 75.9036C111.624 75.9036 93.5304 77.8762 84.3645 74.8599C84.3645 74.8599 83.9008 39.0074 104.206 29.0296Z" fill="#A61D20"/>
<path d="M109.305 60.3066L102.739 48.0911L110.093 56.187C109.864 57.4917 109.6 58.8687 109.305 60.3066" fill="#27203F"/>
<path d="M110.87 71.6089L111.624 75.9036C111.624 75.9036 93.5305 77.8762 84.3645 74.8599C84.3645 74.8599 84.1802 60.4186 89.235 47.3153C89.2357 47.3239 91.7649 65.9194 110.87 71.6089" fill="#A61D20"/>
<path d="M129.445 69.0488C130.301 63.1368 132.87 59.4674 132.87 59.4674C132.87 59.4674 133.278 64.9299 129.445 69.0488Z" fill="#342957"/>
<path d="M151.401 72.767C151.401 70.8384 150.021 69.2763 148.318 69.2763L144.824 70.6171L127.664 66.4635L129.979 60.2047L150.47 66.4635L154.938 66.9478C158.052 67.0286 157.942 69.0778 157.942 69.0778C157.997 73.3924 156.899 74.6928 156.899 74.6928C154.157 78.4642 152.049 76.9114 150.75 74.9083C151.157 74.3156 151.401 73.5739 151.401 72.767Z" fill="#F68D7F"/>
<path d="M151.133 71.3538C151.485 71.1291 151.928 71.0412 152.479 70.9327C153.295 70.7724 153.991 70.5391 154.753 70.2463C155.564 69.935 157.017 69.304 157.807 68.4127C157.957 68.7828 157.942 69.0778 157.942 69.0778C157.997 73.3924 156.899 74.6928 156.899 74.6928C154.157 78.4642 152.049 76.9114 150.75 74.9083C151.157 74.3156 151.401 73.5739 151.401 72.767C151.401 72.2629 151.302 71.7864 151.133 71.3538" fill="#F35C59"/>
<path d="M134.13 61.4751C133.477 62.6982 132.537 64.7658 131.893 67.4893L127.784 66.4945C127.858 66.1541 127.936 65.823 128.019 65.5011L129.868 60.4994C129.916 60.4044 129.965 60.3051 130.01 60.2165L134.13 61.4751Z" fill="#F35C59"/>
<path d="M130.139 59.467L123.408 56.6549L105.995 37.268C105.995 37.268 102.776 32.879 100.655 40.5602C100.655 40.5602 99.3155 44.8407 103.435 48.8277L118.14 65.0692L128.253 66.6064L130.139 59.467" fill="#342957"/>
<path d="M128.87 57.9855L132.871 59.4674C132.871 59.4674 130.302 63.1368 129.446 69.0488L125.445 67.5676C126.302 61.6548 128.87 57.9855 128.87 57.9855" fill="#42337E"/>
<path d="M104.205 29.0294L110.935 33.902C110.935 33.902 111.216 34.7508 111.42 36.6631C107.564 35.0479 104.059 31.5891 102.531 29.9399C103.074 29.6173 103.63 29.3109 104.205 29.0294" fill="#342957"/>
<path d="M115.191 128.768L108.81 141.632V144.155C108.81 144.155 127.414 145.464 133.396 142.846L132.929 141.164C132.929 141.164 129.47 138.639 122.646 138.546L120.029 135.274L121.83 131.625L115.191 128.768" fill="#A41F17"/>
<path d="M114.425 130.316L115.191 128.77L121.83 131.627L121.32 132.658C119.451 132.287 116.57 131.051 114.425 130.316Z" fill="#18252A"/>
<path d="M120.905 133.498L120.029 135.274L121.604 137.244L114.044 137.976C114.044 137.976 112.56 137.45 111.315 136.582L113.856 131.46L120.905 133.498" fill="#F68D7F"/>
<path d="M114.106 131.534L113.212 137.634C112.676 137.393 111.965 137.036 111.315 136.583L113.855 131.461L114.106 131.534Z" fill="#F68D7F"/>
<path d="M108.81 141.632L111.964 135.274H120.029L122.646 138.546C129.47 138.639 132.929 141.164 132.929 141.164L133.396 142.846C127.414 145.464 108.81 144.155 108.81 144.155V141.632" fill="#A41F17"/>
<path d="M108.811 144.155V141.631L111.965 135.274H113.559L113.067 138.626C113.067 138.626 121.755 141.225 128.193 141.55C128.193 141.55 129.092 142.533 128.905 143.939C121.091 145.019 108.811 144.155 108.811 144.155" fill="#A41F17"/>
<path d="M132.282 140.768C132.712 141.006 132.929 141.164 132.929 141.164L133.396 142.846C127.414 145.464 108.81 144.155 108.81 144.155V141.676C108.81 141.676 125.397 142.843 132.282 140.768" fill="#C24B44"/>
<path d="M128.186 141.549C128.188 141.55 128.19 141.55 128.193 141.55C128.193 141.55 129.092 142.532 128.905 143.939C128.627 143.977 128.342 144.012 128.054 144.046C127.97 144.056 127.884 144.065 127.799 144.074C127.589 144.097 127.378 144.119 127.164 144.141C127.067 144.15 126.969 144.16 126.871 144.169C126.656 144.188 126.44 144.207 126.222 144.224C126.132 144.232 126.042 144.239 125.951 144.246C125.679 144.267 125.405 144.286 125.128 144.303C125.094 144.306 125.061 144.308 125.027 144.31C124.707 144.33 124.384 144.348 124.06 144.364C124 144.367 123.94 144.369 123.88 144.372C123.619 144.385 123.356 144.396 123.092 144.406C123.004 144.409 122.915 144.413 122.827 144.415C122.587 144.424 122.347 144.432 122.107 144.438C122.017 144.441 121.927 144.443 121.837 144.445C121.566 144.452 121.295 144.458 121.026 144.463C120.977 144.464 120.928 144.465 120.879 144.466C120.547 144.472 120.214 144.475 119.884 144.477C119.877 144.478 119.87 144.478 119.863 144.478C119.551 144.48 119.242 144.481 118.935 144.481C118.86 144.481 118.785 144.481 118.71 144.481C118.464 144.481 118.22 144.48 117.978 144.479C117.901 144.478 117.825 144.477 117.748 144.476C117.497 144.474 117.249 144.473 117.004 144.469C116.944 144.469 116.885 144.468 116.826 144.467C116.216 144.458 115.624 144.446 115.056 144.432C115.004 144.43 114.953 144.429 114.902 144.428C114.672 144.421 114.446 144.415 114.224 144.408C114.159 144.407 114.095 144.405 114.031 144.403C113.817 144.396 113.606 144.389 113.4 144.381C113.354 144.38 113.306 144.379 113.26 144.377C113.021 144.368 112.788 144.359 112.564 144.35C112.551 144.35 112.537 144.35 112.524 144.349C112.281 144.339 112.048 144.328 111.824 144.319C111.803 144.318 111.783 144.317 111.762 144.316C111.57 144.307 111.387 144.299 111.212 144.291C111.162 144.288 111.114 144.286 111.066 144.284C110.921 144.276 110.78 144.269 110.646 144.262C110.601 144.26 110.554 144.257 110.51 144.255C110.365 144.247 110.227 144.24 110.1 144.233C110.081 144.233 110.06 144.231 110.042 144.23C109.748 144.213 109.504 144.199 109.311 144.187C109.274 144.184 109.24 144.182 109.208 144.18C109.154 144.177 109.103 144.174 109.06 144.172C109.033 144.169 109.006 144.168 108.984 144.167C108.94 144.163 108.898 144.16 108.872 144.159C108.87 144.159 108.865 144.158 108.863 144.158C108.831 144.156 108.811 144.155 108.811 144.155V141.676C108.811 141.676 120.361 142.487 128.186 141.549" fill="#C24B44"/>
<path d="M70.8519 90.6123V88.7425H73.0635V90.4053L70.8519 90.6123Z" fill="#354D56"/>
<path d="M129.031 12.8765C129.031 12.8765 115.962 11.3535 115.391 19.1573C115.391 19.1573 116.071 29.6895 106.976 25.248L101.117 22.6465C101.117 22.6465 97.3097 2.53428 110.316 0.12351C110.316 0.12351 125.86 -2.16035 129.031 12.8765Z" fill="#AA1C21"/>
<path d="M106.977 25.2486L101.117 22.6471C101.117 22.6471 98.5609 9.10777 104.83 2.91704C104.397 12.3375 111.235 17.5214 115.402 19.7847C115.375 21.9827 114.708 29.0243 106.977 25.2486" fill="#1C5C55"/>
<path d="M129.03 12.8768L131.886 15.5414C131.886 15.5414 122.139 15.0068 116.976 15.5684C120.583 11.8962 129.03 12.8768 129.03 12.8768Z" fill="#94CBC5"/>
<path d="M105.968 24.8005L106.976 25.2472C116.072 29.6887 115.39 19.1586 115.39 19.1586C115.501 17.632 116.096 16.4621 116.978 15.5715C119.246 15.324 122.401 15.2893 125.225 15.3269C125.222 15.3545 124.782 21.451 125.922 24.9324C125.922 24.9324 127.317 27.4701 123.511 27.2801C123.511 27.2801 120.658 34.3614 111.901 31.9747L110.935 33.9033L104.206 29.0307L105.967 24.8019L105.968 24.8005" fill="#F68D7F"/>
<path d="M116.069 16.7851C116.318 16.332 116.622 15.9272 116.977 15.5698C119.245 15.3223 122.399 15.2876 125.224 15.3252C125.223 15.3337 125.181 15.9151 125.156 16.8135C122.655 16.7298 119.088 16.6589 116.069 16.7851" fill="#27203F"/>
<path d="M105.966 24.8008L105.967 24.7994L106.975 25.2461C111.635 27.5215 113.726 25.8665 114.66 23.7124C114.216 26.5153 112.537 30.3527 106.388 27.3499L105.135 26.7947L105.966 24.8008" fill="#27203F"/>
<path d="M114.918 23.0287C116.681 23.9384 119.832 24.3255 125.437 22.7762C125.553 23.547 125.71 24.2844 125.922 24.931C125.922 24.931 127.317 27.4687 123.511 27.2787C123.511 27.2787 121.292 32.7731 114.775 32.447C114.008 31.0764 112.999 28.9655 112.15 26.1605C113.669 25.6968 114.484 24.39 114.918 23.0287Z" fill="white"/>
<path d="M114.661 23.7004C114.44 25.105 113.907 26.7684 112.659 27.7051C112.486 27.2137 112.313 26.7039 112.149 26.1601C113.414 25.7736 114.186 24.8008 114.661 23.7004Z" fill="#42337E"/>
<path d="M111.014 26.3341C111.688 28.1386 112.654 30.6579 113.396 32.3008C112.918 32.2228 112.42 32.1164 111.9 31.9746C111.9 31.9746 109.337 28.6194 108.285 25.8044C109.343 26.1923 110.247 26.3532 111.014 26.3341Z" fill="#42337E"/>
<path d="M111.726 28.2101C111.121 28.4264 110.4 28.5044 109.537 28.3895C109.057 27.5493 108.602 26.6524 108.285 25.8036C109.343 26.1915 110.247 26.3524 111.014 26.3333C111.227 26.9034 111.471 27.5472 111.726 28.2101Z" fill="#342957"/>
<path d="M121.608 21.1971C121.608 21.7629 121.894 22.2217 122.247 22.2217C122.599 22.2217 122.885 21.7629 122.885 21.1971C122.885 20.6306 122.599 20.1711 122.247 20.1711C121.894 20.1711 121.608 20.6306 121.608 21.1971Z" fill="#27203F"/>
<path d="M122.324 17.5389C121.73 17.5538 121.293 17.868 121.079 18.1182C120.859 18.3785 120.798 18.5883 120.874 18.6642C121.039 18.8514 121.666 18.365 122.341 18.3522C123.016 18.3267 123.604 18.8131 123.774 18.6635C123.862 18.5983 123.822 18.3664 123.597 18.0991C123.381 17.8389 122.923 17.5269 122.324 17.5389" fill="#27203F"/>
<path d="M31 172H271V176H31V172Z" fill="#94CBC5"/>
</svg>
