<svg width="22" height="22" viewBox="0 0 22 22" fill="none" xmlns="http://www.w3.org/2000/svg">
<path d="M19 11.25C19 15.5302 15.5302 19 11.25 19V20C16.0825 20 20 16.0825 20 11.25H19ZM11.25 19C6.96979 19 3.5 15.5302 3.5 11.25H2.5C2.5 16.0825 6.41751 20 11.25 20V19ZM3.5 11.25C3.5 6.9698 6.9698 3.5 11.25 3.5V2.5C6.41751 2.5 2.5 6.41751 2.5 11.25H3.5ZM11.25 3.5C15.5302 3.5 19 6.96979 19 11.25H20C20 6.41751 16.0825 2.5 11.25 2.5V3.5Z" fill="#2F6F68"/>
<circle cx="11" cy="7" r="1" fill="#2F6F68"/>
<rect x="10" y="9.39795" width="2" height="7" rx="0.5" fill="#2F6F68"/>
</svg>
