<svg width="20" height="19" viewBox="0 0 20 19" fill="none" xmlns="http://www.w3.org/2000/svg">
<path d="M12 7.32015C11.5858 7.32015 11.25 7.65593 11.25 8.07015C11.25 8.48436 11.5858 8.82015 12 8.82015V7.32015ZM18.5528 10.6954L19.2096 11.0574L18.5528 10.6954ZM15.0528 17.0443L14.396 16.6822L15.0528 17.0443ZM8.7611 17.9929L8.59525 18.7244L8.59555 18.7244L8.7611 17.9929ZM5.16586 16.4087C4.7619 16.3171 4.36017 16.5703 4.26857 16.9742C4.17697 17.3782 4.43019 17.7799 4.83414 17.8715L5.16586 16.4087ZM11.25 8.07015C11.25 8.48436 11.5858 8.82015 12 8.82015C12.4142 8.82015 12.75 8.48436 12.75 8.07015H11.25ZM8.3923 4.36189L7.78802 3.91765L7.78798 3.91771L8.3923 4.36189ZM5 8.97714L4.39568 8.53296C4.30104 8.66172 4.25 8.81734 4.25 8.97714H5ZM4.25 17.1401C4.25 17.5543 4.58579 17.8901 5 17.8901C5.41421 17.8901 5.75 17.5543 5.75 17.1401H4.25ZM12 8.82015C12.4142 8.82015 12.75 8.48436 12.75 8.07015C12.75 7.65593 12.4142 7.32015 12 7.32015V8.82015ZM10 7.32015C9.58579 7.32015 9.25 7.65593 9.25 8.07015C9.25 8.48436 9.58579 8.82015 10 8.82015V7.32015ZM5 17.8901C5.41421 17.8901 5.75 17.5543 5.75 17.1401C5.75 16.7259 5.41421 16.3901 5 16.3901V17.8901ZM5.5 8.82015C5.91421 8.82015 6.25 8.48436 6.25 8.07015C6.25 7.65593 5.91421 7.32015 5.5 7.32015V8.82015ZM12 8.82015H16.7639V7.32015H12V8.82015ZM16.7639 8.82015C17.2626 8.82015 17.6425 9.05499 17.8455 9.35279C18.0443 9.64453 18.0808 9.99808 17.896 10.3333L19.2096 11.0574C19.6897 10.1865 19.5752 9.22745 19.085 8.50812C18.599 7.79484 17.752 7.32015 16.7639 7.32015V8.82015ZM17.896 10.3333L14.396 16.6822L15.7096 17.4064L19.2096 11.0574L17.896 10.3333ZM14.396 16.6822C14.2015 17.035 13.775 17.2971 13.2639 17.2971V18.7971C14.268 18.7971 15.2265 18.2828 15.7096 17.4064L14.396 16.6822ZM13.2639 17.2971H9.2462V18.7971H13.2639V17.2971ZM9.2462 17.2971C9.13835 17.2971 9.03098 17.285 8.92665 17.2614L8.59555 18.7244C8.80862 18.7727 9.02705 18.7971 9.2462 18.7971V17.2971ZM8.92696 17.2615L5.16586 16.4087L4.83414 17.8715L8.59525 18.7244L8.92696 17.2615ZM12.75 8.07015V3.53518H11.25V8.07015H12.75ZM12.75 3.53518C12.75 2.05192 11.4483 0.971191 10 0.971191V2.47119C10.7609 2.47119 11.25 3.01476 11.25 3.53518H12.75ZM10 0.971191H9.9045V2.47119H10V0.971191ZM9.9045 0.971191C9.06136 0.971191 8.25 1.60707 8.25 2.54159H9.75C9.75 2.54105 9.75004 2.54111 9.74999 2.54132C9.74995 2.54147 9.75007 2.54081 9.7508 2.53925C9.7523 2.53605 9.75706 2.52766 9.7688 2.51702C9.79293 2.49514 9.83887 2.47119 9.9045 2.47119V0.971191ZM8.25 2.54159C8.25 3.02418 8.09294 3.5029 7.78802 3.91765L8.99658 4.80614C9.48426 4.14277 9.75 3.35474 9.75 2.54159H8.25ZM7.78798 3.91771L4.39568 8.53296L5.60432 9.42133L8.99662 4.80608L7.78798 3.91771ZM4.25 8.97714V17.1401H5.75V8.97714H4.25ZM12 7.32015H10V8.82015H12V7.32015ZM5 16.3901H3V17.8901H5V16.3901ZM3 16.3901C2.23907 16.3901 1.75 15.8465 1.75 15.3261H0.25C0.25 16.8094 1.55179 17.8901 3 17.8901V16.3901ZM1.75 15.3261V9.88414H0.25V15.3261H1.75ZM1.75 9.88414C1.75 9.3637 2.23907 8.82015 3 8.82015V7.32015C1.55179 7.32015 0.25 8.40084 0.25 9.88414H1.75ZM3 8.82015H5.5V7.32015H3V8.82015Z" fill="#2F6F68"/>
</svg>
