<svg width="176" height="39" viewBox="0 0 176 39" fill="none" xmlns="http://www.w3.org/2000/svg">
<path d="M23.8507 39C22.4904 39 21.3539 38.1005 21.0784 36.7937L16.3603 14.5953C15.8437 14.5104 15.3443 14.4086 14.8277 14.2559C13.7601 13.9674 12.6581 13.5601 11.556 13.017C9.76523 12.1514 7.90553 10.9634 6.01139 9.48695C3.08408 7.17885 1.05219 4.9047 0.673358 4.46345C0.173994 3.88642 -0.0498588 3.1906 0.019019 2.47781C0.0878968 1.76501 0.415066 1.10313 0.966089 0.644909C1.46545 0.220627 2.08535 0 2.73969 0C3.53179 0 4.28944 0.339426 4.80603 0.916449L4.961 1.08616C5.0471 1.18799 5.18485 1.34073 5.37427 1.52742C5.71866 1.88381 6.25246 2.44386 6.94124 3.10574C8.1466 4.25979 10.0407 5.88903 12.1932 7.19582C13.6224 8.07833 15.0344 8.70627 16.2742 9.04569C17.0318 9.24935 17.7378 9.35118 18.4094 9.35118C18.5988 9.35118 18.7882 9.3342 18.9776 9.31723L20.1658 9.19843C21.2334 9.09661 22.1632 9.01175 23.0242 8.94386C24.3673 8.84204 25.3833 8.79112 26.3303 8.79112C27.949 8.79112 29.4643 8.94386 31.1518 9.26632C32.736 9.5718 34.5957 10.047 37.368 10.8616C38.0912 11.0653 38.9005 11.1841 39.7959 11.1841C41.3285 11.1841 43.1537 10.8616 45.0995 10.2507C46.7698 9.72454 48.5606 8.99478 50.4376 8.06136C53.7609 6.41514 56.1716 4.71802 56.2061 4.70104C56.671 4.36162 57.222 4.19191 57.8075 4.19191C58.6857 4.19191 59.5122 4.61619 60.0288 5.31201C60.907 6.51697 60.6315 8.2141 59.3917 9.07963C59.1334 9.26632 57.7214 10.2337 55.6034 11.4386C52.5556 13.1697 49.611 14.4765 46.8731 15.359C44.2902 16.1736 42 16.564 39.8476 16.5809L26.227 37.6932C25.6932 38.5078 24.815 39 23.8507 39ZM25.1078 29.3943L34.0447 15.5457C32.3916 15.0875 31.1518 14.782 30.1014 14.5783C28.7066 14.3068 27.6218 14.205 26.3303 14.205V13.3564V14.205C25.5555 14.205 24.6773 14.2559 23.4891 14.3407C23.007 14.3747 22.4904 14.4256 21.9394 14.4765L25.1078 29.3943Z" fill="white"/>
<path d="M128.406 20.7728C128.233 16.9713 125.719 13.9504 121.828 12.9321C120.605 12.6097 119.383 12.4399 118.212 12.4399C116.266 12.4399 114.389 12.8812 112.632 13.7637C109.636 15.2402 107.329 17.2428 105.796 19.7036C104.264 22.1305 103.472 25.0496 103.42 28.342C103.334 33.2128 106.227 36.9974 110.945 38.2533C112.013 38.5418 113.115 38.6775 114.234 38.6775C115.215 38.6775 116.231 38.5587 117.247 38.3381C121.518 37.4047 124.772 34.9269 126.925 30.9556L127.114 30.5992L126.735 30.4634C126.374 30.3446 126.012 30.2258 125.65 30.107C124.824 29.8525 124.049 29.5979 123.291 29.2924C123.033 29.1906 122.775 29.1397 122.499 29.1397C122.103 29.1397 121.724 29.2924 121.466 29.5809C121.328 29.7337 121.225 29.8864 121.173 29.9713C119.899 31.923 117.626 33.1279 115.233 33.1279C114.234 33.1279 113.252 32.9073 112.391 32.483C110.824 31.7023 109.74 29.9882 109.74 28.3251V27.4765H117.833C119.038 27.4765 120.45 27.4765 121.948 27.4765H124.479C125.203 27.4765 125.943 27.4765 126.684 27.4765H126.701C127.217 27.4765 127.923 27.3747 128.009 26.4243C128.061 25.8303 128.13 25.2193 128.199 24.6423C128.319 23.3694 128.457 22.0627 128.406 20.7728ZM110.669 22.5718L111.41 21.2989C112.667 19.1606 114.992 17.8538 117.471 17.8538C118.143 17.8538 118.814 17.9556 119.434 18.1593C121.07 18.6854 122.172 20.111 122.207 21.7232L122.224 22.5888H110.669V22.5718Z" fill="white"/>
<path d="M64.5557 38.6775C63.4365 38.6775 62.2828 38.5248 61.1463 38.2533C56.4454 37.0653 53.5009 33.2128 53.4492 28.1723C53.3975 21.6384 57.6852 15.5457 63.9014 13.3564C65.6061 12.7624 67.2936 12.4569 68.9467 12.4569C70.066 12.4569 71.2024 12.5927 72.3045 12.8812C77.4531 14.188 80.2254 18.4817 79.9327 24.6593V24.6762C79.2267 30.9556 75.3868 35.6397 69.1361 37.8799C67.6552 38.406 66.1055 38.6775 64.5557 38.6775ZM67.9652 18.2611C66.3121 18.2611 64.7968 18.8042 63.4365 19.8903C61.0774 21.7741 59.9237 24.4047 60.0098 27.6971C60.0787 30.3107 61.439 32.0927 63.8153 32.7036C64.3319 32.8394 64.8485 32.9073 65.3823 32.9073C66.2432 32.9073 67.1387 32.7206 68.0513 32.3642C71.2886 31.0914 73.4065 27.7311 73.4238 23.8107C73.441 20.8407 71.9601 18.8551 69.36 18.3969C68.895 18.295 68.4129 18.2611 67.9652 18.2611Z" fill="white"/>
<path d="M127.803 37.9478L132.245 13.1527H138.53L138.152 15.342L139.822 14.188C141.509 13.0339 143.421 12.4399 145.487 12.4399C146.193 12.4399 146.916 12.5078 147.657 12.6436C151.101 13.2715 153.288 16.0039 153.201 19.6358C153.167 21.3499 152.857 23.064 152.564 24.7271C152.495 25.0835 152.444 25.4399 152.375 25.7794C151.91 28.5627 151.393 31.3799 150.894 34.1123L150.842 34.3838C150.67 35.3851 150.481 36.3694 150.309 37.3707C150.291 37.4556 150.274 37.5235 150.24 37.5914C150.222 37.6253 150.222 37.6593 150.205 37.6762L150.119 37.9138H143.748L144.42 34.1801C144.867 31.6345 145.332 29.1057 145.78 26.577L145.866 26.0509C146.055 24.9987 146.245 23.9125 146.417 22.8264C146.641 21.3159 146.4 20.094 145.711 19.2963C145.091 18.5835 144.11 18.2102 142.87 18.2102C142.388 18.2102 141.871 18.2611 141.32 18.3799C138.772 18.9399 137.291 20.7219 136.705 24.0144C136.137 27.171 135.551 30.4125 135 33.5183C134.828 34.5026 134.432 36.7428 134.226 37.8799H127.803V37.9478Z" fill="white"/>
<path d="M82.7395 37.9987C82.0163 37.9817 81.2587 37.9817 80.2771 37.9817C79.7606 37.9817 79.244 37.9817 78.7102 37.9817C78.1591 37.9817 77.5909 37.9817 77.0227 37.9817H76.2822L76.7472 37.4217C76.8333 37.3199 76.9193 37.218 76.9882 37.1162L77.0054 37.0992C77.1604 36.9125 77.281 36.7598 77.4187 36.6071C78.1247 35.8264 78.8479 35.0287 79.5539 34.2481L79.7089 34.0783C82.0852 31.4478 84.5476 28.7324 87.0272 26.0679C87.1821 25.9152 87.2855 25.7794 87.3543 25.6436L87.5265 25.3381L87.4404 25.0157C87.406 24.8799 87.3371 24.7102 87.2166 24.5235C85.8046 22.0457 84.4098 19.517 83.0667 17.0731C82.6018 16.2076 82.1196 15.359 81.6547 14.4935C81.5686 14.3238 81.4825 14.1541 81.3792 13.9674C81.3275 13.8655 81.2759 13.7807 81.2242 13.6619L80.9659 13.1697H88.5425L92.4341 20.6371L93.9666 18.889C95.4303 17.2089 96.9284 15.4948 98.392 13.7637C98.7881 13.2885 99.2358 13.0849 99.8557 13.0849H99.9073C100.631 13.1018 101.388 13.1018 102.404 13.1018C102.852 13.1018 103.317 13.1018 103.782 13.1018H103.971C104.522 13.1018 105.09 13.1018 105.659 13.1018H106.399L105.917 13.6619C105.814 13.7807 105.727 13.8995 105.641 13.9843L105.624 14.0013C105.452 14.205 105.314 14.3747 105.159 14.5274L103.076 16.8016C100.682 19.4491 98.2198 22.1815 95.7574 24.8799C95.7402 24.9139 95.7058 24.9308 95.6886 24.9478L95.3097 25.389L95.6025 25.9321C97.1005 28.6136 98.5814 31.346 100.011 33.9935C100.476 34.859 100.958 35.7246 101.423 36.5901C101.509 36.7428 101.595 36.9125 101.698 37.1162L101.888 37.4896L102.146 37.9817H101.595C101.078 37.9817 100.579 37.9817 100.08 37.9817C99.5802 37.9817 99.098 37.9817 98.6331 37.9817C97.6516 37.9817 96.4806 37.9817 95.2753 37.9478C94.8276 37.9308 94.4315 37.4726 94.2766 37.2011C93.4328 35.6227 92.5718 33.9935 91.7625 32.4321L90.5227 30.0731L89.6962 31.0405C89.214 31.6005 88.7319 32.1436 88.2497 32.7037C86.9583 34.1971 85.6324 35.7246 84.3237 37.252C84.0138 37.6084 83.5833 37.9817 82.8084 37.9987H82.7395Z" fill="white"/>
<path d="M163.361 38.6436C162.982 38.6436 162.603 38.6266 162.224 38.5927C160.313 38.4399 158.832 37.9987 157.575 37.218C155.561 35.9621 154.441 34.1292 154.217 31.7363C154.166 31.1253 154.441 30.752 155.027 30.5992C156.112 30.3277 157.179 30.0561 158.316 29.7676L160.038 29.3264L160.072 29.7167C160.313 31.9909 161.983 33.5862 164.119 33.5862C164.997 33.5862 165.875 33.3146 166.667 32.7885C166.96 32.6018 167.253 32.3303 167.459 32.0587C167.976 31.4138 168.148 30.718 167.976 30.124C167.786 29.53 167.27 29.0718 166.512 28.8342C165.789 28.5966 165.066 28.4439 164.291 28.2742C163.86 28.1723 163.413 28.0875 162.965 27.9687L162.672 27.9008C162.018 27.7311 161.346 27.5614 160.709 27.3068C157.214 25.9151 155.819 22.8943 157.059 19.4491C158.385 15.7663 161.277 13.4582 165.668 12.6266C166.357 12.4909 167.046 12.423 167.735 12.423C169.078 12.423 170.404 12.6775 171.695 13.1867C174.295 14.205 175.742 16.1057 175.983 18.8551C176.017 19.2115 175.724 19.7715 175.363 19.8903C174.226 20.2298 173.107 20.5183 171.936 20.8407C171.575 20.9426 171.213 21.0274 170.851 21.1292L170.524 21.2141L170.421 20.9086C170.386 20.8238 170.369 20.7389 170.335 20.654C170.283 20.4843 170.231 20.3316 170.197 20.1789C169.835 18.5157 168.888 17.735 166.994 17.6162C166.891 17.6162 166.788 17.5992 166.684 17.5992C164.98 17.5992 163.481 18.4987 163.034 19.8055C162.793 20.4843 162.948 20.9765 163.103 21.265C163.361 21.7402 163.878 22.0796 164.601 22.2493C165.29 22.4191 165.996 22.5548 166.684 22.6906C167.115 22.7755 167.545 22.8603 167.959 22.9452C168.389 23.03 168.854 23.1488 169.319 23.2846C171.661 24.0144 173.365 25.406 174.089 27.2389C174.812 29.0718 174.554 31.2272 173.331 33.3316C171.402 36.658 167.683 38.6436 163.361 38.6436Z" fill="white"/>
</svg>
