<svg width="629" height="611" viewBox="0 0 629 611" fill="none" xmlns="http://www.w3.org/2000/svg">
<g opacity="0.8">
<path d="M25.2673 296.38C24.2066 298.622 23.1536 301.187 23.7064 304.347C25.499 306.101 26.4811 307.235 27.8059 309.395C28.0792 307.505 29.1785 306.884 31.876 306.532C29.4209 303.697 27.7533 300.511 25.2673 296.38Z" fill="url(#paint0_linear_997:15163)"/>
<path d="M415.267 72.9998C414.039 75.3857 412.805 78.1088 413.236 81.373C415.044 83.1146 416.026 84.2485 417.321 86.4347C417.7 84.4525 418.89 83.7524 421.754 83.2563C419.299 80.4216 417.692 77.1832 415.267 72.9998Z" fill="url(#paint1_linear_997:15163)"/>
<path d="M0 427.205C1.32759 429.602 3.22414 430.524 6.44828 432C9.48276 424.992 14.9828 418.539 22 411.531C19.5345 410.241 18.2069 408.765 16.6897 406C8.72414 413.007 4.93103 417.617 0 427.205Z" fill="url(#paint2_linear_997:15163)"/>
<path d="M378.546 538C383.084 533.286 385.479 529.882 388 524.907C384.092 523.204 381.319 522.812 378.672 523.073C377.79 526.347 376.025 528.311 373 531.06C376.277 532.893 377.538 534.726 378.546 538Z" fill="url(#paint3_linear_997:15163)"/>
<path d="M465.198 221C467.468 219.624 468.603 218.523 470 215.771C467.032 214.394 465.548 213.018 464.325 211C462.143 212.101 460.833 213.202 459 215.128C461.532 216.78 463.103 218.339 465.198 221Z" fill="url(#paint4_linear_997:15163)"/>
<path d="M32.1984 67.9998C34.4683 66.6236 35.6032 65.5227 37 62.7704C34.0317 61.3943 32.5476 60.0181 31.3254 57.9998C29.1429 59.1007 27.8333 60.2016 26 62.1282C28.5317 63.7796 30.1032 65.3392 32.1984 67.9998Z" fill="url(#paint5_linear_997:15163)"/>
<path d="M559.752 449.957C563.105 445.052 565.352 442.638 570.111 439.14C568.495 436.798 566.64 435.053 564.103 434.211C560.763 436.299 557.043 439.728 552.65 444.701C556.971 445.61 558.818 446.712 559.752 449.957Z" fill="url(#paint6_linear_997:15163)"/>
<path d="M413.328 320.986C416.681 316.081 418.928 313.668 423.687 310.17C422.072 307.828 420.216 306.083 417.679 305.24C414.339 307.328 410.619 310.757 406.227 315.731C410.547 316.639 412.394 317.742 413.328 320.986Z" fill="url(#paint7_linear_997:15163)"/>
<path d="M335.328 16.9868C338.681 12.0818 340.928 9.66818 345.687 6.17033C344.072 3.82811 342.216 2.08335 339.679 1.24072C336.339 3.32864 332.619 6.75786 328.227 11.7315C332.547 12.64 334.394 13.7425 335.328 16.9868Z" fill="url(#paint8_linear_997:15163)"/>
<path d="M239.614 102C238.659 103.231 237.386 104.052 235 104.326C237.545 108.842 239.773 111.305 243.273 115C246.455 114.179 248.045 113.084 249 112.126C244.386 109.116 242.318 106.379 239.614 102Z" fill="url(#paint9_linear_997:15163)"/>
<path d="M559.614 30.9998C558.659 32.2313 557.386 33.0524 555 33.3261C557.545 37.8419 559.773 40.305 563.273 43.9998C566.455 43.1787 568.045 42.084 569 41.1261C564.386 38.1155 562.318 35.3787 559.614 30.9998Z" fill="url(#paint10_linear_997:15163)"/>
<path d="M119 172.704C117.809 171.183 117.138 169.07 117.287 164C115.351 164.254 113.787 165.099 112 166.873C112.298 170.592 112.819 172.873 114.457 176C115.723 174.225 116.84 173.634 119 172.704Z" fill="url(#paint11_linear_997:15163)"/>
<path d="M122.59 546.215C121.857 541.825 120.215 539.397 116.104 537.155C111.846 538.93 109.078 540.658 107.131 543.601C109.212 548.131 109.307 551.447 108.761 557.518C113.434 552.521 116.359 549.438 122.59 546.215Z" fill="url(#paint12_linear_997:15163)"/>
<path d="M612 289.466C612.603 292.301 614.291 294.027 617.667 296C621.284 290.945 623.936 288.479 629 285.397C626.589 283.794 625.504 281.945 624.057 278C618.872 280.959 615.738 284.411 612 289.466Z" fill="url(#paint13_linear_997:15163)"/>
<path d="M530.196 592.789C527.435 593.673 525.886 595.525 524.262 599.081C529.653 602.174 532.372 604.566 535.946 609.296C537.299 606.737 539.03 605.472 542.811 603.637C539.348 598.775 535.599 596.002 530.196 592.789Z" fill="url(#paint14_linear_997:15163)"/>
</g>
<defs>
<linearGradient id="paint0_linear_997:15163" x1="29.1554" y1="301.038" x2="23.6595" y2="305.789" gradientUnits="userSpaceOnUse">
<stop stop-color="#400300"/>
<stop offset="0.0709114" stop-color="#750300"/>
<stop offset="0.1439" stop-color="#A50300"/>
<stop offset="0.2084" stop-color="#C80300"/>
<stop offset="0.2612" stop-color="#DD0300"/>
<stop offset="0.2957" stop-color="#E50300"/>
<stop offset="0.3376" stop-color="#EE190C"/>
<stop offset="0.3927" stop-color="#F82E18"/>
<stop offset="0.4459" stop-color="#FD3C20"/>
<stop offset="0.4946" stop-color="#FF4022"/>
<stop offset="0.5442" stop-color="#FD3B1F"/>
<stop offset="0.5995" stop-color="#F72E18"/>
<stop offset="0.6574" stop-color="#EE180C"/>
<stop offset="0.6989" stop-color="#E50300"/>
<stop offset="0.7336" stop-color="#DB0300"/>
<stop offset="0.7914" stop-color="#C20300"/>
<stop offset="0.8653" stop-color="#980300"/>
<stop offset="0.9515" stop-color="#5E0300"/>
<stop offset="1" stop-color="#3B0300"/>
</linearGradient>
<linearGradient id="paint1_linear_997:15163" x1="419.147" y1="77.6645" x2="413.117" y2="82.8764" gradientUnits="userSpaceOnUse">
<stop stop-color="#400300"/>
<stop offset="0.0709114" stop-color="#750300"/>
<stop offset="0.1439" stop-color="#A50300"/>
<stop offset="0.2084" stop-color="#C80300"/>
<stop offset="0.2612" stop-color="#DD0300"/>
<stop offset="0.2957" stop-color="#E50300"/>
<stop offset="0.3376" stop-color="#EE190C"/>
<stop offset="0.3927" stop-color="#F82E18"/>
<stop offset="0.4459" stop-color="#FD3C20"/>
<stop offset="0.4946" stop-color="#FF4022"/>
<stop offset="0.5442" stop-color="#FD3B1F"/>
<stop offset="0.5995" stop-color="#F72E18"/>
<stop offset="0.6574" stop-color="#EE180C"/>
<stop offset="0.6989" stop-color="#E50300"/>
<stop offset="0.7336" stop-color="#DB0300"/>
<stop offset="0.7914" stop-color="#C20300"/>
<stop offset="0.8653" stop-color="#980300"/>
<stop offset="0.9515" stop-color="#5E0300"/>
<stop offset="1" stop-color="#3B0300"/>
</linearGradient>
<linearGradient id="paint2_linear_997:15163" x1="5.26502" y1="414.097" x2="14.8767" y2="423.471" gradientUnits="userSpaceOnUse">
<stop stop-color="#920040"/>
<stop offset="0.0478432" stop-color="#AE0052"/>
<stop offset="0.119" stop-color="#D10069"/>
<stop offset="0.1861" stop-color="#EA007A"/>
<stop offset="0.2469" stop-color="#FA0084"/>
<stop offset="0.2957" stop-color="#FF0087"/>
<stop offset="0.3487" stop-color="#FF1A8B"/>
<stop offset="0.4347" stop-color="#FF3F92"/>
<stop offset="0.5043" stop-color="#FF5696"/>
<stop offset="0.5484" stop-color="#FF5E97"/>
<stop offset="0.5841" stop-color="#FF5696"/>
<stop offset="0.641" stop-color="#FF3F92"/>
<stop offset="0.7115" stop-color="#FF198B"/>
<stop offset="0.7527" stop-color="#FF0087"/>
<stop offset="0.7936" stop-color="#FA0084"/>
<stop offset="0.8443" stop-color="#EA007A"/>
<stop offset="0.9001" stop-color="#D10069"/>
<stop offset="0.9592" stop-color="#AE0053"/>
<stop offset="1" stop-color="#920040"/>
</linearGradient>
<linearGradient id="paint3_linear_997:15163" x1="385.167" y1="532.718" x2="375.348" y2="526.677" gradientUnits="userSpaceOnUse">
<stop stop-color="#AB3C00"/>
<stop offset="0.3441" stop-color="#FFC700"/>
<stop offset="0.3696" stop-color="#FFCD17"/>
<stop offset="0.4069" stop-color="#FFD533"/>
<stop offset="0.4445" stop-color="#FFDA46"/>
<stop offset="0.4826" stop-color="#FFDD52"/>
<stop offset="0.5215" stop-color="#FFDE56"/>
<stop offset="0.5509" stop-color="#FFDD51"/>
<stop offset="0.5855" stop-color="#FFD943"/>
<stop offset="0.6225" stop-color="#FFD32B"/>
<stop offset="0.6612" stop-color="#FFCA0B"/>
<stop offset="0.672" stop-color="#FFC700"/>
<stop offset="1" stop-color="#AB3C00"/>
</linearGradient>
<linearGradient id="paint4_linear_997:15163" x1="462.33" y1="218.447" x2="468.019" y2="212.444" gradientUnits="userSpaceOnUse">
<stop stop-color="#920040"/>
<stop offset="0.0478432" stop-color="#AE0052"/>
<stop offset="0.119" stop-color="#D10069"/>
<stop offset="0.1861" stop-color="#EA007A"/>
<stop offset="0.2469" stop-color="#FA0084"/>
<stop offset="0.2957" stop-color="#FF0087"/>
<stop offset="0.3487" stop-color="#FF1A8B"/>
<stop offset="0.4347" stop-color="#FF3F92"/>
<stop offset="0.5043" stop-color="#FF5696"/>
<stop offset="0.5484" stop-color="#FF5E97"/>
<stop offset="0.5841" stop-color="#FF5696"/>
<stop offset="0.641" stop-color="#FF3F92"/>
<stop offset="0.7115" stop-color="#FF198B"/>
<stop offset="0.7527" stop-color="#FF0087"/>
<stop offset="0.7936" stop-color="#FA0084"/>
<stop offset="0.8443" stop-color="#EA007A"/>
<stop offset="0.9001" stop-color="#D10069"/>
<stop offset="0.9592" stop-color="#AE0053"/>
<stop offset="1" stop-color="#920040"/>
</linearGradient>
<linearGradient id="paint5_linear_997:15163" x1="29.3304" y1="65.4469" x2="35.0189" y2="59.4437" gradientUnits="userSpaceOnUse">
<stop stop-color="#920040"/>
<stop offset="0.0478432" stop-color="#AE0052"/>
<stop offset="0.119" stop-color="#D10069"/>
<stop offset="0.1861" stop-color="#EA007A"/>
<stop offset="0.2469" stop-color="#FA0084"/>
<stop offset="0.2957" stop-color="#FF0087"/>
<stop offset="0.3487" stop-color="#FF1A8B"/>
<stop offset="0.4347" stop-color="#FF3F92"/>
<stop offset="0.5043" stop-color="#FF5696"/>
<stop offset="0.5484" stop-color="#FF5E97"/>
<stop offset="0.5841" stop-color="#FF5696"/>
<stop offset="0.641" stop-color="#FF3F92"/>
<stop offset="0.7115" stop-color="#FF198B"/>
<stop offset="0.7527" stop-color="#FF0087"/>
<stop offset="0.7936" stop-color="#FA0084"/>
<stop offset="0.8443" stop-color="#EA007A"/>
<stop offset="0.9001" stop-color="#D10069"/>
<stop offset="0.9592" stop-color="#AE0053"/>
<stop offset="1" stop-color="#920040"/>
</linearGradient>
<linearGradient id="paint6_linear_997:15163" x1="565.103" y1="444.95" x2="557.024" y2="437.41" gradientUnits="userSpaceOnUse">
<stop stop-color="#AB3C00"/>
<stop offset="0.3441" stop-color="#FFC700"/>
<stop offset="0.3696" stop-color="#FFCD17"/>
<stop offset="0.4069" stop-color="#FFD533"/>
<stop offset="0.4445" stop-color="#FFDA46"/>
<stop offset="0.4826" stop-color="#FFDD52"/>
<stop offset="0.5215" stop-color="#FFDE56"/>
<stop offset="0.5509" stop-color="#FFDD51"/>
<stop offset="0.5855" stop-color="#FFD943"/>
<stop offset="0.6225" stop-color="#FFD32B"/>
<stop offset="0.6612" stop-color="#FFCA0B"/>
<stop offset="0.672" stop-color="#FFC700"/>
<stop offset="1" stop-color="#AB3C00"/>
</linearGradient>
<linearGradient id="paint7_linear_997:15163" x1="418.68" y1="315.979" x2="410.6" y2="308.44" gradientUnits="userSpaceOnUse">
<stop stop-color="#AB3C00"/>
<stop offset="0.3441" stop-color="#FFC700"/>
<stop offset="0.3696" stop-color="#FFCD17"/>
<stop offset="0.4069" stop-color="#FFD533"/>
<stop offset="0.4445" stop-color="#FFDA46"/>
<stop offset="0.4826" stop-color="#FFDD52"/>
<stop offset="0.5215" stop-color="#FFDE56"/>
<stop offset="0.5509" stop-color="#FFDD51"/>
<stop offset="0.5855" stop-color="#FFD943"/>
<stop offset="0.6225" stop-color="#FFD32B"/>
<stop offset="0.6612" stop-color="#FFCA0B"/>
<stop offset="0.672" stop-color="#FFC700"/>
<stop offset="1" stop-color="#AB3C00"/>
</linearGradient>
<linearGradient id="paint8_linear_997:15163" x1="340.68" y1="11.9798" x2="332.6" y2="4.44022" gradientUnits="userSpaceOnUse">
<stop stop-color="#AB3C00"/>
<stop offset="0.3441" stop-color="#FFC700"/>
<stop offset="0.3696" stop-color="#FFCD17"/>
<stop offset="0.4069" stop-color="#FFD533"/>
<stop offset="0.4445" stop-color="#FFDA46"/>
<stop offset="0.4826" stop-color="#FFDD52"/>
<stop offset="0.5215" stop-color="#FFDE56"/>
<stop offset="0.5509" stop-color="#FFDD51"/>
<stop offset="0.5855" stop-color="#FFD943"/>
<stop offset="0.6225" stop-color="#FFD32B"/>
<stop offset="0.6612" stop-color="#FFCA0B"/>
<stop offset="0.672" stop-color="#FFC700"/>
<stop offset="1" stop-color="#AB3C00"/>
</linearGradient>
<linearGradient id="paint9_linear_997:15163" x1="244.626" y1="106.705" x2="238.27" y2="112.109" gradientUnits="userSpaceOnUse">
<stop stop-color="#0038AB"/>
<stop offset="0.1131" stop-color="#0062C9"/>
<stop offset="0.272" stop-color="#0097F0"/>
<stop offset="0.3495" stop-color="#00ACFF"/>
<stop offset="0.4014" stop-color="#00BFFF"/>
<stop offset="0.469" stop-color="#00D2FF"/>
<stop offset="0.5161" stop-color="#00D9FF"/>
<stop offset="0.6633" stop-color="#00B8FF"/>
<stop offset="0.7097" stop-color="#00ACFF"/>
<stop offset="0.755" stop-color="#00A2F8"/>
<stop offset="0.833" stop-color="#0086E3"/>
<stop offset="0.9337" stop-color="#0059C3"/>
<stop offset="1" stop-color="#0038AB"/>
</linearGradient>
<linearGradient id="paint10_linear_997:15163" x1="564.626" y1="35.7054" x2="558.27" y2="41.1092" gradientUnits="userSpaceOnUse">
<stop stop-color="#0038AB"/>
<stop offset="0.1131" stop-color="#0062C9"/>
<stop offset="0.272" stop-color="#0097F0"/>
<stop offset="0.3495" stop-color="#00ACFF"/>
<stop offset="0.4014" stop-color="#00BFFF"/>
<stop offset="0.469" stop-color="#00D2FF"/>
<stop offset="0.5161" stop-color="#00D9FF"/>
<stop offset="0.6633" stop-color="#00B8FF"/>
<stop offset="0.7097" stop-color="#00ACFF"/>
<stop offset="0.755" stop-color="#00A2F8"/>
<stop offset="0.833" stop-color="#0086E3"/>
<stop offset="0.9337" stop-color="#0059C3"/>
<stop offset="1" stop-color="#0038AB"/>
</linearGradient>
<linearGradient id="paint11_linear_997:15163" x1="119.68" y1="168.597" x2="110.971" y2="170.985" gradientUnits="userSpaceOnUse">
<stop stop-color="#AB3C00"/>
<stop offset="0.3441" stop-color="#FFC700"/>
<stop offset="0.3696" stop-color="#FFCD17"/>
<stop offset="0.4069" stop-color="#FFD533"/>
<stop offset="0.4445" stop-color="#FFDA46"/>
<stop offset="0.4826" stop-color="#FFDD52"/>
<stop offset="0.5215" stop-color="#FFDE56"/>
<stop offset="0.5509" stop-color="#FFDD51"/>
<stop offset="0.5855" stop-color="#FFD943"/>
<stop offset="0.6225" stop-color="#FFD32B"/>
<stop offset="0.6612" stop-color="#FFCA0B"/>
<stop offset="0.672" stop-color="#FFC700"/>
<stop offset="1" stop-color="#AB3C00"/>
</linearGradient>
<linearGradient id="paint12_linear_997:15163" x1="116.905" y1="552.093" x2="107.437" y2="539.336" gradientUnits="userSpaceOnUse">
<stop stop-color="#0038AB"/>
<stop offset="0.1131" stop-color="#0062C9"/>
<stop offset="0.272" stop-color="#0097F0"/>
<stop offset="0.3495" stop-color="#00ACFF"/>
<stop offset="0.4014" stop-color="#00BFFF"/>
<stop offset="0.469" stop-color="#00D2FF"/>
<stop offset="0.5161" stop-color="#00D9FF"/>
<stop offset="0.6633" stop-color="#00B8FF"/>
<stop offset="0.7097" stop-color="#00ACFF"/>
<stop offset="0.755" stop-color="#00A2F8"/>
<stop offset="0.833" stop-color="#0086E3"/>
<stop offset="0.9337" stop-color="#0059C3"/>
<stop offset="1" stop-color="#0038AB"/>
</linearGradient>
<linearGradient id="paint13_linear_997:15163" x1="624.684" y1="291.683" x2="615.488" y2="282.21" gradientUnits="userSpaceOnUse">
<stop stop-color="#920040"/>
<stop offset="0.0478432" stop-color="#AE0052"/>
<stop offset="0.119" stop-color="#D10069"/>
<stop offset="0.1861" stop-color="#EA007A"/>
<stop offset="0.2469" stop-color="#FA0084"/>
<stop offset="0.2957" stop-color="#FF0087"/>
<stop offset="0.3487" stop-color="#FF1A8B"/>
<stop offset="0.4347" stop-color="#FF3F92"/>
<stop offset="0.5043" stop-color="#FF5696"/>
<stop offset="0.5484" stop-color="#FF5E97"/>
<stop offset="0.5841" stop-color="#FF5696"/>
<stop offset="0.641" stop-color="#FF3F92"/>
<stop offset="0.7115" stop-color="#FF198B"/>
<stop offset="0.7527" stop-color="#FF0087"/>
<stop offset="0.7936" stop-color="#FA0084"/>
<stop offset="0.8443" stop-color="#EA007A"/>
<stop offset="0.9001" stop-color="#D10069"/>
<stop offset="0.9592" stop-color="#AE0053"/>
<stop offset="1" stop-color="#920040"/>
</linearGradient>
<linearGradient id="paint14_linear_997:15163" x1="529.259" y1="605.631" x2="537.764" y2="595.533" gradientUnits="userSpaceOnUse">
<stop stop-color="#920040"/>
<stop offset="0.0478432" stop-color="#AE0052"/>
<stop offset="0.119" stop-color="#D10069"/>
<stop offset="0.1861" stop-color="#EA007A"/>
<stop offset="0.2469" stop-color="#FA0084"/>
<stop offset="0.2957" stop-color="#FF0087"/>
<stop offset="0.3487" stop-color="#FF1A8B"/>
<stop offset="0.4347" stop-color="#FF3F92"/>
<stop offset="0.5043" stop-color="#FF5696"/>
<stop offset="0.5484" stop-color="#FF5E97"/>
<stop offset="0.5841" stop-color="#FF5696"/>
<stop offset="0.641" stop-color="#FF3F92"/>
<stop offset="0.7115" stop-color="#FF198B"/>
<stop offset="0.7527" stop-color="#FF0087"/>
<stop offset="0.7936" stop-color="#FA0084"/>
<stop offset="0.8443" stop-color="#EA007A"/>
<stop offset="0.9001" stop-color="#D10069"/>
<stop offset="0.9592" stop-color="#AE0053"/>
<stop offset="1" stop-color="#920040"/>
</linearGradient>
</defs>
</svg>
