<svg width="10" height="14" viewBox="0 0 10 14" fill="none" xmlns="http://www.w3.org/2000/svg">
<path d="M0.342 8.176H2.952C3.114 8.5 3.222 8.86 3.222 9.256C3.222 10.336 2.358 11.326 0.828 12.01L1.368 13.126C2.124 12.73 2.862 12.406 3.492 12.406C4.842 12.406 5.094 13.234 6.714 13.234C7.848 13.234 8.64 12.874 9.144 12.388L8.496 11.182C8.244 11.506 7.578 11.902 6.786 11.902C5.76 11.902 5.274 11.164 4.122 11.164C3.798 11.164 3.438 11.236 3.186 11.326C3.924 10.804 4.554 10.048 4.554 8.95C4.554 8.662 4.5 8.41 4.428 8.176H6.624V7.204H3.924C3.312 6.376 2.466 5.692 2.466 4.378C2.466 2.938 3.672 2.074 5.04 2.074C6.138 2.074 7.02 2.794 7.326 3.55L8.532 2.83C7.866 1.552 6.534 0.813999 4.896 0.813999C2.7 0.813999 0.864 2.38 0.864 4.36C0.864 5.674 1.602 6.448 2.25 7.204H0.342V8.176Z" fill="#333333"/>
</svg>
