<svg width="12" height="11" viewBox="0 0 12 11" fill="none" xmlns="http://www.w3.org/2000/svg">
<path fill-rule="evenodd" clip-rule="evenodd" d="M4.89173 0.403073C5.06638 -0.134358 5.82669 -0.134358 6.00134 0.403073L6.88719 3.12943C6.96524 3.36978 7.18924 3.5325 7.44194 3.5325H10.3086C10.8737 3.5325 11.1087 4.25562 10.6515 4.58775L8.33228 6.27277C8.12783 6.42128 8.04231 6.6846 8.12042 6.92493L9.00627 9.65132C9.18086 10.1887 8.56573 10.6356 8.10858 10.3035L5.78942 8.61852C5.58496 8.46995 5.30811 8.46995 5.10365 8.61852L2.78447 10.3035C2.32731 10.6356 1.7122 10.1887 1.88682 9.65132L2.77267 6.92493C2.85076 6.6846 2.76521 6.42128 2.56076 6.27277L0.241579 4.58775C-0.215591 4.25562 0.0193638 3.5325 0.58445 3.5325H3.45112C3.70383 3.5325 3.92781 3.36978 4.0059 3.12943L4.89173 0.403073Z" fill="#F4FF00"/>
<mask id="mask0" style="mask-type:alpha" maskUnits="userSpaceOnUse" x="-1" y="-1" width="13" height="12">
<path fill-rule="evenodd" clip-rule="evenodd" d="M4.89173 0.403073C5.06638 -0.134358 5.82669 -0.134358 6.00134 0.403073L6.88719 3.12943C6.96524 3.36978 7.18924 3.5325 7.44194 3.5325H10.3086C10.8737 3.5325 11.1087 4.25562 10.6515 4.58775L8.33228 6.27277C8.12783 6.42128 8.04231 6.6846 8.12042 6.92493L9.00627 9.65132C9.18086 10.1887 8.56573 10.6356 8.10858 10.3035L5.78942 8.61852C5.58496 8.46995 5.30811 8.46995 5.10365 8.61852L2.78447 10.3035C2.32731 10.6356 1.7122 10.1887 1.88682 9.65132L2.77267 6.92493C2.85076 6.6846 2.76521 6.42128 2.56076 6.27277L0.241579 4.58775C-0.215591 4.25562 0.0193638 3.5325 0.58445 3.5325H3.45112C3.70383 3.5325 3.92781 3.36978 4.0059 3.12943L4.89173 0.403073Z" fill="#F4FF00" stroke="#2F6F68" stroke-width="0.5" stroke-linecap="round" stroke-linejoin="round"/>
</mask>
<g mask="url(#mask0)">
<rect x="5" width="7" height="11" fill="#EDEDED"/>
</g>
</svg>
