<svg width="13" height="12" viewBox="0 0 13 12" fill="none" xmlns="http://www.w3.org/2000/svg">
<path fill-rule="evenodd" clip-rule="evenodd" d="M5.89173 1.40307C6.06638 0.865642 6.82669 0.865642 7.00134 1.40307L7.88719 4.12943C7.96524 4.36978 8.18924 4.5325 8.44194 4.5325H11.3086C11.8737 4.5325 12.1087 5.25562 11.6515 5.58775L9.33228 7.27277C9.12783 7.42128 9.04231 7.6846 9.12042 7.92493L10.0063 10.6513C10.1809 11.1887 9.56573 11.6356 9.10858 11.3035L6.78942 9.61852C6.58496 9.46995 6.30811 9.46995 6.10365 9.61852L3.78447 11.3035C3.32731 11.6356 2.7122 11.1887 2.88682 10.6513L3.77267 7.92493C3.85076 7.6846 3.76521 7.42128 3.56076 7.27277L1.24158 5.58775C0.784409 5.25562 1.01936 4.5325 1.58445 4.5325H4.45112C4.70383 4.5325 4.92781 4.36978 5.0059 4.12943L5.89173 1.40307Z" fill="#F4FF00" stroke="#2F6F68" stroke-width="0.5" stroke-linecap="round" stroke-linejoin="round"/>
</svg>
