<svg width="20" height="20" viewBox="0 0 20 20" fill="none" xmlns="http://www.w3.org/2000/svg">
<path fill-rule="evenodd" clip-rule="evenodd" d="M9.08322 1.69645C9.37182 0.767849 10.6282 0.767849 10.9168 1.69645L12.3806 6.40721C12.5096 6.82249 12.8797 7.10366 13.2973 7.10366H18.0342C18.968 7.10366 19.3563 8.35309 18.6008 8.92697L14.7685 11.8384C14.4306 12.095 14.2893 12.55 14.4184 12.9653L15.8822 17.6761C16.1707 18.6047 15.1543 19.3768 14.3988 18.8029L10.5666 15.8916C10.2287 15.6349 9.77126 15.6349 9.43341 15.8916L5.60114 18.8029C4.84571 19.3768 3.82928 18.6047 4.11783 17.6761L5.58163 12.9653C5.71067 12.55 5.5693 12.095 5.23147 11.8384L1.39919 8.92697C0.643751 8.35309 1.032 7.10366 1.96576 7.10366H6.70272C7.12031 7.10366 7.49042 6.82249 7.61946 6.40721L9.08322 1.69645Z" fill="#FF0000" stroke="#FF0000" stroke-width="0.5" stroke-linecap="round" stroke-linejoin="round"/>
</svg>
