<svg width="13" height="12" viewBox="0 0 13 12" fill="none" xmlns="http://www.w3.org/2000/svg">
<path fill-rule="evenodd" clip-rule="evenodd" d="M5.59054 0.435863C5.79014 -0.145288 6.65908 -0.145288 6.85868 0.435863L7.87108 3.38401C7.96028 3.64391 8.21628 3.81987 8.50508 3.81987H11.7813C12.4271 3.81987 12.6956 4.60181 12.1731 4.96096L9.52261 6.78305C9.28894 6.94365 9.19121 7.22839 9.28048 7.48827L10.2929 10.4364C10.4924 11.0176 9.78941 11.5008 9.26694 11.1417L6.61648 9.31964C6.38281 9.15898 6.06641 9.15898 5.83274 9.31964L3.18226 11.1417C2.65978 11.5008 1.9568 11.0176 2.15636 10.4364L3.16876 7.48827C3.25801 7.22839 3.16024 6.94365 2.92658 6.78305L0.27609 4.96096C-0.24639 4.60181 0.0221301 3.81987 0.667943 3.81987H3.94414C4.23295 3.81987 4.48892 3.64391 4.57817 3.38401L5.59054 0.435863Z" fill="#2F6F68"/>
</svg>
