<svg width="13" height="16" viewBox="0 0 13 16" fill="none" xmlns="http://www.w3.org/2000/svg">
<path d="M12.1681 14.7113L11.3404 13.8174C11.0425 14.1816 10.7114 14.4796 10.3472 14.7775L11.1418 15.6384C11.4066 15.9032 11.8371 15.9363 12.1019 15.6715C12.3999 15.4397 12.433 15.0093 12.1681 14.7113Z" fill="#2F6F68"/>
<path d="M1.01059 13.8174L0.182872 14.7444C-0.0819979 15.0093 -0.0488892 15.4728 0.215981 15.7046C0.513959 15.9695 0.944373 15.9363 1.17613 15.6715L1.97074 14.8106C1.63966 14.4796 1.30857 14.1485 1.01059 13.8174Z" fill="#2F6F68"/>
<path d="M11.2743 6.3019C11.0425 5.97081 11.0756 5.5404 11.2743 5.20931C11.3736 5.04377 11.4398 4.84512 11.4398 4.64647C11.4398 3.88496 10.579 3.18968 9.25466 2.75927L10.6452 0.706526C10.7777 0.507873 10.7446 0.209895 10.5128 0.0774598C10.3141 -0.0549751 10.0162 -0.0218663 9.88372 0.209895L8.2945 2.52751C7.66544 2.36196 6.93705 2.29574 6.17555 2.29574C3.26198 2.29574 0.911257 3.32212 0.911257 4.61336C0.911257 4.81201 0.977474 4.97755 1.0768 5.1762C1.27545 5.5404 1.27545 5.93771 1.0768 6.3019C-1.34014 10.0763 1.10991 15.0426 5.48026 15.5392C10.579 16.1021 13.9892 10.5729 11.2743 6.3019ZM6.17555 13.9169C4.98363 13.9169 3.89104 13.4534 3.03022 12.5926C2.2025 11.7317 1.73897 10.606 1.77208 9.44723C1.77208 9.24858 1.93763 9.11614 2.10317 9.11614C2.26871 9.11614 2.43426 9.28169 2.43426 9.44723C2.40115 10.4405 2.79845 11.4006 3.52685 12.129C4.25524 12.8574 5.18228 13.2547 6.17555 13.2547C6.34109 13.2547 6.50663 13.3872 6.50663 13.5858C6.50663 13.7845 6.34109 13.9169 6.17555 13.9169ZM6.17555 6.03703C3.3613 6.03703 1.8383 5.04377 1.8383 4.61336C1.8383 4.21605 3.3613 3.22279 6.17555 3.22279C6.73839 3.22279 7.26813 3.2559 7.73166 3.32212L7.20192 4.08362H8.2945L8.69181 3.52077C9.88372 3.85186 10.5128 4.34849 10.5128 4.61336C10.5128 5.04377 8.98979 6.03703 6.17555 6.03703Z" fill="#2F6F68"/>
<path d="M4.65268 3.68555C4.42091 3.68555 4.25537 3.8842 4.25537 4.08285C4.25537 4.31461 4.42091 4.48016 4.65268 4.48016C4.88444 4.48016 5.04998 4.31461 5.04998 4.08285C5.08309 3.8842 4.88444 3.68555 4.65268 3.68555Z" fill="#2F6F68"/>
<path d="M6.63925 3.58691C6.40749 3.58691 6.24194 3.78557 6.24194 3.98422C6.24194 4.21598 6.40749 4.41463 6.63925 4.41463C6.87101 4.41463 7.03655 4.21598 7.03655 3.98422C7.03655 3.78557 6.8379 3.58691 6.63925 3.58691Z" fill="#2F6F68"/>
<path d="M8.85727 4.01758C8.6255 4.01758 8.45996 4.21623 8.45996 4.44799C8.45996 4.67975 8.65861 4.8453 8.85727 4.8453C9.08903 4.8453 9.28768 4.64664 9.28768 4.44799C9.25457 4.18312 9.08903 4.01758 8.85727 4.01758Z" fill="#2F6F68"/>
<path d="M7.49984 4.77832C7.26808 4.77832 7.10254 4.94386 7.10254 5.17563C7.10254 5.40739 7.30119 5.57293 7.49984 5.57293C7.73161 5.57293 7.93026 5.37428 7.93026 5.17563C7.89715 4.94386 7.73161 4.77832 7.49984 4.77832Z" fill="#2F6F68"/>
<path d="M5.57943 4.94434C5.34767 4.94434 5.18213 5.14299 5.18213 5.37475C5.18213 5.60651 5.34767 5.77205 5.57943 5.77205C5.8112 5.77205 5.97674 5.5734 5.97674 5.37475C6.00985 5.10988 5.8112 4.94434 5.57943 4.94434Z" fill="#2F6F68"/>
<path d="M3.19564 4.21582C2.96388 4.21582 2.79834 4.41447 2.79834 4.61313C2.79834 4.84489 2.99699 5.01043 3.19564 5.01043C3.42741 5.01043 3.59295 4.84489 3.59295 4.61313C3.62606 4.41447 3.42741 4.21582 3.19564 4.21582Z" fill="#2F6F68"/>
</svg>
