<svg width="316" height="149" viewBox="0 0 316 149" fill="none" xmlns="http://www.w3.org/2000/svg">
<path d="M313.654 109.085C313.643 109.746 313.632 110.396 313.587 111.047C313.565 111.697 313.531 112.324 313.475 112.963C313.284 115.732 312.948 118.422 312.51 120.977C312.376 121.74 312.241 122.491 312.095 123.23C312.073 123.41 312.028 123.578 312.006 123.746L311.983 123.836C311.894 124.295 311.793 124.732 311.703 125.192C311.524 125.988 311.344 126.772 311.153 127.546C311.109 127.691 311.075 127.826 311.041 127.972C310.525 129.989 309.976 131.884 309.404 133.655C309.314 133.946 309.213 134.249 309.124 134.54C308.866 135.325 308.608 136.053 308.361 136.782C308.17 137.309 307.98 137.802 307.811 138.284C306.836 140.884 305.871 143.047 305.109 144.695C304.391 146.208 303.797 147.486 303.483 148.136C303.348 148.416 303.269 148.585 303.269 148.585C303.269 148.585 154.27 148.607 72.0325 148.629C40.676 148.629 19.0315 148.629 19.0315 148.629C19.0315 148.618 19.0203 148.618 19.0203 148.618C18.8297 148.472 18.6614 148.338 18.482 148.192C18.4708 148.192 18.4708 148.192 18.4708 148.192C18.3923 148.125 18.3138 148.069 18.2465 148.002L14.3326 143.776C13.469 142.554 12.7737 141.254 12.2354 139.898C11.2036 137.376 10.699 134.63 10.699 131.771C10.699 131.637 10.699 131.491 10.7102 131.346C10.7102 131.088 10.7214 130.819 10.7214 130.561C10.7326 130.337 10.7438 130.101 10.7663 129.877C10.8336 129.048 10.9233 128.207 11.0578 127.378C11.0578 127.355 11.0691 127.322 11.0691 127.299C11.0915 127.165 11.1251 127.019 11.1364 126.873C11.1588 126.694 11.2036 126.526 11.2485 126.346C11.3719 125.73 11.5177 125.113 11.6747 124.475C11.6971 124.329 11.7419 124.183 11.7868 124.026C11.8429 123.847 11.8765 123.679 11.9438 123.499C12.0896 122.95 12.2803 122.401 12.4709 121.829C12.8298 120.753 13.2672 119.677 13.7494 118.59C13.7718 118.512 13.8167 118.411 13.8615 118.332C14.3101 117.357 14.7924 116.382 15.3082 115.407C16.1045 113.927 17.0017 112.47 17.9773 111.013C18.1904 110.699 18.4035 110.396 18.6278 110.105C19.7156 108.558 20.9156 107.045 22.2165 105.554C23.7866 103.738 25.5137 101.956 27.3641 100.23C27.779 99.8378 28.194 99.4679 28.6089 99.0868C28.6987 99.0084 28.7996 98.9299 28.8893 98.829C29.136 98.6273 29.3715 98.4143 29.6183 98.2125C30.6388 97.3271 31.6369 96.4976 32.6126 95.6906C33.1061 95.2871 33.5883 94.8948 34.0817 94.5137C35.035 93.7515 35.9658 93.0005 36.8518 92.2719C39.577 90.0302 41.9994 87.9229 43.9059 85.5467C44.5675 84.7397 45.1507 83.899 45.6778 83.0247C46.631 81.4219 47.3712 79.6957 47.8535 77.7342C47.9656 77.241 48.0665 76.7254 48.145 76.1986C48.3918 74.7751 48.5039 73.2283 48.4703 71.5358C48.459 70.2019 48.3469 68.7672 48.145 67.2428C48.1002 66.9178 48.0553 66.5815 47.9992 66.2341C47.7189 64.3398 47.2815 62.2886 46.7095 60.0468C46.5525 59.4192 46.3731 58.769 46.1825 58.1077C45.8572 56.9644 45.5993 55.8324 45.3974 54.7339C45.0049 52.593 44.8479 50.5418 44.8703 48.5467C44.8815 46.7309 45.061 44.9711 45.3974 43.2786V43.2562C45.689 41.6421 46.1264 40.0841 46.6423 38.5821C53.0795 20.2783 74.9819 9.46187 80.8024 7.05199C89.0901 3.59971 98.9142 1.6606 109.12 0.954448C109.95 0.898404 110.791 0.84236 111.621 0.808734C113.976 0.685438 116.353 0.629395 118.719 0.629395C119.684 0.629395 120.637 0.640603 121.59 0.651812C123.194 0.696647 124.775 0.741482 126.379 0.84236C127.86 0.920821 129.317 1.0217 130.787 1.13379C136.865 1.64939 142.786 2.50125 148.293 3.65575C153.306 4.69816 157.825 6.02079 161.93 7.53397C161.93 7.53397 161.93 7.53397 161.941 7.54518C171.642 11.132 178.976 15.8172 184.842 20.693C186.199 21.8251 187.488 22.9684 188.7 24.1005C188.857 24.2462 189.036 24.4143 189.193 24.5712C189.574 24.9187 189.933 25.2662 190.292 25.6361C190.449 25.793 190.628 25.9611 190.785 26.118C191.851 27.1829 192.871 28.2365 193.836 29.2789C194.318 29.8057 194.8 30.3213 195.271 30.8369C197.828 33.6615 200.083 36.2956 202.236 38.5597C202.505 38.8511 202.774 39.1202 203.043 39.4004C206.744 43.1665 210.165 45.7109 214.359 45.9911C216.994 46.1704 220.067 45.7221 223.521 45.0496C223.869 44.9823 224.205 44.9151 224.553 44.8366C229.858 43.7718 236.048 42.2698 242.912 41.6421C251.783 40.8239 261.82 41.4628 272.653 46.3834C273.001 46.5403 273.337 46.7085 273.685 46.8654C275.266 47.6276 276.87 48.4794 278.485 49.4322C278.821 49.6227 279.158 49.8245 279.494 50.0262C281.132 51.035 282.803 52.1447 284.485 53.3889C284.53 53.4113 284.563 53.4449 284.608 53.4785C285.337 54.0053 286.055 54.5658 286.784 55.1486C287.625 55.8212 288.488 56.5161 289.352 57.2559C291.427 59.0381 293.535 60.9996 295.643 63.1741C297.18 64.7433 298.604 66.3349 299.894 67.9378C300.791 69.0362 301.643 70.1571 302.417 71.2668C302.563 71.4685 302.698 71.6703 302.843 71.872C304.189 73.8448 305.4 75.8399 306.477 77.8351C306.6 78.0817 306.735 78.3283 306.869 78.5749C308.282 81.3434 309.449 84.1232 310.38 86.8917C310.458 87.1383 310.537 87.3625 310.626 87.5867C311.03 88.8308 311.378 90.0862 311.703 91.3304C312.129 93.0341 312.488 94.7266 312.768 96.4192C313.486 100.757 313.733 105.005 313.654 109.085Z" fill="#2F6F68"/>
<path d="M66.9968 43.2786V134.977H48.1335V76.1986C48.3803 74.7751 48.4924 73.2283 48.4588 71.5358C48.4476 70.2019 48.3354 68.7672 48.1335 67.2428V43.2786H66.9968Z" fill="#C4D9ED"/>
<path d="M62.7575 43.2792V134.978H43.8831V85.5473C44.5447 84.7402 45.1279 83.8996 45.655 83.0253C46.6082 81.4225 47.3484 79.6963 47.8307 77.7348C47.9428 77.2416 48.0437 76.726 48.1222 76.1992C48.369 74.7757 48.4811 73.2289 48.4475 71.5364C48.4362 70.2025 48.3241 68.7678 48.1222 67.2434C48.0774 66.9184 48.0325 66.5821 47.9764 66.2346C47.6961 64.3404 47.2587 62.2892 46.6867 60.0474C46.5297 59.4197 46.3503 58.7696 46.1597 58.1083C45.8344 56.965 45.5765 55.8329 45.3746 54.7345C44.9821 52.5936 44.8251 50.5424 44.8475 48.5473C44.8587 46.7315 45.0382 44.9717 45.3746 43.2792H62.7575Z" fill="#D5E7F7"/>
<path d="M45.3972 43.2786C45.0608 44.9712 44.8813 46.7309 44.8701 48.5467H48.1336H62.7576V43.2786V43.2562H45.3972V43.2786Z" fill="#C4D9ED"/>
<path d="M62.7574 54.7341V60.0359H46.6979C46.5409 59.4082 46.3614 58.7581 46.1708 58.0967C45.8455 56.9534 45.5876 55.8214 45.3857 54.7229H62.7574V54.7341Z" fill="#C4D9ED"/>
<path d="M62.7574 66.2341V71.5359H48.4586C48.4474 70.202 48.3352 68.7673 48.1333 67.2429C48.0885 66.9179 48.0436 66.5816 47.9875 66.2341H62.7574Z" fill="#C4D9ED"/>
<path d="M62.7575 77.7231V83.0137H45.6663C46.6195 81.4108 47.3597 79.6847 47.8419 77.7231H62.7575Z" fill="#C4D9ED"/>
<path d="M62.7575 89.2119H43.8943V94.5136H62.7575V89.2119Z" fill="#C4D9ED"/>
<path d="M62.7575 100.712H43.8943V106.014H62.7575V100.712Z" fill="#C4D9ED"/>
<path d="M62.7575 112.201H43.8943V117.503H62.7575V112.201Z" fill="#C4D9ED"/>
<path d="M62.7575 123.69H43.8943V128.992H62.7575V123.69Z" fill="#C4D9ED"/>
<path d="M36.829 92.2722V134.966H17.9658V111.024C18.1789 110.711 18.392 110.408 18.6163 110.117C19.7041 108.57 20.9041 107.057 22.205 105.566C23.7751 103.75 25.5021 101.968 27.3526 100.242C27.7675 99.8493 28.1825 99.4794 28.5974 99.0983C28.6871 99.0199 28.7881 98.9414 28.8778 98.8405C29.1245 98.6388 29.36 98.4258 29.6067 98.2241C30.6273 97.3386 31.6254 96.5091 32.6011 95.7021C33.0945 95.2986 33.5767 94.9063 34.0702 94.5252C35.0122 93.7518 35.9431 93.0008 36.829 92.2722Z" fill="#C4D9ED"/>
<path d="M32.601 95.7019V134.977H13.7266V118.601C13.749 118.523 13.7939 118.422 13.8387 118.344C14.2873 117.368 14.7695 116.393 15.2854 115.418C16.0817 113.938 16.9788 112.481 17.9545 111.024C18.1676 110.71 18.3807 110.408 18.605 110.116C19.6928 108.57 20.8928 107.056 22.1937 105.566C23.7638 103.75 25.4908 101.968 27.3413 100.241C27.7562 99.8491 28.1712 99.4792 28.5861 99.0981C28.6758 99.0197 28.7768 98.9412 28.8665 98.8403C29.1132 98.6386 29.3487 98.4256 29.5954 98.2239C30.6272 97.3384 31.6141 96.4977 32.601 95.7019Z" fill="#D5E7F7"/>
<path d="M32.601 95.7019V100.241H27.3413C27.7563 99.8491 28.1712 99.4792 28.5861 99.0981C28.6759 99.0197 28.7768 98.9412 28.8665 98.8403C29.1132 98.6386 29.3487 98.4256 29.5955 98.2239C30.6272 97.3384 31.6141 96.4977 32.601 95.7019Z" fill="#C4D9ED"/>
<path d="M32.601 105.554V110.105H18.605C19.6928 108.558 20.8928 107.045 22.1937 105.554H32.601Z" fill="#C4D9ED"/>
<path d="M32.601 115.418V119.969H13.7266V118.601C13.749 118.523 13.7939 118.422 13.8387 118.344C14.2873 117.369 14.7695 116.393 15.2854 115.418H32.601Z" fill="#C4D9ED"/>
<path d="M32.601 125.293H13.7378V129.844H32.601V125.293Z" fill="#C4D9ED"/>
<path d="M77.2023 132.153H69.3071V143.664H77.2023V132.153Z" fill="#DCEAF9"/>
<path d="M185.548 86.3873V79.2809H183.395V67.0522H171.81V79.2809H160.988V59.3518H149.033V72.2867H146.307V56.8411H134.364V85.7932H119.257V102.685H113.605V106.933H100.641V99.6136H93.1944V79.7069H83.9983V116.449H74.791V148.416H83.9983H91.8823H93.1944H100.641H104.847H111.587H113.605H119.257H124.551H134.364H137.369H143.347H146.307H149.033H155.29H159.552H160.988H171.81H183.204H183.395H185.548H194.778V86.3873H185.548Z" fill="#D5E7F7"/>
<path d="M146.307 58.8027H134.353V61.7506H146.307V58.8027Z" fill="#C4D9ED"/>
<path d="M146.307 64.3398H134.353V67.2877H146.307V64.3398Z" fill="#C4D9ED"/>
<path d="M146.307 69.3276H134.353V72.2755H146.307V69.3276Z" fill="#C4D9ED"/>
<path d="M160.976 69.3276H149.021V72.2755H160.976V69.3276Z" fill="#C4D9ED"/>
<path d="M160.976 64.3398H149.021V67.2877H160.976V64.3398Z" fill="#C4D9ED"/>
<path d="M160.976 59.3633H149.021V62.3112H160.976V59.3633Z" fill="#C4D9ED"/>
<path d="M160.976 74.1587H134.353V77.1066H160.976V74.1587Z" fill="#C4D9ED"/>
<path d="M160.976 78.9897H134.353V81.9377H160.976V78.9897Z" fill="#C4D9ED"/>
<path d="M93.2729 79.707H83.9983V84.2578H93.2729V79.707Z" fill="#C4D9ED"/>
<path d="M93.2729 86.4771H83.9983V91.0278H93.2729V86.4771Z" fill="#C4D9ED"/>
<path d="M93.2729 93.2583H83.9983V97.8091H93.2729V93.2583Z" fill="#C4D9ED"/>
<path d="M93.2729 100.354H83.9983V104.904H93.2729V100.354Z" fill="#C4D9ED"/>
<path d="M93.2729 107.236H83.9983V111.786H93.2729V107.236Z" fill="#C4D9ED"/>
<path d="M93.2729 114.106H83.9983V118.657H93.2729V114.106Z" fill="#C4D9ED"/>
<path d="M93.2729 121.303H83.9983V125.853H93.2729V121.303Z" fill="#C4D9ED"/>
<path d="M160.976 83.7197H134.353V85.5916H160.976V83.7197Z" fill="#C4D9ED"/>
<path d="M96.5701 79.707H93.1495V99.6025H96.5701V79.707Z" fill="#C4D9ED"/>
<path d="M107.527 99.6138H100.641V106.933H107.527V99.6138Z" fill="#C4D9ED"/>
<path d="M160.976 59.3633H163.354V79.2812H160.988L160.976 59.3633Z" fill="#C4D9ED"/>
<path d="M147.765 56.8411H146.307V72.2755H147.765V56.8411Z" fill="#C4D9ED"/>
<g opacity="0.8">
<g opacity="0.8">
<g opacity="0.8">
<g opacity="0.8">
<path opacity="0.8" d="M123.755 88.7075H121.725V91.5657H123.755V88.7075Z" fill="#C4D9ED"/>
<path opacity="0.8" d="M127.534 88.7075H125.504V91.5657H127.534V88.7075Z" fill="#C4D9ED"/>
<path opacity="0.8" d="M131.246 88.7075H129.216V91.5657H131.246V88.7075Z" fill="#C4D9ED"/>
<path opacity="0.8" d="M134.756 88.7075H132.727V91.5657H134.756V88.7075Z" fill="#C4D9ED"/>
<path opacity="0.8" d="M138.334 88.7075H136.304V91.5657H138.334V88.7075Z" fill="#C4D9ED"/>
</g>
<g opacity="0.8">
<path opacity="0.8" d="M141.945 88.7075H139.915V91.5657H141.945V88.7075Z" fill="#C4D9ED"/>
<path opacity="0.8" d="M145.736 88.7075H143.706V91.5657H145.736V88.7075Z" fill="#C4D9ED"/>
<path opacity="0.8" d="M149.437 88.7075H147.407V91.5657H149.437V88.7075Z" fill="#C4D9ED"/>
<path opacity="0.8" d="M152.947 88.7075H150.917V91.5657H152.947V88.7075Z" fill="#C4D9ED"/>
<path opacity="0.8" d="M156.535 88.7075H154.505V91.5657H156.535V88.7075Z" fill="#C4D9ED"/>
</g>
</g>
<g opacity="0.8">
<g opacity="0.8">
<path opacity="0.8" d="M160.259 88.7075H158.229V91.5657H160.259V88.7075Z" fill="#C4D9ED"/>
<path opacity="0.8" d="M164.049 88.7075H162.019V91.5657H164.049V88.7075Z" fill="#C4D9ED"/>
<path opacity="0.8" d="M167.75 88.7075H165.72V91.5657H167.75V88.7075Z" fill="#C4D9ED"/>
<path opacity="0.8" d="M171.26 88.7075H169.231V91.5657H171.26V88.7075Z" fill="#C4D9ED"/>
<path opacity="0.8" d="M174.838 88.7075H172.808V91.5657H174.838V88.7075Z" fill="#C4D9ED"/>
</g>
<g opacity="0.8">
<path opacity="0.8" d="M178.46 88.7075H176.43V91.5657H178.46V88.7075Z" fill="#C4D9ED"/>
<path opacity="0.8" d="M182.251 88.7075H180.221V91.5657H182.251V88.7075Z" fill="#C4D9ED"/>
<path opacity="0.8" d="M185.952 88.7075H183.922V91.5657H185.952V88.7075Z" fill="#C4D9ED"/>
<path opacity="0.8" d="M189.462 88.7075H187.432V91.5657H189.462V88.7075Z" fill="#C4D9ED"/>
<path opacity="0.8" d="M193.039 88.7075H191.01V91.5657H193.039V88.7075Z" fill="#C4D9ED"/>
</g>
</g>
</g>
<g opacity="0.8">
<g opacity="0.8">
<g opacity="0.8">
<path opacity="0.8" d="M123.755 93.7405H121.725V96.5987H123.755V93.7405Z" fill="#C4D9ED"/>
<path opacity="0.8" d="M127.534 93.7405H125.504V96.5987H127.534V93.7405Z" fill="#C4D9ED"/>
<path opacity="0.8" d="M131.246 93.7405H129.216V96.5987H131.246V93.7405Z" fill="#C4D9ED"/>
<path opacity="0.8" d="M134.756 93.7405H132.727V96.5987H134.756V93.7405Z" fill="#C4D9ED"/>
<path opacity="0.8" d="M138.334 93.7405H136.304V96.5987H138.334V93.7405Z" fill="#C4D9ED"/>
</g>
<g opacity="0.8">
<path opacity="0.8" d="M141.945 93.7405H139.915V96.5987H141.945V93.7405Z" fill="#C4D9ED"/>
<path opacity="0.8" d="M145.736 93.7405H143.706V96.5987H145.736V93.7405Z" fill="#C4D9ED"/>
<path opacity="0.8" d="M149.437 93.7405H147.407V96.5987H149.437V93.7405Z" fill="#C4D9ED"/>
<path opacity="0.8" d="M152.947 93.7405H150.917V96.5987H152.947V93.7405Z" fill="#C4D9ED"/>
<path opacity="0.8" d="M156.535 93.7405H154.505V96.5987H156.535V93.7405Z" fill="#C4D9ED"/>
</g>
</g>
<g opacity="0.8">
<g opacity="0.8">
<path opacity="0.8" d="M160.259 93.7405H158.229V96.5987H160.259V93.7405Z" fill="#C4D9ED"/>
<path opacity="0.8" d="M164.049 93.7405H162.019V96.5987H164.049V93.7405Z" fill="#C4D9ED"/>
<path opacity="0.8" d="M167.75 93.7405H165.72V96.5987H167.75V93.7405Z" fill="#C4D9ED"/>
<path opacity="0.8" d="M171.26 93.7405H169.231V96.5987H171.26V93.7405Z" fill="#C4D9ED"/>
<path opacity="0.8" d="M174.838 93.7405H172.808V96.5987H174.838V93.7405Z" fill="#C4D9ED"/>
</g>
<g opacity="0.8">
<path opacity="0.8" d="M178.46 93.7405H176.43V96.5987H178.46V93.7405Z" fill="#C4D9ED"/>
<path opacity="0.8" d="M182.251 93.7405H180.221V96.5987H182.251V93.7405Z" fill="#C4D9ED"/>
<path opacity="0.8" d="M185.952 93.7405H183.922V96.5987H185.952V93.7405Z" fill="#C4D9ED"/>
<path opacity="0.8" d="M189.462 93.7405H187.432V96.5987H189.462V93.7405Z" fill="#C4D9ED"/>
<path opacity="0.8" d="M193.039 93.7405H191.01V96.5987H193.039V93.7405Z" fill="#C4D9ED"/>
</g>
</g>
</g>
<g opacity="0.8">
<g opacity="0.8">
<g opacity="0.8">
<path opacity="0.8" d="M123.755 98.6946H121.725V101.553H123.755V98.6946Z" fill="#C4D9ED"/>
<path opacity="0.8" d="M127.534 98.6946H125.504V101.553H127.534V98.6946Z" fill="#C4D9ED"/>
<path opacity="0.8" d="M131.246 98.6946H129.216V101.553H131.246V98.6946Z" fill="#C4D9ED"/>
<path opacity="0.8" d="M134.756 98.6946H132.727V101.553H134.756V98.6946Z" fill="#C4D9ED"/>
<path opacity="0.8" d="M138.334 98.6946H136.304V101.553H138.334V98.6946Z" fill="#C4D9ED"/>
</g>
<g opacity="0.8">
<path opacity="0.8" d="M141.945 98.6946H139.915V101.553H141.945V98.6946Z" fill="#C4D9ED"/>
<path opacity="0.8" d="M145.736 98.6946H143.706V101.553H145.736V98.6946Z" fill="#C4D9ED"/>
<path opacity="0.8" d="M149.437 98.6946H147.407V101.553H149.437V98.6946Z" fill="#C4D9ED"/>
<path opacity="0.8" d="M152.947 98.6946H150.917V101.553H152.947V98.6946Z" fill="#C4D9ED"/>
<path opacity="0.8" d="M156.535 98.6946H154.505V101.553H156.535V98.6946Z" fill="#C4D9ED"/>
</g>
</g>
<g opacity="0.8">
<g opacity="0.8">
<path opacity="0.8" d="M160.259 98.6946H158.229V101.553H160.259V98.6946Z" fill="#C4D9ED"/>
<path opacity="0.8" d="M164.049 98.6946H162.019V101.553H164.049V98.6946Z" fill="#C4D9ED"/>
<path opacity="0.8" d="M167.75 98.6946H165.72V101.553H167.75V98.6946Z" fill="#C4D9ED"/>
<path opacity="0.8" d="M171.26 98.6946H169.231V101.553H171.26V98.6946Z" fill="#C4D9ED"/>
<path opacity="0.8" d="M174.838 98.6946H172.808V101.553H174.838V98.6946Z" fill="#C4D9ED"/>
</g>
<g opacity="0.8">
<path opacity="0.8" d="M178.46 98.6946H176.43V101.553H178.46V98.6946Z" fill="#C4D9ED"/>
<path opacity="0.8" d="M182.251 98.6946H180.221V101.553H182.251V98.6946Z" fill="#C4D9ED"/>
<path opacity="0.8" d="M185.952 98.6946H183.922V101.553H185.952V98.6946Z" fill="#C4D9ED"/>
<path opacity="0.8" d="M189.462 98.6946H187.432V101.553H189.462V98.6946Z" fill="#C4D9ED"/>
<path opacity="0.8" d="M193.039 98.6946H191.01V101.553H193.039V98.6946Z" fill="#C4D9ED"/>
</g>
</g>
</g>
<g opacity="0.8">
<g opacity="0.8">
<g opacity="0.8">
<g opacity="0.8">
<path opacity="0.8" d="M123.755 103.963H121.725V106.821H123.755V103.963Z" fill="#C4D9ED"/>
<path opacity="0.8" d="M127.534 103.963H125.504V106.821H127.534V103.963Z" fill="#C4D9ED"/>
<path opacity="0.8" d="M131.246 103.963H129.216V106.821H131.246V103.963Z" fill="#C4D9ED"/>
<path opacity="0.8" d="M134.756 103.963H132.727V106.821H134.756V103.963Z" fill="#C4D9ED"/>
<path opacity="0.8" d="M138.334 103.963H136.304V106.821H138.334V103.963Z" fill="#C4D9ED"/>
</g>
<g opacity="0.8">
<path opacity="0.8" d="M141.945 103.963H139.915V106.821H141.945V103.963Z" fill="#C4D9ED"/>
<path opacity="0.8" d="M145.736 103.963H143.706V106.821H145.736V103.963Z" fill="#C4D9ED"/>
<path opacity="0.8" d="M149.437 103.963H147.407V106.821H149.437V103.963Z" fill="#C4D9ED"/>
<path opacity="0.8" d="M152.947 103.963H150.917V106.821H152.947V103.963Z" fill="#C4D9ED"/>
<path opacity="0.8" d="M156.535 103.963H154.505V106.821H156.535V103.963Z" fill="#C4D9ED"/>
</g>
</g>
<g opacity="0.8">
<g opacity="0.8">
<path opacity="0.8" d="M160.259 103.963H158.229V106.821H160.259V103.963Z" fill="#C4D9ED"/>
<path opacity="0.8" d="M164.049 103.963H162.019V106.821H164.049V103.963Z" fill="#C4D9ED"/>
<path opacity="0.8" d="M167.75 103.963H165.72V106.821H167.75V103.963Z" fill="#C4D9ED"/>
<path opacity="0.8" d="M171.26 103.963H169.231V106.821H171.26V103.963Z" fill="#C4D9ED"/>
<path opacity="0.8" d="M174.838 103.963H172.808V106.821H174.838V103.963Z" fill="#C4D9ED"/>
</g>
<g opacity="0.8">
<path opacity="0.8" d="M178.46 103.963H176.43V106.821H178.46V103.963Z" fill="#C4D9ED"/>
<path opacity="0.8" d="M182.251 103.963H180.221V106.821H182.251V103.963Z" fill="#C4D9ED"/>
<path opacity="0.8" d="M185.952 103.963H183.922V106.821H185.952V103.963Z" fill="#C4D9ED"/>
<path opacity="0.8" d="M189.462 103.963H187.432V106.821H189.462V103.963Z" fill="#C4D9ED"/>
<path opacity="0.8" d="M193.039 103.963H191.01V106.821H193.039V103.963Z" fill="#C4D9ED"/>
</g>
</g>
</g>
<g opacity="0.8">
<g opacity="0.8">
<g opacity="0.8">
<path opacity="0.8" d="M123.755 108.996H121.725V111.854H123.755V108.996Z" fill="#C4D9ED"/>
<path opacity="0.8" d="M127.534 108.996H125.504V111.854H127.534V108.996Z" fill="#C4D9ED"/>
<path opacity="0.8" d="M131.246 108.996H129.216V111.854H131.246V108.996Z" fill="#C4D9ED"/>
<path opacity="0.8" d="M134.756 108.996H132.727V111.854H134.756V108.996Z" fill="#C4D9ED"/>
<path opacity="0.8" d="M138.334 108.996H136.304V111.854H138.334V108.996Z" fill="#C4D9ED"/>
</g>
<g opacity="0.8">
<path opacity="0.8" d="M141.945 108.996H139.915V111.854H141.945V108.996Z" fill="#C4D9ED"/>
<path opacity="0.8" d="M145.736 108.996H143.706V111.854H145.736V108.996Z" fill="#C4D9ED"/>
<path opacity="0.8" d="M149.437 108.996H147.407V111.854H149.437V108.996Z" fill="#C4D9ED"/>
<path opacity="0.8" d="M152.947 108.996H150.917V111.854H152.947V108.996Z" fill="#C4D9ED"/>
<path opacity="0.8" d="M156.535 108.996H154.505V111.854H156.535V108.996Z" fill="#C4D9ED"/>
</g>
</g>
<g opacity="0.8">
<g opacity="0.8">
<path opacity="0.8" d="M160.259 108.996H158.229V111.854H160.259V108.996Z" fill="#C4D9ED"/>
<path opacity="0.8" d="M164.049 108.996H162.019V111.854H164.049V108.996Z" fill="#C4D9ED"/>
<path opacity="0.8" d="M167.75 108.996H165.72V111.854H167.75V108.996Z" fill="#C4D9ED"/>
<path opacity="0.8" d="M171.26 108.996H169.231V111.854H171.26V108.996Z" fill="#C4D9ED"/>
<path opacity="0.8" d="M174.838 108.996H172.808V111.854H174.838V108.996Z" fill="#C4D9ED"/>
</g>
<g opacity="0.8">
<path opacity="0.8" d="M178.46 108.996H176.43V111.854H178.46V108.996Z" fill="#C4D9ED"/>
<path opacity="0.8" d="M182.251 108.996H180.221V111.854H182.251V108.996Z" fill="#C4D9ED"/>
<path opacity="0.8" d="M185.952 108.996H183.922V111.854H185.952V108.996Z" fill="#C4D9ED"/>
<path opacity="0.8" d="M189.462 108.996H187.432V111.854H189.462V108.996Z" fill="#C4D9ED"/>
<path opacity="0.8" d="M193.039 108.996H191.01V111.854H193.039V108.996Z" fill="#C4D9ED"/>
</g>
</g>
</g>
<g opacity="0.8">
<g opacity="0.8">
<g opacity="0.8">
<path opacity="0.8" d="M123.755 113.961H121.725V116.819H123.755V113.961Z" fill="#C4D9ED"/>
<path opacity="0.8" d="M127.534 113.961H125.504V116.819H127.534V113.961Z" fill="#C4D9ED"/>
<path opacity="0.8" d="M131.246 113.961H129.216V116.819H131.246V113.961Z" fill="#C4D9ED"/>
<path opacity="0.8" d="M134.756 113.961H132.727V116.819H134.756V113.961Z" fill="#C4D9ED"/>
<path opacity="0.8" d="M138.334 113.961H136.304V116.819H138.334V113.961Z" fill="#C4D9ED"/>
</g>
<g opacity="0.8">
<path opacity="0.8" d="M141.945 113.961H139.915V116.819H141.945V113.961Z" fill="#C4D9ED"/>
<path opacity="0.8" d="M145.736 113.961H143.706V116.819H145.736V113.961Z" fill="#C4D9ED"/>
<path opacity="0.8" d="M149.437 113.961H147.407V116.819H149.437V113.961Z" fill="#C4D9ED"/>
<path opacity="0.8" d="M152.947 113.961H150.917V116.819H152.947V113.961Z" fill="#C4D9ED"/>
<path opacity="0.8" d="M156.535 113.961H154.505V116.819H156.535V113.961Z" fill="#C4D9ED"/>
</g>
</g>
<g opacity="0.8">
<g opacity="0.8">
<path opacity="0.8" d="M160.259 113.961H158.229V116.819H160.259V113.961Z" fill="#C4D9ED"/>
<path opacity="0.8" d="M164.049 113.961H162.019V116.819H164.049V113.961Z" fill="#C4D9ED"/>
<path opacity="0.8" d="M167.75 113.961H165.72V116.819H167.75V113.961Z" fill="#C4D9ED"/>
<path opacity="0.8" d="M171.26 113.961H169.231V116.819H171.26V113.961Z" fill="#C4D9ED"/>
<path opacity="0.8" d="M174.838 113.961H172.808V116.819H174.838V113.961Z" fill="#C4D9ED"/>
</g>
<g opacity="0.8">
<path opacity="0.8" d="M178.46 113.961H176.43V116.819H178.46V113.961Z" fill="#C4D9ED"/>
<path opacity="0.8" d="M182.251 113.961H180.221V116.819H182.251V113.961Z" fill="#C4D9ED"/>
<path opacity="0.8" d="M185.952 113.961H183.922V116.819H185.952V113.961Z" fill="#C4D9ED"/>
<path opacity="0.8" d="M189.462 113.961H187.432V116.819H189.462V113.961Z" fill="#C4D9ED"/>
<path opacity="0.8" d="M193.039 113.961H191.01V116.819H193.039V113.961Z" fill="#C4D9ED"/>
</g>
</g>
</g>
</g>
</g>
<path d="M154.461 122.894H107.516V148.204H154.461V122.894Z" fill="#C4D9ED"/>
<path d="M118.865 135.549H71.9199V148.203H118.865V135.549Z" fill="#C4D9ED"/>
<path d="M205.174 126.84H158.229V148.203H205.174V126.84Z" fill="#C4D9ED"/>
<path d="M119.403 125.865H110.656V130.55H119.403V125.865Z" fill="#D5E7F7"/>
<path d="M130.629 125.865H121.882V130.55H130.629V125.865Z" fill="#D5E7F7"/>
<path d="M141.642 125.865H132.895V130.55H141.642V125.865Z" fill="#D5E7F7"/>
<path d="M152.442 125.865H143.694V130.55H152.442V125.865Z" fill="#D5E7F7"/>
<path d="M158.487 122.894H153.978V148.428H158.487V122.894Z" fill="#ADC9E0"/>
<path d="M214.381 117.962H209.873V148.428H214.381V117.962Z" fill="#ADC9E0"/>
<path d="M210.007 126.84H205.174V148.002H210.007V126.84Z" fill="#ADC9E0"/>
<path d="M201.551 128.095C201.428 128.431 201.125 128.622 200.878 128.532C200.632 128.443 200.531 128.095 200.654 127.759C200.777 127.423 201.697 126.347 201.697 126.347C201.697 126.347 201.675 127.759 201.551 128.095Z" fill="#DCEAF9"/>
<path d="M199.084 119.834C198.961 120.171 198.658 120.361 198.411 120.271C198.164 120.182 198.063 119.834 198.187 119.498C198.31 119.162 199.23 118.086 199.23 118.086C199.23 118.086 199.219 119.498 199.084 119.834Z" fill="#DCEAF9"/>
<path d="M189.652 132.298C189.529 132.635 189.226 132.836 188.98 132.735C188.733 132.646 188.632 132.298 188.755 131.962C188.879 131.626 189.798 130.55 189.798 130.55C189.798 130.55 189.776 131.962 189.652 132.298Z" fill="#DCEAF9"/>
<path d="M197.447 145.962C197.447 145.962 196.572 147.834 198.265 147.979C199.959 148.114 200.968 147.43 201.372 146.612C201.372 146.612 199.263 147.486 199.589 146.433C199.914 145.379 200.733 143.687 200.733 143.687C200.733 143.687 198.949 146.892 198.064 146.735C197.671 146.646 197.447 145.962 197.447 145.962Z" fill="#EBF2F9"/>
<path d="M86.0955 77.7231H85.8488V79.7071H86.0955V77.7231Z" fill="#DCEAF9"/>
<path d="M94.8542 77.7231H94.6074V79.7071H94.8542V77.7231Z" fill="#DCEAF9"/>
<path d="M210.019 117.884H184.18V148.002H210.019V117.884Z" fill="#D5E7F7"/>
<path d="M208.28 111.854H207.798V117.962H208.28V111.854Z" fill="#D5E7F7"/>
<path d="M216.411 126.335H184.18V148.002H216.411V126.335Z" fill="#D5E7F7"/>
<path d="M216.411 123.511H184.18V130.55H216.411V123.511Z" fill="#C4D9ED"/>
<path d="M188.026 132.635H186.367V134.966H188.026V132.635Z" fill="#C4D9ED"/>
<path d="M191.122 132.635H189.462V134.966H191.122V132.635Z" fill="#C4D9ED"/>
<path d="M194.15 132.635H192.49V134.966H194.15V132.635Z" fill="#C4D9ED"/>
<path d="M197.021 132.635H195.361V134.966H197.021V132.635Z" fill="#C4D9ED"/>
<path d="M199.948 132.635H198.288V134.966H199.948V132.635Z" fill="#C4D9ED"/>
<path d="M202.908 132.635H201.249V134.966H202.908V132.635Z" fill="#C4D9ED"/>
<path d="M206.004 132.635H204.344V134.966H206.004V132.635Z" fill="#C4D9ED"/>
<path d="M209.02 132.635H207.361V134.966H209.02V132.635Z" fill="#C4D9ED"/>
<path d="M211.891 132.635H210.232V134.966H211.891V132.635Z" fill="#C4D9ED"/>
<path d="M214.818 132.635H213.159V134.966H214.818V132.635Z" fill="#C4D9ED"/>
<path d="M188.026 136.748H186.367V139.08H188.026V136.748Z" fill="#C4D9ED"/>
<path d="M191.122 136.748H189.462V139.08H191.122V136.748Z" fill="#C4D9ED"/>
<path d="M194.15 136.748H192.49V139.08H194.15V136.748Z" fill="#C4D9ED"/>
<path d="M197.021 136.748H195.361V139.08H197.021V136.748Z" fill="#C4D9ED"/>
<path d="M199.948 136.748H198.288V139.08H199.948V136.748Z" fill="#C4D9ED"/>
<path d="M202.908 136.748H201.249V139.08H202.908V136.748Z" fill="#C4D9ED"/>
<path d="M206.004 136.748H204.344V139.08H206.004V136.748Z" fill="#C4D9ED"/>
<path d="M209.02 136.748H207.361V139.08H209.02V136.748Z" fill="#C4D9ED"/>
<path d="M211.891 136.748H210.232V139.08H211.891V136.748Z" fill="#C4D9ED"/>
<path d="M214.818 136.748H213.159V139.08H214.818V136.748Z" fill="#C4D9ED"/>
<path d="M188.026 140.806H186.367V143.137H188.026V140.806Z" fill="#C4D9ED"/>
<path d="M191.122 140.806H189.462V143.137H191.122V140.806Z" fill="#C4D9ED"/>
<path d="M194.15 140.806H192.49V143.137H194.15V140.806Z" fill="#C4D9ED"/>
<path d="M197.021 140.806H195.361V143.137H197.021V140.806Z" fill="#C4D9ED"/>
<path d="M199.948 140.806H198.288V143.137H199.948V140.806Z" fill="#C4D9ED"/>
<path d="M202.908 140.806H201.249V143.137H202.908V140.806Z" fill="#C4D9ED"/>
<path d="M206.004 140.806H204.344V143.137H206.004V140.806Z" fill="#C4D9ED"/>
<path d="M209.02 140.806H207.361V143.137H209.02V140.806Z" fill="#C4D9ED"/>
<path d="M211.891 140.806H210.232V143.137H211.891V140.806Z" fill="#C4D9ED"/>
<path d="M214.818 140.806H213.159V143.137H214.818V140.806Z" fill="#C4D9ED"/>
<path d="M188.026 125.483H186.636V127.893H188.026V125.483Z" fill="#ADC9E0"/>
<path d="M201.832 125.483H200.441V127.893H201.832V125.483Z" fill="#ADC9E0"/>
<path d="M212.822 125.483H211.432V127.893H212.822V125.483Z" fill="#ADC9E0"/>
<path d="M80.8023 126.335H48.571V148.002H80.8023V126.335Z" fill="#D5E7F7"/>
<path d="M80.8023 123.511H48.571V130.55H80.8023V123.511Z" fill="#C4D9ED"/>
<path d="M52.4288 132.635H50.769V134.966H52.4288V132.635Z" fill="#C4D9ED"/>
<path d="M55.524 132.635H53.8643V134.966H55.524V132.635Z" fill="#C4D9ED"/>
<path d="M58.5521 132.635H56.8923V134.966H58.5521V132.635Z" fill="#C4D9ED"/>
<path d="M61.423 132.635H59.7632V134.966H61.423V132.635Z" fill="#C4D9ED"/>
<path d="M64.3387 132.635H62.679V134.966H64.3387V132.635Z" fill="#C4D9ED"/>
<path d="M67.2994 132.635H65.6396V134.966H67.2994V132.635Z" fill="#C4D9ED"/>
<path d="M70.3946 132.635H68.7349V134.966H70.3946V132.635Z" fill="#C4D9ED"/>
<path d="M73.4227 132.635H71.7629V134.966H73.4227V132.635Z" fill="#C4D9ED"/>
<path d="M76.2936 132.635H74.6338V134.966H76.2936V132.635Z" fill="#C4D9ED"/>
<path d="M79.2208 132.635H77.561V134.966H79.2208V132.635Z" fill="#C4D9ED"/>
<path d="M52.4288 136.748H50.769V139.08H52.4288V136.748Z" fill="#C4D9ED"/>
<path d="M55.524 136.748H53.8643V139.08H55.524V136.748Z" fill="#C4D9ED"/>
<path d="M58.5521 136.748H56.8923V139.08H58.5521V136.748Z" fill="#C4D9ED"/>
<path d="M61.423 136.748H59.7632V139.08H61.423V136.748Z" fill="#C4D9ED"/>
<path d="M64.3387 136.748H62.679V139.08H64.3387V136.748Z" fill="#C4D9ED"/>
<path d="M67.2994 136.748H65.6396V139.08H67.2994V136.748Z" fill="#C4D9ED"/>
<path d="M70.3946 136.748H68.7349V139.08H70.3946V136.748Z" fill="#C4D9ED"/>
<path d="M73.4227 136.748H71.7629V139.08H73.4227V136.748Z" fill="#C4D9ED"/>
<path d="M76.2936 136.748H74.6338V139.08H76.2936V136.748Z" fill="#C4D9ED"/>
<path d="M79.2208 136.748H77.561V139.08H79.2208V136.748Z" fill="#C4D9ED"/>
<path d="M52.4288 140.806H50.769V143.137H52.4288V140.806Z" fill="#C4D9ED"/>
<path d="M55.524 140.806H53.8643V143.137H55.524V140.806Z" fill="#C4D9ED"/>
<path d="M58.5521 140.806H56.8923V143.137H58.5521V140.806Z" fill="#C4D9ED"/>
<path d="M61.423 140.806H59.7632V143.137H61.423V140.806Z" fill="#C4D9ED"/>
<path d="M64.3387 140.806H62.679V143.137H64.3387V140.806Z" fill="#C4D9ED"/>
<path d="M67.2994 140.806H65.6396V143.137H67.2994V140.806Z" fill="#C4D9ED"/>
<path d="M70.3946 140.806H68.7349V143.137H70.3946V140.806Z" fill="#C4D9ED"/>
<path d="M73.4227 140.806H71.7629V143.137H73.4227V140.806Z" fill="#C4D9ED"/>
<path d="M76.2936 140.806H74.6338V143.137H76.2936V140.806Z" fill="#C4D9ED"/>
<path d="M79.2208 140.806H77.561V143.137H79.2208V140.806Z" fill="#C4D9ED"/>
<path d="M52.4177 125.483H51.0271V127.893H52.4177V125.483Z" fill="#ADC9E0"/>
<path d="M66.2341 125.483H64.8435V127.893H66.2341V125.483Z" fill="#ADC9E0"/>
<path d="M77.2246 125.483H75.834V127.893H77.2246V125.483Z" fill="#ADC9E0"/>
<path d="M46.5522 126.335V148.002H18.2238L14.3098 143.765V126.335H46.5522Z" fill="#D5E7F7"/>
<path d="M46.541 123.511H14.3098V130.55H46.541V123.511Z" fill="#C4D9ED"/>
<path d="M18.1676 132.635H16.5078V134.966H18.1676V132.635Z" fill="#C4D9ED"/>
<path d="M21.2628 132.635H19.603V134.966H21.2628V132.635Z" fill="#C4D9ED"/>
<path d="M24.2909 132.635H22.6311V134.966H24.2909V132.635Z" fill="#C4D9ED"/>
<path d="M27.1617 132.635H25.502V134.966H27.1617V132.635Z" fill="#C4D9ED"/>
<path d="M30.089 132.635H28.4292V134.966H30.089V132.635Z" fill="#C4D9ED"/>
<path d="M33.0382 132.635H31.3784V134.966H33.0382V132.635Z" fill="#C4D9ED"/>
<path d="M36.1446 132.635H34.4849V134.966H36.1446V132.635Z" fill="#C4D9ED"/>
<path d="M39.1615 132.635H37.5017V134.966H39.1615V132.635Z" fill="#C4D9ED"/>
<path d="M42.0324 132.635H40.3726V134.966H42.0324V132.635Z" fill="#C4D9ED"/>
<path d="M44.9596 132.635H43.2998V134.966H44.9596V132.635Z" fill="#C4D9ED"/>
<path d="M18.1676 136.748H16.5078V139.08H18.1676V136.748Z" fill="#C4D9ED"/>
<path d="M21.2628 136.748H19.603V139.08H21.2628V136.748Z" fill="#C4D9ED"/>
<path d="M24.2909 136.748H22.6311V139.08H24.2909V136.748Z" fill="#C4D9ED"/>
<path d="M27.1617 136.748H25.502V139.08H27.1617V136.748Z" fill="#C4D9ED"/>
<path d="M30.089 136.748H28.4292V139.08H30.089V136.748Z" fill="#C4D9ED"/>
<path d="M33.0382 136.748H31.3784V139.08H33.0382V136.748Z" fill="#C4D9ED"/>
<path d="M36.1446 136.748H34.4849V139.08H36.1446V136.748Z" fill="#C4D9ED"/>
<path d="M39.1615 136.748H37.5017V139.08H39.1615V136.748Z" fill="#C4D9ED"/>
<path d="M42.0324 136.748H40.3726V139.08H42.0324V136.748Z" fill="#C4D9ED"/>
<path d="M44.9596 136.748H43.2998V139.08H44.9596V136.748Z" fill="#C4D9ED"/>
<path d="M18.1676 140.806H16.5078V143.137H18.1676V140.806Z" fill="#C4D9ED"/>
<path d="M21.2628 140.806H19.603V143.137H21.2628V140.806Z" fill="#C4D9ED"/>
<path d="M24.2909 140.806H22.6311V143.137H24.2909V140.806Z" fill="#C4D9ED"/>
<path d="M27.1617 140.806H25.502V143.137H27.1617V140.806Z" fill="#C4D9ED"/>
<path d="M30.089 140.806H28.4292V143.137H30.089V140.806Z" fill="#C4D9ED"/>
<path d="M33.0382 140.806H31.3784V143.137H33.0382V140.806Z" fill="#C4D9ED"/>
<path d="M36.1446 140.806H34.4849V143.137H36.1446V140.806Z" fill="#C4D9ED"/>
<path d="M39.1615 140.806H37.5017V143.137H39.1615V140.806Z" fill="#C4D9ED"/>
<path d="M42.0324 140.806H40.3726V143.137H42.0324V140.806Z" fill="#C4D9ED"/>
<path d="M44.9596 140.806H43.2998V143.137H44.9596V140.806Z" fill="#C4D9ED"/>
<path d="M18.1677 125.483H16.7771V127.893H18.1677V125.483Z" fill="#ADC9E0"/>
<path d="M31.9729 125.483H30.5823V127.893H31.9729V125.483Z" fill="#ADC9E0"/>
<path d="M42.9634 125.483H41.5728V127.893H42.9634V125.483Z" fill="#ADC9E0"/>
<path d="M12.2127 126.335V139.887C11.1809 137.365 10.6763 134.619 10.6763 131.76C10.6763 131.626 10.6763 131.48 10.6875 131.335C10.6875 131.077 10.6987 130.808 10.6987 130.55C10.7099 130.326 10.7211 130.09 10.7436 129.866C10.8108 129.037 10.9006 128.196 11.0351 127.367C11.0351 127.344 11.0464 127.311 11.0464 127.288C11.0688 127.154 11.1024 127.008 11.1136 126.862C11.1361 126.683 11.1809 126.515 11.2258 126.335H12.2127Z" fill="#D5E7F7"/>
<path d="M12.2127 123.499V130.55H10.71C10.7212 130.326 10.7324 130.09 10.7548 129.866C10.8221 129.037 10.9118 128.196 11.0464 127.366C11.0464 127.344 11.0576 127.31 11.0576 127.288C11.08 127.154 11.1137 127.008 11.1249 126.862C11.1473 126.683 11.1922 126.515 11.2371 126.335C11.3604 125.719 11.5062 125.102 11.6632 124.463C11.6856 124.318 11.7305 124.172 11.7754 124.015C11.8314 123.836 11.8651 123.668 11.9324 123.488H12.2127V123.499Z" fill="#C4D9ED"/>
<path opacity="0.4" d="M312.51 120.989C312.376 121.751 312.241 122.513 312.095 123.253C312.062 123.421 312.028 123.589 311.994 123.757L311.972 123.847C311.882 124.295 311.781 124.755 311.68 125.192C311.501 125.999 311.322 126.784 311.131 127.557C311.097 127.703 311.064 127.837 311.03 127.983C310.514 130.001 309.965 131.906 309.404 133.677C309.314 133.969 309.213 134.26 309.123 134.551C308.865 135.325 308.608 136.076 308.35 136.804C308.17 137.32 307.98 137.824 307.8 138.306C306.824 140.918 305.871 143.081 305.109 144.718C304.391 146.242 303.785 147.52 303.471 148.159H157.534V117.749C168.659 118.601 183.429 109.231 194.206 114.992C206.408 121.516 238.201 137.836 258.489 126.033C276.051 115.799 301.004 116.248 312.51 120.989Z" fill="#C4D9ED"/>
<path d="M314.641 148.629H0.358872C0.157007 148.629 0 148.473 0 148.271V148.147C0 147.946 0.157007 147.789 0.358872 147.789H314.652C314.854 147.789 315.011 147.946 315.011 148.147V148.271C315 148.473 314.843 148.629 314.641 148.629Z" fill="#2E3552"/>
<path d="M288.073 147.789H277.711C277.161 147.318 278.092 146.253 279.079 146.175C279.505 146.141 280.044 146.231 280.66 146.365C280.806 144.471 281.614 135.963 284.687 136.311C288.141 136.692 284.687 140.055 283.711 142.05C282.993 143.529 282.23 145.637 281.883 146.634C282.163 146.69 282.455 146.757 282.746 146.813C283.206 145.412 284.9 140.693 287.064 140.963C289.599 141.288 288.578 143.182 286.784 144.303C285.46 145.132 283.845 146.298 283.072 146.869C283.722 146.982 284.406 147.049 285.101 147.026C286.873 146.993 287.737 147.508 288.073 147.789Z" fill="#A8D29F"/>
<path d="M31.1659 147.352C30.6837 146.59 29.2145 144.606 27.2632 144.863C25.1436 145.155 29.607 146.545 30.9752 147.352C30.6724 147.352 30.4145 147.329 30.2126 147.262C29.293 146.937 27.7342 147.565 27.2295 147.778H35.9434C35.8873 147.565 35.7303 147.228 35.3154 146.982C35.1696 146.892 34.8892 146.881 34.5191 146.915C35.035 146.309 35.3939 144.359 33.9584 144.852C32.9042 145.222 32.9042 146.41 33.0163 147.116C32.792 147.15 32.5677 147.184 32.3434 147.217C31.9061 145.009 30.3809 138.53 27.2632 138.362C24.1118 138.183 29.9323 145.076 31.8724 147.284C31.6257 147.329 31.379 147.352 31.1659 147.352Z" fill="#A8D29F"/>
<path d="M70.6641 81.7583C66.6044 81.7583 62.8699 83.1818 59.9428 85.5581C56.0962 88.6853 53.6514 93.4378 53.6514 98.7619C53.6514 108.155 70.6641 129.025 70.6641 129.025C70.6641 129.025 78.3911 119.543 83.4153 110.486C85.8601 106.104 87.6769 101.822 87.6769 98.7619C87.6769 89.369 80.0509 81.7583 70.6641 81.7583ZM70.6641 106.518C66.268 106.518 62.7129 102.976 62.7129 98.5826C62.7129 97.5066 62.926 96.4866 63.3185 95.545C64.5185 92.6532 67.3446 90.6244 70.6641 90.6244C75.0603 90.6244 78.6154 94.1888 78.6154 98.5714C78.6154 102.371 75.9575 105.532 72.3912 106.305C71.8417 106.451 71.2473 106.518 70.6641 106.518Z" fill="#D8FFFB"/>
<path d="M286.313 106.675C282.141 106.675 278.765 110.049 278.765 114.219C278.765 118.388 286.313 127.658 286.313 127.658C286.313 127.658 293.86 118.388 293.86 114.219C293.871 110.049 290.485 106.675 286.313 106.675ZM286.313 117.671C284.361 117.671 282.78 116.09 282.78 114.14C282.78 112.19 284.361 110.609 286.313 110.609C288.264 110.609 289.845 112.19 289.845 114.14C289.845 116.09 288.264 117.671 286.313 117.671Z" fill="#D8FFFB"/>
<path d="M36.1341 115.25C33.8463 115.25 31.9958 117.099 31.9958 119.386C31.9958 121.672 36.1341 126.739 36.1341 126.739C36.1341 126.739 40.2723 121.661 40.2723 119.386C40.2723 117.11 38.4219 115.25 36.1341 115.25ZM36.1341 121.269C35.0687 121.269 34.2052 120.406 34.2052 119.341C34.2052 118.276 35.0687 117.413 36.1341 117.413C37.1995 117.413 38.063 118.276 38.063 119.341C38.063 120.406 37.1995 121.269 36.1341 121.269Z" fill="#699FF0"/>
<path d="M78.1892 147.789C78.1892 147.789 81.1499 138.945 89.6395 137.241C98.129 135.538 104.421 142.184 111.979 139.595C119.549 137.006 131.47 123.298 145.657 133.318C159.844 143.339 158.924 146.186 167.874 143.854C176.823 141.512 178.875 147.789 178.875 147.789H78.1892Z" fill="#A8D29F"/>
<path d="M86.9032 139.472C86.9032 139.472 80.7126 132.982 77.5501 134.72C74.3875 136.468 86.9032 139.472 86.9032 139.472Z" fill="#A8D29F"/>
<path d="M85.333 141.12C85.333 141.12 79.6247 139.259 78.2005 140.189C76.765 141.12 85.333 141.12 85.333 141.12Z" fill="#A8D29F"/>
<path d="M103.49 140.526C103.49 140.526 107.415 131.727 108.772 133.33C110.129 134.921 103.49 140.526 103.49 140.526Z" fill="#A8D29F"/>
<path d="M102.525 139.931C102.525 139.931 104.129 133.486 101.729 133.89C99.3291 134.282 102.525 139.931 102.525 139.931Z" fill="#A8D29F"/>
<path d="M284.26 103.223C284.249 103.2 284.07 102.595 283.655 101.485C283.599 101.329 283.43 101.25 283.273 101.306C283.116 101.362 283.038 101.53 283.094 101.687C283.486 102.774 283.677 103.391 283.688 103.391C283.733 103.525 283.845 103.604 283.98 103.604C284.013 103.604 284.036 103.604 284.07 103.593C284.215 103.548 284.305 103.38 284.26 103.223ZM283.004 99.793C282.791 99.2437 282.556 98.6833 282.32 98.1117C282.253 97.9547 282.085 97.8875 281.928 97.9547C281.771 98.022 281.703 98.1901 281.771 98.347C282.006 98.9075 282.23 99.4791 282.443 100.017C282.488 100.129 282.6 100.208 282.724 100.208C282.757 100.208 282.802 100.196 282.836 100.185C282.993 100.118 283.071 99.9387 283.004 99.793ZM48.1112 98.5712C47.5729 98.3022 47.0233 98.0444 46.4738 97.7978C46.328 97.7306 46.1486 97.7978 46.0813 97.9547C46.014 98.1004 46.0813 98.2798 46.2383 98.347C46.7878 98.5936 47.3261 98.8402 47.8532 99.1092C47.8981 99.1316 47.943 99.1429 47.9878 99.1429C48.1 99.1429 48.2009 99.0756 48.257 98.9747C48.3243 98.829 48.257 98.6497 48.1112 98.5712ZM44.8028 97.1029C44.2421 96.8787 43.6813 96.6657 43.1094 96.4528C42.9524 96.3967 42.7842 96.4752 42.7281 96.6321C42.672 96.789 42.7505 96.9572 42.9075 97.0132C43.4683 97.215 44.029 97.4279 44.5785 97.6521C44.6122 97.6633 44.657 97.6745 44.6907 97.6745C44.814 97.6745 44.9262 97.6073 44.971 97.484C45.0271 97.3383 44.9598 97.1589 44.8028 97.1029ZM281.602 96.4416C281.367 95.9035 281.109 95.3431 280.851 94.7939C280.784 94.6482 280.604 94.5809 280.447 94.6482C280.301 94.7154 280.234 94.8948 280.301 95.0517C280.559 95.6009 280.806 96.1501 281.042 96.6882C281.086 96.8002 281.199 96.8675 281.311 96.8675C281.356 96.8675 281.389 96.8563 281.434 96.8451C281.602 96.7778 281.67 96.5985 281.602 96.4416ZM41.4048 95.8699C40.8328 95.6906 40.2608 95.5112 39.6777 95.3431C39.5207 95.2983 39.3525 95.3879 39.3076 95.5449C39.2627 95.7018 39.3525 95.8699 39.5095 95.9147C40.0814 96.0829 40.6646 96.251 41.2253 96.4303C41.259 96.4416 41.2814 96.4416 41.315 96.4416C41.4384 96.4416 41.5618 96.3631 41.5954 96.2286C41.6403 96.0941 41.5618 95.926 41.4048 95.8699ZM37.917 94.8723C37.3338 94.7266 36.7394 94.5921 36.1562 94.4576C35.9992 94.424 35.831 94.5249 35.7974 94.6818C35.7637 94.8387 35.8647 95.0068 36.0217 95.0405C36.6048 95.1638 37.188 95.3095 37.76 95.4552C37.7824 95.4664 37.8048 95.4664 37.8385 95.4664C37.973 95.4664 38.0964 95.3767 38.13 95.2422C38.1749 95.0853 38.0852 94.9172 37.917 94.8723ZM34.3843 94.0989C33.8012 93.9869 33.1956 93.886 32.6012 93.7851C32.433 93.7627 32.2872 93.8748 32.2535 94.0317C32.2311 94.1998 32.332 94.3455 32.5002 94.3792C33.0946 94.4688 33.689 94.5809 34.261 94.693C34.2834 94.693 34.2946 94.7042 34.317 94.7042C34.4628 94.7042 34.5862 94.6033 34.6086 94.4576C34.6647 94.2895 34.5525 94.1326 34.3843 94.0989ZM30.818 93.5273C30.2349 93.4488 29.6293 93.3704 29.0237 93.3143C28.8554 93.2919 28.7097 93.4152 28.6984 93.5833C28.676 93.7515 28.7994 93.8972 28.9676 93.9196C29.562 93.9868 30.1676 94.0541 30.7507 94.1326C30.762 94.1326 30.7732 94.1326 30.7956 94.1326C30.9414 94.1326 31.076 94.0205 31.0984 93.8748C31.0984 93.6954 30.9862 93.5497 30.818 93.5273ZM280.088 93.1574C279.83 92.6194 279.561 92.0702 279.281 91.5321C279.202 91.3864 279.023 91.3192 278.877 91.3976C278.731 91.4761 278.675 91.6554 278.743 91.8011C279.012 92.3392 279.281 92.8772 279.539 93.4152C279.595 93.5273 279.696 93.5833 279.808 93.5833C279.853 93.5833 279.898 93.5721 279.943 93.5497C280.1 93.4937 280.156 93.3031 280.088 93.1574ZM278.451 89.9293C278.171 89.4025 277.879 88.8645 277.599 88.3377C277.52 88.1919 277.341 88.1359 277.195 88.2144C277.049 88.2928 276.993 88.4722 277.072 88.6179C277.363 89.1447 277.644 89.6715 277.924 90.1983C277.98 90.2992 278.081 90.3552 278.193 90.3552C278.238 90.3552 278.283 90.344 278.328 90.3216C278.473 90.2543 278.529 90.075 278.451 89.9293ZM276.724 86.7572C276.432 86.2416 276.118 85.7148 275.816 85.188C275.726 85.0423 275.546 84.9975 275.401 85.0871C275.255 85.1768 275.21 85.3561 275.288 85.5018C275.591 86.0174 275.894 86.5443 276.186 87.0599C276.242 87.1607 276.343 87.2056 276.444 87.2056C276.488 87.2056 276.544 87.1944 276.589 87.1719C276.746 87.0823 276.802 86.9029 276.724 86.7572ZM91.6805 83.7197C91.5459 83.6188 91.3553 83.6524 91.2655 83.7869C90.9179 84.2801 90.5702 84.7733 90.2338 85.2665C90.1441 85.401 90.1777 85.5915 90.3123 85.6812C90.3684 85.7148 90.4244 85.7372 90.4805 85.7372C90.5814 85.7372 90.6712 85.6924 90.7272 85.6027C91.0637 85.1095 91.4113 84.6164 91.759 84.1344C91.8487 83.9999 91.8151 83.8205 91.6805 83.7197ZM274.885 83.6524C274.571 83.1368 274.245 82.6212 273.931 82.1168C273.842 81.9711 273.662 81.9375 273.516 82.0271C273.371 82.1168 273.337 82.2962 273.427 82.4419C273.741 82.9463 274.066 83.4506 274.38 83.9662C274.436 84.0559 274.537 84.112 274.638 84.112C274.694 84.112 274.75 84.1008 274.795 84.0671C274.93 83.9775 274.974 83.7869 274.885 83.6524ZM93.8113 80.8166C93.6767 80.7157 93.4861 80.7493 93.3963 80.8726C93.0375 81.3546 92.6786 81.8478 92.3197 82.3186C92.2188 82.4531 92.2524 82.6436 92.387 82.7333C92.4431 82.7669 92.4992 82.7893 92.5665 82.7893C92.6562 82.7893 92.7459 82.7445 92.8132 82.666C93.1608 82.1841 93.5197 81.7021 93.8786 81.2201C93.9683 81.0968 93.9347 80.9175 93.8113 80.8166ZM272.945 80.5924C272.619 80.088 272.272 79.5836 271.935 79.0905C271.845 78.956 271.655 78.9223 271.52 79.012C271.386 79.1017 271.352 79.2922 271.442 79.4267C271.778 79.9199 272.115 80.4243 272.44 80.9175C272.496 81.0071 272.597 81.052 272.687 81.052C272.743 81.052 272.799 81.0296 272.855 81.0071C273.001 80.9175 273.034 80.7381 272.945 80.5924ZM96.0206 77.9696C95.886 77.8687 95.7066 77.8911 95.5944 78.0144C95.2244 78.4852 94.8431 78.9559 94.473 79.4379C94.372 79.5724 94.3945 79.763 94.529 79.8639C94.5851 79.9087 94.6524 79.9311 94.7085 79.9311C94.7982 79.9311 94.8879 79.8863 94.944 79.819C95.3141 79.3483 95.6842 78.8663 96.0542 78.4067C96.1664 78.261 96.1552 78.0817 96.0206 77.9696ZM270.915 77.6109C270.567 77.1177 270.219 76.6245 269.86 76.1426C269.76 76.0081 269.58 75.9744 269.446 76.0753C269.311 76.1762 269.277 76.3555 269.378 76.49C269.726 76.972 270.085 77.4652 270.421 77.9472C270.477 78.0256 270.567 78.0705 270.668 78.0705C270.724 78.0705 270.791 78.0593 270.836 78.0144C270.982 77.9248 271.016 77.7454 270.915 77.6109ZM98.3196 75.201C98.1963 75.0889 98.0056 75.1114 97.8935 75.2347C97.5122 75.6942 97.1196 76.1538 96.7383 76.6245C96.6374 76.7478 96.6486 76.9384 96.7832 77.0505C96.8393 77.0953 96.9066 77.1177 96.9739 77.1177C97.0636 77.1177 97.1421 77.0841 97.2094 77.0056C97.5907 76.5461 97.972 76.0753 98.3645 75.627C98.4542 75.4925 98.443 75.3019 98.3196 75.201ZM268.795 74.6854C268.436 74.2035 268.066 73.7215 267.696 73.2507C267.595 73.1162 267.404 73.0938 267.281 73.1947C267.147 73.2956 267.124 73.4861 267.225 73.6206C267.595 74.0914 267.954 74.5733 268.324 75.0441C268.38 75.1226 268.47 75.1674 268.56 75.1674C268.627 75.1674 268.683 75.145 268.739 75.1114C268.862 75.0105 268.885 74.8199 268.795 74.6854ZM100.697 72.4885C100.574 72.3764 100.383 72.3876 100.271 72.5109C99.8673 72.9593 99.4635 73.4076 99.071 73.856C98.9589 73.9793 98.9701 74.1698 99.1047 74.2819C99.1607 74.3267 99.228 74.3604 99.3065 74.3604C99.385 74.3604 99.4747 74.3268 99.5308 74.2595C99.9233 73.8111 100.327 73.3628 100.731 72.9145C100.832 72.7912 100.821 72.6006 100.697 72.4885ZM266.563 71.8384C266.182 71.3676 265.801 70.8969 265.419 70.4373C265.318 70.314 265.128 70.2916 264.993 70.4037C264.87 70.5158 264.847 70.6951 264.96 70.8296C265.341 71.2892 265.722 71.7487 266.104 72.2195C266.16 72.298 266.249 72.3316 266.339 72.3316C266.406 72.3316 266.474 72.3092 266.53 72.2643C266.653 72.1523 266.675 71.9617 266.563 71.8384ZM103.164 69.8657C103.041 69.7536 102.85 69.7536 102.738 69.8769C102.323 70.314 101.897 70.7512 101.493 71.1883C101.381 71.3116 101.392 71.5022 101.505 71.6142C101.561 71.6703 101.639 71.6927 101.706 71.6927C101.785 71.6927 101.863 71.6591 101.931 71.5918C102.335 71.1547 102.749 70.7175 103.164 70.2916C103.288 70.1683 103.277 69.9778 103.164 69.8657ZM264.253 69.0699C263.861 68.6103 263.457 68.162 263.064 67.7136C262.952 67.5903 262.762 67.5791 262.638 67.6912C262.515 67.8033 262.504 67.9938 262.616 68.1171C263.008 68.5655 263.412 69.0138 263.805 69.4622C263.861 69.5294 263.95 69.563 264.029 69.563C264.096 69.563 264.163 69.5406 264.219 69.4846C264.343 69.3837 264.354 69.1932 264.253 69.0699ZM105.699 67.3213C105.587 67.198 105.396 67.198 105.273 67.3213C104.847 67.736 104.409 68.162 103.994 68.5879C103.882 68.7 103.882 68.8905 103.994 69.0138C104.05 69.0699 104.129 69.1035 104.207 69.1035C104.286 69.1035 104.364 69.0699 104.42 69.0138C104.847 68.5879 105.273 68.162 105.699 67.7472C105.822 67.6239 105.822 67.4334 105.699 67.3213ZM261.842 66.3686C261.427 65.9314 261.012 65.4831 260.597 65.0571C260.485 64.9338 260.294 64.9338 260.171 65.0459C260.048 65.158 260.048 65.3486 260.16 65.4719C260.575 65.8978 260.99 66.3349 261.393 66.7833C261.449 66.8505 261.528 66.8842 261.618 66.8842C261.696 66.8842 261.763 66.8617 261.82 66.8057C261.943 66.6824 261.954 66.4919 261.842 66.3686ZM108.334 64.8554C108.222 64.7321 108.032 64.7209 107.908 64.833C107.471 65.2365 107.022 65.6512 106.585 66.0659C106.462 66.178 106.462 66.3686 106.574 66.4919C106.63 66.5591 106.708 66.5815 106.787 66.5815C106.865 66.5815 106.933 66.5591 106.989 66.5031C107.426 66.0883 107.863 65.6848 108.301 65.2813C108.435 65.1692 108.447 64.9787 108.334 64.8554ZM259.341 63.7681C258.915 63.3422 258.489 62.9163 258.051 62.5015C257.928 62.3895 257.737 62.3895 257.625 62.5128C257.513 62.6361 257.513 62.8266 257.636 62.9387C258.063 63.3534 258.489 63.7793 258.915 64.2053C258.971 64.2613 259.049 64.2949 259.128 64.2949C259.206 64.2949 259.285 64.2613 259.341 64.2053C259.453 64.082 259.453 63.8914 259.341 63.7681ZM111.037 62.4679C110.925 62.3446 110.734 62.3222 110.611 62.4343C110.162 62.8266 109.703 63.2189 109.243 63.6224C109.119 63.7345 109.108 63.9251 109.22 64.0484C109.276 64.1156 109.366 64.1492 109.445 64.1492C109.512 64.1492 109.59 64.1268 109.647 64.0708C110.095 63.6785 110.555 63.275 111.004 62.8939C111.127 62.793 111.138 62.6024 111.037 62.4679ZM113.818 60.1813C113.717 60.0468 113.527 60.0356 113.392 60.1365C112.921 60.5064 112.45 60.8987 111.99 61.2798C111.867 61.3807 111.845 61.5712 111.946 61.7057C112.002 61.773 112.091 61.8178 112.181 61.8178C112.248 61.8178 112.316 61.7954 112.372 61.7506C112.832 61.3695 113.303 60.9884 113.762 60.6185C113.897 60.5064 113.919 60.3158 113.818 60.1813ZM256.739 61.2574C256.302 60.8427 255.853 60.4391 255.405 60.0356C255.281 59.9235 255.091 59.9348 254.979 60.0581C254.866 60.1813 254.878 60.3719 255.001 60.484C255.438 60.8763 255.887 61.291 256.324 61.6945C256.38 61.7506 256.459 61.773 256.526 61.773C256.605 61.773 256.683 61.7394 256.739 61.6833C256.874 61.56 256.863 61.3695 256.739 61.2574ZM116.678 57.9956C116.577 57.8611 116.387 57.8387 116.263 57.9396C115.781 58.2983 115.299 58.657 114.828 59.0268C114.693 59.1277 114.671 59.3183 114.772 59.4416C114.828 59.52 114.917 59.5537 115.007 59.5537C115.074 59.5537 115.131 59.5312 115.187 59.4864C115.658 59.1165 116.14 58.7578 116.622 58.3992C116.745 58.3095 116.768 58.1301 116.678 57.9956ZM254.059 58.8363C253.61 58.444 253.139 58.0517 252.679 57.6594C252.556 57.5585 252.365 57.5697 252.253 57.693C252.152 57.8163 252.164 58.0069 252.287 58.1189C252.747 58.5 253.207 58.8923 253.655 59.2846C253.711 59.3295 253.779 59.3631 253.857 59.3631C253.947 59.3631 254.025 59.3295 254.081 59.2622C254.193 59.1389 254.182 58.9484 254.059 58.8363ZM119.605 55.8996C119.516 55.7651 119.325 55.7315 119.19 55.8212C118.697 56.1574 118.203 56.5161 117.71 56.8636C117.575 56.9644 117.542 57.1438 117.643 57.2783C117.699 57.3567 117.788 57.4016 117.889 57.4016C117.945 57.4016 118.013 57.3792 118.069 57.3455C118.551 56.9981 119.044 56.6506 119.538 56.3031C119.661 56.2247 119.695 56.0341 119.605 55.8996ZM251.289 56.5161C250.818 56.135 250.347 55.7651 249.876 55.3952C249.741 55.2943 249.562 55.3168 249.45 55.4513C249.349 55.5858 249.371 55.7651 249.506 55.866C249.977 56.2247 250.448 56.6058 250.919 56.9757C250.975 57.0205 251.042 57.0429 251.109 57.0429C251.199 57.0429 251.289 57.0093 251.345 56.9308C251.435 56.8187 251.412 56.6282 251.289 56.5161ZM122.6 53.9045C122.51 53.77 122.319 53.7251 122.185 53.8148C121.68 54.1398 121.175 54.4761 120.671 54.8012C120.536 54.8908 120.491 55.0814 120.592 55.2159C120.648 55.3056 120.749 55.3504 120.839 55.3504C120.895 55.3504 120.951 55.3392 121.007 55.2943C121.501 54.9581 122.005 54.633 122.51 54.308C122.656 54.2295 122.689 54.0502 122.6 53.9045ZM248.429 54.308C247.947 53.9493 247.453 53.5906 246.971 53.2431C246.837 53.1423 246.646 53.1759 246.556 53.3104C246.455 53.4449 246.489 53.6355 246.624 53.7251C247.106 54.0726 247.599 54.4201 248.07 54.7787C248.126 54.8236 248.182 54.8348 248.25 54.8348C248.339 54.8348 248.429 54.7899 248.496 54.7115C248.586 54.5994 248.564 54.4089 248.429 54.308ZM125.672 52.0214C125.583 51.8757 125.403 51.8308 125.257 51.9205C124.742 52.2232 124.226 52.5482 123.721 52.862C123.575 52.9517 123.542 53.1311 123.62 53.2768C123.676 53.3664 123.777 53.4225 123.878 53.4225C123.934 53.4225 123.99 53.4113 124.035 53.3777C124.54 53.0638 125.056 52.75 125.571 52.4473C125.706 52.3464 125.751 52.1559 125.672 52.0214ZM245.491 52.2119C244.997 51.8757 244.493 51.5394 243.988 51.2032C243.853 51.1135 243.663 51.1471 243.573 51.2928C243.483 51.4273 243.517 51.6179 243.663 51.7076C244.156 52.0326 244.661 52.3689 245.154 52.7051C245.21 52.7388 245.267 52.7612 245.323 52.7612C245.424 52.7612 245.513 52.7163 245.569 52.6267C245.659 52.4922 245.625 52.3016 245.491 52.2119ZM128.801 50.2392C128.723 50.0935 128.543 50.0375 128.398 50.1271C127.87 50.4185 127.343 50.71 126.828 51.0126C126.682 51.0911 126.637 51.2816 126.715 51.4273C126.771 51.5282 126.872 51.573 126.973 51.573C127.018 51.573 127.074 51.5618 127.119 51.5282C127.635 51.2368 128.162 50.9341 128.689 50.6539C128.824 50.5643 128.88 50.3849 128.801 50.2392ZM242.474 50.228C241.969 49.9142 241.453 49.5891 240.938 49.2753C240.792 49.1856 240.612 49.2304 240.523 49.3761C240.433 49.5219 240.478 49.7012 240.624 49.7909C241.14 50.1047 241.655 50.4185 242.149 50.7324C242.194 50.766 242.25 50.7772 242.306 50.7772C242.407 50.7772 242.508 50.7324 242.564 50.6427C242.653 50.497 242.609 50.3177 242.474 50.228ZM131.986 48.5579C131.908 48.4122 131.728 48.3561 131.583 48.4234C131.044 48.6924 130.506 48.9726 129.979 49.2528C129.833 49.3313 129.777 49.5106 129.856 49.6564C129.912 49.7572 130.013 49.8133 130.125 49.8133C130.17 49.8133 130.226 49.8021 130.27 49.7797C130.798 49.4994 131.336 49.2192 131.863 48.9502C131.998 48.8942 132.065 48.7036 131.986 48.5579ZM239.379 48.3674C238.863 48.0647 238.325 47.7733 237.809 47.4819C237.663 47.4034 237.483 47.4594 237.405 47.594C237.326 47.7397 237.383 47.919 237.528 47.9975C238.044 48.2777 238.571 48.5803 239.087 48.883C239.132 48.9054 239.188 48.9278 239.233 48.9278C239.334 48.9278 239.435 48.8717 239.491 48.7821C239.569 48.6252 239.513 48.4458 239.379 48.3674ZM135.227 46.9999C135.16 46.8542 134.981 46.7869 134.824 46.8542C134.285 47.1008 133.736 47.3698 133.198 47.6276C133.052 47.6948 132.984 47.8742 133.063 48.0311C133.119 48.1432 133.22 48.1992 133.332 48.1992C133.377 48.1992 133.422 48.188 133.467 48.1656C134.005 47.9078 134.554 47.65 135.093 47.3922C135.227 47.3249 135.295 47.1456 135.227 46.9999ZM236.205 46.6188C235.678 46.3386 235.128 46.0584 234.601 45.7893C234.455 45.7109 234.276 45.7781 234.198 45.9239C234.119 46.0696 234.186 46.2489 234.332 46.3274C234.859 46.5964 235.398 46.8654 235.925 47.1456C235.969 47.168 236.014 47.1792 236.059 47.1792C236.171 47.1792 236.272 47.1232 236.328 47.0223C236.418 46.8766 236.362 46.6973 236.205 46.6188ZM138.525 45.5428C138.457 45.3858 138.289 45.3186 138.132 45.3858C137.582 45.6212 137.022 45.8566 136.472 46.1032C136.326 46.1704 136.248 46.3498 136.315 46.4955C136.36 46.6076 136.472 46.6748 136.596 46.6748C136.64 46.6748 136.674 46.6636 136.719 46.6524C137.268 46.4058 137.818 46.1704 138.368 45.9351C138.513 45.8678 138.592 45.6997 138.525 45.5428ZM232.975 45.0047C232.437 44.7469 231.887 44.4891 231.338 44.2425C231.192 44.1753 231.013 44.2425 230.945 44.3883C230.878 44.534 230.945 44.7133 231.091 44.7806C231.629 45.0272 232.179 45.285 232.717 45.5315C232.762 45.554 232.807 45.5652 232.852 45.5652C232.964 45.5652 233.076 45.4979 233.121 45.397C233.199 45.2513 233.132 45.072 232.975 45.0047ZM141.867 44.1977C141.81 44.0408 141.631 43.9623 141.474 44.0296C140.913 44.2425 140.353 44.4667 139.792 44.6909C139.635 44.7581 139.567 44.9263 139.624 45.0832C139.668 45.1953 139.781 45.2737 139.904 45.2737C139.938 45.2737 139.982 45.2625 140.016 45.2513C140.566 45.0272 141.126 44.803 141.687 44.59C141.844 44.534 141.923 44.3546 141.867 44.1977ZM229.689 43.514C229.14 43.2786 228.579 43.0432 228.018 42.819C227.861 42.7518 227.693 42.8302 227.626 42.9872C227.558 43.1441 227.637 43.3122 227.794 43.3795C228.343 43.6036 228.904 43.839 229.454 44.0744C229.487 44.0968 229.532 44.0968 229.566 44.0968C229.678 44.0968 229.79 44.0296 229.846 43.9175C229.914 43.7494 229.846 43.5812 229.689 43.514ZM145.253 42.976C145.197 42.819 145.029 42.7406 144.872 42.7966C144.311 42.9984 143.739 43.2001 143.167 43.4019C143.01 43.4579 142.932 43.6261 142.988 43.783C143.033 43.9063 143.145 43.9847 143.268 43.9847C143.302 43.9847 143.336 43.9735 143.369 43.9623C143.93 43.7606 144.502 43.5588 145.063 43.3571C145.22 43.301 145.309 43.1329 145.253 42.976ZM148.674 41.8551C148.629 41.6982 148.461 41.6085 148.293 41.6533C147.721 41.8327 147.137 42.0232 146.577 42.2026C146.42 42.2586 146.33 42.4267 146.386 42.5837C146.431 42.7069 146.543 42.7854 146.666 42.7854C146.7 42.7854 146.734 42.7854 146.756 42.7742C147.317 42.5949 147.9 42.4043 148.461 42.225C148.629 42.1801 148.719 42.012 148.674 41.8551ZM226.347 42.1577C225.786 41.9448 225.226 41.7318 224.654 41.53C224.497 41.474 224.329 41.5525 224.273 41.7094C224.216 41.8663 224.295 42.0344 224.452 42.0905C225.013 42.2922 225.585 42.5052 226.134 42.7182C226.168 42.7294 226.201 42.7406 226.246 42.7406C226.37 42.7406 226.482 42.6621 226.527 42.55C226.572 42.3819 226.493 42.2138 226.347 42.1577ZM152.128 40.8463C152.083 40.6894 151.915 40.5885 151.758 40.6333C151.175 40.7903 150.592 40.9584 150.02 41.1265C149.863 41.1714 149.773 41.3395 149.818 41.4964C149.851 41.6309 149.975 41.7094 150.109 41.7094C150.132 41.7094 150.165 41.7094 150.199 41.6982C150.771 41.53 151.354 41.3619 151.926 41.205C152.083 41.1714 152.173 41.0144 152.128 40.8463ZM222.949 40.9248C222.377 40.7342 221.805 40.5437 221.233 40.3643C221.076 40.3195 220.908 40.398 220.852 40.5549C220.807 40.7118 220.886 40.8799 221.043 40.936C221.615 41.1153 222.187 41.3059 222.747 41.4964C222.781 41.5076 222.815 41.5076 222.848 41.5076C222.972 41.5076 223.095 41.4292 223.129 41.3059C223.185 41.1489 223.106 40.9808 222.949 40.9248ZM155.616 39.9496C155.571 39.7927 155.414 39.6918 155.257 39.7254C154.674 39.8711 154.079 40.0169 153.507 40.1626C153.35 40.2074 153.249 40.3643 153.294 40.5325C153.328 40.667 153.451 40.7566 153.586 40.7566C153.608 40.7566 153.631 40.7566 153.664 40.7454C154.236 40.5997 154.831 40.454 155.403 40.3083C155.56 40.2747 155.661 40.1177 155.616 39.9496ZM219.506 39.8263C218.934 39.6582 218.351 39.49 217.768 39.3219C217.611 39.2771 217.443 39.3668 217.398 39.5349C217.353 39.6918 217.443 39.8599 217.611 39.9048C218.183 40.0617 218.766 40.2298 219.338 40.398C219.372 40.4092 219.394 40.4092 219.428 40.4092C219.562 40.4092 219.674 40.3307 219.719 40.1962C219.753 40.0393 219.663 39.8711 219.506 39.8263ZM159.126 39.165C159.092 39.0081 158.935 38.896 158.767 38.9296C158.487 38.9857 158.218 39.0529 157.937 39.1089C157.623 39.1762 157.309 39.2435 156.995 39.3219C156.838 39.3555 156.737 39.5237 156.771 39.6806C156.805 39.8151 156.928 39.916 157.062 39.916C157.085 39.916 157.107 39.916 157.13 39.9048C157.444 39.8375 157.747 39.7591 158.061 39.6918C158.341 39.6358 158.61 39.5685 158.879 39.5125C159.059 39.4788 159.171 39.3219 159.126 39.165ZM216.03 38.8624C215.447 38.7166 214.863 38.5709 214.28 38.4252C214.123 38.3916 213.955 38.4813 213.921 38.6494C213.888 38.8063 213.977 38.9744 214.146 39.0081C214.729 39.1426 215.312 39.2883 215.884 39.4452C215.906 39.4564 215.929 39.4564 215.962 39.4564C216.097 39.4564 216.22 39.3667 216.254 39.2322C216.288 39.0641 216.187 38.896 216.03 38.8624ZM162.659 38.4476C162.625 38.2907 162.468 38.1786 162.311 38.2123C161.728 38.3243 161.133 38.4364 160.539 38.5597C160.371 38.5933 160.27 38.7503 160.304 38.9184C160.337 39.0641 160.461 39.1538 160.595 39.1538C160.618 39.1538 160.64 39.1538 160.651 39.1426C161.234 39.0193 161.829 38.9072 162.412 38.7951C162.591 38.7727 162.692 38.6158 162.659 38.4476ZM212.508 38.0217C211.925 37.8984 211.331 37.7639 210.736 37.6518C210.579 37.6182 210.411 37.7191 210.389 37.8872C210.355 38.0553 210.456 38.2123 210.624 38.2459C211.207 38.358 211.802 38.4925 212.385 38.6158C212.407 38.6158 212.43 38.627 212.452 38.627C212.587 38.627 212.71 38.5261 212.744 38.3916C212.777 38.2123 212.676 38.0553 212.508 38.0217ZM166.214 37.8199C166.191 37.6518 166.034 37.5509 165.866 37.5734C165.272 37.6742 164.677 37.7751 164.083 37.8872C163.915 37.9208 163.814 38.0777 163.836 38.2347C163.859 38.3804 163.993 38.4813 164.128 38.4813C164.15 38.4813 164.161 38.4813 164.184 38.4813C164.767 38.3804 165.373 38.2683 165.956 38.1674C166.124 38.1338 166.236 37.9769 166.214 37.8199ZM208.976 37.3043C208.381 37.1923 207.787 37.0914 207.192 36.9905C207.035 36.9681 206.878 37.069 206.845 37.2371C206.822 37.4052 206.934 37.5509 207.092 37.5846C207.675 37.6854 208.269 37.7863 208.863 37.8872C208.886 37.8872 208.897 37.8872 208.92 37.8872C209.065 37.8872 209.189 37.7863 209.211 37.6406C209.245 37.4949 209.133 37.338 208.976 37.3043ZM169.769 37.2707C169.746 37.1026 169.589 36.9905 169.432 37.0129C168.838 37.1026 168.244 37.1923 167.649 37.2819C167.481 37.3043 167.369 37.4613 167.402 37.6294C167.425 37.7751 167.548 37.8872 167.694 37.8872C167.705 37.8872 167.728 37.8872 167.739 37.8872C168.333 37.7975 168.928 37.7079 169.511 37.6182C169.679 37.5846 169.791 37.4276 169.769 37.2707ZM173.346 36.8C173.324 36.6318 173.178 36.5197 173.01 36.5422C172.415 36.6094 171.821 36.6879 171.216 36.7663C171.047 36.7887 170.935 36.9345 170.958 37.1026C170.98 37.2483 171.103 37.3604 171.249 37.3604C171.26 37.3604 171.272 37.3604 171.294 37.3604C171.888 37.2819 172.494 37.2035 173.077 37.1362C173.245 37.1138 173.358 36.9681 173.346 36.8ZM205.409 36.7215C204.815 36.6318 204.221 36.5534 203.615 36.4749C203.447 36.4525 203.301 36.5646 203.278 36.7327C203.256 36.9008 203.368 37.0465 203.536 37.069C204.131 37.1474 204.725 37.2259 205.32 37.3156C205.331 37.3156 205.353 37.3156 205.364 37.3156C205.51 37.3156 205.645 37.2035 205.667 37.0578C205.69 36.9008 205.578 36.7439 205.409 36.7215ZM176.599 36.1498C176.004 36.2059 175.399 36.2619 174.804 36.3292C174.636 36.3516 174.524 36.4973 174.535 36.6542C174.558 36.8112 174.681 36.9232 174.838 36.9232C174.849 36.9232 174.86 36.9232 174.872 36.9232C175.466 36.856 176.072 36.8 176.655 36.7439C176.823 36.7327 176.935 36.587 176.924 36.4189C176.913 36.2619 176.767 36.1386 176.599 36.1498ZM201.832 36.2619C201.237 36.1947 200.632 36.1274 200.037 36.0714C199.869 36.0602 199.723 36.1723 199.712 36.3404C199.701 36.5085 199.813 36.6542 199.981 36.6654C200.576 36.7215 201.17 36.7887 201.764 36.856C201.776 36.856 201.787 36.856 201.798 36.856C201.944 36.856 202.079 36.7439 202.101 36.587C202.112 36.4301 201.989 36.2731 201.832 36.2619ZM180.199 35.8584C179.604 35.9033 178.999 35.9481 178.393 35.9929C178.225 36.0041 178.101 36.1498 178.113 36.318C178.124 36.4749 178.258 36.5982 178.415 36.5982H178.438C179.032 36.5534 179.638 36.5085 180.232 36.4637C180.4 36.4525 180.524 36.3068 180.513 36.1498C180.501 35.9705 180.367 35.8472 180.199 35.8584ZM198.232 35.9145C197.637 35.8696 197.032 35.8248 196.426 35.7912C196.258 35.78 196.112 35.9033 196.112 36.0714C196.101 36.2395 196.224 36.3852 196.393 36.3852C196.987 36.4189 197.593 36.4637 198.187 36.5085C198.198 36.5085 198.209 36.5085 198.209 36.5085C198.366 36.5085 198.501 36.3852 198.512 36.2283C198.523 36.0714 198.4 35.9257 198.232 35.9145ZM183.798 35.6567C183.204 35.6791 182.598 35.7127 181.993 35.7463C181.825 35.7575 181.701 35.892 181.713 36.0602C181.724 36.2171 181.858 36.3404 182.015 36.3404C182.027 36.3404 182.027 36.3404 182.038 36.3404C182.632 36.3068 183.238 36.2844 183.832 36.2507C184 36.2395 184.124 36.105 184.124 35.9369C184.101 35.78 183.967 35.6567 183.798 35.6567ZM194.632 35.6903C194.038 35.6567 193.432 35.6342 192.826 35.623C192.658 35.623 192.524 35.7463 192.512 35.9145C192.512 36.0826 192.636 36.2171 192.804 36.2283C193.398 36.2507 194.004 36.2731 194.598 36.2956H194.609C194.766 36.2956 194.901 36.1723 194.912 36.0153C194.924 35.836 194.8 35.6903 194.632 35.6903ZM187.41 35.567C186.815 35.5782 186.198 35.5894 185.604 35.6006C185.436 35.6006 185.312 35.7463 185.312 35.9145C185.312 36.0714 185.447 36.2059 185.615 36.2059H185.626C186.221 36.1947 186.826 36.1723 187.421 36.1723C187.589 36.1723 187.724 36.0378 187.712 35.8696C187.712 35.6903 187.578 35.567 187.41 35.567ZM191.021 35.567C190.426 35.5558 189.81 35.5558 189.215 35.5558C189.047 35.5558 188.912 35.6903 188.912 35.8584C188.912 36.0266 189.047 36.1611 189.215 36.1611C189.81 36.1611 190.415 36.1723 191.01 36.1723C191.178 36.1723 191.312 36.0378 191.312 35.8808C191.324 35.7127 191.189 35.5782 191.021 35.567Z" fill="#D8FFFB"/>
<path d="M211.981 114.454L211.297 113.905L220.437 101.967L223.734 101.833L211.981 114.454Z" fill="#699FF0"/>
<path d="M200.038 114.454L199.477 113.905L207.036 101.967L209.761 101.833L200.038 114.454Z" fill="#699FF0"/>
<path d="M148.248 87.4521C150.459 87.4521 152.251 85.6154 152.251 83.3497C152.251 81.084 150.459 79.2473 148.248 79.2473C146.037 79.2473 144.244 81.084 144.244 83.3497C144.244 85.6154 146.037 87.4521 148.248 87.4521Z" fill="#699FF0"/>
<path d="M195.081 138.642H154.337C153.9 138.642 153.53 138.273 153.53 137.835V133.991C153.53 133.543 153.889 133.184 154.337 133.184H190.326C190.763 133.184 191.133 133.554 191.133 133.991L195.081 138.642Z" fill="#699FF0"/>
<path d="M207.607 147.8C214.334 147.8 219.787 142.35 219.787 135.627C219.787 128.904 214.334 123.455 207.607 123.455C200.881 123.455 195.428 128.904 195.428 135.627C195.428 142.35 200.881 147.8 207.607 147.8Z" fill="#2B478B"/>
<path d="M207.608 141.826C211.033 141.826 213.809 139.05 213.809 135.627C213.809 132.204 211.033 129.429 207.608 129.429C204.182 129.429 201.406 132.204 201.406 135.627C201.406 139.05 204.182 141.826 207.608 141.826Z" fill="#85B2EF"/>
<path d="M145.029 118.444C143.313 117.895 141.485 117.604 139.579 117.604C138.244 117.604 136.932 117.749 135.676 118.029C128.465 119.621 122.869 125.551 121.759 132.926C121.545 134.349 122.645 135.616 124.08 135.616H124.159C124.932 135.616 125.572 135.022 125.65 134.26C126.334 127.176 132.323 121.627 139.579 121.627C141.743 121.627 143.807 122.121 145.635 123.006C150.334 125.27 153.575 130.068 153.575 135.627H157.601C157.612 127.579 152.319 120.753 145.029 118.444Z" fill="#699FF0"/>
<path d="M163.713 133.173L157.612 135.627C153.384 127.411 149.078 123.387 145.388 121.403C138.749 117.828 134.128 120.854 135.687 118.041L147.07 94.0317C148.136 92.5521 149.526 91.4201 151.085 90.6915C152.779 89.8957 154.663 89.5594 156.536 89.7275C158.711 89.9293 160.124 92.115 159.44 94.1886C157.949 98.6497 157.377 103.122 157.377 107.381C157.354 121.515 163.713 133.173 163.713 133.173Z" fill="#699FF0"/>
<path d="M157.489 92.485L152.891 90.7252C152.263 90.7252 151.074 91.2856 151.074 90.6692L151.758 79.4492C151.758 78.8215 152.274 78.3171 152.891 78.3171H155.851C156.479 78.3171 158.98 79.5165 158.812 81.7582L159.597 93.0678C159.597 93.6955 158.117 92.485 157.489 92.485Z" fill="#699FF0"/>
<path d="M235.757 102.382H205.152C204.266 102.382 203.537 101.654 203.537 100.768V99.6585C203.537 98.773 204.266 98.0444 205.152 98.0444H235.757C236.643 98.0444 237.371 98.773 237.371 99.6585V100.768C237.371 101.665 236.643 102.382 235.757 102.382Z" fill="#699FF0"/>
<path d="M139.579 147.8C146.305 147.8 151.758 142.35 151.758 135.627C151.758 128.904 146.305 123.455 139.579 123.455C132.852 123.455 127.4 128.904 127.4 135.627C127.4 142.35 132.852 147.8 139.579 147.8Z" fill="#2B478B"/>
<path d="M145.792 135.627C145.792 136.67 145.534 137.656 145.074 138.519C145.04 138.575 145.018 138.631 144.984 138.687C143.919 140.57 141.9 141.837 139.59 141.837C136.158 141.837 133.388 139.057 133.388 135.638C133.388 133.06 134.97 130.841 137.213 129.911C137.235 129.9 137.257 129.888 137.28 129.877C137.998 129.586 138.771 129.429 139.59 129.429C143.011 129.418 145.792 132.197 145.792 135.627Z" fill="#AFCDFB"/>
<path d="M184.18 111.114C184.18 111.114 188.924 121.683 178.326 133.172H202.807L199.488 108.02L184.18 111.114Z" fill="#699FF0"/>
<path d="M232.157 137.028C232.157 137.477 231.977 137.869 231.686 138.172C231.394 138.463 230.99 138.642 230.553 138.642H191.492C190.606 138.642 189.877 137.914 189.877 137.028L190.393 111.495L203.548 110.688C221.065 110.688 232.157 119.52 232.157 137.028Z" fill="#699FF0"/>
<path d="M152.263 83.1143C152.263 83.5066 152.229 83.8989 152.162 84.2688C151.623 87.1942 149.055 89.4024 145.971 89.4024V76.8262C149.437 76.8262 152.263 79.6396 152.263 83.1143Z" fill="white"/>
<path d="M162.21 83.9661C162.188 83.9661 161.93 83.9101 161.896 83.9101L154.965 81.9934C154.685 81.9373 154.494 81.6011 154.539 81.2312C154.584 80.8613 154.831 80.6147 155.111 80.6595L162.064 82.0158C162.345 82.0718 162.558 82.4866 162.625 82.8452C162.726 83.4505 162.446 83.9661 162.21 83.9661Z" fill="#2B478B"/>
<path d="M145.455 121.885C145.523 122.278 145.579 122.647 145.635 123.006C145.612 122.995 145.601 122.984 145.579 122.984C143.762 122.121 141.721 121.627 139.579 121.627C132.323 121.627 126.334 127.176 125.65 134.26C125.572 135.033 124.932 135.616 124.159 135.616H124.08C122.645 135.616 121.545 134.338 121.759 132.926C122.869 125.573 128.431 119.666 135.609 118.041C135.631 118.029 135.654 118.029 135.676 118.018L147.059 94.0091C148.124 92.5296 149.515 91.3975 151.074 90.6689C149.134 93.9307 143.773 104.377 145.029 118.444C145.119 119.408 145.231 120.394 145.377 121.392C145.399 121.56 145.433 121.717 145.455 121.885Z" fill="#7BCEC6"/>
<path d="M210.333 106.126V109.914C210.333 110.576 209.794 111.114 209.133 111.114H184.169C183.507 111.114 182.969 110.576 182.969 109.914V106.126C182.969 105.465 183.507 104.927 184.169 104.927H209.133C209.794 104.927 210.333 105.465 210.333 106.126Z" fill="#1C5F44"/>
<path d="M229.061 138.642H191.481C191.481 138.642 189.193 124.732 197.649 120.036C199.69 118.904 202.247 118.512 205.028 118.792C213.82 119.644 224.878 127.086 229.061 138.642Z" fill="#578DDD"/>
<path d="M202.438 111.114H184.18C183.518 111.114 182.98 110.576 182.98 109.914V106.126C182.98 105.465 183.518 104.927 184.18 104.927H196.684C197.772 106.462 199.813 109.063 202.438 111.114Z" fill="#C4D9ED"/>
<path d="M229.061 138.642H213.45C204.03 133.867 204.602 122.334 205.028 118.792C213.82 119.644 224.878 127.086 229.061 138.642Z" fill="#5C96E3"/>
<path d="M144.984 138.687C143.919 140.57 141.9 141.837 139.59 141.837C136.158 141.837 133.388 139.057 133.388 135.639C133.388 133.061 134.97 130.841 137.213 129.911C137.74 132.579 139.478 137.555 144.984 138.687Z" fill="#85B2EF"/>
<path d="M145.455 121.885C145.523 122.278 145.579 122.647 145.635 123.006C145.612 122.995 145.601 122.984 145.579 122.984C143.336 120.91 138.581 119.061 135.598 118.052C135.62 118.041 135.642 118.041 135.665 118.029L147.048 94.0204C148.113 92.5408 149.504 91.4087 151.063 90.6802C149.123 93.9419 143.762 104.388 145.018 118.455C145.108 119.419 145.22 120.406 145.366 121.403C145.399 121.56 145.433 121.717 145.455 121.885Z" fill="#7BCEC6"/>
<path d="M206.052 98.0588H225.51V82.0304H206.052V98.0588Z" fill="#6BB7BF"/>
<path d="M235.241 82.0271H215.783V98.0556H235.241V82.0271Z" fill="#6BB7BF"/>
<path d="M206.071 93.9981H209.155L208.886 93.1238L209.155 92.5073H206.071V93.9981Z" fill="#2F6F68"/>
<path d="M235.241 92.653V98.0556H215.783V82.0271H219.226L235.241 92.653Z" fill="#6BB7BF"/>
<path opacity="0.4" d="M235.241 85.625H232.157L232.426 84.7508L232.157 84.1343H235.241V85.625Z" fill="#2F6F68"/>
<path d="M235.241 95.4776H232.157L232.426 94.6145L232.157 93.998H235.241V95.4776Z" fill="#2F6F68"/>
<path d="M186.344 67.5005C189.709 68.8679 195.854 65.9425 195.854 65.9425C195.854 65.9425 193.813 64.1379 193.421 60.7192C193.398 60.5511 193.387 60.3717 193.376 60.1924C193.017 60.0691 192.355 59.8337 191.638 59.5759L188.655 61.6047C188.655 61.6047 188.587 62.6023 188.688 64.3508C188.711 64.6535 188.733 64.9785 188.756 65.3372C187.23 66.0209 186.344 67.5005 186.344 67.5005Z" fill="#FFB27D"/>
<path d="M188.666 61.605C188.666 61.605 188.598 62.6026 188.699 64.3511C191.413 63.8579 192.905 61.6722 193.432 60.7307C193.41 60.5626 193.398 60.3832 193.387 60.2039C193.028 60.0806 192.367 59.8452 191.649 59.5874L188.666 61.605Z" fill="#ED975D"/>
<path d="M188.116 63.0508C188.116 63.0508 193.903 62.8602 193.735 59.2622C193.567 55.6642 194.195 53.2095 190.483 53.1759C186.782 53.1423 186.12 54.5546 185.896 55.7651C185.66 56.9869 186.602 63.0059 188.116 63.0508Z" fill="#FFB27D"/>
<path d="M193.432 60.7195C193.432 60.7195 193.656 59.5202 193.006 58.7356C193.006 58.7356 193.432 57.5587 192.972 57.3009C192.524 57.0431 192.288 58.0406 192.086 57.8501C191.884 57.6596 191.01 56.7741 190.741 55.5971C190.471 54.4202 186.457 55.2609 185.986 55.4066C185.515 55.5523 188.655 49.6901 192.041 51.08C195.428 52.4699 195.686 54.2073 195.294 55.6196C194.901 57.0207 194.935 60.4281 193.432 60.7195Z" fill="#2B478B"/>
<path d="M198.972 95.1076C198.972 95.1076 198.568 102.18 196.965 104.198C195.35 106.215 164.476 105.431 164.476 105.431C164.476 105.431 164.341 100.891 165.552 99.7256C166.763 98.5599 172.393 95.2085 190.404 93.3142L198.972 95.1076Z" fill="#6BB7BF"/>
<path d="M199.376 80.3121C198.871 86.3873 199.533 95.6233 198.961 97.2261C198.467 98.6048 192.849 97.7865 190.617 97.327C189.787 97.1589 188.778 96.9123 187.746 96.6208C184.853 95.8138 181.701 94.6705 181.354 93.8187C181.342 93.785 181.331 93.7514 181.32 93.7178C181.286 93.5945 181.298 93.4824 181.32 93.3591C181.399 93.034 181.668 92.6978 181.814 92.1037C181.87 91.8908 181.903 91.6554 181.914 91.3752C181.971 90.2767 181.959 88.9989 182.004 87.6202C182.004 87.4969 182.015 87.3624 182.015 87.2391C182.015 87.071 182.015 86.8805 182.038 86.7123V86.6451C182.038 86.6114 182.038 86.5778 182.038 86.5442C182.083 84.8517 182.184 83.0695 182.296 81.2985C182.329 80.7493 182.374 80.2001 182.419 79.6508C182.43 79.4603 182.453 79.2697 182.464 79.0792C182.498 78.7205 182.52 78.373 182.554 78.0256C182.8 75.3018 183.148 72.8808 183.597 71.3564C184.337 68.8568 185.952 67.2316 187.432 66.0434L188.498 65.2252C189.686 65.4606 191.099 65.3037 192.378 64.7656C193.757 64.1716 194.228 63.7568 194.475 63.9138C197.682 66.1219 199.97 72.8808 199.376 80.3121Z" fill="#2F6F68"/>
<path d="M175.578 128.7C175.578 128.7 175.309 133.105 174.457 133.161C174.345 133.173 170.139 133.173 170.139 133.173L164.767 133.139C164.767 133.139 164.801 131.85 166.371 131.57C167.941 131.301 170.565 130.191 171.518 128.117C172.517 125.932 175.578 128.7 175.578 128.7Z" fill="#1C4575"/>
<path d="M176.7 128.98C176.7 128.98 175.657 129.776 173.548 129.877C172.999 129.899 172.505 129.877 172.068 129.821C170.902 129.675 170.173 129.339 170.173 129.339L164.476 105.431C164.476 105.431 170.655 100.039 173.874 103.391C174.288 103.828 174.647 104.59 174.961 105.576C176.991 112.167 176.7 128.98 176.7 128.98Z" fill="#6BB7BF"/>
<path d="M190.393 75.6941C190.393 75.6941 186.4 90.3215 181.825 92.1037C181.881 91.8907 181.914 91.6554 181.926 91.3751C181.982 90.2767 181.97 88.9989 182.015 87.6202C182.015 87.4969 182.027 87.3624 182.027 87.2391C182.027 87.071 182.027 86.8804 182.049 86.7123V86.6451C182.049 86.6114 182.049 86.5778 182.049 86.5442C182.094 84.8517 182.195 83.0695 182.307 81.2985C182.341 80.7493 182.385 80.2001 182.43 79.6508C184.449 77.2297 187.174 75.4924 190.393 75.6941Z" fill="#7BCEC6"/>
<path d="M166.416 81.3321C166.416 81.3321 164.677 81.4666 164.229 81.3321C163.78 81.1976 161.683 79.9422 160.92 80.2113C160.158 80.4803 158.24 82.453 158.722 83.3385C158.722 83.3385 159.62 83.3609 160.449 82.509C161.279 81.6572 162.177 82.24 162.087 82.3521C161.997 82.4642 160.696 82.9798 160.92 83.204C161.145 83.4282 162.849 83.3833 163.242 83.1143C163.646 82.8453 166.64 83.1816 166.64 83.1816L166.416 81.3321Z" fill="#FFB27D"/>
<path d="M190.393 67.9824C190.393 67.9824 179.571 77.2072 176.722 78.0927C173.874 78.9782 163.803 80.9397 163.803 80.9397C163.803 80.9397 163.522 83.3272 164.464 84.2126C164.464 84.2126 177.395 83.4617 179.01 83.1254C180.625 82.7891 192.625 76.5683 193.6 76.0975C194.587 75.6268 194.43 67.2202 190.393 67.9824Z" fill="#2F6F68"/>
<path d="M176.7 128.98C176.7 128.98 175.657 129.776 173.548 129.877C172.999 129.899 172.505 129.877 172.068 129.821C175.32 125.707 174.95 105.576 174.95 105.576C176.991 112.167 176.7 128.98 176.7 128.98Z" fill="#5AA9AD"/>
<path d="M196.146 55.8548V55.9108C196.146 56.0677 196.079 56.191 195.978 56.2471C195.944 56.2695 195.91 56.2807 195.877 56.2807H182.15C181.993 56.2807 181.87 56.1126 181.87 55.9108V55.8548C181.87 55.653 181.993 55.4849 182.15 55.4849L185.212 55.0926C185.492 52.8172 187.006 50.9566 189.013 50.3177C189.496 50.1607 190.011 50.0823 190.55 50.0823C193.365 50.0823 195.675 52.4025 195.91 55.3728C195.91 55.4064 195.91 55.44 195.922 55.4737C195.955 55.4961 195.978 55.5185 195.978 55.5185C196.067 55.5745 196.146 55.6978 196.146 55.8548Z" fill="#D8FFFB"/>
<path d="M191.503 55.3726C192.524 49.9588 189.126 50.3062 189.002 50.3286C189.484 50.1717 190 50.0933 190.539 50.0933C193.354 50.0933 195.664 52.4135 195.899 55.3838H191.503V55.3726Z" fill="#D8FFFB"/>
<path d="M209.133 147.789C209.133 147.789 220.404 144.953 223.577 141.523C226.751 138.093 229.499 141.983 227.446 144.157C225.383 146.332 209.133 147.789 209.133 147.789Z" fill="#EDF4FF"/>
<path d="M253.868 140.167H238.078C237.685 140.167 237.371 139.853 237.371 139.461C237.371 139.068 237.685 138.755 238.078 138.755H253.868C254.261 138.755 254.575 139.068 254.575 139.461C254.575 139.842 254.261 140.167 253.868 140.167Z" fill="#EDF4FF"/>
<path d="M246.343 137.006H237.753C237.54 137.006 237.371 136.838 237.371 136.625C237.371 136.412 237.54 136.244 237.753 136.244H246.343C246.556 136.244 246.725 136.412 246.725 136.625C246.725 136.838 246.556 137.006 246.343 137.006Z" fill="#EDF4FF"/>
<path d="M83.4153 110.486C78.3911 119.543 70.6641 129.025 70.6641 129.025C70.6641 129.025 53.6514 108.155 53.6514 98.7617C53.6514 93.4376 56.0962 88.6851 59.9428 85.5579C60.5933 88.6291 61.6363 92.1486 63.3185 95.5561C62.926 96.4976 62.7129 97.5176 62.7129 98.5936C62.7129 102.987 66.2792 106.529 70.6641 106.529C71.2585 106.529 71.8417 106.462 72.4024 106.328C75.3631 108.345 78.9967 109.836 83.4153 110.486Z" fill="#D8FFFB"/>
</svg>
